<svg xmlns="http://www.w3.org/2000/svg" viewBox="0 0 1665.5 1108.21"><defs><style>.cls-1,.cls-20{fill:#e1e1f4;}.cls-2,.cls-3{fill:#adacf9;}.cls-2{opacity:0.4;}.cls-4{fill:#9595eb;}.cls-5{fill:#7676d6;}.cls-6{fill:#f1c930;}.cls-20,.cls-6,.cls-7,.cls-8{fill-rule:evenodd;}.cls-7{fill:#ebae39;}.cls-8{fill:#e0962f;}.cls-9{fill:#2d2355;}.cls-10{fill:#e9ac84;}.cls-11{fill:#d89a80;}.cls-12{fill:#24228e;}.cls-13{fill:#2f299e;}.cls-14{fill:#eebe6a;}.cls-15{fill:#eea886;}.cls-16{fill:#2b3b57;}.cls-17{fill:#3e3b9b;}.cls-18{fill:#2b2b84;}.cls-19{fill:#7162ea;}</style></defs><g id="Layer_2" data-name="Layer 2"><g id="_ëîé_1" data-name="‘ëîé_1"><path class="cls-1" d="M144.68,749.45C166.29,671.94,97.6,669,96.09,569.07c-.62-40.84,21.76-82.44,75.6-101.53,26.46-9.37,138.69-2.58,157-23.58,59.05-67.64-14.64-157.47,0-212.59C360.85,110.3,471.25,65.8,596.47,68.93c90.27,2.25,171.89,5,254.19,81.64C907,203,943.57,267.51,995.85,321.57c55.37,57.23,122.83,84.69,198.59,103.08,71.65,17.4,149.58,38.09,204.42,90.24,51.53,49,44,100.27,21.93,160.45-24.37,66.36,28.46,111.51,83.55,137.35,46.39,21.75,108.13,19.86,129.67,71.91,23.35,56.43-46,57.4-110.5,57.4S624,937,390.6,943.94c-62.82,1.86-263.24,19-291.59-59.34C79.72,831.3,129.59,803.57,144.68,749.45Z"/><path class="cls-2" d="M1458.8,978.43c-.15,18.18-265.38,30.81-592.45,28.19-142-1.14-272.25-5-374.22-10.41-82.95-7.45-114.19-7.42-155-12-9.81-1,8.34,1,0,0-40.11-4.77-62.68-10-62.64-15.28.15-18.19,265.39-30.82,592.41-28.2S1458.94,960.23,1458.8,978.43Z"/><path class="cls-3" d="M543.1,900.06q-13.27-15.69-27.77-30.1c-20-14.19-44.35-17.45-66.91-7.45-12.09,5.35-27.55,11.59-37.68-1.23-8.49-10.73-2-24.9,9.27-29.89,28.2-12.44,61.57,9,80.87,24.88a389.28,389.28,0,0,0-44.44-34.62c-25.7-10.6-37.05-4.95-53.4-14.16-10.32-5.81-16.4-16.28-7-25.37,19.25-18.61,51.65,20.76,63.95,39.24,4,2.46,7.86,5,11.7,7.69-16-16.54-22.43-40-9.4-53.81,9-9.5,22.51-4.34,28.42,5.92,9.74,16.88-11.7,36.33,1.64,63.43q13.51,11,25.95,23.37c-19.55-28.8-28.84-70.92-4.8-87.6,15.48-10.75,28.12.75,33.47,17.06,8.79,26.77-18.67,50.29-8,92.46,8.08,9.14,24.55,28.93,32,38.54-13-25.69-31.33-68.62-16.19-94.42,7.88-13.43,26.55-19.45,38.76-7.28,14.58,14.55,0,27.4-8.47,41.76-13.33,22.64-14.14,49-5.38,72.69A252,252,0,0,0,543.1,900.06Zm-36.63,29.57c50.49-9.31,88,18.09,86.81,17-1.94-1.84-37.92-37.28-53.69-45.64-22.9-11.2-48.46-20.11-71.25-8.35-13.83,7.14-20.85,25.46-9.36,38.3C472.72,946.34,490.08,932.65,506.47,929.63Z"/><path class="cls-3" d="M1001.14,750.54c.6-12.59,31.7-113.58,46.19-107.15,12.85,5.47,10.05,37.1,12.25,49.71.69-3.63,8.71-25.63,9.47-29.63s1.4-8.22,2.21-12.32,1.7-8.15,2.72-12a118.36,118.36,0,0,1,3.1-11.43,64,64,0,0,1,4.16-9.81,32.39,32.39,0,0,1,5.23-7.9,21.49,21.49,0,0,1,16-7c6.28-.05,21.44,31.33,25.5,37.54.06-8.26-8.64-42.7-6.47-49.86a43.15,43.15,0,0,1,11.23-18c6.22-5.73,16.82-4.77,23.5,1.69.09-9.17,1.08-11.86,3.68-19.84,2.32-8.14,4.63-15,14.67-17.24,12.25-2.69,24.6,11.18,29.21,20.69-1-12,2-23.25,4.49-27.89s5-9.23,8-13.55a35.82,35.82,0,0,1,8.36-8.5,46.1,46.1,0,0,1,10.91-6.19,51,51,0,0,1,25.69-3.45c8.52,1.22,16.37,5.11,21.62,12.8a37.44,37.44,0,0,1,5.68,14.5,53.82,53.82,0,0,1,.9,9.6,81.68,81.68,0,0,1-1,11.12c-1,5.87-6.22,18.21-8.54,23.79s-15.32,20.25-18.56,25.58c30.18-13.88,47.46-4.47,47.1,9.37.57,9.74-6.59,12.73-12.91,21.36-6.71,8.41-46.46,20-61.24,22.45,2.25,1.18,37.74.15,47.36,10.84,5.36,9.38,3.78,19.3-14.67,33.72-24.56,14-65.39,1.33-72.78,4.18,10.37,1.4,55.12,11.91,55.78,21.6.65,8.09-2.47,15.49-7.87,22.24a67.15,67.15,0,0,1-9.59,9.65,103.75,103.75,0,0,1-12.42,8.25c-4.46,2.55-9.15,4.92-14,7.07s-10,3.9-15,5.56-9.93,3.18-14.73,4.47-40.38-3.61-44.76-2.67c13.74,2.09,60.26,11.23,63,25.94.89,35.5-119.32,26.78-112.2,34.37-20.53,23.33,49.25,18,48,41.78-1,25.71-28.54,30.49-36.76,33.29-24.41,8.27-48.32,8.3-70.28,4.5s-36.19-4.34-66.83-11.41c-33.52-7.18-65.93-18.56-77.27-24.74s-6.19-2.23-6.29-2.7c-.33-.29,11-15,18.91-33.28,9.89-29.48,13-33.19,18.4-53.05,10.69-39.79,31.45-85.94,51.85-112.16C1008.55,642,1001.14,750.54,1001.14,750.54Z"/><path class="cls-4" d="M1184.9,641.88c9.78-.23,19-2.63,28.56-5.38,0,0,2.25.24.16,1.61s-8.58,3.73-12,5.49c-7,3.44-16,6.62-23.73,6.39a962.68,962.68,0,0,1-70.57,72.32,155.89,155.89,0,0,0,26,4.2,149,149,0,0,0,26.56-.68c3.49,7.61-7.43,4.94-20.5,6.88-13.44,1.68-29.17-.28-39.27-3.18-.19-.06-.3-.18-.48-.25-4,3.4-7.74,7-11.8,10.3l-12,10c-8.22,6.37-16.27,13-24.77,18.93-8.29,6.27-17,11.84-25.64,17.66-8.73,5.61-17.65,11-26.64,16.19,16.3,8.79,36.4,14.53,54.36,17.31,3.05.26,4.77,6.14-23-.89-14.36-1.6-31.2-5.32-40.13-10.4a4.33,4.33,0,0,1-.7-.64c-29.56,16.75-61.63,33.39-90.62,55a268.75,268.75,0,0,0-40.14,36.32c-11.89,13.53-22.17,28.48-29.37,44.82-1.25,2.66-3.65.66-5.32-2.88s-2.58-8.73-.91-11.49c1.15-2.29,5.06-7.5,9.27-12.28s8.73-9.13,10.26-11C857.52,889,873.92,875,890.67,862.5s34.05-23.36,51.42-33.81c34.75-20.93,70.14-39.7,104-64.78-.35-.23,1.34-5,3.87-11.73s5.53-15.94,8.38-24.6c2.65-8.94,2.64-21.42,4.29-27.47s5.48-5.21,5.67-3.73c-.48,4.76-.84,9.64-1.18,14.6s-.89,9.75-1.45,14.71a134.62,134.62,0,0,1-6.06,29.33l11.22-8.66,10.7-8.93,5.3-4.42,5.12-4.61c3.39-3.07,6.88-6,10.23-9.15,13.39-12.51,26.49-25.41,40-39.45-.2-.1-.29-3.61-.24-8.91s.44-12.22,1-19.34a101.88,101.88,0,0,1,3.19-20.32c1.56-6,.86-14.42,7.9-12.54a90,90,0,0,0-4.42,16.11,93,93,0,0,0-2,14.76c-.37,9.35.22,16.92,1.9,21.6,5.92-6.91,13.88-15.77,22.62-25.29,4.2-4.87,8.88-9.73,13.22-14.81s8.84-10.09,13-15,8-9.73,11.74-14.07c21-34.57,18.55-19.32,15.78-14.73-2.94,4.51-7.11,10.67-11.75,17.35C1204.56,617.77,1192.53,632.68,1184.9,641.88Z"/><path class="cls-3" d="M1138.15,946.54c8.77-23.73,8-50.06-5.38-72.69-8.45-14.36-23-27.22-8.46-41.76,12.2-12.17,30.87-6.16,38.75,7.27,15.14,25.81-3.17,68.73-16.18,94.43,7.47-9.61,23.94-29.4,32-38.54,10.67-42.17-16.79-65.69-8-92.46,5.36-16.31,18-27.81,33.48-17.06,24,16.68,14.75,58.79-4.8,87.6Q1212,861,1225.52,850c13.35-27.1-8.09-46.55,1.64-63.43,5.92-10.26,19.43-15.42,28.43-5.92,13,13.76,6.6,37.27-9.4,53.81,3.84-2.64,7.72-5.23,11.7-7.69,12.3-18.48,44.69-57.86,63.95-39.24,9.41,9.09,3.33,19.56-7,25.37-16.36,9.21-27.7,3.55-53.4,14.16A388.4,388.4,0,0,0,1217,861.64c19.3-15.87,52.67-37.32,80.87-24.88,11.31,5,17.75,19.16,9.27,29.89-10.14,12.82-25.59,6.58-37.69,1.22-22.56-10-46.94-6.74-66.91,7.46q-14.52,14.38-27.76,30.09A253,253,0,0,0,1138.15,946.54Zm120.75-10.18c11.49-12.84,4.48-31.16-9.36-38.3-22.78-11.76-48.34-2.85-71.24,8.34-15.78,8.37-51.75,43.8-53.7,45.65-1.16,1,36.33-26.36,86.82-17C1227.8,938,1245.17,951.7,1258.9,936.36Z"/><path class="cls-3" d="M624.08,594.52c53.88,69.62,76.25,139.36,84.83,190.67S712.68,870,712.68,870s-31.17-4-74.7-24.61S538.64,788,487.1,721.44c-24.58-31.78-45.66-75.21-56.45-115.4s-11.14-77.24,7.1-95.65,51.82-14.33,87.5,3S598.45,561.37,624.08,594.52Z"/><path class="cls-4" d="M639.41,765.25q-37.56-50.78-76.06-100.71-.21-64.32-1.94-129.47l-5.29-3.66q1.75,63.58,2,126.41Q499.83,582.37,439.34,509c-.53.48-1.09.9-1.59,1.41s-.94,1.08-1.42,1.62q60.36,73.37,118.7,148.7Q498.5,650,442.37,641.13l2.47,6.08q57.44,9.21,115.39,20.2,38.46,49.89,76,100.62-64.15-11.53-127.71-20.89l6,6.62q63,9.39,126.63,21,34.73,47.06,68.61,94.84l2.91.45s.12-1.11.35-3.14Q679.12,819,644.35,771.93,647.88,702,649.56,631c-1.68-2.63-3.39-5.28-5.1-8Q642.86,694.71,639.41,765.25Z"/><path class="cls-5" d="M1295.56,955.12c-16.77-10.81-69.77-1.08-69.77-1.08s12.34-4.95,12.28-11.33-4.9-12-10.7-14.64-12.43-2.84-18.8-2.48a119.91,119.91,0,0,0-37.86,8.47A11,11,0,1,0,1158,916.24c8.15-11,20.73-59.89-18-81.42-48.48-27-85.3-4.78-93.16,11.47-4-15.95-22.27-28-34.32-31-27.48-6.83-45.38-4.8-71,7.18-7.54,3.52,2.14-18.05-74.86-34.05-51-4-82.49,32.31-90.26,28.68-25.65-12-43.55-14-71-7.18-12.05,3-30.34,15.06-34.33,31-7.85-16.25-44.67-38.46-93.16-11.47-38.67,21.53-26.09,70.39-18,81.42-4.63-3.82-12.43-2.79-15.92,2.09s-1.93,12.59,3.19,15.73a119.91,119.91,0,0,0-37.86-8.47c-6.38-.36-13-.17-18.8,2.48s-10.65,8.25-10.7,14.64,12.27,11.33,12.27,11.33-53-9.73-69.76,1.08c-19.8,12.77-8.31,16.32-4.67,16.28,100.67-1.38,319.93.54,438-.35v.73c108.62,1.48,336,3.5,444.58,5C1303.87,971.44,1315.36,967.89,1295.56,955.12Z"/><polygon class="cls-6" points="587.51 590.55 1458.64 214.43 361.64 479.16 587.51 590.55"/><polygon class="cls-7" points="1458.64 214.43 587.51 590.55 692.94 838.18 1458.64 214.43"/><polygon class="cls-8" points="710.29 639.76 692.94 838.18 917.52 655.3 710.29 639.76"/><polygon class="cls-6" points="1458.64 214.43 710.29 639.76 933.32 828.6 1458.64 214.43"/><path class="cls-9" d="M540.4,513.3c10.56-5.18,55.57,27-4,84.28C516,617.15,465,628.23,449.57,620c0,0-.2-101.27,42.46-116C527.64,491.59,540.4,513.3,540.4,513.3Z"/><path class="cls-10" d="M496.64,618.41c10.61,3.48,18.4,49.44,29,44,17.93-5.42-1.26-67.63-1.26-67.63,7.47-.85,23.27,6.82,26.16-11.82,3.29-21.21-3.82-49.2-8.57-63.68-3.05-9.29-9.41-13.27-26.2-10.51S490,521.09,485.16,542.56c-4,17.62,8.44,49,8.44,49C493.57,598.35,496.64,618.41,496.64,618.41Z"/><path class="cls-9" d="M408.58,651.79c29.66-28.51-28.75-50.28,32.15-85.26,26.84-15.42,10.3-28.43,31.37-52.21,9.79-11.06,21.69-21.18,39.78-19.79,14.75,1.14,20.49,6.37,27,15.46a19.59,19.59,0,0,1,2.51,4.78l5.21,5.64S538.33,558,522.7,565.88c-12.94,6.51-7.07,20.9-13.15,33.85-.84,5.66-5.26,11.12-17.84,13.32-20.26,3.53-25.56,10.7-21.18,36.48,3.56,20.9,24.71,55.63-.08,76.07-19.05,15.7-56.85,38.26-76.34-3.93C374,678.19,391.52,668.18,408.58,651.79Z"/><path class="cls-2" d="M323.72,1095.77c0,5.13,69.38,9.78,155,10.37s155.14-3.11,155.17-8.24-69.38-9.79-155-10.37S323.76,1090.63,323.72,1095.77Z"/><path class="cls-11" d="M379.64,489.41c2.38-5.24,24-13,30-2,.91,2.21-8.15,4.55-9,9-1.82,9.47-6.76,12.41-4.54,18s-10.87,5.84-10.87,5.84l-3.53-4.65S376.49,496.34,379.64,489.41Z"/><path class="cls-10" d="M380.87,1021.66,373,1037.45l-5.08,6.29c-1.89,2.34-2.73,8.14-.37,10,12.08,9.57,47.29,33.87,54,36.39,0,0,2.41-7.17-2-10.26s-26.48-33-26.48-33l5.57-13.8Z"/><path class="cls-9" d="M376.1,1066.78c-15.32-6.21-17.24-17.07-5.5-26.94.27,11.88,15.38,26.74,27.11,29.33,3.35.73,4.32-4.86,7.89-5.75,1.52,1.41,4.14,4.46,5.56,6,2.63,1.68,16.44,17.12,14.75,20.44C421.32,1098.91,380.75,1070.91,376.1,1066.78Z"/><path class="cls-10" d="M534.09,1047.57l-1.55,17.58-2.44,7.71c-.9,2.86.45,8.57,3.32,9.44,14.74,4.49,56.4,14.24,63.53,14.14,0,0-.39-7.55-5.59-8.82s-36.72-21.07-36.72-21.07l.13-14.88Z"/><path class="cls-9" d="M546.13,1091.32c-16.52-.19-22.28-9.59-15-23.07,4.59,11,24.09,19.27,36,17.39,3.39-.54,2.25-6.1,5.24-8.24,1.94.76,5.49,2.65,7.36,3.54,3.07.6,21.56,9.92,21.21,13.64C600,1104.69,552,1093.46,546.13,1091.32Z"/><path class="cls-12" d="M565.77,733.56s3.87,136.45,3.88,162.29-13,164.47-13,164.47-9.39,4.43-24.9-3.84c-.53-31.86-.93-79.82-5.08-154.38-11.39-75.61-23-140.45-23-140.45l1.56-37.07Z"/><path class="cls-13" d="M479.55,909.49c-15.8,25.33-85.27,135.42-85.27,135.42s-12.49-6.88-19.61-10.33c34.66-88.82,44.83-113.84,66.46-148.35,12.66-50.24,4.47-117.9,35.81-161,9.54-13.14,59.7,11.2,59.7,11.2S495.35,884.16,479.55,909.49Z"/><path class="cls-14" d="M577.64,585.41c-7,9-9.06,15.19-19.49,18.83v0a129.62,129.62,0,0,1-30.52,5.14s1,48-4,48c-6.34-1.84-14.82-44.79-16-48-4.92.29-36.89,1.67-58.64-7.65a2.62,2.62,0,0,0-.22.25c-7.14-2.93-13.83-5.83-18.45-8a17.91,17.91,0,0,1-9.15-9.75c-7.85-20.09-21.67-73.78-21.67-73.78l-20.61,5.94,20,80.28a31.45,31.45,0,0,0,16.05,20.36c14.33,7.43,36.17,17.7,54.95,26.65a4.86,4.86,0,0,1,.43.68c3.14,11.55-13.12,93.31-13.12,93.31s44.54,27.43,108.7,7.26c.09-24.55-2.76-69.6-2.12-94.92.14-5.73,1.1-10.3,3.12-14.18,5.75-10.46,14.75-13.46,26.75-31.46-2.84-6.23-6-14-6-14C586.64,590.41,583.27,588,577.64,585.41Z"/><path class="cls-2" d="M1102.57,1097.72c0,5.13,69.38,9.8,155,10.43s155.13-3.05,155.17-8.18-69.38-9.81-155-10.43S1102.61,1092.58,1102.57,1097.72Z"/><path class="cls-15" d="M1287.11,465.56s8.42-14.71-4.9-54.17c-12.89-38.16-57.55-34.71-71.75-10.29s-9.42,39.63,11.47,67.25S1278.44,478.18,1287.11,465.56Z"/><path class="cls-15" d="M1186,1047.37s-4.23,17.87-2.52,19c31,21-22,9-22,9l2-30S1183.44,1045.44,1186,1047.37Z"/><path class="cls-9" d="M1188.49,1076.4s2.14-6.77,8.44-3.17,16.18,5,19.9,8.76c2.69,2.68,9.78,14.26-16.37,14s-38.75,1.63-41.55-2.81,1.59-21.79,1.59-21.79S1173.75,1077.27,1188.49,1076.4Z"/><path class="cls-15" d="M1328.26,1047.42c.24,20,7.67,27.69,9.23,29,7,6-34,0-34,0l.23-30.79S1328.22,1044.21,1328.26,1047.42Z"/><path class="cls-9" d="M1331.49,1077.45s1.39-7.76,7.68-4.17,29.46,6.57,33.19,10.3c2.69,2.69,7.15,13.5-29.65,12.47-26.12-.73-38.74,1.62-41.55-2.81s2.34-21.8,2.34-21.8S1318.47,1078,1331.49,1077.45Z"/><path class="cls-15" d="M1268.58,476s-2.91,11,0,18.95-39.85,2.49-39.85,2.49,3.92-17.58-6-28C1212.32,458.47,1268.58,476,1268.58,476Z"/><path class="cls-16" d="M1301.62,713s-15.9,16.32-109.26-2.59l1.43-8,106.13,4Z"/><path class="cls-15" d="M1375.77,376.47l-16-6c7,85-52.29,131.86-58.13,132-7.11.11-20.69-.41-28.8-.74s-16.66-3.9-16.66-3.9l-33.66,2.33s-16.32,1.66-21,2.54c-2.12.4-9.8-.73-18.14-2.15q-4.79,17.73-10,35.28a201.4,201.4,0,0,1,29.22,14.86l119.34,0s46.26-64.23,50.76-73.21C1383.73,455.47,1377.06,380.35,1375.77,376.47Z"/><path class="cls-15" d="M1146.71,536.38c-6,4-11.07,18-17.42,33.44-2.47,6-10.91,35.86-12.61,37.55-19,19-53.76,65.12-58,67-16,7-24.8,23.89-24,27.93,1,5,11-14,12-4-2.69,5.23-6.34,6.25-11,11.06-2,2.07-12.63,12.58,11,4,7.38-4.41,13.48-6.31,15-9,2-3.53,7.27-14.62,10.47-21.06,3.9-2,33.58-31.82,36.56-34,11-8,27.46-26.83,29.63-29.66s22.34-24.3,34.34-52.3c1.93-4.5-.4-9.76,1-14C1161.71,550.81,1161.71,540.39,1146.71,536.38Z"/><path class="cls-15" d="M1377.57,344.61c1.08-6,.22-25.14-5.78-28.14-4-2,2.19,9.75,2.19,9.75-6.19-16.75-22.11-14.47-12.19-8.76,0-1.16-12.24-7.23-15-4-1.72,2,11.78,9.76,11.78,9.76-.71-1.84-15-4.05-17.78-3.76-10,1,16,7,14.6,13.58-.58,2.77,1.4,8.39.39,9.42s-.63,1-5-3c-.83,1.71-1.9,2.44-3,4,3.13,4.37,4.24,12.21,7,15,2.91,3,7,44,7,44s16.82-3.43,16-10C1373.77,360.47,1376.5,350.63,1377.57,344.61Z"/><path class="cls-9" d="M1219.73,469.41s9.11-.45,23.84-5.53,16.17-15.46,19-27.77c1.53-6.6,7.36,0,9.32-4.11a8.53,8.53,0,0,0,.63-5.91,6.48,6.48,0,0,1,1.3-5.75c3.32-4.54,3.93-20.91,3.93-20.91s-6-41-18-22c-4.6,7.28-18.34,0-34.65,7.86C1169.89,411.89,1219.73,469.41,1219.73,469.41Z"/><path class="cls-15" d="M1267.51,429.81c-2.74-4.54-12.84-7.61-14,5.24-.92,10,18,20.88,18.23,11.58S1269.33,432.83,1267.51,429.81Z"/><path class="cls-17" d="M1193.06,706.41s-10.54,32.73-9.17,60.94-5.46,59.07-8.27,88.54c-3.13,32.85-15.9,110.62-16.37,128.19s-.75,82.3-.75,82.3l29,0s20.69-144,26.25-157.83,33.1-112.77,34-123.86S1193.06,706.41,1193.06,706.41Z"/><path class="cls-17" d="M1298.85,703.05s15.45,86.55,17.29,103.81,3,83.56,4,94.36,11.46,145.2,16.39,161.23l-35,4s-28-102.81-28-147.67-19.3-97.53-31.78-127.13-41.06-30.31-48.71-85.23C1193.06,706.41,1288.46,685.62,1298.85,703.05Z"/><path class="cls-18" d="M1233.61,779.41c-7.29,30.31-18.3,111.75-22.86,123.16-5.55,13.87-30.25,163.82-30.25,163.82h7s21.69-144,27.25-157.83c4.47-11.19,23.23-77.58,30.84-108.74C1244.46,797.2,1234.84,782,1233.61,779.41Z"/><path class="cls-19" d="M1168.64,579.41s11-18,13.89-10.37c6.36,16.74,7.13,46.05,10,55.68s-2.53,79.58-3.25,84.57,98.9,16.91,114.2,5.05c0,0,4.31-65.31,6.11-83.86s10.37-63.52,13.23-69.59,37.49-54.62,38.92-61c0,0-17.91-28.55-30.75-28.92,0,0-20.42,23.9-27.06,25s-16.94-1.54-32.19-4.51c0,0-16,6-43.36-3.06,0,0-23.06,2.45-27.64,3-5.55.71-20.48,3.87-27,7-15.59,7.46-37.08,42-40.08,55Z"/><path class="cls-1" d="M793.74,337.92c0-.12-1-2.76-2.31-7.58l1.69-.47c1.31,4.76,2.26,7.43,2.27,7.46Z"/><path class="cls-1" d="M1474.22,513.68l-.44-1.69c5-1.3,10-2.78,15-4.4l.54,1.67C1484.27,510.88,1479.2,512.37,1474.22,513.68Zm29.87-9.67-.63-1.63c4.81-1.84,9.66-3.85,14.43-6l.71,1.59C1513.81,500.14,1508.93,502.16,1504.09,504Zm28.7-12.72-.79-1.56c4.63-2.33,9.26-4.82,13.77-7.37l.86,1.52C1542.1,486.45,1537.44,488.94,1532.79,491.29Zm27.3-15.49-.93-1.48c4.39-2.79,8.76-5.71,13-8.69l1,1.43C1568.9,470.05,1564.51,473,1560.09,475.8Zm25.61-18.14-1.08-1.37c4.1-3.24,8.13-6.6,12-10l1.15,1.31C1593.88,451,1589.83,454.41,1585.7,457.66Zm23.51-20.78-1.23-1.24c3.72-3.7,7.32-7.51,10.71-11.33l1.31,1.16C1616.59,429.32,1613,433.16,1609.21,436.88Zm20.8-23.51-1.38-1.07c3.2-4.17,6.24-8.44,9-12.69l1.46,1C1636.31,404.86,1633.24,409.16,1630,413.37Zm17.16-26.3-1.53-.83c2.49-4.62,4.77-9.34,6.75-14l1.61.68C1652,377.64,1649.7,382.4,1647.17,387.07Zm12.24-28.92-1.67-.52a137.37,137.37,0,0,0,3.74-15.06l1.72.32A140.47,140.47,0,0,1,1659.41,358.15Zm5.8-30.86-1.75-.12c.2-2.84.29-5.72.29-8.56,0-2.31-.06-4.65-.19-7l1.75-.09c.13,2.34.19,4.71.19,7.05C1665.5,321.49,1665.4,324.41,1665.21,327.29ZM787.78,315.06c-1-5.06-1.94-10.26-2.69-15.46l1.73-.25c.74,5.16,1.64,10.33,2.67,15.36Zm874-18.83a130.6,130.6,0,0,0-3.66-15.1l1.67-.51a132,132,0,0,1,3.71,15.3ZM783.32,284c-.44-5.23-.73-10.5-.85-15.68l1.75,0c.12,5.14.4,10.38.84,15.57Zm869.39-17.46c-1.92-4.44-4.11-8.91-6.52-13.29l-.36-.66,1.53-.85.37.67c2.43,4.43,4.65,9,6.58,13.44ZM784.32,252.69l-1.74-.07c.2-5.26.58-10.53,1.12-15.67l1.74.19C784.9,242.24,784.53,247.47,784.32,252.69Zm853.45-13.41c-2.88-4.37-5.94-8.6-9.09-12.57l1.37-1.09c3.18,4,6.27,8.28,9.18,12.7ZM787.6,221.7l-1.72-.3c.91-5.18,2-10.35,3.28-15.36l1.69.42C789.6,211.44,788.5,216.56,787.6,221.7ZM1618.49,215c-3.58-3.73-7.37-7.32-11.27-10.65l1.14-1.33c3.94,3.37,7.77,7,11.39,10.77ZM1595,194.88c-4.18-2.92-8.6-5.69-13.14-8.26l.86-1.52c4.58,2.59,9,5.4,13.28,8.34Zm-799.72-3.36-1.66-.56c1.67-5,3.55-9.91,5.59-14.68l1.61.68C798.76,181.69,796.9,186.59,795.24,191.52ZM1568,179.61c-4.58-2.09-9.44-4.07-14.42-5.9l.6-1.63c5,1.83,9.92,3.83,14.54,5.93Zm-29.21-10.76c-4.77-1.4-9.84-2.75-15.07-4l.4-1.7c5.26,1.25,10.36,2.61,15.16,4Zm-731.3-5.95-1.55-.81c2.43-4.62,5.08-9.19,7.88-13.6l1.48.94C812.5,153.8,809.88,158.33,807.47,162.9Zm701-1.36c-4.87-1-9.9-1.87-15.38-2.78l.29-1.72c5.49.91,10.54,1.82,15.42,2.79Zm-30.82-5.16c-4.62-.67-9.69-1.38-15.5-2.15l.23-1.73c5.82.77,10.9,1.47,15.52,2.15Zm-31-4.18-.48-.06q-7.47-1-15-2l.23-1.73q7.56,1,15,2l.49.06Zm-31-4.14c-5.54-.8-10.61-1.56-15.49-2.34l.28-1.72c4.87.77,9.93,1.53,15.46,2.33Zm-30.93-5c-5.28-1-10.46-2-15.38-3l.36-1.71c4.91,1,10.07,2.06,15.33,3Zm-560.48-6.44-1.39-1.06c3.13-4.14,6.48-8.22,10-12.15l1.31,1.17C830.59,128.49,827.26,132.54,824.16,136.65Zm529.82-.09c-5.15-1.27-10.25-2.63-15.14-4l.48-1.68c4.87,1.41,10,2.76,15.08,4Zm-30.11-8.7c-5-1.67-10-3.46-14.75-5.32l.64-1.63c4.76,1.85,9.69,3.63,14.66,5.3Zm-29.21-11.36c-4.78-2.13-9.54-4.41-14.14-6.76l.79-1.56c4.58,2.34,9.31,4.61,14.06,6.73Zm-449.84-3.13-1.21-1.26c3.71-3.58,7.65-7.11,11.7-10.48l1.11,1.34C852.41,106.32,848.51,109.81,844.82,113.37Zm421.94-11.14c-2.87-1.67-5.75-3.41-8.55-5.18q-2.4-1.5-4.82-3l.91-1.5q2.43,1.47,4.84,3c2.78,1.76,5.64,3.49,8.5,5.14Zm-398-8.81-1-1.42c4.19-3,8.56-6,13-8.78l.93,1.48C877.24,87.48,872.89,90.42,868.74,93.42Zm371.15-7.17c-4.53-2.5-9.18-4.94-13.82-7.25l.78-1.57c4.66,2.33,9.33,4.78,13.88,7.29ZM895.11,76.81l-.84-1.53c4.53-2.48,9.23-4.88,14-7.14l.75,1.58C904.28,72,899.61,74.35,895.11,76.81ZM1212,72.33c-4.72-2.11-9.55-4.16-14.37-6.08l.65-1.62c4.83,1.93,9.69,4,14.44,6.1ZM923.27,63.42l-.66-1.62c4.78-2,9.71-3.84,14.67-5.57l.58,1.65C932.93,59.6,928,61.47,923.27,63.42ZM1183,60.76c-4.88-1.72-9.87-3.36-14.82-4.88l.51-1.68c5,1.54,10,3.19,14.89,4.91ZM952.7,53.07l-.49-1.67c4.95-1.47,10-2.85,15.14-4.1l.41,1.69C962.7,50.24,957.64,51.61,952.7,53.07Zm200.45-1.47c-5-1.33-10.11-2.56-15.17-3.68l.38-1.71c5.08,1.13,10.2,2.37,15.23,3.69ZM983,45.62l-.34-1.71c5.09-1,10.29-1.92,15.46-2.71l.26,1.73C993.23,43.71,988.06,44.62,983,45.62Zm139.68-.76c-5.1-.91-10.29-1.73-15.42-2.44l.24-1.74c5.15.72,10.36,1.54,15.48,2.46Zm-108.82-3.94-.19-1.74c5.16-.56,10.42-1,15.63-1.36l.11,1.75C1024.23,39.91,1019,40.36,1013.86,40.92Zm77.9-.33c-5.16-.51-10.39-.91-15.56-1.21l.1-1.74c5.19.29,10.45.7,15.63,1.21ZM1045,38.87l0-1.75c5.2-.13,10.45-.15,15.68-.06l0,1.75C1055.4,38.72,1050.17,38.74,1045,38.87Z"/><path class="cls-1" d="M1450.54,518.69l-.28-1.72c2.55-.41,5.14-.87,7.72-1.37l.33,1.72C1455.72,517.82,1453.1,518.29,1450.54,518.69Z"/><path class="cls-1" d="M224,841.75c-.12,0-2.92.07-7.92-.14l.07-1.74c4.93.2,7.77.13,7.8.13Z"/><path class="cls-1" d="M600.28,248.15l-1.75-.1c.28-5.11.43-10.35.42-15.6h1.75C600.7,237.73,600.56,243,600.28,248.15Zm0-31.4-1.74.1c-.28-5.14-.7-10.37-1.25-15.56l1.74-.19C599.55,206.32,600,211.58,600.25,216.75ZM597,185.54l-1.73.27c-.8-5.12-1.74-10.3-2.78-15.37l1.71-.36C595.21,175.19,596.16,180.39,597,185.54Zm-6.36-30.75-1.69.44c-1.3-5-2.75-10.09-4.29-15l1.67-.52C587.84,144.65,589.29,149.72,590.6,154.79Zm-9.39-29.94-1.64.61c-1.82-4.89-3.78-9.76-5.83-14.46l1.6-.69C577.4,115,579.38,119.93,581.21,124.85ZM568.65,96.1l-1.55.79c-2.38-4.68-4.9-9.28-7.5-13.68l1.51-.89C563.72,86.75,566.26,91.39,568.65,96.1Zm-16-27-1.44,1c-3-4.33-6.12-8.54-9.31-12.49l1.36-1.1C546.5,60.47,549.66,64.71,552.67,69.08ZM532.91,44.67l-1.26,1.21c-3.63-3.8-7.42-7.41-11.26-10.74l1.14-1.32C525.42,37.18,529.24,40.83,532.91,44.67ZM509.15,24.14l-1,1.43A139.46,139.46,0,0,0,495,17.38l.83-1.53A137.84,137.84,0,0,1,509.15,24.14Zm-27.59-15-.65,1.62c-2.64-1.06-5.35-2-8.05-2.91-2.2-.71-4.45-1.37-6.68-1.95l.44-1.69c2.26.59,4.54,1.26,6.77,2C476.13,7.08,478.88,8.08,481.56,9.15ZM200.41,840.4c-5.13-.57-10.36-1.31-15.54-2.2l.29-1.72c5.15.88,10.34,1.62,15.45,2.18ZM450.94,2.9a132.4,132.4,0,0,0-15.5-1.15l0-1.75a131.53,131.53,0,0,1,15.7,1.17ZM169.48,835.1c-5.11-1.18-10.22-2.53-15.18-4l.5-1.68c4.93,1.46,10,2.8,15.07,4ZM419.91,2.38c-4.81.46-9.74,1.17-14.65,2.12l-.74.14-.34-1.72.75-.14c5-1,9.95-1.68,14.82-2.14ZM140,824.53l-.6,1.64c-4.94-1.81-9.84-3.79-14.57-5.88l.71-1.6C130.22,820.77,135.09,822.73,140,824.53ZM389.38,8.22c-5.05,1.4-10,3-14.76,4.79L374,11.38c4.79-1.8,9.8-3.43,14.9-4.84ZM111.51,811.9l-.82,1.54c-4.65-2.46-9.23-5.1-13.61-7.84l.93-1.48C102.36,806.84,106.9,809.46,111.51,811.9ZM360.36,19.12c-4.65,2.26-9.23,4.76-13.59,7.44l-.92-1.48c4.42-2.72,9-5.25,13.75-7.54ZM334,35.32c-4.06,3.09-8.06,6.44-11.89,10L320.9,44c3.87-3.57,7.91-7,12-10.08Zm-248.84,760-1,1.4c-4.22-3.11-8.34-6.42-12.26-9.82L73,785.61C76.86,789,81,792.26,85.13,795.35Zm226-739c-3.39,3.72-6.77,7.73-10,11.91l-1.38-1.07c3.29-4.22,6.7-8.26,10.12-12ZM292,80.81c-2.81,4.1-5.65,8.52-8.44,13.11L282,93c2.81-4.62,5.67-9.05,8.49-13.19ZM61.65,774.92l-1.25,1.22c-3.64-3.73-7.18-7.65-10.51-11.67l1.35-1.12C54.54,767.33,58,771.22,61.65,774.92Zm214-667.51c-2.4,4.34-4.81,8.85-7.36,13.78l-1.55-.8c2.55-5,5-9.47,7.39-13.82Zm-14.38,27.75c-2.05,4.18-4.28,8.79-6.8,14.09l-1.57-.76c2.52-5.3,4.75-9.91,6.8-14.1ZM247.8,163.39l-.21.44q-3.21,6.82-6.49,13.71l-1.57-.75q3.27-6.89,6.48-13.7l.21-.45Zm-13.49,28.26c-2.45,5-4.73,9.63-7,14l-1.56-.79c2.23-4.4,4.51-9,7-14Zm-14.23,27.92c-2.54,4.73-5.09,9.34-7.6,13.71L211,232.4c2.49-4.35,5-8.94,7.57-13.66ZM41.8,751l-1.44,1c-3-4.24-5.83-8.69-8.49-13.21l1.5-.89C36,742.35,38.84,746.76,41.8,751ZM204.46,246.74c-2.79,4.52-5.65,8.95-8.5,13.17l-1.45-1c2.83-4.21,5.68-8.63,8.47-13.12Zm-17.53,26c-3.13,4.23-6.36,8.4-9.6,12.39L176,284c3.22-4,6.43-8.12,9.54-12.33ZM167.15,297c-3.51,3.89-7.13,7.72-10.79,11.37l-1.23-1.23c3.63-3.64,7.24-7.44,10.72-11.31ZM26,724.16l-1.57.77c-2.27-4.64-4.42-9.46-6.38-14.35l1.62-.65C21.61,714.77,23.74,719.56,26,724.16Zm119-405c-2.47,2.22-5,4.42-7.55,6.55q-2.17,1.81-4.31,3.66L132,328.09c1.44-1.24,2.88-2.47,4.34-3.69,2.52-2.11,5.05-4.3,7.5-6.5ZM14.35,695.27l-1.66.54c-1.6-4.91-3.06-10-4.36-15.08l1.69-.44C11.31,685.36,12.77,690.4,14.35,695.27ZM121.53,339.86c-3.77,3.55-7.52,7.22-11.14,10.92l-1.25-1.22c3.64-3.72,7.41-7.41,11.19-11ZM6.64,665.07l-1.71.33c-1-5.07-1.81-10.28-2.49-15.5l1.73-.22C4.85,654.86,5.68,660,6.64,665.07ZM99.7,362.16C96.24,366,92.81,370,89.5,374l-1.34-1.11c3.32-4,6.77-8,10.25-11.87Zm-97.15,272-1.74.14c-.4-5.16-.67-10.43-.8-15.68l1.75,0C1.89,623.8,2.15,629,2.55,634.16Zm77.24-248c-3.13,4.12-6.22,8.36-9.2,12.61l-1.43-1c3-4.26,6.1-8.52,9.25-12.66ZM1.75,603,0,602.93c.13-5.17.38-10.44.75-15.67l1.74.13C2.12,592.59,1.87,597.83,1.75,603ZM61.91,411.77c-2.8,4.36-5.54,8.83-8.16,13.3l-1.51-.88c2.63-4.49,5.39-9,8.2-13.37ZM4,571.85l-1.73-.2c.6-5.15,1.33-10.38,2.17-15.54l1.73.28C5.29,561.53,4.56,566.73,4,571.85ZM46.14,438.7c-2.44,4.57-4.81,9.25-7.06,13.91l-1.58-.76c2.26-4.68,4.65-9.38,7.1-14ZM9,541l-1.71-.35c1.05-5.09,2.24-10.23,3.51-15.29l1.69.42C11.19,530.86,10,536,9,541ZM32.58,466.8c-2.07,4.76-4.06,9.62-5.93,14.44L25,480.61c1.88-4.85,3.88-9.72,5.95-14.5Zm-16,44-1.68-.5c1.48-5,3.07-10,4.76-14.93l1.65.56C19.63,500.83,18.05,505.81,16.58,510.77Z"/><path class="cls-1" d="M597.77,272.23l-1.72-.27c.39-2.55.75-5.16,1.06-7.76l1.74.21C598.54,267,598.17,269.66,597.77,272.23Z"/><path class="cls-20" d="M1010.48,142.2a35.56,35.56,0,0,1,5.6.28,46.53,46.53,0,0,1,88.51-10,39.1,39.1,0,0,1,52,11.62,42.83,42.83,0,0,1,73.38,12.6,84.84,84.84,0,0,1,20.25-2.77c29.14-.59,53.06,12.78,53.43,30,1.31,61.28-327.07,95.66-329.13-4.15a36.66,36.66,0,0,1,36-37.52Z"/><path class="cls-20" d="M289.86,336.21a30.6,30.6,0,0,0-4.56.84,38.43,38.43,0,0,0-73.56,1.47,32.31,32.31,0,0,0-41.31,15.19,35.38,35.38,0,0,0-58.7,18.35A70.44,70.44,0,0,0,94.85,372c-23.92,2.71-42,16.27-40.47,30.4,5.63,50.31,278.26,42.54,269-39.4a30.28,30.28,0,0,0-33.55-26.79Z"/></g></g></svg>