<svg xmlns="http://www.w3.org/2000/svg" xmlns:xlink="http://www.w3.org/1999/xlink" viewBox="0 0 1788.81 3464.7"><defs><style>.cls-1{mask:url(#mask);}.cls-2,.cls-4,.cls-6{mix-blend-mode:multiply;}.cls-2{fill:url(#radial-gradient);}.cls-3{mask:url(#mask-2);}.cls-4{fill:url(#radial-gradient-2);}.cls-5{mask:url(#mask-3);}.cls-6{fill:url(#radial-gradient-3);}.cls-7{fill:none;}.cls-8{isolation:isolate;}.cls-9{fill:#3a91e8;}.cls-10{fill:#1c1c1c;}.cls-11{fill:#0c0c0c;}.cls-12{fill:#525252;}.cls-13{fill:#0d0d0d;}.cls-14{clip-path:url(#clip-path);}.cls-15{fill:url(#linear-gradient);}.cls-16{fill:url(#linear-gradient-2);}.cls-17{mask:url(#mask-4);}.cls-18{fill:url(#radial-gradient-4);}.cls-19{mask:url(#mask-5);}.cls-20{fill:url(#radial-gradient-5);}.cls-21{mask:url(#mask-6);}.cls-22{opacity:0.58;mix-blend-mode:screen;fill:url(#radial-gradient-6);}.cls-23{clip-path:url(#clip-path-2);}.cls-24{fill:#fff;}.cls-25{clip-path:url(#clip-path-3);}.cls-26{filter:url(#luminosity-noclip-6);}.cls-27{filter:url(#luminosity-noclip-5);}.cls-28{filter:url(#luminosity-noclip-4);}.cls-29{filter:url(#luminosity-noclip-3);}.cls-30{filter:url(#luminosity-noclip-2);}.cls-31{filter:url(#luminosity-noclip);}</style><filter id="luminosity-noclip" x="1677" y="-10192" width="13.64" height="32766" filterUnits="userSpaceOnUse" color-interpolation-filters="sRGB"><feFlood flood-color="#fff" result="bg"/><feBlend in="SourceGraphic" in2="bg"/></filter><mask id="mask" x="1677" y="-10192" width="13.64" height="32766" maskUnits="userSpaceOnUse"><g class="cls-31"/></mask><radialGradient id="radial-gradient" cx="1577.59" cy="540.62" r="6.98" gradientTransform="translate(106.23 -164.61)" gradientUnits="userSpaceOnUse"><stop offset="0.46" stop-color="#fff"/><stop offset="0.5" stop-color="#eee"/><stop offset="0.62" stop-color="#bdbdbd"/><stop offset="0.73" stop-color="#989898"/><stop offset="0.84" stop-color="#7c7c7c"/><stop offset="0.93" stop-color="#6c6c6c"/><stop offset="1" stop-color="#666"/></radialGradient><filter id="luminosity-noclip-2" x="1684.44" y="-10192" width="4.89" height="32766" filterUnits="userSpaceOnUse" color-interpolation-filters="sRGB"><feFlood flood-color="#fff" result="bg"/><feBlend in="SourceGraphic" in2="bg"/></filter><mask id="mask-2" x="1684.44" y="-10192" width="4.89" height="32766" maskUnits="userSpaceOnUse"><g class="cls-30"/></mask><radialGradient id="radial-gradient-2" cx="1580.66" cy="546.54" r="2.5" gradientTransform="translate(106.23 -164.61)" gradientUnits="userSpaceOnUse"><stop offset="0" stop-color="#999"/><stop offset="1"/></radialGradient><filter id="luminosity-noclip-3" x="1673.69" y="-10192" width="20.28" height="32766" filterUnits="userSpaceOnUse" color-interpolation-filters="sRGB"><feFlood flood-color="#fff" result="bg"/><feBlend in="SourceGraphic" in2="bg"/></filter><mask id="mask-3" x="1673.69" y="-10192" width="20.28" height="32766" maskUnits="userSpaceOnUse"><g class="cls-29"/></mask><radialGradient id="radial-gradient-3" cx="1577.6" cy="540.62" r="10.38" gradientTransform="translate(106.23 -164.61)" gradientUnits="userSpaceOnUse"><stop offset="0"/><stop offset="0.26" stop-color="#030303"/><stop offset="0.43" stop-color="#0c0c0c"/><stop offset="0.58" stop-color="#1a1a1a"/><stop offset="0.71" stop-color="#303030"/><stop offset="0.83" stop-color="#4b4b4b"/><stop offset="0.94" stop-color="#6c6c6c"/><stop offset="1" stop-color="gray"/></radialGradient><clipPath id="clip-path" transform="translate(-1105.59 -267.65)"><path class="cls-7" d="M1920,392.05c6.32.09,11.58-4.72,11.72-10.75s-4.92-11.09-11.28-11.25q-76.76-1.89-153.55-1.36a11.69,11.69,0,0,0,.28,23.38Q1843.61,390.86,1920,392.05Z"/></clipPath><linearGradient id="linear-gradient" x1="-41.08" y1="1478.7" x2="-22.28" y2="1502.87" gradientTransform="matrix(0, 1, 1, 0, 193.26, 407.88)" gradientUnits="userSpaceOnUse"><stop offset="0" stop-color="#0d0d0d"/><stop offset="1" stop-color="#000005"/></linearGradient><linearGradient id="linear-gradient-2" x1="-39.58" y1="1480.61" x2="-23.81" y2="1500.9" gradientTransform="matrix(0, 1, 1, 0, 193.26, 407.88)" gradientUnits="userSpaceOnUse"><stop offset="0" stop-color="#000005"/><stop offset="1" stop-color="#575757"/></linearGradient><filter id="luminosity-noclip-4" x="1677" y="368.85" width="13.64" height="14.3" filterUnits="userSpaceOnUse" color-interpolation-filters="sRGB"><feFlood flood-color="#fff" result="bg"/><feBlend in="SourceGraphic" in2="bg"/></filter><mask id="mask-4" x="571.41" y="101.2" width="13.64" height="14.3" maskUnits="userSpaceOnUse"><g class="cls-28"><g transform="translate(-1105.59 -267.65)"><g class="cls-1"><path class="cls-2" d="M1684,383.15a7.15,7.15,0,1,1,6.62-7.31A7,7,0,0,1,1684,383.15Z"/></g></g></g></mask><radialGradient id="radial-gradient-4" cx="-31.9" cy="1490.56" r="6.98" gradientTransform="matrix(0, 1, 1, 0, 193.26, 407.88)" gradientUnits="userSpaceOnUse"><stop offset="0.46" stop-color="#001736"/><stop offset="1" stop-color="#001736"/></radialGradient><filter id="luminosity-noclip-5" x="1684.44" y="379.37" width="4.89" height="5.12" filterUnits="userSpaceOnUse" color-interpolation-filters="sRGB"><feFlood flood-color="#fff" result="bg"/><feBlend in="SourceGraphic" in2="bg"/></filter><mask id="mask-5" x="578.85" y="111.72" width="4.89" height="5.12" maskUnits="userSpaceOnUse"><g class="cls-27"><g transform="translate(-1105.59 -267.65)"><g class="cls-3"><path class="cls-4" d="M1689.33,381.86a2.44,2.44,0,1,1-2.51-2.49A2.5,2.5,0,0,1,1689.33,381.86Z"/></g></g></g></mask><radialGradient id="radial-gradient-5" cx="1580.66" cy="546.54" r="2.5" gradientTransform="translate(106.23 -164.61)" gradientUnits="userSpaceOnUse"><stop offset="0" stop-color="#00b2d7"/><stop offset="1" stop-color="#fff"/></radialGradient><filter id="luminosity-noclip-6" x="1673.69" y="365.38" width="20.28" height="21.28" filterUnits="userSpaceOnUse" color-interpolation-filters="sRGB"><feFlood flood-color="#fff" result="bg"/><feBlend in="SourceGraphic" in2="bg"/></filter><mask id="mask-6" x="568.09" y="97.73" width="20.28" height="21.28" maskUnits="userSpaceOnUse"><g class="cls-26"><g transform="translate(-1105.59 -267.65)"><g class="cls-5"><path class="cls-6" d="M1684.12,386.63a10.63,10.63,0,1,1,9.84-10.88A10.39,10.39,0,0,1,1684.12,386.63Z"/></g></g></g></mask><radialGradient id="radial-gradient-6" cx="-31.87" cy="1490.56" r="10.39" gradientTransform="matrix(0, 1, 1, 0, 193.26, 407.88)" gradientUnits="userSpaceOnUse"><stop offset="0" stop-color="#001736"/><stop offset="0.26" stop-color="#011939"/><stop offset="0.43" stop-color="#042042"/><stop offset="0.57" stop-color="#0a2b50"/><stop offset="0.7" stop-color="#123c66"/><stop offset="0.82" stop-color="#1d5181"/><stop offset="0.93" stop-color="#2a6aa2"/><stop offset="1" stop-color="#337dbb"/></radialGradient><clipPath id="clip-path-2" transform="translate(-1105.59 -267.65)"><polygon class="cls-7" points="1717.2 2610.5 1682.35 2359.3 2550.34 2252.96 2585.2 2504.16 1717.2 2610.5"/></clipPath><clipPath id="clip-path-3" transform="translate(-1105.59 -267.65)"><polygon class="cls-7" points="1698.42 2248.53 1556.26 1223.85 2302.1 1132.48 2444.26 2157.15 1698.42 2248.53"/></clipPath></defs><g class="cls-8"><g id="_àð_1" data-name="˜àð_1"><path class="cls-9" d="M2484.76,533.17c8.64,88.54,376.17,2555.33,388,2650.14s19,254.91-131.29,288-762,200.1-895.3,223.93-237.94,40.82-279.07-278.49S1185.37,632.83,1165.55,489.93s3.54-221.09,180.63-212.35,851.48,29.14,949.86,35.49S2474,423.16,2484.76,533.17Z" transform="translate(-1105.59 -267.65)"/><path class="cls-10" d="M1137.45,446.78q0,6,.25,12.14t.8,12.28c.36,4.1.79,8.2,1.29,12.27L1244.34,1238l105.45,761q53,382.67,106.36,767.54,53.47,386,107.27,774.18a265.76,265.76,0,0,0,10.36,45.4,242,242,0,0,0,17.26,40.48,220,220,0,0,0,23.21,34.75,198.83,198.83,0,0,0,28.21,28.26,178.74,178.74,0,0,0,32.27,21,163.83,163.83,0,0,0,35.33,13.08,156.79,156.79,0,0,0,37.46,4.45,161.65,161.65,0,0,0,38.65-4.86l260.8-65.05,249.64-62.28,239.17-59.66,229.35-57.21a134.18,134.18,0,0,0,31.21-12.16,150.4,150.4,0,0,0,27.71-19.39,176.32,176.32,0,0,0,23.75-25.6,206.69,206.69,0,0,0,19.34-30.79,234.53,234.53,0,0,0,14.46-35,256.69,256.69,0,0,0,9.14-38.22,269.69,269.69,0,0,0,3.36-40.52,276.3,276.3,0,0,0-2.9-41.91q-50.47-345.23-100.69-688.68-50.09-342.59-99.92-683.42-49.7-340-99.16-678.22Q2542.11,847.8,2493,512.12q-.87-5.46-1.93-11t-2.32-11c-.85-3.65-1.76-7.29-2.74-10.89s-2.05-7.17-3.18-10.67A273.69,273.69,0,0,0,2465,426,265,265,0,0,0,2440.94,388,241.81,241.81,0,0,0,2411.7,356a208.24,208.24,0,0,0-33.31-24.92,184.2,184.2,0,0,0-17.73-9.31,165.55,165.55,0,0,0-18.35-7.08,150,150,0,0,0-18.82-4.68,137.1,137.1,0,0,0-19.15-2.09l-234.7-9.1-244.57-9.47L1570,279.46l-266.26-10.31a167.71,167.71,0,0,0-22.29.61,156.52,156.52,0,0,0-21.2,3.51,150.59,150.59,0,0,0-20,6.25,146.66,146.66,0,0,0-18.6,8.83,150.16,150.16,0,0,0-32.78,25A163.62,163.62,0,0,0,1163.26,347a186.21,186.21,0,0,0-17.39,41,213.68,213.68,0,0,0-8,46.93C1137.6,438.82,1137.47,442.78,1137.45,446.78Zm34.85-5.47c0-3.53.14-7,.35-10.3a185.46,185.46,0,0,1,6.95-40.75,158.48,158.48,0,0,1,14.73-34.77,136.34,136.34,0,0,1,21.24-27.91,122.7,122.7,0,0,1,26.64-20.37,119.14,119.14,0,0,1,15.06-7.14A122.76,122.76,0,0,1,1273.5,295a129,129,0,0,1,17.37-2.87c4.26-.41,8.64-.61,13-.61,1.82,0,3.68,0,5.52.1L2310,330.37a110.89,110.89,0,0,1,15.26,1.67,122.35,122.35,0,0,1,15.29,3.8,136.61,136.61,0,0,1,15.2,5.88,150.91,150.91,0,0,1,15,7.86,180.25,180.25,0,0,1,28.8,21.56,213.81,213.81,0,0,1,25.82,28.32,237.45,237.45,0,0,1,21.52,33.91,245.51,245.51,0,0,1,16,38.29c1,3,1.92,6.17,2.8,9.4s1.69,6.44,2.46,9.78,1.46,6.61,2.12,10c.62,3.22,1.2,6.55,1.74,9.89L2870.14,3234a248.53,248.53,0,0,1,2.6,37.63,240.75,240.75,0,0,1-3,36.29,228.54,228.54,0,0,1-8.13,34,206.67,206.67,0,0,1-12.72,30.78,178.32,178.32,0,0,1-16.69,26.59,147.54,147.54,0,0,1-20,21.52,122,122,0,0,1-22.51,15.78,106.16,106.16,0,0,1-24.66,9.62l-979,244.2a133.46,133.46,0,0,1-31.92,4h-.33a129.09,129.09,0,0,1-30.42-3.65,136,136,0,0,1-29.29-10.85,151.12,151.12,0,0,1-27.19-17.74,170.91,170.91,0,0,1-24.21-24.27,192.59,192.59,0,0,1-20.24-30.32,213.62,213.62,0,0,1-15.25-35.78,237.43,237.43,0,0,1-9.25-40.59l-423.6-3057c-.46-3.72-.85-7.44-1.16-11-.32-3.76-.57-7.5-.73-11.09S1172.29,444.74,1172.3,441.31Z" transform="translate(-1105.59 -267.65)"/><path class="cls-11" d="M2325.36,309.48l.1,0-1.74-.35Z" transform="translate(-1105.59 -267.65)"/><path class="cls-11" d="M2363,322.24l.1.05-1.88-.89Z" transform="translate(-1105.59 -267.65)"/><path class="cls-11" d="M2445.22,393.31l-.28-.38.41.55,0,0Z" transform="translate(-1105.59 -267.65)"/><path class="cls-11" d="M2443.29,390.67l.11.15-.08-.11Z" transform="translate(-1105.59 -267.65)"/><path class="cls-11" d="M1105.59,463.53l0,2.42c0,.72,0,1.7.05,2.42l.06,2.44.1,2.45.11,2.45c0,.62.08,1.41.12,2.08v.06c0,.11,0,.22,0,.31l0,.56c0,.65.08,1.34.12,1.91,0,.74.12,1.72.18,2.46l.21,2.47c0,.43.08.93.12,1.43,0,.13,0,.26,0,.38s0,.46.06.66l.25,2.47c.07.74.18,1.73.26,2.47l.29,2.47c.09.74.2,1.72.3,2.45v0h0l20.71,149.67,20.75,149.93,20.78,150.18L1191,1098.14l41.74,301.65L1253.66,1551l21,151.46,42,303.71,42.17,304.75,42.31,305.79L1422.34,2770l21.25,153.56,21.29,153.81,21.32,154.08,21.35,154.35L1529,3540.4c.24,1.75.58,3.85.9,5.87l.36,2.35.13.77.08.46,0,.12c0,.14,0,.29.08.43.57,3.47.88,4.94,1.67,8.71.25,1.16.55,2.47.85,3.81.37,1.63.75,3.29,1.17,5v0l.06.25v0h0l0,.07.06.26c1.32,5.33,2.92,11.07,4.92,17.2l0,.09v0h0l.07.22q.87,2.67,1.85,5.44c.35,1,.69,2,1,2.86.07.2.15.41.23.62a.49.49,0,0,0,0,.11l.28.76.34.89c.5,1.28,1,2.63,1.52,3.9l.72,1.86.07.17v.05l.2.47.1.24.28.69.94,2.2c.67,1.57,1.35,3.17,2,4.5s1.26,2.75,2,4.21c.57,1.22,1.15,2.44,1.75,3.67l0,.06h0v0c2.75,5.64,5.63,10.9,8.55,15.81a210.52,210.52,0,0,0,16.59,24.06l.91,1.14c.41.5.81,1,1.23,1.51.66.81,1.33,1.6,2,2.38l1.62,1.88.68.8.17.19,1,1.14c.64.72,1.39,1.53,2.15,2.36.24.26.47.54.72.8l.22.25,2.13,2.25.19.2.1.1.18.2.9.89.84.85,1.18,1.23,2.18,2.12c.07.08.15.15.22.22a171.33,171.33,0,0,0,17.59,15.09c3.57,2.7,8,5.81,13.09,9l.61.39,1.52.93a178.37,178.37,0,0,0,21.47,11.29l1.75.76.31.13.38.16.48.21.65.27,0,0h0l1.27.53.38.16c1.22.49,2.51,1,4.39,1.71,1.47.54,2.93,1.06,4.37,1.56l1.06.38,1.29.41c.45.16.91.31,1.37.45l1.26.43,2.21.66.28.08h0l1,.31.4.12,1.65.5,2.67.71,2.4.64,1.19.28,1.2.31,1.91.43h0l.54.12,2.71.61,2.8.55.31.06.19,0,1.53.31.83.14.86.16,1.74.28,1.18.2,2,.31c.91.14,2,.28,3,.42l1.66.23.69.08.68.09,1.69.17c1.08.13,2.16.24,3.08.33,2.09.19,3.25.3,4.67.39h.07l2.49.15,2.17.12,1.28.07,3.83.16c2.32.07,5.41.16,7.73.19l4.77,0c1.82-.05,4.24-.11,6.06-.19l2.83-.17.65,0,1.44-.08,1.41-.12,1.29-.1,3.73-.34,2.37-.28.3,0,2.54-.3c2.17-.31,5.07-.73,7.24-1.08l5.69-1.05c1.32-.28,2.85-.61,4.38-1l.25,0c1.49-.33,3-.67,4.24-1h0l53.07-13.25,52.6-13.13,52.14-13,51.68-12.9,51.23-12.79,50.78-12.67,100.25-25,49.48-12.35,49.06-12.25,48.63-12.14,48.23-12,47.81-11.93,47.42-11.84,47-11.74,46.62-11.64,92.1-23,90.58-22.61c3.81-1,9-2.42,14.82-4.51l5.45-2.1c1.45-.62,3.18-1.37,4.85-2.11l1.56-.7,1.61-.74.68-.34c3.44-1.66,6.8-3.46,10.12-5.41l1.66-1,1.44-.92c.85-.52,1.69-1,2.53-1.59l1.56-1c1.84-1.28,4.31-3,6.12-4.28l5.33-4.09c1.48-1.24,3.39-2.81,4.95-4.15l.22-.18a155.81,155.81,0,0,0,15-14.87l.32-.34c.18-.22.4-.46.6-.7.86-1,1.74-2,2.65-3.07.52-.6,1-1.2,1.46-1.73l.47-.59c1.29-1.58,2.62-3.25,4-5a193.56,193.56,0,0,0,11.33-16.54c.35-.56.69-1.11,1-1.61l.58-1c.68-1.15,1.33-2.25,1.93-3.32l1.19-2c1-2,2.45-4.51,3.47-6.5l0-.05c4.09-7.7,17.89-35.77,23.76-73.63v0c.28-1.8.53-3.57.77-5.33l.38-2.62c.27-2.42.68-5.64.92-8.07l.67-8.14c.14-2.47.35-5.75.44-8.22l0-1.17q.11-3.3.14-6.45l0-.66c0-.24,0-.5,0-.76,0-1.89,0-3.75,0-5.55,0-.71,0-1.39,0-2l0-.56q-.09-3.48-.25-6.71l-.05-1.11c-.17-2.53-.36-5.9-.57-8.43l-.84-8.45c-.34-2.55-.74-6-1.11-8.49l-40.37-276.08L2831,2821.56l-20.11-137.51-20.07-137.3-20.05-137.09-20-136.88-20-136.67-20-136.46-19.92-136.26-19.89-136-19.86-135.84-19.83-135.63-19.8-135.42-19.77-135.22-19.74-135-19.71-134.8-19.68-134.6L2513,646.43l-19.62-134.19h0L2493,510c-.11-.66-.25-1.54-.36-2.21l-.39-2.2-.4-2.21-.22-1.18a270,270,0,0,0-20-63.57l-.33-.73c-.28-.61-.57-1.22-.86-1.82a258.35,258.35,0,0,0-23.88-40.94l-.23-.33-.87-1.19q-1.75-2.46-3.56-4.87l-.16-.21c-.24-.32-.47-.63-.7-.92l-.05-.07h0l-.18-.23h0l.18.23-.46-.6c-.66-.87-1.33-1.74-2-2.6l-1.24-1.56c-.56-.71-1.13-1.43-1.7-2.13q-1.49-1.81-3-3.58c-.31-.37-.63-.73-1-1.1-.79-.92-1.58-1.84-2.38-2.74l-1-1.11c-.83-.92-1.66-1.84-2.5-2.75l-.85-.92c-1-1.06-2-2.12-3-3.16l-.39-.4q-3.59-3.69-7.3-7.18l-.45-.41c-1.06-1-2.12-2-3.2-2.93l-.75-.67c-1-.9-2-1.78-3-2.66l-.75-.65q-1.77-1.5-3.56-3l-.22-.18q-1.84-1.5-3.71-2.94l-1.49-1.13-2.13-1.61c-.68-.51-1.37-1-2.06-1.5l-.49-.36-.05,0-.08-.06-.12-.08h0l-.19-.15c-.28-.18-.57-.39-.87-.6l-1.25-.89-1.7-1.17-.57-.4.54.38a178.3,178.3,0,0,0-20.7-12.34c-1.09-.54-2.54-1.28-3.64-1.81l-.62-.3.06,0-3.07-1.45c-1.11-.49-2.58-1.15-3.7-1.63l-3.68-1.53c-1.13-.43-2.63-1-3.76-1.45l-1.8-.65-.09,0-1.85-.66-1.61-.54-.87-.29-.23-.07-.24-.09-.87-.28-.92-.27c-.77-.25-1.55-.48-2.32-.71l-.54-.16-1.07-.3-1.85-.52-1-.26-1.38-.35-1.5-.37-.93-.23c-1.19-.27-2.78-.63-4-.88l-.52-.1.1,0-3.42-.66c-1.21-.21-2.84-.49-4.06-.68l-3.85-.53c-1.25-.14-2.92-.34-4.18-.46l-2.88-.25,1.62.14-2.59-.21-3.74-.21h-.14s0,0,0,0l-.44,0h0L2209.14,303l-94.25-3.66-95.8-3.72-97.41-3.78-99-3.85-100.72-3.91-102.44-4-51.88-2-52.32-2-52.78-2.05L1409.26,272l-53.71-2.08-54.17-2.11h0l-4.55-.12h-.34c-1.73,0-2.59,0-4.67,0h-.18l-4.26.11c-1.53.08-3.57.18-5.1.28l-4.3.34-1.39.15h.11c-1.33.14-2.8.29-4,.43l-4.15.57-.56.09a170.19,170.19,0,0,0-29.07,6.9l-2.9,1,1.13-.37-1.06.36-1.38.48-1.36.47-3.5,1.29c-2,.8-4.71,1.88-6.71,2.7l-3.42,1.49c-4.08,1.87-4.59,2.1-6.77,3.18h0l-.07,0-.44.21-.12.06-.07,0-3.3,1.64-.12.06-.12.06-.12.05-.07,0,0,0-1.08.54.88-.44-.53.27-.58.29-.17.09-.18.09-.46.25c-2.08,1.06-3.53,1.83-6.83,3.65l-4.16,2.42-1.59,1-.1.06-1.45.9-.08.05-1.38.86,0,0c-2.38,1.5-4.61,3-7.86,5.26h0l-1.38,1-.47.35h0l-2.56,1.9,2.56-1.9c-1.13.82-2.2,1.61-3.23,2.39h0l-.67.49-.53.42h0l-1.13.89,1.12-.89c-1.12.87-2.17,1.71-3.16,2.52h0l-1.62,1.32-.07.06-1.54,1.29-.09.07-.77.66,0,0-.13.12c-.36.3-.71.61-1.06.92l-.67.58-.24.21-.56.5a166.85,166.85,0,0,0-23.77,26.09l-.27.35-.9,1.21-1.27,1.83-.62.91-2.59,3.76c-1.59,2.54-3.74,5.92-5.25,8.5l-4,7.33-1.71,3.48.76-1.62c-.28.58-.54,1.15-.82,1.72-.56,1.14-1.12,2.29-1.64,3.38l-.3.61a158,158,0,0,0-7.08,17.57l-.17.48-.2.63c-.67,2-1.32,4-1.93,6l-.62,1.95c-.37,1.39-.82,3-1.27,4.63,0,.18-.1.36-.14.53-.39,1.44-.77,2.86-1.07,4.1l-.16.71a171,171,0,0,0-3.47,17.74s0,0,0,.07l0,.2-.13,1c-.21,1.6-.43,3.26-.64,5l-.1.79.3-2.74c-.16,1.31-.31,2.63-.46,4l-.19,1.53c0,.5-.09,1-.14,1.58l-.06.7s0,.1,0,.15a.28.28,0,0,0,0,.09v-.06l0,.43,0,.23.06-.6-.18,1.64-.19,2.51c0,.18,0,.36,0,.54s0,.32,0,.47,0,.48-.05.71l0,.43c0,.38,0,.75-.08,1.1l-.13,2.35c0,.71-.08,1.65-.11,2.36l-.06,1.79v.59c0,.32,0,.68,0,1.05v.45l0,.89,0,2.4C1105.6,461.84,1105.59,462.8,1105.59,463.53Zm10.4-10c0,.76,0,1.53,0,2.3,0-.58,0-1.16,0-1.74C1116,453.93,1116,453.74,1116,453.56Zm.43,18.1v0Zm3-13.91c0-.32,0-.65,0-1,0-.87,0-1.72,0-2.58C1119.45,455.37,1119.44,456.56,1119.46,457.75Zm.1-9.71c0,1.28-.08,2.57-.1,3.86,0-.21,0-.42,0-.63C1119.49,450.19,1119.53,449.12,1119.56,448Zm0,14.36s0-.06,0-.09c0-.72,0-1.43,0-2.14Zm0,1.45-.06-1.5c0,.37,0,.74,0,1.11C1119.59,463.59,1119.59,463.72,1119.6,463.85Zm.51-26.44c0,.5-.08,1-.11,1.51s-.07,1-.1,1.52c-.12,1.89-.21,3.79-.29,5.7,0-.1,0-.21,0-.31.07-1.81.17-3.6.28-5.39,0-.5.06-1,.1-1.51s.07-1,.1-1.51Zm-.36,29.8c0,.4,0,.78,0,1.18,0-.45-.06-.91-.08-1.35s0-1,0-1.45C1119.69,466.13,1119.72,466.67,1119.75,467.21Zm.43,6.76c0,.45,0,.89.09,1.34-.1-1.18-.19-2.35-.27-3.53l0-.48C1120,472.19,1120.11,473.08,1120.18,474Zm.17-39.57c0,.38-.07.76-.1,1.14,0-.37.06-.75.1-1.12Zm0-.1s0,.08,0,.12v0S1120.36,434.33,1120.36,434.3Zm.05,42.67c0-.13,0-.27,0-.41l0-.34c0,.13,0,.25,0,.38S1120.39,476.85,1120.41,477Zm.44,4.46a.14.14,0,0,1,0-.06h0c-.12-1.07-.21-2.13-.31-3.19.09.93.19,1.87.29,2.81C1120.82,481.13,1120.83,481.28,1120.85,481.43Zm.13,1.37c0-.33-.07-.66-.1-1,0,.32.07.65.1,1Zm.3,2.57c-.08-.62-.15-1.24-.22-1.87,0-.15,0-.3,0-.45v0c0,.15,0,.29,0,.43s0,0,0,0v.08Zm1.09-67.19c-.13.82-.26,1.65-.38,2.47,0-.31.08-.64.13-.95C1122.19,419.19,1122.29,418.69,1122.37,418.18Zm2.42-24.39c-.61,2.08-1.2,4.18-1.75,6.3.5-1.95,1-3.88,1.6-5.8Zm.16,11c-.16.72-.31,1.44-.47,2.16.11-.52.21-1,.32-1.56Zm3.88-14.57c-.19.62-.39,1.22-.57,1.84l.12-.41C1128.52,391.22,1128.68,390.75,1128.83,390.27Zm2.36-14.77c-.49,1.22-1,2.45-1.46,3.69.09-.21.16-.43.25-.65.14-.37.29-.75.43-1.13Zm2.65-6.21c-.6,1.36-1.2,2.71-1.78,4.09.08-.2.16-.41.25-.61s.2-.47.31-.71C1133,371.13,1133.43,370.21,1133.84,369.29Zm-1,9.22,0,0a1.19,1.19,0,0,1,.08-.16c-.18.47-.36.95-.53,1.42C1132.52,379.33,1132.65,378.92,1132.8,378.51Zm4.33-16.2q-1.28,2.55-2.47,5.15c.08-.16.15-.33.23-.49q1-2.25,2.14-4.45Zm-1.88,10c0-.11.1-.21.14-.32l-.36.89C1135.11,372.7,1135.18,372.51,1135.25,372.32Zm4.75-15.5q-1.15,2.13-2.25,4.3c.52-1,1-2.07,1.6-3.09l.57-1.08Zm-2.11,9.45.13-.25c-.06.12-.11.24-.16.36l-.18.38Zm3.08-6.37-.14.27a3.59,3.59,0,0,0-.17.34l.06-.14Zm2.81-5.36-.15.28.1-.2Zm2-7.61-.11.19a.35.35,0,0,1,0-.08Zm0,4.11v0h0Zm.61-1-.09.15c-.13.23-.27.46-.41.69a.21.21,0,0,0,0-.06Zm2.1-3.49c-.29.47-.57.95-.85,1.42l-.45.72c.33-.54.65-1.09,1-1.64C1148.25,346.84,1148.36,346.68,1148.46,346.51Zm2.72-4.25c-.2.3-.39.6-.58.9s-.41.61-.6.91l.47-.75C1150.7,343,1150.94,342.61,1151.18,342.26Zm1.49-2.23-.41.61-.12.18Zm.27-.41-.1.14,0-.05a.18.18,0,0,1,0-.07Zm.38-.54,0,.05-.24.33Zm1.14-1.63-.43.62a1,1,0,0,1-.08.11l-.18.25Zm.86-1.2-.21.29-.29.4a2.14,2.14,0,0,1,.13-.19Zm2.25-3.05-.18.25-.16.22-.42.56c-.12.17-.25.33-.38.5l.65-.88Zm1.86-2.41c-.13.17-.26.35-.4.52l-.33.42.56-.73Zm.24,22.81L1159,355c.16-.3.3-.61.46-.91Zm1-24.37c-.17.21-.33.42-.5.62s-.23.29-.35.44C1160.11,329.93,1160.39,329.58,1160.68,329.23Zm.79-1,0,0-.13.16Zm.22,21.63c.07-.12.14-.24.2-.36l-.51.94C1161.49,350.26,1161.59,350.06,1161.69,349.87Zm.38-22.34c-.07.07-.12.15-.18.22a.39.39,0,0,0-.08.1l-.33.38,0,0C1161.68,328,1161.88,327.75,1162.07,327.53Zm1.8-2.15c-.11.13-.22.27-.34.4v0l-.28.32c.1-.11.19-.23.28-.34Zm2.2-2.51-.14.16-.91,1,.57-.65Zm2-2.23-.23.25-.41.45-.14.14.37-.41Zm.65-.69-.06.06,0,0Zm1.15-1.22a.12.12,0,0,1-.05,0l-.26.27.25-.27,0,0Zm.15-.16,0,0-.1.11Zm1-1,0,.06-.06.06Zm.79-.8-.26.26,0,0Zm.15-.16h0l0,.05Zm1-1-.18.19-.56.55-.09.09C1172.42,316.15,1172.7,315.88,1173,315.6Zm1.21-1.18-.1.09-.09.09-.1.1,0,0Zm1.42-1.35-.26.25-.41.38Zm.64-.61-.21.2-.16.15.15-.15Zm1.65-1.51-.22.21-.23.2Zm.24-.22,0,0-.11.1Zm.32-.29-.06.05-.25.23h0Zm2.51-2.2-.32.28-.12.11-.49.41.15-.13Zm1.29-1.1-.2.17s0,0,0,0l.22-.2Zm.36-.3,0,0-.12.1Zm1.86-1.53,0,0-.39.33-.15.11.42-.34Zm2.13-1.69-.06.05-.12.09,0,0-.27.23c-.24.18-.48.36-.71.55l.94-.75Zm3.34-2.53-.79.6-1,.73-.08.06.41-.31C1189,301.8,1189.47,301.45,1190,301.09Zm.65-.49-.09.07,0,0,.09-.07Zm.29-.2,0,0-.15.1Zm.95-.68,0,0,0,0Zm1.19-.84c-.17.11-.34.24-.51.36l-.24.17.41-.3Zm1.54-1.07-.19.13-.07.05Zm.91-.61-.06,0-.6.4,0,0-.12.07.08-.05Zm1.73-1.15-.34.23-.26.17.31-.21Zm2-1.25-.49.32-.18.11.56-.36Zm2.28-1.4-.24.15-.22.13.21-.13Zm2.09-1.24-.54.31.37-.22h0Zm3.58-2-1.68.93-.52.3-.4.23.4-.23.52-.3,1.62-.89Zm1.7-.91-1.14.61,1-.54Zm1.72-.9-1.1.58.9-.47Zm1.52-.77-.22.11.15-.07h0Zm81.73-18.48-1.88.05,1,0h.83Zm7.81-1.27h0Zm.39,0Zm0,0h0Zm.18,0-.12,0,.12,0Zm0,0h0Zm.1,0h0Zm.2.05h0l-.1,0h0Zm.06,0h0Zm.31.12a2.08,2.08,0,0,0-.3-.12l.15,0Zm.07,0-.09,0h0Zm.09.05,0,0,0,0,0,0Zm.26.18a.77.77,0,0,0-.21-.14l0,0,.07,0,.1.07A.27.27,0,0,1,1303.29,268.35Zm.22.23a1,1,0,0,0-.27-.23h.07a.47.47,0,0,1,.1.1l.1.11Zm.13.23h0a.94.94,0,0,0-.12-.22l.07.1A.61.61,0,0,1,1303.64,268.81Zm0,0h0v0h0Zm0,.14h0a.24.24,0,0,0,0-.08l0,0h0V269Zm0,.1v0h0V269h0v.09Zm1000.39,38.31h0Zm87.4,31.74-.11-.07-.19-.14ZM2493.33,512.2h0Zm270.48,2968.72h0Zm-.69.37.08,0-.08,0Zm-.82.34.19-.07-.18.07Zm-.93.32.26-.09h0l-.25.08Zm-975.19,241.59v0h0s0-.08,0-.12h0s0-.07,0-.11h0v.2Zm0,.24v0a.43.43,0,0,1,0,0h0l0-.12h0v.21Zm0,0s0,0,0,0a0,0,0,0,1,0,0v0Zm0,0v0h0v0Zm0,.06h0l0,0v0Zm-.18.4v0h0Zm0,0h0a0,0,0,0,0,0,0Zm-.29.36h0l0,0h0Zm-.47.4h0l.07,0Zm-.61.38h0l.16-.08h0Zm-.73.35h0l.27-.11Zm-.83.32.39-.13h0Zm-111.75-5.63h0l.21.08Zm-8.63-3.74.08,0h0Zm-4.5-2.18.55.26h0Zm-8.4-2.55.11.06,0,0,0,0Zm-.93-2.51.55.31h0C1649.1,3709.75,1648.93,3709.64,1648.76,3709.55Zm-3.82-2.28c-.44-.27-.87-.56-1.3-.83.84.53,1.69,1,2.54,1.55.21.13.42.27.63.39C1646.19,3708,1645.56,3707.65,1644.94,3707.27Zm-1.67,1.12,1.55.93-.16-.1-.46-.26C1643.89,3708.78,1643.58,3708.58,1643.27,3708.39Zm-.21-18.35,1.13.89-1-.81s0,0-.05,0Zm-2.4,14.51c-.71-.46-1.41-1-2.11-1.42l1.59,1,1.25.83Zm-2.54.66.88.56-.51-.32Zm-1.87-3.63.52.34.26.19-.6-.41Zm-5.71-4.15c.61.47,1.24.9,1.86,1.35l-.12,0c.73.53,1.47,1,2.21,1.56.36.26.71.53,1.08.78-1.11-.77-2.21-1.55-3.3-2.35C1631.69,3698.3,1631.11,3697.87,1630.54,3697.43Zm-5.55-4.34q2.71,2.2,5.48,4.3l0,0-1.83-1.39-1.81-1.42Zm-3.57-3h0l0,0h0Zm-.47-.4h0l.14.11h0l-.14-.12Zm-.57-.5h0l.15.12Zm-.54-.46h0l.33.29h0Zm-.21-.19.12.11h0l-.12-.1Zm0,0v0h0Zm-.2-.17,0,0,.07.06A.39.39,0,0,1,1619.4,3688.36Zm-2.64-2.37s0,0,0,.05l.17.16.18.16.07.06-.23-.2Zm-2.44-2.25.18.16.12.11-.22-.19Zm-2.55-2.44.2.18.07.07-.2-.19Zm-2.48-2.47.25.24,0,0-.27-.27Zm-.45-.47.05,0,.08.09,0,0Zm-1.46-1.49.29.29.09.1Zm-.38-.39.07.06,0,.06-.07-.07S1607,3676.49,1607,3676.48Zm-1.92-2,.06.06,0,.05Zm-.35-.37a1.14,1.14,0,0,0,.11.11l.07.08-.1-.1Zm-.35-.39.07.08.13.14A2.09,2.09,0,0,1,1604.38,3673.68Zm-1.86-2a1.54,1.54,0,0,1,.17.19l.14.15-.22-.24Zm-.76-.86.09.1.15.17Zm-1.15-1.3.11.13,0,0Zm-.17-.19Zm-.11-.13,0,0,.08.09h0Zm-.49-.57s0,0,.05.05l0,0,.06.06Zm-1.17-1.36.29.34.08.09Zm-.32-.37.05.05.1.12,0-.06Zm-.18-.22v0l0,0Zm-1.74-2.09.26.31a1.13,1.13,0,0,1,.1.13l-.3-.37Zm-1.25-1.54.15.18.1.12Zm-.58-.72.08.1,0,.06C1594.69,3662.41,1594.64,3662.36,1594.6,3662.3Zm-.25-.32.09.11.14.19,0,0Zm-1.68-2.13.12.16,0,.06Zm-.34-.45.26.34a.86.86,0,0,1,.07.1h0Zm-.78-1a.76.76,0,0,0,.08.11l.14.18Zm-.32-.41h0Zm-.48-.63.12.16a.83.83,0,0,1,.11.15l-.11-.15Zm-.85-33,.22.42-.06-.12Zm-1.28,30.07c.06.08.12.15.17.23.19.25.36.51.55.76l-.22-.3Zm-1.42-2,.13.17.2.3a1.43,1.43,0,0,0-.14-.2Zm-1.49-2.13.11.16c.12.18.25.35.37.52l.13.2C1586.12,3650.94,1585.91,3650.65,1585.71,3650.35Zm-.08-.11.06.09h0Zm-.08-34.54v0c.07.16.14.31.22.46C1585.7,3616,1585.62,3615.86,1585.55,3615.7Zm-.15,34.2Zm-1.4-2.05.09.13.13.2-.14-.21Zm-.19-.28,0,.06a.22.22,0,0,0,.05.08Zm-.55-36.84.39.87-.18-.39c0-.05,0-.11-.08-.16S1583.3,3610.84,1583.26,3610.73Zm-.9,34.65.08.12a2.14,2.14,0,0,0,.13.19l-.07-.09Zm-1.51-2.34.48.74.24.37c-.21-.32-.42-.64-.62-1A1.3,1.3,0,0,0,1580.85,3643Zm.5-36.66-.22-.55.48,1.14C1581.53,3606.77,1581.44,3606.58,1581.35,3606.38Zm-1,35.87a.61.61,0,0,1,.07.1l.17.27v0C1580.52,3642.51,1580.44,3642.38,1580.35,3642.25Zm-.6-1,0,.07,0,.08Zm-.32-.5,0,0v0Zm-.1-.16.06.09,0,0h0Zm-.13-.21h0v0Zm-.45-.74,0,0,0,0Zm-.82-1.34.24.39a2.53,2.53,0,0,1,.13.22c-.11-.2-.23-.39-.35-.58Zm-.22-.38.06.1.13.23Zm-.46-.78,0,.06a.41.41,0,0,1,0,.09Zm-.88-1.47c.06.11.13.21.2.32a2.54,2.54,0,0,0,.16.28c-.08-.12-.15-.24-.22-.37S1576.42,3635.77,1576.37,3635.7Zm-.35-.61Zm-.38-.66,0,.09.06.1Zm-.38-.65a.43.43,0,0,1,0,.07l0,0Zm-.81-1.44.22.39c.16.27.31.55.46.82l0-.07C1574.87,3633.1,1574.66,3632.72,1574.45,3632.34Zm-.74-1.32.15.26.07.14Zm-.67-1.23.34.62.33.6h0C1573.47,3630.6,1573.26,3630.2,1573,3629.79Zm-1-1.74.19.36.2.36a2.53,2.53,0,0,0-.13-.22C1572.26,3628.38,1572.18,3628.21,1572.09,3628.05Zm-.76-1.43.11.19a1,1,0,0,1,0,.1Zm-.62-1.2.24.46c.07.15.15.29.22.44,0-.09-.09-.17-.13-.26S1570.82,3625.64,1570.71,3625.42Zm-.57-1.09.1.19a1.74,1.74,0,0,0,.1.19Zm-.58-1.13.08.14.17.36a1,1,0,0,0-.07-.15Zm-1.14-2.28.06.11h0l.31.6.08.17c.09.17.17.34.25.51-.21-.43-.43-.85-.64-1.28A.47.47,0,0,0,1568.42,3620.92Zm-.1-54.32.09.36.18.79Zm-.24,53.61.06.11.09.21Zm-.25-55.68a.25.25,0,0,0,0,.07,1.6,1.6,0,0,0,.05.21c0,.15.06.3.1.45C1567.94,3565,1567.89,3564.77,1567.83,3564.53Zm-.78,53.56.21.42.18.39c-.07-.14-.14-.28-.2-.42S1567.11,3618.22,1567.05,3618.09Zm.37-55.36c0,.19.09.38.13.56.08.37.16.73.25,1.1C1567.67,3563.84,1567.54,3563.29,1567.42,3562.73Zm-.28-1.27.09.37c.06.29.11.57.18.86l-.27-1.23h0c0-.08,0-.17-.05-.25,0,.1.05.21.07.31Zm-.49,55.77.06.14.11.22C1566.76,3617.47,1566.7,3617.35,1566.65,3617.23Zm-.27-.56,0,0v0Zm-.41-.87a2.39,2.39,0,0,1,.13.28.61.61,0,0,1,.07.14,2.92,2.92,0,0,1-.14-.31Zm.16-59.16c0-.15-.05-.3-.08-.45l.12.6a3.4,3.4,0,0,0,.07.34C1566.2,3557,1566.17,3556.8,1566.13,3556.64Zm-.8,57.75c.05.11.11.23.16.35s.22.5.34.74C1565.66,3615.12,1565.49,3614.75,1565.33,3614.39Zm-.57-1.24.2.42.12.27-.24-.51A1.42,1.42,0,0,0,1564.76,3613.15Zm-.28-.63a.2.2,0,0,1,0,.08c0,.09.08.17.11.26Zm-.13-65.87c.12.75.23,1.5.36,2.24l-.18-1Zm-.66,64.08c0,.11.1.21.14.31a2.44,2.44,0,0,1,.1.24Zm-.62-1.44c.09.22.19.42.28.63l.35.81h0C1563.48,3610.24,1563.28,3609.77,1563.07,3609.29Zm.35-68.61Zm-.81,67.53c0,.11.09.22.14.34l.06.13C1562.74,3608.52,1562.67,3608.37,1562.61,3608.21Zm-.23-.55a1.11,1.11,0,0,0,.07.16l.12.3,0-.06Zm-1.19-2.87.19.45.63,1.53,0,.08c-.2-.49-.41-1-.61-1.46Zm-.28-.69.08.18,0,.12Zm-.55-1.37a1.67,1.67,0,0,1,.08.2h0l0,0Zm-1.34-3.47.29.74,0,0,.28.69c.1.25.19.51.29.76l.5,1.29v0c-.36-.91-.71-1.81-1.06-2.72Zm-.89-2.4.12.33.21.57-.21-.57Zm-.77-2.11c.17.47.35.93.52,1.4,0,.14.09.28.14.42Zm-.39-1.12.09.25.21.61a.49.49,0,0,1,0-.11C1557.14,3594.13,1557.05,3593.88,1557,3593.63Zm-1-3c.13.4.27.79.41,1.18l.24.73-.34-1C1556.13,3591.24,1556,3590.92,1555.93,3590.61Zm-.64-1.9a2.09,2.09,0,0,0,.08.23c0,.11.07.22.11.33s.08.26.13.39C1555.5,3589.34,1555.39,3589,1555.29,3588.71Zm0-.13a.56.56,0,0,0,0,.12h0Zm-.19-.58s0,0,0,.06,0,.09,0,.14Zm-.71-2.19.33,1h0c0,.11.07.23.11.34C1554.64,3586.71,1554.5,3586.26,1554.35,3585.81Zm-.51-1.66c0,.15.09.29.14.43.1.34.2.69.31,1Zm-.52-1.67c0,.16.11.32.15.48s.07.23.11.35c-.06-.2-.13-.4-.19-.6A2,2,0,0,0,1553.32,3582.48Zm-1-3.43c.07.26.15.52.23.78l.24.83c-.1-.33-.2-.65-.29-1Zm-.5-1.77c0,.17.1.33.14.5s.07.26.11.39C1552,3577.87,1551.9,3577.57,1551.82,3577.28Zm-.21-.74,0,.1h0c0,.07,0,.13,0,.2v0c0-.08,0-.16-.07-.25A.29.29,0,0,0,1551.61,3576.54Zm-.66-2.44c.11.4.22.79.32,1.18s.19.72.29,1.07C1551.35,3575.6,1551.15,3574.85,1551,3574.1Zm-.53-2c0,.17.09.33.13.5.09.35.17.7.26,1a1.21,1.21,0,0,0,0-.18C1550.65,3573,1550.53,3572.5,1550.42,3572.05Zm-.73-2.89c.06.23.12.45.17.68l.18.75c0-.15-.07-.29-.11-.44Zm-.68-2.83c.07.31.15.61.22.91l.21.87c-.1-.41-.21-.82-.3-1.23C1549.09,3566.69,1549.05,3566.51,1549,3566.33ZM1139.79,483.47q-.35-2.79-.64-5.6c0-.34-.06-.68-.1-1-.52-5.24-.87-10.4-1.09-15.51-1.13-30.3,2.84-61.67,13.69-90.14l.06-.16c.14-.35.28-.69.41-1q.87-2.16,1.79-4.28c.25-.59.5-1.17.76-1.75l.12-.26c.49-1.1,1-2.18,1.5-3.26l.78-1.67a1,1,0,0,0,.07-.15l.36-.73c.2-.41.41-.81.61-1.22,1.31-2.58,2.65-5.12,4-7.59l.1-.19a170.6,170.6,0,0,1,43.71-48.6,197.59,197.59,0,0,1,32.67-19.11,190.19,190.19,0,0,1,42-11.22,176.18,176.18,0,0,1,18.27-.94c-.9,0-1.8,0-2.69,0,.69,0,1.37,0,2.07,0h.62c1.61,0,3.22,0,4.85.11h0v0h0l1000.6,38.76a137.1,137.1,0,0,1,19.15,2.09,150,150,0,0,1,18.82,4.68,165.55,165.55,0,0,1,18.35,7.08,183,183,0,0,1,17.73,9.31c1,.63,2.06,1.27,3.1,1.91,53.21,33.72,95.4,96.28,109.71,168.74q1,5.22,1.83,10.4L2891.2,3235.5c.09.63.17,1.25.26,1.87,14.3,113.1-38.5,215.84-123.62,241-.9.25-1.8.5-2.71.73l-979,244.2v.06h0s0,0,0-.07c-1.15.29-2.3.55-3.44.81q-9,1.9-17.37,3c-1.32-.11-2.62-.26-3.83-.46a33.16,33.16,0,0,1-5-1.22,13.92,13.92,0,0,1-3.49-1.63,3,3,0,0,1-1.46-1.88,163.72,163.72,0,0,1-28.27,4.45q-6.67-1-13.24-2.62a164,164,0,0,1-35.33-13.08c-1.27-.64-2.53-1.3-3.78-2l-1.06-.58c-.63-.34-1.25-.69-1.87-1l-.9-.51-1-.6c-1-.57-2-1.16-3-1.76l-.66-.39c-.68-.42-1.35-.86-2-1.29-.92-.58-1.83-1.18-2.75-1.78.92.61,1.83,1.2,2.75,1.78-.59-.37-1.17-.72-1.75-1.1l-.19-.12c-.69-.45-1.37-.91-2-1.37l1.24.81c-5.24-3.47-10.53-7.36-15.82-11.68-1.08-.91-2.15-1.84-3.21-2.77-14.17-15.85-25.77-29-35.36-41.8-10.54-17.76-17.56-29.9-22.51-39.77a264.82,264.82,0,0,1-9.35-27.09c-.93-4.59-2.24-9.1-3.55-13.61q-2.13-9.23-3.76-18.89c-.22-1.46-.47-2.91-.67-4.39Zm-1.18-11.19v0c0-.13,0-.25,0-.38h0c0,.12,0,.24,0,.36v0c0,.17,0,.35.05.52C1138.64,472.62,1138.62,472.45,1138.61,472.28ZM1547.8,3560.91l.45,2,.15.66,0,0,.18.79a2,2,0,0,1,0,.24c-.07-.34-.15-.68-.23-1C1548.18,3562.69,1548,3561.8,1547.8,3560.91Zm-.29-1.4c0,.11,0,.23.07.34l.09.45c0-.1,0-.21-.07-.31Zm-.83-4.17c.12.61.25,1.22.37,1.83s.18,1,.28,1.48c-.15-.76-.31-1.51-.45-2.27C1546.81,3556,1546.75,3555.68,1546.68,3555.34Zm-.27-1.45,0,.18,0,.12Zm-.84-4.76c.12.75.26,1.48.39,2.22l.3,1.76c0-.12,0-.25-.07-.37C1546,3551.54,1545.77,3550.34,1545.57,3549.13Zm-.28-1.67c.09.57.2,1.13.29,1.7a.08.08,0,0,0,0,0v0Zm-39.14-178.07,2.31,16.64,21.4,154.67Zm-132.57-958,7.22,52.2,16.91,122.22Zm-68.77-558.84,74.91,541.18L1368,2309.19l-21.16-152.82-21.11-152.56Zm-40.6-293.32,40.3,291.18-20.88-150.89Zm-17-60.75,7.2,52.06,5,36.46ZM1118.4,491.57l3.47-1.64,422.51,3051.42q.4,3,.89,6l0-.17-.3-1.93c-.1-.64-.19-1.29-.29-1.93l-.27-1.94-3.78-.06Zm20.1,227.15,19.19,138.65-8.29-59.89ZM1108.67,497l20.72,149.73,20.75,150L1170.93,947l20.83,150.5,20.86,150.76,13.39,96.72Z" transform="translate(-1105.59 -267.65)"/><path class="cls-11" d="M1173.44,311.75v0h0Z" transform="translate(-1105.59 -267.65)"/><path class="cls-11" d="M1236,277.52l.07,0-.22.08Z" transform="translate(-1105.59 -267.65)"/><path class="cls-11" d="M1275.05,268.72l-1.61.18Z" transform="translate(-1105.59 -267.65)"/><path class="cls-11" d="M1276,268.61h0l.57-.05-1.54.16Z" transform="translate(-1105.59 -267.65)"/><path class="cls-11" d="M1291.44,267.68h.06l-1.34,0Z" transform="translate(-1105.59 -267.65)"/><path class="cls-12" d="M1133.61,434.94a213.68,213.68,0,0,1,8-46.93A185.71,185.71,0,0,1,1159,347a164,164,0,0,1,25.63-33.65q4.41-4.42,9.14-8.45a168.18,168.18,0,0,0-17.5,25.05,188.29,188.29,0,0,0-17.38,41.39,218,218,0,0,0-8,47.41c-.25,3.92-.37,7.92-.39,12s.06,8.14.24,12.26.45,8.27.81,12.41.78,8.28,1.28,12.39q52.13,380.07,104.55,762.3L1362.82,1999q53,386.63,106.36,775.47,53.49,390,107.28,782.17a271,271,0,0,0,10.35,45.87,246.6,246.6,0,0,0,17.26,40.89,223.48,223.48,0,0,0,23.21,35.12c1.76,2.17,3.56,4.28,5.38,6.36a201.41,201.41,0,0,1-22.65-23.53,220.64,220.64,0,0,1-23.21-34.75,242.88,242.88,0,0,1-17.26-40.48,265.75,265.75,0,0,1-10.35-45.4q-53.79-388.2-107.28-774.18-53.33-384.87-106.36-767.54L1240.1,1238,1135.55,483.47c-.5-4.07-.93-8.17-1.28-12.27s-.63-8.2-.81-12.28-.27-8.13-.24-12.14S1133.36,438.82,1133.61,434.94Z" transform="translate(-1105.59 -267.65)"/><path class="cls-13" d="M1750.46,380.6a16.68,16.68,0,0,0,16.8,16.66q76.32-1.38,152.67-.33c9.14.11,16.71-6.82,16.92-15.51h0c.21-8.7-7.08-16-16.28-16.25q-76.85-2-153.71-1.67a16.62,16.62,0,0,0-16.4,17.1Z" transform="translate(-1105.59 -267.65)"/><path class="cls-10" d="M1920,392.05c6.32.09,11.58-4.72,11.72-10.75s-4.92-11.09-11.28-11.25q-76.76-1.89-153.55-1.36a11.69,11.69,0,0,0,.28,23.38Q1843.61,390.86,1920,392.05Z" transform="translate(-1105.59 -267.65)"/><g class="cls-14"><path d="M1764.16,403.3l-.72.75Q1740,380.83,1716,357l.72-.77Q1740.69,380.08,1764.16,403.3Z" transform="translate(-1105.59 -267.65)"/><path d="M1770.69,403.16l-.71.75q-23.45-23.18-47.34-47l.72-.76Q1747.26,380,1770.69,403.16Z" transform="translate(-1105.59 -267.65)"/><path d="M1777.23,403l-.71.75q-23.41-23.16-47.28-46.93l.72-.76Q1753.82,379.88,1777.23,403Z" transform="translate(-1105.59 -267.65)"/><path d="M1783.77,402.93l-.72.74q-23.37-23.13-47.21-46.87l.72-.76Q1760.4,379.8,1783.77,402.93Z" transform="translate(-1105.59 -267.65)"/><path d="M1790.3,402.82l-.71.74q-23.35-23.1-47.15-46.82l.72-.75Q1767,379.72,1790.3,402.82Z" transform="translate(-1105.59 -267.65)"/><path d="M1796.84,402.72l-.72.74q-23.31-23.07-47.08-46.76l.72-.75Q1773.52,379.65,1796.84,402.72Z" transform="translate(-1105.59 -267.65)"/><path d="M1803.38,402.64l-.72.73q-23.29-23-47-46.7l.72-.75Q1780.09,379.59,1803.38,402.64Z" transform="translate(-1105.59 -267.65)"/><path d="M1809.91,402.56l-.72.73q-23.25-23-47-46.65l.72-.74Q1786.66,379.54,1809.91,402.56Z" transform="translate(-1105.59 -267.65)"/><path d="M1816.45,402.49l-.72.73q-23.22-23-46.89-46.6l.72-.74Q1793.23,379.49,1816.45,402.49Z" transform="translate(-1105.59 -267.65)"/><path d="M1823,402.42c-.24.25-.48.49-.73.73q-23.17-22.95-46.82-46.54l.72-.73Q1799.8,379.46,1823,402.42Z" transform="translate(-1105.59 -267.65)"/><path d="M1829.52,402.37l-.72.73q-23.16-22.94-46.76-46.48l.72-.74Q1806.37,379.44,1829.52,402.37Z" transform="translate(-1105.59 -267.65)"/><path d="M1836.06,402.33l-.72.72q-23.13-22.91-46.7-46.42l.72-.74Q1812.94,379.42,1836.06,402.33Z" transform="translate(-1105.59 -267.65)"/><path d="M1842.6,402.29l-.73.72q-23.08-22.86-46.63-46.37l.72-.72Q1819.51,379.41,1842.6,402.29Z" transform="translate(-1105.59 -267.65)"/><path d="M1849.14,402.27l-.73.71q-23.07-22.83-46.57-46.31l.72-.72Q1826.08,379.43,1849.14,402.27Z" transform="translate(-1105.59 -267.65)"/><path d="M1855.68,402.25l-.73.71q-23-22.81-46.51-46.25l.72-.72Q1832.63,379.44,1855.68,402.25Z" transform="translate(-1105.59 -267.65)"/><path d="M1862.21,402.24c-.24.24-.48.48-.73.71q-23-22.79-46.44-46.2l.72-.71Q1839.21,379.45,1862.21,402.24Z" transform="translate(-1105.59 -267.65)"/><path d="M1868.75,402.24l-.73.71q-23-22.76-46.39-46.14l.73-.72Q1845.78,379.48,1868.75,402.24Z" transform="translate(-1105.59 -267.65)"/><path d="M1875.29,402.25l-.73.71q-22.95-22.72-46.33-46.09l.73-.71Q1852.34,379.52,1875.29,402.25Z" transform="translate(-1105.59 -267.65)"/><path d="M1881.83,402.27l-.74.7q-22.9-22.7-46.26-46l.73-.72Q1858.92,379.57,1881.83,402.27Z" transform="translate(-1105.59 -267.65)"/><path d="M1888.36,402.3l-.73.7q-22.87-22.68-46.2-46l.73-.71Q1865.49,379.62,1888.36,402.3Z" transform="translate(-1105.59 -267.65)"/><path d="M1894.9,402.33l-.73.7q-22.86-22.63-46.14-45.91l.73-.71Q1872.05,379.69,1894.9,402.33Z" transform="translate(-1105.59 -267.65)"/><path d="M1901.44,402.38l-.73.69q-22.83-22.6-46.08-45.85l.73-.71Q1878.63,379.76,1901.44,402.38Z" transform="translate(-1105.59 -267.65)"/><path d="M1908,402.43l-.74.69q-22.79-22.58-46-45.8l.74-.7Q1885.18,379.84,1908,402.43Z" transform="translate(-1105.59 -267.65)"/><path d="M1914.52,402.49l-.74.69q-22.77-22.55-46-45.74l.74-.7Q1891.75,379.93,1914.52,402.49Z" transform="translate(-1105.59 -267.65)"/><path d="M1921.05,402.57l-.73.68q-22.74-22.53-45.9-45.68l.74-.7Q1898.32,380,1921.05,402.57Z" transform="translate(-1105.59 -267.65)"/><path d="M1927.59,402.65l-.74.68q-22.69-22.5-45.83-45.63l.74-.69Q1904.89,380.14,1927.59,402.65Z" transform="translate(-1105.59 -267.65)"/><path d="M1934.13,402.73l-.74.68q-22.68-22.46-45.77-45.56l.73-.69Q1911.47,380.26,1934.13,402.73Z" transform="translate(-1105.59 -267.65)"/><path d="M1940.67,402.83l-.74.68q-22.65-22.44-45.72-45.51l.74-.69Q1918,380.4,1940.67,402.83Z" transform="translate(-1105.59 -267.65)"/><path d="M1947.2,402.94l-.74.67q-22.62-22.41-45.65-45.45l.74-.68Q1924.59,380.52,1947.2,402.94Z" transform="translate(-1105.59 -267.65)"/><path d="M1953.74,403.05l-.74.67q-22.59-22.37-45.59-45.39l.74-.68Q1931.16,380.68,1953.74,403.05Z" transform="translate(-1105.59 -267.65)"/><path d="M1960.28,403.18c-.25.22-.5.44-.74.67Q1937,381.5,1914,358.51l.75-.68Q1937.72,380.83,1960.28,403.18Z" transform="translate(-1105.59 -267.65)"/><path d="M1966.81,403.31l-.74.67q-22.53-22.32-45.47-45.28l.74-.67Q1944.29,381,1966.81,403.31Z" transform="translate(-1105.59 -267.65)"/><path d="M1973.35,403.45l-.74.67q-22.5-22.29-45.42-45.22l.75-.67Q1950.86,381.15,1973.35,403.45Z" transform="translate(-1105.59 -267.65)"/><path d="M1926.26,402.63l.71.7q23.65-21.91,47.73-42.75c-.24-.23-.47-.47-.71-.71Q1949.93,380.71,1926.26,402.63Z" transform="translate(-1105.59 -267.65)"/><path d="M1919.73,402.55l.71.7q23.63-22,47.66-42.93l-.71-.71Q1943.36,380.54,1919.73,402.55Z" transform="translate(-1105.59 -267.65)"/><path d="M1913.19,402.48l.71.7q23.6-22.1,47.61-43.11c-.23-.24-.47-.48-.71-.71Q1936.79,380.38,1913.19,402.48Z" transform="translate(-1105.59 -267.65)"/><path d="M1906.65,402.42l.71.7q23.57-22.19,47.56-43.3l-.72-.71Q1930.23,380.23,1906.65,402.42Z" transform="translate(-1105.59 -267.65)"/><path d="M1900.11,402.37l.71.7q23.55-22.27,47.5-43.48l-.71-.71Q1923.66,380.08,1900.11,402.37Z" transform="translate(-1105.59 -267.65)"/><path d="M1893.57,402.33l.72.7q23.51-22.38,47.44-43.67l-.72-.71Q1917.09,380,1893.57,402.33Z" transform="translate(-1105.59 -267.65)"/><path d="M1887,402.29l.71.71q23.48-22.47,47.38-43.85l-.71-.72Q1910.51,379.82,1887,402.29Z" transform="translate(-1105.59 -267.65)"/><path d="M1880.5,402.27l.71.7q23.46-22.56,47.32-44l-.71-.72Q1904,379.7,1880.5,402.27Z" transform="translate(-1105.59 -267.65)"/><path d="M1874,402.25l.72.71q23.41-22.65,47.26-44.22l-.72-.72Q1897.38,379.59,1874,402.25Z" transform="translate(-1105.59 -267.65)"/><path d="M1867.42,402.24l.72.71q23.38-22.74,47.2-44.4l-.71-.72Q1890.81,379.49,1867.42,402.24Z" transform="translate(-1105.59 -267.65)"/><path d="M1860.88,402.24l.72.71q23.36-22.83,47.15-44.58l-.72-.72Q1884.24,379.4,1860.88,402.24Z" transform="translate(-1105.59 -267.65)"/><path d="M1854.35,402.25l.72.71q23.33-22.92,47.08-44.76l-.72-.72Q1877.67,379.32,1854.35,402.25Z" transform="translate(-1105.59 -267.65)"/><path d="M1847.81,402.27l.72.71q23.29-23,47-45l-.72-.72Q1871.1,379.26,1847.81,402.27Z" transform="translate(-1105.59 -267.65)"/><path d="M1841.27,402.3l.72.71q23.27-23.1,47-45.13l-.72-.72Q1864.55,379.18,1841.27,402.3Z" transform="translate(-1105.59 -267.65)"/><path d="M1834.73,402.34c.25.23.49.47.73.71q23.24-23.21,46.9-45.32l-.72-.72Q1858,379.14,1834.73,402.34Z" transform="translate(-1105.59 -267.65)"/><path d="M1828.2,402.38l.72.72q23.2-23.3,46.84-45.51l-.72-.72Q1851.4,379.09,1828.2,402.38Z" transform="translate(-1105.59 -267.65)"/><path d="M1821.66,402.44l.72.71q23.17-23.38,46.78-45.68l-.72-.73Q1844.83,379.06,1821.66,402.44Z" transform="translate(-1105.59 -267.65)"/><path d="M1815.12,402.5l.73.72q23.13-23.48,46.71-45.87l-.72-.73Q1838.26,379,1815.12,402.5Z" transform="translate(-1105.59 -267.65)"/><path d="M1808.59,402.57l.72.72q23.1-23.57,46.66-46.05l-.73-.73Q1831.69,379,1808.59,402.57Z" transform="translate(-1105.59 -267.65)"/><path d="M1802.05,402.65l.73.72q23.07-23.65,46.59-46.23c-.24-.25-.49-.49-.73-.73Q1825.12,379,1802.05,402.65Z" transform="translate(-1105.59 -267.65)"/><path d="M1795.51,402.74l.73.72q23-23.74,46.53-46.42l-.73-.72Q1818.55,379,1795.51,402.74Z" transform="translate(-1105.59 -267.65)"/><path d="M1789,402.84l.73.72q23-23.83,46.46-46.6l-.73-.73Q1812,379,1789,402.84Z" transform="translate(-1105.59 -267.65)"/><path d="M1782.44,403l.73.72q23-23.93,46.4-46.78c-.24-.25-.48-.49-.73-.73Q1805.43,379,1782.44,403Z" transform="translate(-1105.59 -267.65)"/><path d="M1775.9,403.06l.73.73q22.95-24,46.34-47l-.73-.73Q1798.86,379,1775.9,403.06Z" transform="translate(-1105.59 -267.65)"/><path d="M1769.37,403.19l.73.72q22.9-24.11,46.27-47.14l-.73-.74Q1792.29,379.09,1769.37,403.19Z" transform="translate(-1105.59 -267.65)"/><path d="M1762.83,403.32l.73.73q22.88-24.21,46.21-47.33L1809,356Q1785.72,379.12,1762.83,403.32Z" transform="translate(-1105.59 -267.65)"/><path d="M1756.3,403.47l.73.72q22.85-24.29,46.14-47.51l-.73-.73Q1779.15,379.17,1756.3,403.47Z" transform="translate(-1105.59 -267.65)"/><path d="M1749.76,403.62l.73.72q22.82-24.37,46.09-47.69l-.74-.73Q1772.57,379.23,1749.76,403.62Z" transform="translate(-1105.59 -267.65)"/><path d="M1743.22,403.78l.74.72q22.77-24.47,46-47.87l-.74-.74Q1766,379.31,1743.22,403.78Z" transform="translate(-1105.59 -267.65)"/><path d="M1736.69,404l.74.72q22.74-24.56,46-48.05l-.74-.74Q1759.44,379.39,1736.69,404Z" transform="translate(-1105.59 -267.65)"/><path d="M1730.15,404.13l.74.72q22.71-24.64,45.89-48.24l-.74-.73Q1752.86,379.46,1730.15,404.13Z" transform="translate(-1105.59 -267.65)"/><path d="M1723.62,404.31l.74.73q22.67-24.74,45.82-48.42l-.74-.74Q1746.3,379.57,1723.62,404.31Z" transform="translate(-1105.59 -267.65)"/><path d="M1717.09,404.51l.74.73q22.64-24.84,45.75-48.6l-.74-.74Q1739.73,379.68,1717.09,404.51Z" transform="translate(-1105.59 -267.65)"/></g><path class="cls-15" d="M1668.88,376.43c.27,8.69,7.15,15.5,15.37,15.22s14.75-7.43,14.53-16-7.09-15.48-15.42-15.32S1668.6,367.74,1668.88,376.43Z" transform="translate(-1105.59 -267.65)"/><path class="cls-16" d="M1671.29,376.36c.22,7.31,6,13,12.89,12.82s12.37-6.25,12.19-13.48a13,13,0,0,0-12.94-12.85C1676.52,363,1671.06,369.05,1671.29,376.36Z" transform="translate(-1105.59 -267.65)"/><g class="cls-17"><path class="cls-18" d="M1677,376.2a6.82,6.82,0,1,0,13.62-.36,7,7,0,0,0-7-7A6.94,6.94,0,0,0,1677,376.2Z" transform="translate(-1105.59 -267.65)"/></g><g class="cls-19"><path class="cls-20" d="M1689.33,381.86a2.44,2.44,0,1,1-2.51-2.49A2.5,2.5,0,0,1,1689.33,381.86Z" transform="translate(-1105.59 -267.65)"/></g><g class="cls-21"><path class="cls-22" d="M1673.7,376.29c.18,5.87,4.84,10.53,10.41,10.36a10.65,10.65,0,0,0-.61-21.27C1677.9,365.5,1673.52,370.42,1673.7,376.29Z" transform="translate(-1105.59 -267.65)"/></g><g class="cls-8"><g class="cls-23"><path class="cls-24" d="M2372.11,2274.79l-17,2.23-16.94,2.22,14.12,99L2366.5,2477l16.94-2.22,16.95-2.22-2.81-19.6-2.74-19.53,4.2-8.54,4.28-8.45,8.4,14.32c4.66,8,11.47,19.56,15.13,25.71l6.57,11.21,20-2.36c12.21-1.5,20-2.71,19.9-3.24s-11.69-19.26-25.74-41.65l-25.68-40.75,9.69-19.15c5.31-10.4,12.24-23.93,15.28-30l5.52-10.81-19.6,2.58-19.53,2.55-13.1,26.32-13,26.31-7.56-51.38-7.49-51.4" transform="translate(-1105.59 -267.65)"/><polyline class="cls-24" points="679.67 2095.9 629.42 2102.49 579.18 2109.07 592.52 2202.17 605.86 2295.28 623.45 2292.98 641.05 2290.67 636.14 2256.46 631.24 2222.24 661.3 2218.3 691.35 2214.36 688.64 2195.47 685.94 2176.59 655.88 2180.52 625.83 2184.47 622.8 2163.36 619.77 2142.23 652.42 2137.95 685.08 2133.67 682.37 2114.79 679.67 2095.9"/><path class="cls-24" d="M2047.62,2339.13l-16.62,2.18-16.62,2.18,2.82,19.69L2020,2383l-7.33,1-7.34,1,2.22,15.41,2.2,15.42,7.34-1,7.34-1,5.12,35.82c5.75,40.09,6.3,42.56,12.07,51.88,7.43,12.06,18.37,17.35,32.28,15.65,1.1-.14,2.22-.31,3.35-.54,8.69-1.68,13.65-4,19.79-9.13,3.42-2.89,4.15-3.81,3.71-5-.32-.87-2.85-7.88-5.61-15.6s-5.15-14.21-5.24-14.38c0,0,0,0,0,0a37.49,37.49,0,0,0-4.68,2.71,21.08,21.08,0,0,1-8.37,3.29,7.79,7.79,0,0,1-4.68-.67,11.3,11.3,0,0,1-3.64-4.15c-1.53-2.89-2.1-5.9-6.28-33.67l-4.56-30.44,13.76-1.81,13.83-1.81-2.21-15.42-2.21-15.41-13.76,1.8-13.83,1.81-2.83-19.77-2.83-19.78" transform="translate(-1105.59 -267.65)"/><path class="cls-24" d="M1859.12,2513a13.73,13.73,0,0,1-12.29-4.48c-5.53-6.35-6.21-16.16-1.61-22.39,2-2.81,5.91-3.95,18.55-5.7l11.61-1.61.95,6.59c1,7.13.54,11.18-1.76,15.93-3.31,6.79-9.43,10.92-15.45,11.66M1848,2396.76a42.41,42.41,0,0,0-6,1.11,106.9,106.9,0,0,0-21.32,9.51c-4.26,2.65-14.73,10.29-15.57,11.39-.17.21,13.57,29.17,14,29.66,0,0,0,0,.05,0a28,28,0,0,0,4.61-3.44,66.91,66.91,0,0,1,20.27-11.28,24.59,24.59,0,0,1,4.83-1.08c5.33-.66,10.65.39,14.15,2.86,3.48,2.63,7.6,9.71,8.28,14.43l.46,3.21-18.3,2.85c-20.39,3.13-24.91,4.82-32,11.19-10.52,9.63-13.89,26.78-9,46,5.76,22.79,21.11,35.37,40.49,33l.34,0c11.49-1.51,19.9-6.52,25.92-15.29l3-4.58,1,7,1,7,16.62-2.18,16.61-2.17-7.34-51.24c-6.15-42.94-7.58-52-9.05-56.27-6-17.73-17.32-28.59-33.28-31.94-3.94-.82-13-.63-19.82.2" transform="translate(-1105.59 -267.65)"/><path class="cls-24" d="M1953.33,2383.12a39.23,39.23,0,0,0-7.52,1.49c-10.19,3.69-17,9.14-21.76,17.1-5.29,9.23-6.88,18.88-5,32,2.41,16.76,8.57,26.57,21.06,33.38,4.87,2.62,9.81,4.33,23,7.87,12.88,3.58,16.83,6.24,17.66,12,.9,6.25-3.38,9.81-10.29,10.66-8.67,1.06-21.48-2.16-33.42-9.73a52.59,52.59,0,0,0-5.12-3c-.46.06-6.59,29.27-6.41,30.52.33,2.32,11.23,8.7,20.16,12,8.27,2.9,19.54,3.85,29.27,2.65a49.6,49.6,0,0,0,8.82-1.83c20.65-6.34,30.89-22.57,29.27-45.86-1.27-17.63-9.61-31.06-23.47-37.78-3.22-1.66-11.07-4.35-17.4-6.06-17.55-4.78-21.51-7-22.35-12.86s2.65-9.49,9-10.26,15.73,1.24,26.26,6.27a57.79,57.79,0,0,0,7.75,3.35c.59-.08,7.39-29.66,7.17-31.27-.2-1.33-11.49-6.75-18.39-8.75a66.31,66.31,0,0,0-10.77-2.21c-4.21-.64-11.5-.41-17.41.32" transform="translate(-1105.59 -267.65)"/><path class="cls-24" d="M2168.27,2466.23a17.41,17.41,0,0,1-9.44-1.26c-16.76-8.06-24.89-44-13.88-62.26,3.25-5.44,8-8.69,13.3-9.34a17.92,17.92,0,0,1,6.59.46c12.44,3.28,22.31,23.22,21.79,44.07-.38,11.67-4.31,21.17-10.87,25.67a16.72,16.72,0,0,1-7.49,2.66m-8.07-109.53a33.71,33.71,0,0,0-9.6,2.33,35.4,35.4,0,0,0-14.32,14.13l-3.4,5.8-1.2-8.38-1.21-8.46-16.95,2.22-17,2.23,13.9,97,13.91,97,16.94-2.23,16.94-2.22-4.94-34.47-4.93-34.39,2,2.55c2.91,3.7,12.06,9.85,17.11,11.37a37,37,0,0,0,15.17,1.24,40,40,0,0,0,21.93-10c9.8-9.09,16.16-25.18,17.26-44.28.35-6.32.11-9.37-2-24.34-2.87-20-4.52-25.55-11.44-38.71-3.46-6.63-5.33-9.1-10.77-14.74-7.16-7.51-12.67-10.87-21.22-13.28-3.8-1.09-10.36-1.12-16.17-.41" transform="translate(-1105.59 -267.65)"/><path class="cls-24" d="M2289,2451.31c-.47.06-1,.1-1.44.13-8.86.44-15.6-4.12-21-14.32-10.85-20.72-8-48.95,5.91-56.59a14.77,14.77,0,0,1,5.36-1.69,19,19,0,0,1,10.6,1.87c5.33,2.56,8.57,6.23,12.24,13.46,7.73,15.14,8.33,36.4,1.44,47.83-3.51,5.83-7.4,8.61-13.15,9.31m-17-109.23a57.39,57.39,0,0,0-12.53,2.68c-13,5.24-23.87,16.65-29.1,30.41a78.59,78.59,0,0,0-5,24.35c-.56,7.15-.44,9.41,1.3,22,2.29,16,3.9,21.73,9.52,32.79,11.26,22.31,29,34.15,50.85,34.1a61.12,61.12,0,0,0,7.1-.43c17.58-2.16,31.8-12.33,40-28.8,7.23-14.66,9.19-31,6.17-52-3.16-22.09-11.18-39.74-23.27-51.22a51.18,51.18,0,0,0-26.41-14c-4-.92-11.54-.73-18.55.13" transform="translate(-1105.59 -267.65)"/><path class="cls-24" d="M2491.83,2374.64l0-3c.12-10.19,5.26-22.3,10.86-25.67a17.12,17.12,0,0,1,6.35-2.05,17.5,17.5,0,0,1,6.45.38c5.22,1.4,9.31,5,12.66,11.32a51.87,51.87,0,0,1,3.8,9.49l1,4.13-20.51,2.69-20.64,2.7m12.73-63.13c-5.4.67-10.61,1.82-14,3.3-19.64,8.83-30.74,28.72-31.73,56.9-.45,11.13,2.22,29.3,5.81,40.08,4.81,14.62,12.37,26.78,21.62,34.56,10.88,9.2,25.24,12.88,39.12,11.18a53,53,0,0,0,29.87-13.87c5.32-4.87,13-15.87,12.43-17.52-.21-.61-5.06-5.78-10.79-11.66l-10.45-10.6-2.46,4c-4.67,7.52-13,13.2-20.36,14.1a16,16,0,0,1-2.27.13c-9-.19-17.13-6-22.25-15.88-1.47-2.89-2.77-5.53-2.81-5.8s16.34-2.69,36.53-5.34l36.54-4.79-2.31-13.4q-9.89-57.12-45.43-65.48c-4.18-.82-10.78-.72-17.1.05" transform="translate(-1105.59 -267.65)"/></g></g><g class="cls-8"><g class="cls-25"><path class="cls-24" d="M1911.54,1180.77c-4.56.56-8.37,1.16-11.12,1.8-41.21,9.21-90.36,34.56-126,65.47-94,81-148.91,214.45-154.37,374.72-1.14,34.22,6.45,118.76,13.68,155.64,47,232.3,200.59,407.06,374,425.28,18.61,1.88,49.51.9,73-2a183.74,183.74,0,0,0,20.05-3.4c42.72-10.58,80.5-29.1,116.09-57.5,21.55-17.6,53-48.71,52.52-52.69-.1-1-10.3-13.32-22.9-27.48-15-17.25-22.92-27.73-23.34-31.46-.33-3,2.33-10.46,5.64-17l6.25-11.49-22.65-25.24-22.26-25-8.11,9.61c-38,45.23-84.49,71.41-133.77,77.45-41.22,5-84.36-4-126.07-27.75-36.69-21-78.87-61.62-105.58-101.88-25.72-39.57-48.46-91.91-60.07-140-7.6-30.33-13.85-86.35-13.23-117,2.86-147.29,72.85-265.74,176.52-299.5,7.68-2.51,17.81-4.5,28.71-5.84,19.78-2.42,42.1-2.69,57,0,36.51,6.18,78.21,26,111.52,53,33.94,27.69,71.34,76.47,93.69,122.06,55.6,113.23,62.07,250.32,17.53,361.42l-5.35,12.93,22.25,25,22.47,25.25,6.88-10.78c3.86-6,8.57-10.78,10.8-11.05h.09c2.73-.2,11.8,8.68,27,25.16,12.57,13.91,23.4,25.44,24.13,25.38h0c2.94-.36,18.59-49.06,26.68-81.71,17.82-74.06,21.65-145.12,12.38-228.29s-30.95-158.91-65.13-228.25c-73-147.38-189-242.24-315.23-257.56-1.19-.16-2.58-.29-4.15-.4a.93.93,0,0,1,.5.65c.23,2-10.38,4.55-25.76,6.43-5.47.67-11.55,1.26-17.95,1.72-24.6,1.76-44.53.92-44.84-1.81-.14-1.29,4.14-2.79,11.26-4.19l-2.76.32" transform="translate(-1105.59 -267.65)"/><path class="cls-24" d="M2113.81,1729.24c-.41,0-.83.09-1.25.12-17.14,1.22-32.93-15.22-35.34-36.88-2.36-21.13,8.9-39.17,25.35-41.19.42,0,.84-.09,1.27-.12,17.12-1.23,32.91,15.21,35.33,36.88,2.36,21.13-8.91,39.17-25.36,41.19m-206.55,19.28-1.2.12c-17.31,1.23-33.6-16.43-36.12-39.09-2.5-22.36,9-41.42,25.68-43.46.41,0,.81-.09,1.23-.12,17.31-1.24,33.6,16.42,36.13,39.08,2.46,22.13-9,41.43-25.72,43.47m96.85-69.69c-.55.07-1.11.13-1.68.17-23.69,1.69-45.65-22.34-49.12-53.46-3.39-30.4,12.08-56.64,34.87-59.43.54-.07,1.09-.12,1.65-.16,23.69-1.69,45.62,22.09,49.12,53.47,3.41,30.62-12.06,56.62-34.84,59.41M1960,1445a103.7,103.7,0,0,0-19.55,4c-63.52,21.61-109.39,87.89-121,174.8-5.59,42.07-.77,98.44,11.86,141,7.84,25.8,28.27,69,41.71,87.38l10.2,14.08-2.65-31.94c-2.9-35.94-1.7-43.3,8.53-55.32,4.92-5.53,10.61-8.56,16.47-9.28,12.63-1.55,26,7.63,34.22,25.73,3.89,8.5,5.37,16.93,11.32,70.21l6.75,60.52,10,3.8c5.35,1.87,10.73,4,12.06,4.4a.22.22,0,0,0,.13,0c1.54-.19-.15-21.71-7-85.88l-8-71.46c-3.91-35,13.1-64.85,38.36-67.94.6-.08,1.19-.14,1.79-.18,22.59-1.61,44,18.69,51.92,47.23.27.74.34,1.48.61,2.22a82.57,82.57,0,0,1,2.24,11.89l11.61,104.08c4.5,37.11,6.65,50.06,7.86,49.91l.09,0c1.22-.59,6-3.45,11-6.32l8.77-5.38-6.58-59c-7.42-66.49-7.12-72,3.45-87.59,4.83-7.06,11.06-10.92,17.73-11.73,10.77-1.32,22.67,5.31,31.6,19.25,4.69,7.44,5.92,11.87,9.28,35.47l3.94,27.08,5.38-12.68c8.28-19.67,16.36-55.89,18.46-83.15,8.66-118.32-44.74-233.22-130.33-279.31-10-5.31-25.15-11.5-33.66-13.65-15.17-4-39.25-4.6-58.67-2.22" transform="translate(-1105.59 -267.65)"/><path class="cls-24" d="M1928.85,1178.21c-5.57.68-10.52,1.44-14.55,2.24-7.12,1.4-11.4,2.9-11.26,4.19.31,2.73,20.24,3.57,44.84,1.81,6.4-.46,12.48-1,17.95-1.72,15.38-1.88,26-4.4,25.76-6.43a.93.93,0,0,0-.5-.65c-3.26-2.2-22-2.75-44.32-1.16-6.39.46-12.45,1-17.92,1.72" transform="translate(-1105.59 -267.65)"/></g></g></g></g></svg>