<?xml version="1.0" encoding="utf-8"?>
<!-- Generator: Adobe Illustrator 24.3.0, SVG Export Plug-In . SVG Version: 6.00 Build 0)  -->
<svg version="1.1" id="Layer_1" xmlns="http://www.w3.org/2000/svg" xmlns:xlink="http://www.w3.org/1999/xlink" x="0px" y="0px"
	 viewBox="0 0 540 540" style="enable-background:new 0 0 540 540;" xml:space="preserve">
<style type="text/css">
	.st0{fill:#FFFFFF;}
	.st1{fill:#3691ED;}
	.st2{fill:none;}
</style>
<g>
	<circle class="st0" cx="270" cy="270" r="270"/>
	<g>
		<g>
			<path id="svg_2" class="st1" d="M243.1,36.6c-26.1,2.8-58.3,12.8-82.6,25.6C96.6,95.9,53.3,154.6,38.9,227.1
				c-3,15.5-4.3,54.1-2.2,71C49.7,405,132.7,489.1,238.9,503c15.1,1.9,44.1,2.2,58,0.6c27.1-3.4,51.9-10.5,75.9-22.3
				c14.6-7.3,36.2-20.4,36.2-22.2c0-0.4-5.5-6.4-12.3-13.2c-8.1-8.3-12.3-13.3-12.3-15c0-1.3,2.1-4.7,4.7-7.5l4.7-5.1L381.6,406
				l-12.1-12.1l-5.7,4.2c-48.9,35.3-111.2,40.7-164.4,14.1c-21.3-10.7-44.6-30.5-58.3-49.6c-13.2-18.7-23.7-43.2-27.6-65.4
				c-2.6-14-2.6-39.6-0.1-53.5c12-66.6,63.5-118.1,130.1-130.1c13.9-2.5,39.5-2.5,53.5,0.1c22.2,3.9,46.7,14.4,65.4,27.6
				c19.1,13.7,38.9,37,49.6,58.3c26.6,53.2,21.2,115.5-14.1,164.4l-4.2,5.7l12.1,12.1l12.2,12.2l5-4.7c2.8-2.6,6.2-4.7,7.5-4.7
				c1.7,0,6.7,4.3,15,12.3c6.8,6.7,12.8,12.3,13.2,12.3c1.8,0,14.9-21.6,22.2-36.2c16.1-33,23.4-65.1,23.4-103.1s-8.2-73-24.6-105.5
				c-35-69.2-100.4-116-177.5-127C291.6,36.1,254.1,35.4,243.1,36.6L243.1,36.6z"/>
			<path class="st1" d="M318,167.7c-5.8-2.7-14.8-6.1-20-7.3c-12.7-3.2-36.3-3.9-48.5-1.7c-40.8,7.7-73.9,36.3-87,75.4
				c-6.4,18.8-7.3,44.6-2.4,64.3c3,12,12.8,32.2,19.8,40.9l5.4,6.7l0.6-14.6c0.7-16.4,1.9-19.7,9.1-24.8c10.8-7.4,24.7-3.3,30.3,9.1
				c1.8,3.9,2.1,7.9,2.1,32.2v27.6l5.9,2c3.1,1,6.4,2.1,7.2,2.4c1,0.4,1.5-9.1,1.7-39.1v-32.4c0-16.3,13.2-29.6,29.6-29.6
				c14.1,0,25.9,9.9,28.9,23.1c0.1,0.3,0.2,0.7,0.2,1c0.3,1.8,0.5,3.6,0.5,5.4v47.6c0.3,17.4,0.7,23.2,1.5,22.8
				c0.8-0.2,4-1.3,7.3-2.5l5.8-2.1v-26.9c0-30.4,0.6-32.9,8.2-39.6c9.1-8,22.7-5.7,30.1,5.1c2.4,3.5,2.8,5.6,3.3,16.4l0.6,12.4
				l4.3-5.6c6.5-8.6,14-24.8,17.2-37.1C393,245.2,367.8,191.3,318,167.7z M207.5,293.4c-10.9,0-19.7-8.5-19.7-18.9
				c0-10.4,8.8-18.9,19.7-18.9c10.9,0,19.7,8.5,19.7,18.9C227.1,285,218.3,293.4,207.5,293.4z M272,265c-14.8,0-26.7-11.6-26.7-25.8
				s11.9-25.8,26.7-25.8c14.8,0,26.7,11.5,26.7,25.8C298.7,253.5,286.8,265,272,265z M336.7,291.4c-10.7,0-19.3-8-19.3-17.9
				s8.7-17.9,19.3-17.9s19.3,8,19.3,17.9S347.4,291.4,336.7,291.4z"/>
			<ellipse class="st2" cx="207.5" cy="274.5" rx="19.7" ry="18.9"/>
			<ellipse class="st2" cx="272" cy="239.2" rx="26.7" ry="25.8"/>
			<ellipse class="st2" cx="336.7" cy="273.5" rx="19.3" ry="17.9"/>
		</g>
		<path id="svg_12" marker-end="" marker-start="" marker-mid="" class="st1" d="M244.6,37.6c0-1.3,12.4-2.3,27.7-2.3
			s27.7,1,27.7,2.3c0,1.3-12.4,2.3-27.7,2.3C256.8,39.9,244.6,38.9,244.6,37.6z"/>
	</g>
</g>
</svg>
