<svg xmlns="http://www.w3.org/2000/svg" xmlns:xlink="http://www.w3.org/1999/xlink" viewBox="0 0 561.52 450.53"><defs><style>.cls-1{fill:none;}.cls-2{isolation:isolate;}.cls-3{fill:#c8eefc;}.cls-4{fill:#e2ffff;}.cls-5{fill:#ffdeed;}.cls-6{fill:#7dbf8c;}.cls-7{fill:#9fdaaf;}.cls-8{fill:#003ca6;}.cls-9{fill:#0087ff;}.cls-10{fill:#f1f8ff;}.cls-11{fill:#3888e8;}.cls-12{fill:#5eb5f7;}.cls-13{fill:#b9ddff;}.cls-14{fill:#2599ff;}.cls-15,.cls-33{mix-blend-mode:multiply;}.cls-16{fill:silver;}.cls-17{fill:#005cdd;}.cls-18{fill:#7ab0f6;}.cls-19{fill:#fafbfd;}.cls-20{clip-path:url(#clip-path);}.cls-21{fill:#ffc6ca;}.cls-22{fill:#25228a;}.cls-23{fill:#ff769d;}.cls-24{fill:#ff2363;}.cls-25{fill:#0b52ff;}.cls-26{fill:#fac5ca;}.cls-27{fill:#2075ff;}.cls-28{fill:#f9c4c9;}.cls-29{fill:#f37a20;}.cls-30{fill:#004e4a;}.cls-31{fill:#f7991c;}.cls-32{fill:#e5eef9;}.cls-33{fill:#c1eaff;}.cls-34{fill:#ff7a00;}.cls-35{fill:#00848a;}.cls-36{fill:#0f3872;}.cls-37{fill:#269aff;}.cls-38{fill:#fff;}.cls-39{fill:#ff3784;}.cls-40{fill:#203b70;}.cls-41{fill:#1d439a;}.cls-42{fill:#fcb316;}.cls-43{fill:#2d64ae;}.cls-44{opacity:0.71;}.cls-45{fill:#9cdbf5;}.cls-46{fill:#fbf8ef;}.cls-47{fill:#4baafc;}</style><clipPath id="clip-path"><polygon class="cls-1" points="413.51 304.87 136.25 303.08 137.76 18.29 415.02 20.07 413.51 304.87"/></clipPath></defs><g class="cls-2"><g id="Layer_2" data-name="Layer 2"><g id="Layer_3" data-name="Layer 3"><path class="cls-3" d="M86.67,433.29c-11.62-4.39-32.76-.88-39.1-52.68S-1,332.31,0,300.7s29.59-59.71,55-72-55.6-79,8.66-110.21,75.8-4.38,112.29-18.21,54.46-51.58,120-48.07S350,107.49,350,107.49s40-58.79,122.42-9.62-13.74,124.68-13.74,124.68l-8.45,48.3s105.67-32.49,111,36.88S517.81,426.27,451.23,428.9,86.67,433.29,86.67,433.29Z"/><path class="cls-4" d="M170.89,418.19C145,413.34,94.39,336.85,60.69,276s5.83-150.28,88.8-41.47,131,174,131,174,111.5-288.18,221.7-206.3S312.85,426.81,312.85,426.81Z"/><ellipse class="cls-3" cx="547.51" cy="248.78" rx="11.02" ry="10.5"/><ellipse class="cls-5" cx="276.63" cy="418.07" rx="220.13" ry="32.13"/><path class="cls-6" d="M177.28,382.06l-6-.29s-7.41-45.26-13.83-58.47c0,0-65.73,6.16-81.1-41,0,0,48.84-21.43,80.44,33.76,0,0-7.49-43.71-23.15-84.72,0,0-48.47,13.69-60.05-28.67,0,0,28.5-17.23,54,7.22,0,0-10.51-33-20.3-49.49,0,0-36.7,9.61-51.6-26.2,0,0,27-6.46,46.26,11.49L85,111.31S52.21,90.65,57,54.23c0,0,35.7,11.51,31.73,52.61l16.84,37.45s1.77-37.08,28.08-40c0,0,5.42,44.65-21.21,54.23,0,0,16.49,34.33,22.82,59.93,0,0-6.3-47.27,32.48-58.33,0,0,15.41,35.83-27.8,65.78a690.58,690.58,0,0,1,21.53,87.23s-13.92-46.09,29.29-76c0,0,29.39,38.05-24.79,87.09A326.31,326.31,0,0,1,177.28,382.06Z"/><path class="cls-7" d="M166.79,159.1l-2.35-1.5s7.45-19.85,7.92-26.62c0,0-27.77-12.66-23.08-35.11,0,0,24.51,2.65,24.48,32A238.22,238.22,0,0,0,184,88.62S161.39,83,166.5,63.32c0,0,15.39-.35,20,15.32,0,0,3.38-15.66,3.25-24.51,0,0-16.93-4.59-14.66-22.38,0,0,12.3,3.62,15.9,15.26l1.1-17.69S183.71,13.51,194,0c0,0,11.66,12.83.61,28.39l-1.86,18.89S202,32.82,213.2,37.72c0,0-8.1,19.15-21,16.86,0,0-1.29,17.56-4.64,29.27,0,0,8.35-20.4,26.44-15.91,0,0-2.07,17.91-26.28,20a318.85,318.85,0,0,1-11.45,39.92s5-21.68,29.24-23.74c0,0,3,22-30,29.2A151.34,151.34,0,0,1,166.79,159.1Z"/><path class="cls-7" d="M313.8,402.46l-5-5.7s34.55-45.91,41-63.16c0,0-62.5-54.16-33.1-108.94,0,0,61.68,25.65,39.1,102.06,0,0,33.09-44.64,56.64-94.33,0,0-54.37-32-26.05-79.19,0,0,40.28,10.89,40.25,55.15,0,0,20.79-38.11,27.22-61.23,0,0-40.49-24.9-21-69.4,0,0,29.22,18.83,29.66,51.83l16.39-45.14s-9.66-47.53,27.43-74.77c0,0,20.5,42.28-20.15,74.28l-19.31,47.69s35.09-30.52,60.49-9.2c0,0-35.72,43.58-67.45,27.77,0,0-16.8,44.66-34.49,72.56,0,0,37.33-46.65,80.93-21.13,0,0-19.09,45-83.62,31.82a864.51,864.51,0,0,1-60.32,95s29.67-52.51,94.2-39.34c0,0-9,59.57-100.3,53A409,409,0,0,1,313.8,402.46Z"/><path class="cls-8" d="M470.1,414.73v-3.25h-1.05v.68l-43-95.52a1.69,1.69,0,0,0-1.54-1l-291.13.48a1.7,1.7,0,0,0-1.57,1.06L94.16,411.59H93v3.35h0a1.69,1.69,0,0,0,1.69,1.65l373.77,0A1.69,1.69,0,0,0,470.1,414.73Z"/><rect class="cls-9" x="132.56" y="117.14" width="292.15" height="208.84" rx="13.79"/><rect class="cls-10" x="147.01" y="129.72" width="260.04" height="173.3"/><path class="cls-11" d="M468.42,413.2l-373.77,0a1.69,1.69,0,0,1-1.57-2.31l38.75-97.09a9.64,9.64,0,0,1,1.57-3.16l291.13-.48a21.7,21.7,0,0,0,1.54,3.09L470,410.82A1.68,1.68,0,0,1,468.42,413.2Z"/><polygon class="cls-12" points="438.85 371.81 122.16 372.01 142.62 316.02 415.43 315.59 438.85 371.81"/><path class="cls-13" d="M161.28,368H139.85a.84.84,0,0,1-.8-1.1l2.51-7.67a.85.85,0,0,1,.8-.57l21,0a.84.84,0,0,1,.82,1.06l-2.07,7.67A.85.85,0,0,1,161.28,368Z"/><path class="cls-13" d="M193.75,368l-21.47,0a.84.84,0,0,1-.81-1l1.89-7.67a.83.83,0,0,1,.81-.64l21,0a.85.85,0,0,1,.83,1l-1.45,7.67A.83.83,0,0,1,193.75,368Z"/><path class="cls-13" d="M332.33,358.49h-9.07l-22.69,0H291.5l-22.69,0h-9.08l-22.69,0-31,0a.85.85,0,0,0-.83.71L203.9,367a.84.84,0,0,0,.82,1l31.54,0,23.23,0h41.82l23.23,0h9.29l22.19,0a.84.84,0,0,0,.82-1l-1.67-7.69a.84.84,0,0,0-.82-.66Z"/><path class="cls-13" d="M388.46,367.82H367a.83.83,0,0,1-.81-.64l-1.85-7.7a.83.83,0,0,1,.81-1l21,0a.85.85,0,0,1,.81.6l2.29,7.7A.84.84,0,0,1,388.46,367.82Z"/><path class="cls-13" d="M420.89,367.8h-21.4a.83.83,0,0,1-.8-.58l-2.48-7.7a.84.84,0,0,1,.8-1.1l21,0a.85.85,0,0,1,.79.55l2.92,7.7A.84.84,0,0,1,420.89,367.8Z"/><path class="cls-13" d="M180,345.53h-3.25l-30.09,0a.85.85,0,0,0-.8.58l-2.51,7.67a.84.84,0,0,0,.8,1.1l30.3,0h3.33l18.44,0a.85.85,0,0,0,.83-.68l1.44-7.68a.84.84,0,0,0-.82-1Z"/><path class="cls-13" d="M227.62,354.83l-20.73,0a.83.83,0,0,1-.83-1l1.27-7.68a.82.82,0,0,1,.82-.7l20.29,0a.84.84,0,0,1,.83.92l-.82,7.68A.84.84,0,0,1,227.62,354.83Z"/><path class="cls-13" d="M259,354.8l-20.74,0a.84.84,0,0,1-.84-.91l.65-7.68a.85.85,0,0,1,.83-.77l20.3,0a.84.84,0,0,1,.84.86l-.2,7.69A.83.83,0,0,1,259,354.8Z"/><path class="cls-13" d="M290.4,354.78H269.66a.83.83,0,0,1-.84-.84l0-7.68a.84.84,0,0,1,.84-.84l20.3,0a.83.83,0,0,1,.83.79l.43,7.69A.84.84,0,0,1,290.4,354.78Z"/><path class="cls-13" d="M321.79,354.75l-20.74,0a.83.83,0,0,1-.83-.78l-.61-7.69a.84.84,0,0,1,.84-.9l20.29,0a.84.84,0,0,1,.83.72l1.05,7.7A.84.84,0,0,1,321.79,354.75Z"/><path class="cls-13" d="M353.17,354.72l-20.72,0a.85.85,0,0,1-.83-.71l-1.22-7.69a.84.84,0,0,1,.82-1l20.27,0a.83.83,0,0,1,.82.66L354,353.7A.84.84,0,0,1,353.17,354.72Z"/><path class="cls-13" d="M382.87,345.31h-3.34l-17.53,0a.83.83,0,0,0-.81,1l1.85,7.7a.85.85,0,0,0,.82.64l18.38,0h3.43l30.24,0a.83.83,0,0,0,.79-1.13l-2.92-7.71a.86.86,0,0,0-.79-.54Z"/><path class="cls-13" d="M174.86,332.45H162.59l-11.65,0a.83.83,0,0,0-.8.57l-2.51,7.67a.83.83,0,0,0,.8,1.1h24l11.91,0a.84.84,0,0,0,.82-.65l1.74-7.67a.84.84,0,0,0-.82-1Z"/><path class="cls-13" d="M213.85,341.75l-20,0a.84.84,0,0,1-.82-1l1.58-7.67a.84.84,0,0,1,.82-.67l19.51,0a.83.83,0,0,1,.83,1L214.68,341A.85.85,0,0,1,213.85,341.75Z"/><path class="cls-13" d="M244.18,341.72l-20,0a.84.84,0,0,1-.84-.94l1-7.68a.84.84,0,0,1,.83-.74l19.53,0a.84.84,0,0,1,.84.89l-.51,7.68A.84.84,0,0,1,244.18,341.72Z"/><path class="cls-13" d="M274.51,341.68l-20,0a.83.83,0,0,1-.84-.87l.33-7.68a.85.85,0,0,1,.84-.81l19.54,0a.84.84,0,0,1,.84.83l.11,7.68A.83.83,0,0,1,274.51,341.68Z"/><path class="cls-13" d="M304.84,341.65l-20,0a.85.85,0,0,1-.84-.81l-.29-7.68a.83.83,0,0,1,.83-.87l19.54,0a.85.85,0,0,1,.84.76l.73,7.69A.84.84,0,0,1,304.84,341.65Z"/><path class="cls-13" d="M335.16,341.61l-20,0a.84.84,0,0,1-.83-.74l-.92-7.69a.84.84,0,0,1,.83-.94l19.52,0a.84.84,0,0,1,.83.7l1.36,7.69A.83.83,0,0,1,335.16,341.61Z"/><path class="cls-13" d="M365.47,341.58l-19.94,0a.84.84,0,0,1-.82-.67l-1.54-7.7a.83.83,0,0,1,.82-1l19.5,0a.83.83,0,0,1,.81.62l2,7.7A.84.84,0,0,1,365.47,341.58Z"/><path class="cls-13" d="M396.42,332.16l-12.17,0H373.19a.84.84,0,0,0-.81,1.07l2.16,7.7a.84.84,0,0,0,.81.61h11.84l12.48,0h11.26a.84.84,0,0,0,.79-1.14l-2.92-7.7a.84.84,0,0,0-.79-.54Z"/><path class="cls-13" d="M171.87,328.71l-19.16,0a.83.83,0,0,1-.79-1.1l2.51-7.67a.84.84,0,0,1,.8-.58l18.7,0a.84.84,0,0,1,.81,1.06l-2.07,7.67A.82.82,0,0,1,171.87,328.71Z"/><path class="cls-13" d="M201.15,328.67l-19.19,0a.84.84,0,0,1-.82-1L183,320a.84.84,0,0,1,.82-.64l18.74,0a.84.84,0,0,1,.82,1L202,328A.83.83,0,0,1,201.15,328.67Z"/><path class="cls-13" d="M230.42,328.63l-19.21,0a.84.84,0,0,1-.83-1l1.27-7.67a.83.83,0,0,1,.82-.7l18.77,0a.83.83,0,0,1,.83.92l-.82,7.68A.83.83,0,0,1,230.42,328.63Z"/><path class="cls-13" d="M259.69,328.59l-19.22,0a.84.84,0,0,1-.84-.91l.64-7.68a.85.85,0,0,1,.84-.77l18.77,0a.83.83,0,0,1,.84.86l-.19,7.69A.85.85,0,0,1,259.69,328.59Z"/><path class="cls-13" d="M289,328.55l-19.22,0a.84.84,0,0,1-.84-.84l0-7.69a.83.83,0,0,1,.84-.83l18.77,0a.84.84,0,0,1,.84.79l.43,7.69A.84.84,0,0,1,289,328.55Z"/><path class="cls-13" d="M318.21,328.52l-19.22,0a.84.84,0,0,1-.83-.77l-.61-7.69a.86.86,0,0,1,.84-.91l18.77,0a.84.84,0,0,1,.83.72l1.05,7.69A.84.84,0,0,1,318.21,328.52Z"/><path class="cls-13" d="M347.46,328.48l-19.19,0a.83.83,0,0,1-.83-.7l-1.23-7.7a.84.84,0,0,1,.83-1l18.75,0a.85.85,0,0,1,.82.66l1.67,7.7A.84.84,0,0,1,347.46,328.48Z"/><path class="cls-13" d="M376.71,328.44l-19.17,0a.83.83,0,0,1-.81-.64l-1.85-7.7a.83.83,0,0,1,.81-1l18.72,0a.85.85,0,0,1,.81.6l2.29,7.7A.84.84,0,0,1,376.71,328.44Z"/><path class="cls-13" d="M406,328.4l-19.12,0a.83.83,0,0,1-.8-.58l-2.48-7.7a.84.84,0,0,1,.8-1.1L403,319a.83.83,0,0,1,.79.54l2.92,7.7A.84.84,0,0,1,406,328.4Z"/><path class="cls-14" d="M348.17,409.05l-133.39,0c-6.05,0-10.67-1.86-10.33-4.15l3.37-22.37c.34-2.3,5.19-4.16,10.82-4.16l124.12-.07c5.63,0,10.57,1.86,11,4.16l4.5,22.4C358.76,407.19,354.22,409.05,348.17,409.05Z"/><path class="cls-9" d="M218.85,378.36c-5.63,0-10.47,1.87-10.82,4.16l-3.36,22.37c-.35,2.3,4.28,4.16,10.33,4.16l90.17,0-52.85-30.69Z"/><g class="cls-15"><path class="cls-16" d="M252.66,378.37l-33.47,0a21,21,0,0,0-7.55,1.28h43.27Z"/><path class="cls-16" d="M252.66,378.37l2.25,1.3h96.21a21.19,21.19,0,0,0-7.81-1.35Z"/></g><g class="cls-15"><path class="cls-16" d="M320.11,413.23H234.65a1.38,1.38,0,0,1-1.38-1.38h0a1.38,1.38,0,0,1,1.38-1.38h85.46a1.38,1.38,0,0,1,1.38,1.38h0A1.38,1.38,0,0,1,320.11,413.23Z"/></g><path class="cls-16" d="M281.53,119h0a3.62,3.62,0,0,0-3.61,3.62h0a3.61,3.61,0,0,0,3.61,3.61h0a3.62,3.62,0,0,0,3.62-3.61h0A3.63,3.63,0,0,0,281.53,119Z"/><path class="cls-17" d="M161.28,366.93H139.85a.84.84,0,0,1-.8-1.1l2.51-7.66a.85.85,0,0,1,.8-.58l21,0a.84.84,0,0,1,.82,1.06l-2.07,7.67A.85.85,0,0,1,161.28,366.93Z"/><path class="cls-17" d="M193.75,366.91H172.28a.84.84,0,0,1-.81-1l1.89-7.67a.84.84,0,0,1,.81-.64l21,0a.85.85,0,0,1,.83,1l-1.45,7.67A.84.84,0,0,1,193.75,366.91Z"/><path class="cls-17" d="M259.73,357.5l-22.69,0-31,0a.86.86,0,0,0-.83.71l-1.26,7.67a.84.84,0,0,0,.82,1l31.54,0,23.23,0h74.34l22.19,0a.83.83,0,0,0,.82-1l-1.67-7.7a.84.84,0,0,0-.82-.66l-22,0h-9.07l-22.69,0H291.5l-22.69,0Z"/><path class="cls-17" d="M388.46,366.77l-21.45,0a.84.84,0,0,1-.81-.65l-1.85-7.69a.84.84,0,0,1,.81-1l21,0a.86.86,0,0,1,.81.6l2.29,7.7A.84.84,0,0,1,388.46,366.77Z"/><path class="cls-17" d="M420.89,366.75h-21.4a.83.83,0,0,1-.8-.58l-2.48-7.7a.84.84,0,0,1,.8-1.1h21a.84.84,0,0,1,.79.54l2.92,7.7A.84.84,0,0,1,420.89,366.75Z"/><path class="cls-17" d="M180,344.48h-3.25l-30.09,0a.85.85,0,0,0-.8.58l-2.51,7.67a.84.84,0,0,0,.8,1.1l30.3,0h3.33l18.44,0a.84.84,0,0,0,.83-.68l1.44-7.68a.84.84,0,0,0-.82-1Z"/><path class="cls-17" d="M227.62,353.78l-20.73,0a.83.83,0,0,1-.83-1l1.27-7.68a.83.83,0,0,1,.82-.7l20.29,0a.84.84,0,0,1,.83.93l-.82,7.67A.84.84,0,0,1,227.62,353.78Z"/><path class="cls-17" d="M259,353.76H238.27a.83.83,0,0,1-.84-.9l.65-7.68a.83.83,0,0,1,.83-.77l20.3,0a.83.83,0,0,1,.84.86l-.2,7.68A.84.84,0,0,1,259,353.76Z"/><path class="cls-17" d="M290.4,353.73l-20.74,0a.84.84,0,0,1-.84-.84l0-7.69a.84.84,0,0,1,.84-.84l20.3,0a.84.84,0,0,1,.83.8l.43,7.68A.84.84,0,0,1,290.4,353.73Z"/><path class="cls-17" d="M321.79,353.7l-20.74,0a.83.83,0,0,1-.83-.78l-.61-7.68a.84.84,0,0,1,.84-.91l20.29,0a.84.84,0,0,1,.83.73l1.05,7.69A.84.84,0,0,1,321.79,353.7Z"/><path class="cls-17" d="M353.17,353.67l-20.72,0a.85.85,0,0,1-.83-.71l-1.22-7.69a.84.84,0,0,1,.82-1l20.27,0a.83.83,0,0,1,.82.66l1.68,7.69A.84.84,0,0,1,353.17,353.67Z"/><path class="cls-17" d="M382.87,344.27h-3.34l-17.53,0a.83.83,0,0,0-.81,1L363,353a.84.84,0,0,0,.82.64h21.81l30.24,0a.83.83,0,0,0,.79-1.13l-2.92-7.71a.86.86,0,0,0-.79-.54Z"/><path class="cls-17" d="M174.86,331.4H162.59l-11.65,0a.83.83,0,0,0-.8.58l-2.51,7.66a.83.83,0,0,0,.8,1.1h24l11.91,0a.84.84,0,0,0,.82-.65l1.74-7.67a.84.84,0,0,0-.82-1Z"/><path class="cls-17" d="M213.85,340.7l-20,0a.83.83,0,0,1-.82-1l1.58-7.68a.84.84,0,0,1,.82-.67l19.51,0a.83.83,0,0,1,.83,1L214.68,340A.84.84,0,0,1,213.85,340.7Z"/><path class="cls-17" d="M244.18,340.67l-20,0a.84.84,0,0,1-.84-.94l1-7.68a.84.84,0,0,1,.83-.74l19.53,0a.84.84,0,0,1,.84.89l-.51,7.68A.84.84,0,0,1,244.18,340.67Z"/><path class="cls-17" d="M274.51,340.63l-20,0a.84.84,0,0,1-.84-.88l.33-7.68a.84.84,0,0,1,.84-.8l19.54,0a.84.84,0,0,1,.84.83l.11,7.68A.83.83,0,0,1,274.51,340.63Z"/><path class="cls-17" d="M304.84,340.6l-20,0a.84.84,0,0,1-.84-.8l-.29-7.69a.83.83,0,0,1,.83-.87l19.54,0a.85.85,0,0,1,.84.76l.73,7.69A.84.84,0,0,1,304.84,340.6Z"/><path class="cls-17" d="M335.16,340.57l-20,0a.84.84,0,0,1-.83-.74l-.92-7.69a.84.84,0,0,1,.83-.94l19.52,0a.85.85,0,0,1,.83.7l1.36,7.69A.84.84,0,0,1,335.16,340.57Z"/><path class="cls-17" d="M365.47,340.53l-19.94,0a.83.83,0,0,1-.82-.67l-1.54-7.69a.84.84,0,0,1,.82-1l19.5,0a.84.84,0,0,1,.81.63l2,7.69A.84.84,0,0,1,365.47,340.53Z"/><path class="cls-17" d="M396.42,331.12H373.19a.85.85,0,0,0-.81,1.07l2.16,7.7a.84.84,0,0,0,.81.61h11.84l12.48,0h11.26a.84.84,0,0,0,.79-1.13l-2.92-7.71a.86.86,0,0,0-.79-.54Z"/><path class="cls-17" d="M171.87,327.66l-19.16,0a.83.83,0,0,1-.79-1.1l2.51-7.67a.84.84,0,0,1,.8-.58l18.7,0a.83.83,0,0,1,.81,1.05L172.67,327A.82.82,0,0,1,171.87,327.66Z"/><path class="cls-17" d="M201.15,327.62l-19.19,0a.84.84,0,0,1-.82-1l1.89-7.67a.84.84,0,0,1,.82-.64l18.74,0a.84.84,0,0,1,.82,1L202,326.94A.83.83,0,0,1,201.15,327.62Z"/><path class="cls-17" d="M230.42,327.58l-19.21,0a.84.84,0,0,1-.83-1l1.27-7.68a.83.83,0,0,1,.82-.7l18.77,0a.83.83,0,0,1,.83.93l-.82,7.68A.83.83,0,0,1,230.42,327.58Z"/><path class="cls-17" d="M259.69,327.55l-19.22,0a.84.84,0,0,1-.84-.91l.64-7.68a.85.85,0,0,1,.84-.77l18.77,0a.83.83,0,0,1,.84.87l-.19,7.68A.86.86,0,0,1,259.69,327.55Z"/><path class="cls-17" d="M289,327.51l-19.22,0a.83.83,0,0,1-.84-.84l0-7.68a.83.83,0,0,1,.84-.84l18.77,0a.84.84,0,0,1,.84.79l.43,7.69A.85.85,0,0,1,289,327.51Z"/><path class="cls-17" d="M318.21,327.47l-19.22,0a.83.83,0,0,1-.83-.77l-.61-7.69a.84.84,0,0,1,.84-.9l18.77,0a.84.84,0,0,1,.83.72l1.05,7.69A.84.84,0,0,1,318.21,327.47Z"/><path class="cls-17" d="M347.46,327.43l-19.19,0a.83.83,0,0,1-.83-.7l-1.23-7.7a.84.84,0,0,1,.83-1l18.75,0a.85.85,0,0,1,.82.66l1.67,7.7A.84.84,0,0,1,347.46,327.43Z"/><path class="cls-17" d="M376.71,327.39l-19.17,0a.83.83,0,0,1-.81-.64l-1.85-7.7a.83.83,0,0,1,.81-1l18.72,0a.85.85,0,0,1,.81.6l2.29,7.7A.84.84,0,0,1,376.71,327.39Z"/><path class="cls-17" d="M406,327.35l-19.12,0a.83.83,0,0,1-.8-.58l-2.48-7.7a.84.84,0,0,1,.8-1.09L403,318a.84.84,0,0,1,.79.54l2.92,7.7A.84.84,0,0,1,406,327.35Z"/><rect class="cls-18" x="146.62" y="129.5" width="261.46" height="173.73"/><rect class="cls-17" x="146.62" y="129.5" width="261.46" height="22.42"/><path class="cls-19" d="M152.13,141.37c0,2.95,2.66,5.34,6,5.34s6-2.39,6-5.34-2.67-5.33-6-5.33S152.13,138.43,152.13,141.37Z"/><path class="cls-19" d="M169,141.37c0,2.95,2.66,5.34,6,5.34s6-2.39,6-5.34-2.67-5.33-6-5.33S169,138.43,169,141.37Z"/><ellipse class="cls-19" cx="191.9" cy="141.37" rx="5.96" ry="5.34"/><g class="cls-20"><path class="cls-21" d="M167.78,207.34s0-9-2.7-10.38-14.43-10.37-16.24-13.07-8.56-20.75-4.05-19.84,19.39,14.88,19.39,14.88S161,169,162.37,167.2s9,10.82,9.92,13.08,3.16,28,3.16,28Z"/><path class="cls-21" d="M259,71.32c-2.35,4.57-12.9,38.69-10.26,47.82s4.32,18,18.78,21.7L250.18,185l-2.07,35.27,42.19-7.5S318.89,194,318,189.15,297.31,138,297.31,138l-2.86-61.41L265.82,65.91l-5.41,4.32Z"/><path class="cls-22" d="M287,93.63s-1.22,41.55,5.95,56.06,83,77.79,55.44-39.71c-4.24-18.1-20.35-38.65-20.35-38.65S323.85,38,282.76,44.58s-34.56,30-34.56,30S217.1,142,259.64,163l3.15-3.5,6.66-17.12s-19.29-7-19.79-20.78,8-48.26,8-48.26S264.21,91.19,287,93.63Z"/><path class="cls-23" d="M262.93,183.44c8.95,3.22,27.06-13.53,37-25.71,0,0,16.68,11.73,28,14.43a541,541,0,0,0-5.41,74c0,39.23,2.7,70.79,2.7,70.79s-29.76,10.38-30.66,9-42.84-7.66-43.74-11.27-9.47-46.45-14.88-55-13.08-45.09-7.22-55.91,17.59-35.63,17.59-35.63l16.77-9S251.66,179.38,262.93,183.44Z"/><path class="cls-24" d="M320.2,201.92c.45-2.25,0-31.11,7.67-29.76s23.9,15.33,25.25,40.14-23.45,99.36-23.45,99.36l-4.51,5.25s-9.71-53.91-8.36-66.54S320.2,201.92,320.2,201.92Z"/><path class="cls-24" d="M246.25,168.1c-5.41.91-29.31,9.47-31.57,28s-9,76.66-9,76.66L181.76,206l-17.58-1.35s9.47,77.56,31.11,97.4,31.12-14,31.12-14l11.27-37.87Z"/><path class="cls-21" d="M270.13,253.3s0-9-2.71-10.37S253,232.56,251.19,229.85s-8.57-20.74-4.06-19.84,19.39,14.88,19.39,14.88-3.16-9.92-1.8-11.72,9,10.82,9.92,13.07,3.15,28,3.15,28Z"/><path class="cls-24" d="M348.59,214.07c-5.41.9-29.31,9.47-31.56,28s-9,76.66-9,76.66L284.11,252l-17.59-1.36S276,328.16,297.64,348s31.11-14,31.11-14L340,296.14Z"/><path class="cls-25" d="M298,139.49c-5.87,1.33-22.39-2.75-30-4.79a.93.93,0,1,1,.48-1.79c15.16,4.06,28.83,6.13,29.84,4.53,2.05-3.26,6.33-17.15,6.74-18.49.15-2.28,2.39-39.52-3.15-47.24-5.95-8.29-17.45-15.19-29.7-11.92a.91.91,0,0,1-1.14-.66.94.94,0,0,1,.66-1.14c13.13-3.5,25.37,3.83,31.69,12.64,6.07,8.46,3.6,46.91,3.49,48.55l0,.21c-.19.62-4.7,15.42-7,19A2.91,2.91,0,0,1,298,139.49Z"/><path class="cls-25" d="M267.44,132.57c-1,2,1.74,5.42,5.27,5.37s15.24,4.52,16.48.62-3.17-5.42-7.87-6.12S269,129.44,267.44,132.57Z"/><path class="cls-25" d="M305.64,85.84c5.08-.19,15.53,9.36,11.92,24.59s-10.92,16.39-13.62,16.75-12.79-2.9-12.44-16.88S296.37,86.19,305.64,85.84Z"/></g><polygon class="cls-26" points="370.3 158.73 369.8 165.4 366.46 165.06 366.13 158.23 370.3 158.73"/><polygon class="cls-26" points="401.2 154.67 403.65 160.89 400.51 162.04 397.23 156.03 401.2 154.67"/><path class="cls-25" d="M371.3,163.56l-5.5.84s-5.5,3.67-7.67,3.83-4.34,2.17-2.17,2.5,16-.66,16-.66Z"/><path class="cls-25" d="M409.09,110.47s-29.29,3.83-28.45,12.17S372,159.23,372,159.23l-7.83-.17s5.52-35.74,5.52-40.74,27.44-16,27.44-16Z"/><path class="cls-27" d="M404.14,159.9l-5.67,2.16s-.34,4-2.5,4.51-5.5,2.16-5.17,3.5,10-.67,10-.67l6.34-5Z"/><path class="cls-27" d="M416.92,102.46s5,8.58-2.19,13.56c-6.1,4.2-24.7,4.78-24.09,6.15,1.34,3,13.83,34.23,13.83,34.23l-7.5,1.83s-18.8-27-20-35.36,20.59-19.07,20.59-19.07Z"/><path class="cls-28" d="M380.85,69.66s-2.42-4.25-4.24-4.55-5.46-2-5.16.29,2.58.77,6.37,5C378,70.64,380.85,69.66,380.85,69.66Z"/><path class="cls-29" d="M404.28,59.59s-6.2.94-9.54,8.48-6.68,12.72-8.16,10.86S381,68.3,381,68.3l-4.7,1.36S382.75,86,387.81,86.47s11.62-14.21,11.62-14.21Z"/><path class="cls-28" d="M404.2,42.78S403,54.1,405.38,54.69s2.14,1.44,2.14,1.44l-.66,5.73s-2.19,1.92-1.95,2.63,9.67,1,9.67,1l-1.06-6.21,1.11-5,3-3.16s1.58-2.07,1.58-3.25-1.77-6.49-1.77-6.49l-5.08-2.24L408,38.17Z"/><path class="cls-30" d="M407.39,40.7a7.45,7.45,0,0,0,6.22,2s-.08,14.62,1.12,18.52l.85-9.62,1.19-3.14a1.9,1.9,0,0,1,.06,2.63c-.27.32-1.63.5-1.63.5l-.57,2.63s4.09-1.3,4.83-4a29.35,29.35,0,0,0,.93-4.65s4.81-.14,5.46-3.11c.54-2.45-1.91-8.07-5.08-6.81a5,5,0,0,0-2.08,1.8s-.5-.44-1.27-1c-1.26-.91-3.26-2.11-4.93-2.11-2.69,0-11.35,3.08-8.66,11.71C403.83,46.11,405.25,41.44,407.39,40.7Z"/><path class="cls-30" d="M422.91,31.73c-2.17.41-6.06,6.36-6.06,6.36l3.54,7.53s.85,1.4,1.46,6.4-3.94,7.87-1.82,12,9.09,4.85,7.12,8.48.76,8.33,2.12,8.63.15-3.33,3.48-3.33,11.36-8,6.21-11.66-2.12-9.54-1.06-11S445.47,27.49,422.91,31.73Z"/><path class="cls-31" d="M402.62,60.65c1.33-1.52,4.54-1.21,4.54-1.21s-1.06,2.27,2.58,2.73c.54.06,3.93-2.12,3.93-2.12l7.51,4S414,83.63,414.26,85.73s3.14,17.78,3.14,17.78l-11.18.38L402,104l-6.67-.67s4-13.54,4-17.13S396.26,67.92,402.62,60.65Z"/><path class="cls-28" d="M405.12,92.66s-5-1.18-5.47,0a.8.8,0,0,0,.76,1.21s-5,1.36-5,2.12,3.49,2.28,4.4,2.12,5.76-3,5.76-3Z"/><path class="cls-29" d="M417.76,64.13a3,3,0,0,1,3.42,0s3.95,22.49,1.85,24.47-18,8.53-18,8.53l-1.24-5.19s15.45-6.43,15.45-7-3.86-13.15-3.86-13.15S413.07,66.71,417.76,64.13Z"/><path class="cls-31" d="M417.76,37a4.37,4.37,0,0,1,3.79,3c1.21,3-1.16,5.56-1.16,5.56s.68-2.87.25-4.35A9.44,9.44,0,0,0,417.76,37Z"/><rect class="cls-30" x="371.71" y="59.88" width="4.99" height="8.82" rx="1.3"/><rect class="cls-32" x="372.38" y="60.52" width="3.67" height="6.58" rx="0.96"/><path class="cls-32" d="M374.18,67.47h0a.5.5,0,0,1,.5.5h0a.5.5,0,0,1-.5.5h0a.51.51,0,0,1-.5-.5h0A.5.5,0,0,1,374.18,67.47Z"/><path class="cls-28" d="M371.32,63.57s.53-.26.83-.13a3.7,3.7,0,0,1,.63,2.36c-.1.74-1,1.54-1.33,1.24A6.51,6.51,0,0,1,371.32,63.57Z"/><circle class="cls-33" cx="445.79" cy="222.73" r="43.17" transform="translate(-26.93 380.46) rotate(-45)"/><path class="cls-21" d="M481,308.68l-.09-.05-.13-.07-.26-.17L480,308c-.37-.26-.74-.52-1.1-.8-.74-.54-1.46-1.13-2.16-1.74a47.45,47.45,0,0,1-4-3.9,55.6,55.6,0,0,1-6.63-9,60.42,60.42,0,0,1-4.75-10.1,70.49,70.49,0,0,1-2.95-10.81h0a1.26,1.26,0,0,0-1.49-.95,1.23,1.23,0,0,0-1.07,1.3A71.19,71.19,0,0,0,458,283.45a62.39,62.39,0,0,0,4.14,11,58.49,58.49,0,0,0,6.35,10.2,51.94,51.94,0,0,0,4.07,4.62c.73.74,1.49,1.46,2.3,2.16.4.35.81.7,1.23,1,.22.17.43.34.66.5l.35.26.19.13.22.16a3.36,3.36,0,0,0,4.38-.83A2.75,2.75,0,0,0,481,308.68Z"/><polygon class="cls-21" points="484.83 415.67 483.44 421.12 480.57 420.66 481.44 414.6 484.83 415.67"/><path class="cls-30" d="M486.19,416.75l-6.81-.56s-1.88-43.29-1-51.37,0-23.95,0-23.95l7.65,4.85,3.86,26.42,1.82,4.06s-3.39,7.59-3.45,12.88S491.25,403.23,486.19,416.75Z"/><path class="cls-30" d="M484.65,420l-5.42.75s-5.62,2.9-4.73,4.82,10.36-.87,10.36-.87S485.26,420.34,484.65,420Z"/><polygon class="cls-21" points="517.6 374.74 521.59 370.83 523.76 373.38 519.06 377.19 517.6 374.74"/><path class="cls-21" d="M479.31,281.35s-2.14,4.78-2.22,5.1c-.59,2.14-2.5,10.57,4,11.5l-1.41,6.69-2.83,3.72a37.28,37.28,0,0,0,9.54-2.42l4.71-16.8-3.93-4.26-5.45-3.07Z"/><path class="cls-34" d="M483.32,305l-4.88.56s-7.07,10.72-6.15,13.87,5.47,16.12,5.52,20.38l14.11-1.41s1.35-20.39,1-26-2.81-7.77-2.81-7.77Z"/><path class="cls-35" d="M477.81,339.81s8.87,46.14,19.46,53.49c12.37,8.6,27.15-14.77,27.15-14.77l-8.94-7.22s-11.11,18.87-14.77,9.62.58-26.76-1.78-31.54a86.52,86.52,0,0,0-7-11Z"/><path class="cls-30" d="M520.19,370.44l3.75,4s5.63,2.89,6.67,1-6.72-7.92-6.72-7.92S520.14,369.73,520.19,370.44Z"/><path class="cls-35" d="M476.92,279.59s-2.44,4.4,4.95,5,5.86,2.88,5.86,2.88-9.57,11.73,1.33,15.44c6.18,2.1,15-6.9,11.17-15.6s.14-7.57-7.67-9.1S484.74,273.25,476.92,279.59Z"/><path class="cls-35" d="M490,279.91c0-.48-3.83-10.22,3.51-8.46s16.61,8,11.66,11-9.1,3.51-10.7,2.39S490,279.91,490,279.91Z"/><path class="cls-21" d="M492.2,311.88l0-.09,0-.15,0-.31c0-.21-.05-.44-.07-.66,0-.45-.07-.9-.09-1.36,0-.91,0-1.84,0-2.77a45,45,0,0,1,.47-5.56,54.59,54.59,0,0,1,2.74-10.83,60.51,60.51,0,0,1,4.79-10.09,69.06,69.06,0,0,1,6.48-9.14h0a1.27,1.27,0,0,0-.22-1.76,1.23,1.23,0,0,0-1.68,0,71.44,71.44,0,0,0-7.45,8.89,64.18,64.18,0,0,0-5.89,10.19,58.48,58.48,0,0,0-3.84,11.39,50.37,50.37,0,0,0-1,6.08c-.11,1-.18,2.08-.21,3.14,0,.54,0,1.07,0,1.62,0,.27,0,.54,0,.83l0,.43,0,.23,0,.27a3.34,3.34,0,0,0,3.42,2.85A2.74,2.74,0,0,0,492.2,311.88Z"/><path class="cls-36" d="M440.44,174.5a49.31,49.31,0,1,0,42.16,82.69l38.91,30.12c2.56,2,9.86,4.17,11.85,1.6s-2.39-9.13-5-11.12l-32.95-25.5-5.89-4.56a49.32,49.32,0,0,0-49.13-73.23Zm11.44,89.88a41.29,41.29,0,1,1,35.74-46.17A41.29,41.29,0,0,1,451.88,264.38Z"/><path class="cls-37" d="M533.29,289h0a5.87,5.87,0,0,1-8.24,1.05l-31.42-24.32a5.87,5.87,0,0,1-1.05-8.24h0a5.87,5.87,0,0,1,8.24-1.05l31.42,24.32A5.87,5.87,0,0,1,533.29,289Z"/><path class="cls-21" d="M492.2,311.88l0-.09,0-.15,0-.31c0-.21-.05-.44-.07-.66,0-.45-.07-.9-.09-1.36,0-.91,0-1.84,0-2.77a45,45,0,0,1,.47-5.56,54.59,54.59,0,0,1,2.74-10.83,60.51,60.51,0,0,1,4.79-10.09,69.06,69.06,0,0,1,6.48-9.14h0a1.27,1.27,0,0,0-.22-1.76,1.23,1.23,0,0,0-1.68,0,71.44,71.44,0,0,0-7.45,8.89,64.18,64.18,0,0,0-5.89,10.19,58.48,58.48,0,0,0-3.84,11.39,50.37,50.37,0,0,0-1,6.08c-.11,1-.18,2.08-.21,3.14,0,.54,0,1.07,0,1.62,0,.27,0,.54,0,.83l0,.43,0,.23,0,.27a3.34,3.34,0,0,0,3.42,2.85A2.74,2.74,0,0,0,492.2,311.88Z"/><circle class="cls-38" cx="447.15" cy="200.82" r="8.88" transform="translate(148.96 589.87) rotate(-76.72)"/><path class="cls-38" d="M473.56,210.29a5.11,5.11,0,1,1-5.1-5.1A5.11,5.11,0,0,1,473.56,210.29Z"/><rect class="cls-26" x="65.82" y="412.92" width="4.47" height="5.81" transform="translate(137.21 0.18) rotate(18.74)"/><path class="cls-25" d="M82.76,328.61c-.64.05,5.73,32.51,2.86,42.38s-13.05,45.67-13.05,45.67l-8.91-2.86S68.43,385,70,378.15s-5.1-25-5.1-25L71,328Z"/><path class="cls-27" d="M51.09,328.34s.16,18.46.48,31.83-1.12,57.61-1.12,57.61l6.69-.16,16.71-89.28Z"/><path class="cls-22" d="M54.12,420.63c1.48,0,3-.24,3.39,0s8.33,3.15,8.43,3.81,1.14,1.72-1.57,1.67-12.44.76-13.06.43-.33-5.62.19-5.81A13.22,13.22,0,0,1,54.12,420.63Z"/><path class="cls-22" d="M67,417.41c1.41.43,2.9.63,3.24,1s6.24,3.23,7.33,4.47c.33.37,1.14,1.57-1.67,1.91a19.58,19.58,0,0,1-5.72-.46c-3.46-.85-7.28-1.77-7.59-2.09-.5-.5,1.32-5.47,1.88-5.5A12.85,12.85,0,0,1,67,417.41Z"/><path class="cls-26" d="M102,310.78s6.69-1.43,7-.79-.79,1.59-.79,1.59,5.89,0,6.21.79-5.42,5.26-11,4.62a22,22,0,0,1-9.86-4l4.61-2.39Z"/><path class="cls-39" d="M65,274.61c1.29.32,8.06,4.13,6.79,7.21s5.09,16,5.09,16l21.86,11.88-4.67,5.41s-27.48-6.89-28.43-10.39-6.16-9.66-3.82-19.74S60.37,273.44,65,274.61Z"/><path class="cls-26" d="M63.41,268.59l3-6.35.86-2-1.82-4,8-4.71,8.94-.38,1.34,3S83.21,269,78,268.88a36,36,0,0,1-6.25-.39l-.38,1.83,1.15,1.82s-5.38,1-8.27-.48S63.41,268.59,63.41,268.59Z"/><path class="cls-27" d="M74.37,252.32s9.47,2.71,10,1a37,37,0,0,0,1.08-4.85s-5.28-.23-8.1-1.37-11.69-4.11-12.47,2.2.1,15.32.1,15.32l2-.65.2-6.15s.5-3.43,2.17-2.37-.53,14.61-.53,14.61,7.24,3.86,9.63,2.57,3.59-8,3.59-8-4.27-.57-5.5.61-4.21-.55-4.21-.55Z"/><path class="cls-23" d="M72,271.32s4.78,3.5,5.31,4.77,4.93,43.18,4.93,43.18l2,15.47L49.58,334s7.08-55.46,7.5-56,6.37-9.12,7.11-8.91S67.8,272.06,72,271.32Z"/><path class="cls-22" d="M75.12,334l.73-3.07c1.29-6.06,5-11.55,12.23-16.22,5.16-3.47,9.39-6.44,10.46-10.3,1.14-4.08-.88-7.66-6.92-9.47a24.42,24.42,0,0,0-13,.16L78,281.17a45.15,45.15,0,0,1,21.64.86c16,4.46,21.09,15.05,18.4,24.74-2.47,8.87-9.93,13.09-15.91,16.71-5.71,3.56-8.92,7.58-10.26,12.86l-.59,2.11ZM67.45,349.3c1.75-6.31,7.45-9.38,13.77-7.62,6.57,1.83,9.62,7.33,8,13.67-1.69,6.07-7.21,9.44-13.9,7.58C68.87,361.14,65.76,355.37,67.45,349.3Z"/><path class="cls-26" d="M82.28,319.27s6.68-1.43,7-.8-.79,1.6-.79,1.6,5.88,0,6.2.79-5.41,5.25-11,4.62a22,22,0,0,1-9.86-4l4.61-2.39Z"/><path class="cls-39" d="M63,269.3c1.29.32,3.29,3.08,2,6.15s-7.85,30.88-7.85,30.88L79,318.21l-4.66,5.41s-27.48-6.9-28.44-10.4.43-15.59,2.76-25.67S58.36,268.13,63,269.3Z"/><path class="cls-40" d="M219.54,267.22a11.6,11.6,0,0,1-2.14.28l-5.63.18h-.55a12,12,0,0,1-1.61-.14h-.07l0,.81a5,5,0,0,0,10.06-.33l0-.8Z"/><path class="cls-41" d="M200.32,258.83a11.43,11.43,0,0,0,8,8.41,10.64,10.64,0,0,0,1.27.29h.07a12,12,0,0,0,1.61.14h.55l5.63-.18a11.6,11.6,0,0,0,2.14-.28h.06a11.41,11.41,0,0,0,8.79-11.44l-.2-6.22a33.47,33.47,0,0,1-10.31,6.91C211.21,259.42,204.58,260.17,200.32,258.83Z"/><path class="cls-40" d="M219.54,267.22Z"/><path class="cls-40" d="M209.61,267.54Z"/><path class="cls-40" d="M211.77,267.68h0Z"/><path class="cls-40" d="M219.54,267.22h0a11.6,11.6,0,0,1-2.14.28h0A11.6,11.6,0,0,0,219.54,267.22Z"/><path class="cls-40" d="M211.22,267.68a12,12,0,0,1-1.61-.14h0A12,12,0,0,0,211.22,267.68Z"/><path class="cls-42" d="M222.67,219a64.44,64.44,0,0,0,15.7-43.1,34.1,34.1,0,1,0-39.2,53.49l.21,6.75A64.74,64.74,0,0,0,222.67,219Z"/><path class="cls-42" d="M238.37,175.86a64.78,64.78,0,0,1-39,60.24l.29,9.1,0,.38,0,.74,22-.7,6.37-.21,0-1.12-.25-7.92-.26-7.93a34.1,34.1,0,0,0,10.86-52.58Z"/><path class="cls-43" d="M228.06,245.41l-6.37.21h0l-22,.7.33,10.36a11.6,11.6,0,0,0,.28,2.15c4.26,1.34,10.89.59,17.56-2.37a33.47,33.47,0,0,0,10.31-6.91l-.13-4.14Z"/><path class="cls-42" d="M253.13,219.59s23.29,1.26,28.72,7.9C281.85,227.49,260.4,233.8,253.13,219.59Z"/><path class="cls-42" d="M250.28,168.36S266.9,149,284.52,148C284.52,148,276.67,165.91,250.28,168.36Z"/><path class="cls-42" d="M202.1,153.86s-8.2-30.61-.83-38.46C201.27,115.4,214,138.24,202.1,153.86Z"/><path class="cls-42" d="M168.19,184.22s-8.53-15.76-37-15.25C131.21,169,131.88,189.8,168.19,184.22Z"/><path class="cls-42" d="M175.88,224.08s-33.93,4.69-35.53,17.58C140.35,241.66,164,241.7,175.88,224.08Z"/><g class="cls-44"><path class="cls-38" d="M246.23,196.26A34.4,34.4,0,0,1,224.4,211.8a36.12,36.12,0,0,1-4.67.71,5.45,5.45,0,0,0,2.59,1.23c.54.09,1.71.19,6.46-2.12,2.71-1.32,4.32-2.32,4.77-1.84.3.31-.29.88-.16,1.89.19,1.54,1.8,1.87,2.55,3.14,1.41,2.37-1.64,5.46-.83,6.35.29.33,1.09.33,2.21,0A34.44,34.44,0,0,0,246.23,196.26Z"/><path class="cls-38" d="M220.1,188.67c-.25.86-.52,1-.51,1.64,0,1.07.89,1.29.79,2-.13,1-2,1-2.32,2.28a2.06,2.06,0,0,0,.8,2.06,2.17,2.17,0,0,0,1.65.37,2.78,2.78,0,0,0,2.25-2.6c0-.48-.22-.5-.24-1.07a3.61,3.61,0,0,1,.76-2.08c.63-1,.95-1.46,1.54-1.66a6,6,0,0,1,3.11.38c.33.09.84.25,1,0a.62.62,0,0,0,0-.59c-.43-1.06-3.23-.72-3.25-1a3,3,0,0,1,3-.37c1.16.54,1.36,1.77,2.52,1.88.35,0,.8,0,.88-.24.15-.41-1.24-.92-1.23-1.78,0-.58.65-.62.83-1.31a1.23,1.23,0,0,0-.07-.81,24.44,24.44,0,0,1-6.15,2.26A23.82,23.82,0,0,1,220.1,188.67Z"/><path class="cls-38" d="M240.14,178.4a24.67,24.67,0,0,1-7.43,6.83,1.83,1.83,0,0,0-.24.79c-.08,1,.57,2,1.15,2.09s.92-1.26,1.63-1.24,1.36,1.14,1.31,2.15c-.07,1.27-1.33,2.14-1.89,2.52-1.12.79-2.23,1-2.19,1.32s.75.26.8.56c.11.55-2.19,2.11-4.1,1.54-1.24-.37-1.19-1.3-2.18-1.46-1.34-.22-1.74,1.46-4.67,3.38-1.67,1.09-2.73,1.33-3,2.37-.17.82.51,1.12.37,2.07-.26,1.62-1.71,1.89-2.48,3.38-1.06,2.06-.05,5,1.4,6.73a9.08,9.08,0,0,0,1.06,1.08,36.12,36.12,0,0,0,4.67-.71,34.4,34.4,0,0,0,21.83-15.54,35.27,35.27,0,0,0-.78-5.71A34.32,34.32,0,0,0,240.14,178.4Z"/><path class="cls-38" d="M212.25,164.33c0,.55,1.26,1.23,3.85,2.61,3.64,1.94,5.38,2.31,5.8,3.84.26,1-.3,1.37.16,2.51.53,1.31,1.64,1.71,1.48,2.46a1,1,0,0,1-1,.76c-.58-.15-.31-1.5-1-1.93s-2.07.27-2.85,1c-1.95,1.87-2.29,5.9-.37,7.56.87.75,2.42,1.19,3.29.53s.68-2.65.65-2.78c-.26-1.38-1.18-2-1-2.33s1.33,0,2.05.67a3.7,3.7,0,0,1,.73,4.14c-.93,1.71-3.18,1.29-3.69,3-.2.66.09.91-.22,2.1l-.06.2a23.82,23.82,0,0,0,5.4-.59,24.44,24.44,0,0,0,6.15-2.26c-.26-.6-.86-1.13-.74-2a1.88,1.88,0,0,1,1.26-1.55,1.69,1.69,0,0,1,2,.82c.17.71-.95,1.18-1.46,2.13a24.67,24.67,0,0,0,7.43-6.83,34.5,34.5,0,0,0-27.28-14.81C212.48,163.83,212.26,164.08,212.25,164.33Z"/><path class="cls-38" d="M201.92,231a34,34,0,0,1-5.87-2.38C198.25,230.1,200,230.92,201.92,231Z"/><path class="cls-38" d="M208.7,228.3c1.26-1.56,2.39-4.38,1.27-6.14s-3.38-.85-7.95-2.78a28.61,28.61,0,0,1-4.86-2.73c-4.32-2.83-5.17-4.58-7.45-4.5-1.78.06-3,1.18-3.69.53s.21-1.4-.28-2.58c-.72-1.7-3-1.53-3.3-2.93-.15-.86.64-1.4.27-2.11-.28-.54-.86-.47-1.37-.87-1.48-1.16-.84-5-.11-5.1.26,0,.7.39,1.46,2.6a15.67,15.67,0,0,0,2.48.62c1.6-.22,1.25-2.73,3.52-4.37h0a34.65,34.65,0,0,1-6.18-18,34.22,34.22,0,0,0-5.14,18.12c.71,2,1.24,3.7,1.6,5.05a7.66,7.66,0,0,0,1.84,3.8,9.6,9.6,0,0,1,1.41,1.38c.8,1.11.62,1.82,1.06,3,.85,2.21,2.51,2,3.16,3.84.54,1.54-.42,2.25-.38,3.89.06,2.57,2.51,4.38,6.26,7.08,1.42,1,2.63,1.88,3.73,2.6a34,34,0,0,0,5.87,2.38,8.94,8.94,0,0,0,1.26,0A8,8,0,0,0,208.7,228.3Z"/><path class="cls-38" d="M192.11,195.93c.35-.94-.38-1.7.09-2.22s.92-.2,2.78,0,2.69.24,2.92-.06c.54-.7-.8-2.73-2.05-3.94-.62-.61-2.62-2.55-4.56-2.07-1.07.27-1.4,1.09-2,.89-.82-.28-1-2.08-.85-3.18,0-.22.33-2.9,1.64-3.16,1-.2,2.16,1.22,2.39,1.52.48.61.64,1.13,1.57,2.39.49.66.61.73.75.77,1.08.24,3.13-2.28,2.64-4-.26-.89-1-1-1.14-1.8-.11-1.09,1.09-2.05,1.52-2.39a6.33,6.33,0,0,1,1.88-1,23.19,23.19,0,0,1-1.61-2.83,2.77,2.77,0,0,0-2.49-.19,2.56,2.56,0,0,0-1.24,2.32c.11,1.09,1.12,1.45.92,2.15s-1.28.92-1.83,1c-.3,0-1,.09-1.25-.28-.31-.55,1-1.4.72-2.07s-2.45-.21-3-.94.43-2.49,4.78-7.51a4.1,4.1,0,0,0,1-1.7,34.33,34.33,0,0,0-13.2,12.37,34.65,34.65,0,0,0,6.18,18C190.27,196.8,191.68,197.1,192.11,195.93Z"/><path class="cls-38" d="M201.5,176.84c0-.43-.82-.83-1.91-1.34-.58-.26-1.08-.49-1.52-.67a23.19,23.19,0,0,0,1.61,2.83C200.69,177.29,201.46,177.23,201.5,176.84Z"/><path class="cls-38" d="M199.7,179.73c.08.85,1.73.71,2.17,1.68.31.67-.28,1.07-.58,2.66-.18,1-.51,2.7.43,3.6a2.12,2.12,0,0,0,2.52.28c.74-.57.09-1.52.73-2.5a2.28,2.28,0,0,1,1.53-.93,24.7,24.7,0,0,1-6.23-6A1.63,1.63,0,0,0,199.7,179.73Z"/><path class="cls-38" d="M209.34,183.37c.39-.67-.2-.79.07-2.68.07-.57.25-1.45.51-3.12.09-.57.17-1.09,0-1.2s-.77.71-1.56.71a1.94,1.94,0,0,1-1.16-.62c-1.66-1.22-5.2.12-6.88,2h0a24.7,24.7,0,0,0,6.23,6C207.58,184.26,208.81,184.3,209.34,183.37Z"/></g><path class="cls-21" d="M327.13,320.71l-.54.28a1.78,1.78,0,0,1-2.39-.73l-7-4.73c-.46-.86-1.67-4.22-.82-4.68l7,2.64c-2.33-3-1.72-4.26,2.19.46l2.3,4.37A1.77,1.77,0,0,1,327.13,320.71Z"/><path class="cls-22" d="M352.94,441.16s.73,6.72-.51,8.33c-.73.94-13.74,1.58-14.23.37s2.31-4,5.84-5.11,2.79-3.89,2.79-3.89Z"/><path class="cls-22" d="M392.21,433.64s5.06,5.83,4.44,8.44-12.48,7.66-12.48,7.66-3.09-1.78.24-5.72c5.35-6.32,3.35-8.54,3.35-8.54Z"/><path class="cls-25" d="M347.11,363.7s-4.75,27.3-3.37,43.56,1.84,34.82,1.84,34.82l8.59.46s1.84-39.42,3.37-43,4.3-14.26,4.3-14.26l2.45.76s.92,19.64,3.22,23.62,19,28.23,19,28.23L393,434.1s-14.11-29.91-13.65-31.9.46-33.74.46-33.74l-14.11-1.69Z"/><rect class="cls-21" x="322.76" y="313.15" width="4.2" height="8.59" rx="1.79" transform="translate(760.39 446.35) rotate(152.15)"/><path class="cls-23" d="M356.49,302.42a38,38,0,0,0-15,26.22c-2,17.64-13.81-11.5-13.81-11.5L322.59,321s5.22,23.32,14.57,23.63,18.71-11.2,18.71-11.2Z"/><path class="cls-24" d="M358.9,300.33s4.12,2.86,6.56,2.65,5.82-3.07,5.82-3.07a20.32,20.32,0,0,1,12.82,11.75l1.07,3.87-4.28,53c1.14,1-22.84,1.83-33.91-3.12-.58-.25,0-.76,0-.76s4-47.09,4-50.62S352.26,300.54,358.9,300.33Z"/><path class="cls-21" d="M361.86,300.33l.11-3.07s-5-1.16-5.93-4.87S354.66,281,354.66,281l3.81-5.18,4.77-.43,4.86,4.76,3.29,3.6-.53,4.24-3,6.24.11,5.72,4.76,1.16s.32,5.72-6.88,5.08-7.51-4.87-7.51-4.87Z"/><path class="cls-21" d="M349.41,339.23h0a1.92,1.92,0,0,0,.24,2.7l3.76,3.15a1.92,1.92,0,0,0,2.7-.24h0a1.92,1.92,0,0,0-.24-2.7L352.11,339A1.92,1.92,0,0,0,349.41,339.23Z"/><path class="cls-27" d="M367.05,295c-1.06-1,2.32-7.52,1.9-10,0,0-1.92-4.64-3.4-6.22s-8.56,3.57-7.18-.34c0,0-3.51,3.11-3.3,7.45,0,0-4.53-11.75-3.26-13.65s4.34-2.48,12.48-1.32,10.38,7.3,10.06,12.92a10.8,10.8,0,0,1-4.77,8.18Z"/><path class="cls-23" d="M382.68,310.74a9,9,0,0,0-7.38-1.63c-4.13,1.06-2.54,10.27-2.54,10.27s6.14,17.36,7.09,23.6c.71,4.63-15.2-.11-24.41-3-.89-.28-1.88,1.06-1.88,1.06s-1,4.24-1,4.28c5,5.61,31.06,20.89,35.91,4.72s.19-26.71-3.73-36.55Z"/><polygon class="cls-37" points="363.99 311.32 368.11 314.59 371.13 316.97 370.18 317.05 358.51 307.82 358.44 306.94 360.38 308.46 363.99 311.32"/><path class="cls-45" d="M371.3,353.19a19,19,0,0,1-3.94-.06l-.27,0H367l-.19-2.32.37.05h0a18.23,18.23,0,0,0,2.14.13c.58,0,1.18,0,1.79-.07a21.21,21.21,0,0,0,2.79-.42c.62-.15,1.21-.31,1.76-.5l.19,2.32a16.6,16.6,0,0,1-1.76.5A21.31,21.31,0,0,1,371.3,353.19Z"/><path class="cls-45" d="M374.05,348.51l-.32.07A21,21,0,0,1,371,349a19.57,19.57,0,0,1-3.93-.07l-.21,0h-.06l-.12-.1h0l-.08-1-.32-3.86-.16-1.86-.95-11.52v-.16l0-.27v-.09l-.12-1.51-.22-2.6-.18-2.14v0l0-.24v-.1l-.12-1.5-.23-2.78-.08-.93.28,0,.11,0c.45.05.92.09,1.4.11l.49,0a20.26,20.26,0,0,0,2-.07h0c.49,0,1-.1,1.43-.17l.35-.06c.34-.05.68-.12,1-.19.63-.15,1.22-.31,1.77-.5h0l.09,1.08.38,4.63.17,2,.38,4.63,1,11.67.16,1.87.31,3.85.08.91h0C375,348.24,374.56,348.38,374.05,348.51Z"/><path class="cls-46" d="M371.1,350.87c-.61.05-1.21.07-1.79.07a18.23,18.23,0,0,1-2.14-.13h0l-.37-.05,0-.27v-.09l-.13-1.51.12,0h.06l.21,0a19.71,19.71,0,0,0,6.71-.36l.32-.07c.51-.13,1-.27,1.45-.43h0l.14,1.67v.2c-.55.19-1.14.35-1.76.5A21.21,21.21,0,0,1,371.1,350.87Z"/><path class="cls-45" d="M367.13,354.94l.38.05h0a16.19,16.19,0,0,0,2.14.13c.58,0,1.18,0,1.79-.07a19.52,19.52,0,0,0,2.78-.42,16.14,16.14,0,0,0,1.77-.5l.18,2.25a19.9,19.9,0,0,1-8.86.81l0-.43Z"/><polygon class="cls-47" points="360.2 326.98 362.02 328.42 362.13 329.75 362.36 332.54 360.43 331.01 359.36 330.17 359.39 329.62 359.55 326.46 360.09 326.89 360.2 326.98"/><path class="cls-46" d="M371.45,355.05c-.61.05-1.21.08-1.79.07a16.19,16.19,0,0,1-2.14-.13h0l-.38-.05,0-.26v-.09l-.12-1.51h.11l.27,0a19,19,0,0,0,3.94.06,21.31,21.31,0,0,0,2.78-.42,16.6,16.6,0,0,0,1.76-.5l.13,1.53v.13l0,.2a16.14,16.14,0,0,1-1.77.5A19.52,19.52,0,0,1,371.45,355.05Z"/><path class="cls-37" d="M366.79,354.56l-.32-3.86,0-.2,0-.27-.12-1.39,0-.29-.05-.62-.32-3.86-.15-1.86-1-11.67-.38-4.63-.16-2-.39-4.63-.09-1.09.32.06h0l.08.93.23,2.78.12,1.5v.1l0,.24v0l.18,2.14.22,2.6.12,1.51v.09l0,.27v.16l.95,11.52.16,1.86.32,3.86.08,1h0v.08l.13,1.51v.09l0,.27.19,2.32.12,1.51v.09l0,.26.15,1.82,0,.43-.32-.06-.06-.64Z"/><polygon class="cls-46" points="368.33 317.2 364.43 317.52 360.89 314.73 359.65 313.75 358.96 313.2 357.34 311.92 356.41 311.18 352.76 308.29 357.01 307.94 358.51 307.82 370.18 317.05 368.33 317.2"/><path class="cls-37" d="M358.51,346.59l.46-8.93a7.35,7.35,0,0,1-1.46.56,7.59,7.59,0,0,1-2.25.23,7.32,7.32,0,0,1-3.07-.85l-.3-.17.26-5.05,0-.43.14-2.83.3.17a7.16,7.16,0,0,0,3.07.84,7,7,0,0,0,2.25-.23,7.32,7.32,0,0,0,1.46-.55v.27l0,.55,1.07.84,1.93,1.53-.23-2.79-.11-1.33L360.2,327l-.11-.09-.54-.42v-.06l.05-1,0-.54-.76-.87,1.05.83,1.94,1.53-.23-2.79-.11-1.33-1.82-1.44-.12-.09L358,319.47l-.93-.74-3.65-2.89.18,2.12-1.82-2.09-.69-8.33.69-.05,1,.8h0l3.65,2.89.93.74L359,313.2l.7.55,1.23,1,3.54,2.79,3.9-.32,1.85-.15.94-.08-3-2.38L364,311.33l-3.61-2.86-1.94-1.54,1.8-.14,5.27,4.17,2.46,2,4.95,3.91.05.62h0c-.55.19-1.14.35-1.77.5-.32.07-.66.14-1,.19l-.35.06c-.46.07-.94.13-1.43.17h0a20.26,20.26,0,0,1-2,.07l-.49,0c-.48,0-.95-.06-1.4-.11l-.11,0-.28,0-.32-.06.09,1.09.39,4.63.16,2,.38,4.63,1,11.67.15,1.86.32,3.86.05.62,0,.29.12,1.39,0,.27,0,.2.32,3.86.15,1.93.06.64-4.58-3.62-1.76-1.39-.94-.74-1.4-1.11.11-2Z"/><polygon class="cls-47" points="357.03 318.73 357.96 319.47 359.58 320.75 359.7 320.84 361.51 322.28 361.63 323.61 361.86 326.4 359.92 324.87 358.87 324.04 356.17 320.95 354.44 318.97 353.56 317.96 353.38 315.84 357.03 318.73"/><polygon class="cls-13" points="353.2 319.12 356.09 322.42 358.2 324.84 357.45 324.8 349.28 315.44 349.32 314.67 350.67 316.22 353.2 319.12"/><path class="cls-37" d="M350.77,359.05l0,.38a14.61,14.61,0,0,0,7.08.3l.12-2.27.18-3.39v-.18l.08-1.46a12.23,12.23,0,0,1-1.45.23,15,15,0,0,1-2.24,0,13.88,13.88,0,0,1-3.09-.49l-.21-.07-.09,0-.07,1.33v.31l-.18,3.39Zm.57-5.2h0Z"/><path class="cls-13" d="M350.63,357.08l.17-3.39v-.43l.07-1.21v-.26l0-.54.17-3.4.09-1.64.53-10.27.21-4.07.09-1.77.21-4.07,0-1,.25.09.3.08a13.77,13.77,0,0,0,3.09.5,15,15,0,0,0,2.24-.05,10.7,10.7,0,0,0,1.45-.24l-.05,1v.06l-.16,3.15v-.27a7.32,7.32,0,0,1-1.46.55,7,7,0,0,1-2.25.23,7.16,7.16,0,0,1-3.07-.84l-.3-.17-.14,2.83h0l0,.43-.26,5.05.3.17a7.32,7.32,0,0,0,3.07.85,7.59,7.59,0,0,0,2.25-.23,7.35,7.35,0,0,0,1.46-.56l-.46,8.93-.08,1.64-.11,2-.07,1.36,0,.8a12.23,12.23,0,0,1-1.45.23,15,15,0,0,1-2.24,0,13.88,13.88,0,0,1-3.09-.49l-.21-.07-.08-.09v.07l-.07,1.33v.31l-.18,3.39-.1,1.89,0,.38-.24-.08,0-.57Z"/><polygon class="cls-46" points="357.45 324.8 355.97 324.73 352.86 324.56 350.39 321.73 349.52 320.74 349.03 320.18 347.9 318.88 347.24 318.13 344.69 315.21 348.08 315.38 349.28 315.44 357.45 324.8"/><path class="cls-45" d="M341.62,349.17l3.79,4.34.66.75,1.23,1.41,3.21,3.68,0-.57.09-1.7.17-3.39v-.43l.07-1.21v-.26l0-.54.17-3.4.09-1.64.53-10.27.21-4.07.09-1.77.21-4.07,0-1,.25.09.3.08a13.77,13.77,0,0,0,3.09.5,15,15,0,0,0,2.24-.05,10.7,10.7,0,0,0,1.45-.24l0-.54-.76-.87-2.7-3.09-1.73-2-.88-1-1.82-2.09-1-1.13-1.43-.07,1.35,1.55,2.53,2.9,2.89,3.3,2.11,2.42-.75,0-1.48-.07-3.11-.17-2.47-2.83-.87-1-.49-.56-1.13-1.3-.66-.75-2.55-2.92h0l-.72-.82-.55,0Zm1.54-18.64.23-4.51,3.18,3.64.81.93,1.41,1.61.1.12,1.59,1.81-.08,1.46-.16,3.05-1.68-1.93-1.41-1.61-.81-.93Z"/><polygon class="cls-46" points="343.39 326.02 346.57 329.66 347.38 330.59 348.79 332.2 348.89 332.32 350.48 334.13 350.4 335.59 350.25 338.64 348.56 336.71 347.15 335.1 346.34 334.17 343.16 330.53 343.39 326.02"/><path class="cls-21" d="M349.64,339h0a1.92,1.92,0,0,0,.24,2.7l3.76,3.16a1.93,1.93,0,0,0,2.7-.24h0a1.92,1.92,0,0,0-.24-2.7l-3.76-3.16A1.93,1.93,0,0,0,349.64,339Z"/><path class="cls-23" d="M382.91,310.5a9,9,0,0,0-7.38-1.62c-4.12,1.06-2.54,10.27-2.54,10.27s6.14,17.35,7.1,23.6c.7,4.63-15.21-.11-24.41-3-.9-.29-1.88,1.06-1.88,1.06s-1,4.23-1,4.28c5,5.6,31.07,20.89,35.91,4.71s.2-26.7-3.73-36.54Z"/><path class="cls-21" d="M355.91,345.23l-.54.29a1.78,1.78,0,0,1-2.39-.74l-7-4.73c-.45-.86-1.67-4.22-.81-4.67l7,2.64c-2.34-3-1.73-4.27,2.18.46l2.31,4.37A1.75,1.75,0,0,1,355.91,345.23Z"/><path class="cls-23" d="M382.91,310.5a9,9,0,0,0-7.38-1.62c-4.12,1.06-2.54,10.27-2.54,10.27s6.14,17.35,7.1,23.6c.7,4.63-15.21-.11-24.41-3-.9-.29-1.88,1.06-1.88,1.06s-1,4.23-1,4.28c5,5.6,31.07,20.89,35.91,4.71s.2-26.7-3.73-36.54Z"/></g></g></g></svg>