<svg id="Layer_1" data-name="Layer 1" xmlns="http://www.w3.org/2000/svg" xmlns:xlink="http://www.w3.org/1999/xlink" viewBox="0 0 2663.38 1697.26"><defs><style>.cls-1{opacity:0.35;fill:url(#linear-gradient);}.cls-2{fill:url(#linear-gradient-2);}.cls-3{fill:url(#linear-gradient-3);}.cls-4{fill:#f1f2f2;}.cls-5{fill:url(#linear-gradient-4);}.cls-6{fill:url(#linear-gradient-5);}.cls-7{fill:url(#linear-gradient-6);}.cls-8{fill:url(#linear-gradient-7);}.cls-9{fill:url(#linear-gradient-8);}.cls-10{fill:url(#linear-gradient-9);}.cls-11{fill:url(#linear-gradient-10);}.cls-12{fill:url(#linear-gradient-11);}.cls-13{fill:url(#linear-gradient-12);}.cls-14{fill:url(#linear-gradient-13);}.cls-15{fill:url(#linear-gradient-14);}.cls-16{fill:url(#linear-gradient-15);}.cls-17{fill:url(#linear-gradient-16);}.cls-18{fill:url(#linear-gradient-17);}.cls-19{fill:url(#linear-gradient-18);}.cls-20{fill:url(#linear-gradient-19);}.cls-21{fill:url(#linear-gradient-20);}.cls-22,.cls-24{fill:#fff;}.cls-22,.cls-23{opacity:0.91;}.cls-23{fill:#f7f7f7;}.cls-25{fill:#223265;}.cls-26{fill:url(#linear-gradient-21);}.cls-27{fill:url(#linear-gradient-22);}.cls-28{fill:url(#linear-gradient-23);}.cls-29{fill:url(#linear-gradient-24);}.cls-30{fill:url(#linear-gradient-25);}.cls-31{fill:url(#linear-gradient-26);}.cls-32{fill:url(#linear-gradient-27);}.cls-33{fill:url(#linear-gradient-28);}.cls-34{fill:url(#linear-gradient-29);}.cls-35{fill:#252f5f;}.cls-36{fill:url(#linear-gradient-30);}.cls-37{fill:url(#linear-gradient-31);}.cls-38{fill:url(#linear-gradient-32);}.cls-39{fill:url(#linear-gradient-33);}.cls-40{fill:url(#linear-gradient-34);}.cls-41{fill:url(#linear-gradient-35);}.cls-42{fill:url(#linear-gradient-36);}.cls-43{fill:url(#linear-gradient-37);}.cls-44{fill:url(#linear-gradient-38);}.cls-45{fill:url(#linear-gradient-39);}.cls-46{fill:url(#linear-gradient-40);}.cls-47{fill:url(#linear-gradient-41);}.cls-48{fill:url(#linear-gradient-42);}.cls-49{fill:url(#linear-gradient-43);}.cls-50{fill:url(#linear-gradient-44);}.cls-51{fill:url(#linear-gradient-45);}.cls-52{fill:url(#linear-gradient-46);}.cls-53{fill:url(#linear-gradient-47);}.cls-54{fill:url(#linear-gradient-48);}.cls-55{fill:url(#linear-gradient-49);}.cls-56{fill:url(#linear-gradient-50);}.cls-57{fill:url(#linear-gradient-51);}.cls-58{fill:url(#linear-gradient-52);}.cls-59{fill:url(#linear-gradient-53);}.cls-60{fill:url(#linear-gradient-54);}.cls-61{fill:url(#linear-gradient-55);}.cls-62{fill:url(#linear-gradient-56);}.cls-63{fill:url(#linear-gradient-57);}.cls-64{fill:#e9e9ea;}.cls-65{fill:url(#linear-gradient-58);}.cls-66{fill:url(#linear-gradient-59);}.cls-67{fill:url(#linear-gradient-60);}.cls-68{fill:url(#linear-gradient-61);}.cls-69{fill:url(#linear-gradient-62);}.cls-70{fill:url(#linear-gradient-63);}.cls-71{fill:url(#linear-gradient-64);}.cls-72{fill:url(#linear-gradient-65);}.cls-73{fill:url(#linear-gradient-66);}.cls-74{fill:url(#linear-gradient-67);}.cls-75{fill:url(#linear-gradient-68);}.cls-76{fill:url(#linear-gradient-69);}.cls-77{fill:url(#linear-gradient-70);}.cls-78{fill:url(#linear-gradient-71);}.cls-79{fill:url(#linear-gradient-72);}.cls-80{fill:url(#linear-gradient-73);}.cls-81{fill:url(#linear-gradient-74);}.cls-82{fill:url(#linear-gradient-75);}.cls-83{fill:url(#linear-gradient-76);}.cls-84{fill:url(#linear-gradient-77);}.cls-85{fill:url(#linear-gradient-78);}.cls-86{fill:url(#linear-gradient-79);}.cls-87{fill:url(#linear-gradient-80);}.cls-88{fill:url(#linear-gradient-81);}.cls-89{fill:url(#linear-gradient-82);}.cls-90{fill:url(#linear-gradient-83);}.cls-91{fill:url(#linear-gradient-84);}.cls-92{fill:url(#linear-gradient-85);}.cls-93{fill:url(#linear-gradient-86);}.cls-94{fill:url(#linear-gradient-87);}.cls-95{fill:url(#linear-gradient-88);}.cls-96{fill:url(#linear-gradient-89);}.cls-97{fill:url(#linear-gradient-90);}.cls-98{fill:url(#linear-gradient-91);}.cls-99{fill:url(#linear-gradient-92);}.cls-100{fill:url(#linear-gradient-93);}.cls-101{fill:url(#linear-gradient-94);}.cls-102{fill:url(#linear-gradient-95);}.cls-103{fill:url(#linear-gradient-96);}.cls-104{fill:url(#linear-gradient-97);}.cls-105{fill:url(#linear-gradient-98);}.cls-106{fill:url(#linear-gradient-99);}.cls-107{fill:url(#linear-gradient-100);}.cls-108{fill:url(#linear-gradient-101);}.cls-109{fill:url(#linear-gradient-102);}.cls-110{fill:url(#linear-gradient-103);}.cls-111{fill:url(#linear-gradient-104);}.cls-112{fill:url(#linear-gradient-105);}.cls-113{fill:url(#linear-gradient-106);}.cls-114{fill:url(#linear-gradient-107);}.cls-115{fill:url(#linear-gradient-108);}.cls-116{fill:url(#linear-gradient-109);}.cls-117{fill:url(#linear-gradient-110);}.cls-118{fill:url(#linear-gradient-111);}.cls-119{fill:url(#linear-gradient-112);}.cls-120{fill:url(#linear-gradient-113);}.cls-121{fill:url(#linear-gradient-114);}.cls-122{fill:url(#linear-gradient-115);}.cls-123{fill:url(#linear-gradient-116);}.cls-124{fill:url(#linear-gradient-117);}.cls-125{fill:url(#linear-gradient-118);}.cls-126{fill:url(#linear-gradient-119);}.cls-127{fill:url(#linear-gradient-120);}.cls-128{fill:url(#linear-gradient-121);}.cls-129{fill:url(#linear-gradient-122);}.cls-130{fill:url(#linear-gradient-123);}.cls-131{fill:url(#linear-gradient-124);}.cls-132{fill:url(#linear-gradient-125);}.cls-133{fill:url(#linear-gradient-126);}.cls-134{fill:url(#linear-gradient-127);}.cls-135{fill:url(#linear-gradient-128);}.cls-136{fill:url(#linear-gradient-129);}.cls-137{fill:url(#linear-gradient-130);}.cls-138{fill:url(#linear-gradient-131);}.cls-139{fill:url(#linear-gradient-132);}</style><linearGradient id="linear-gradient" x1="-14.22" y1="2659.95" x2="157.76" y2="3000.93" gradientTransform="matrix(-1.42, 0.56, 0.35, 1.23, 529.1, -1928.77)" gradientUnits="userSpaceOnUse"><stop offset="0" stop-color="#e1f1fb"/><stop offset="1" stop-color="#b8d5f0"/></linearGradient><linearGradient id="linear-gradient-2" x1="2369.11" y1="32.87" x2="2369.11" y2="346.25" gradientUnits="userSpaceOnUse"><stop offset="0" stop-color="#2f5b91"/><stop offset="1" stop-color="#00264c"/></linearGradient><linearGradient id="linear-gradient-3" x1="2362.86" y1="32.87" x2="2362.86" y2="346.25" gradientUnits="userSpaceOnUse"><stop offset="0" stop-color="#68a9dc"/><stop offset="1" stop-color="#3a6eae"/></linearGradient><linearGradient id="linear-gradient-4" x1="2371.64" y1="-1971.04" x2="2413.07" y2="-1971.04" gradientTransform="matrix(1, 0, 0, -1, -79.6, -1680.43)" gradientUnits="userSpaceOnUse"><stop offset="0" stop-color="#afcaea"/><stop offset="1" stop-color="#73a5d8"/></linearGradient><linearGradient id="linear-gradient-5" x1="2421.74" y1="-1754.39" x2="2463.17" y2="-1754.39" xlink:href="#linear-gradient-4"/><linearGradient id="linear-gradient-6" x1="2371.64" y1="-1834.83" x2="2513.27" y2="-1834.83" xlink:href="#linear-gradient-4"/><linearGradient id="linear-gradient-7" x1="2371.64" y1="-1913.28" x2="2513.27" y2="-1913.28" xlink:href="#linear-gradient-4"/><linearGradient id="linear-gradient-8" x1="2371.64" y1="-1822.7" x2="2439.11" y2="-1822.7" xlink:href="#linear-gradient-4"/><linearGradient id="linear-gradient-9" x1="2445.8" y1="-1822.7" x2="2513.27" y2="-1822.7" xlink:href="#linear-gradient-4"/><linearGradient id="linear-gradient-10" x1="2371.64" y1="-1810.57" x2="2513.27" y2="-1810.57" xlink:href="#linear-gradient-4"/><linearGradient id="linear-gradient-11" x1="2371.64" y1="-1798.45" x2="2513.27" y2="-1798.45" xlink:href="#linear-gradient-4"/><linearGradient id="linear-gradient-12" x1="2371.64" y1="-1786.32" x2="2513.27" y2="-1786.32" xlink:href="#linear-gradient-4"/><linearGradient id="linear-gradient-13" x1="2371.64" y1="-1774.19" x2="2513.27" y2="-1774.19" xlink:href="#linear-gradient-4"/><linearGradient id="linear-gradient-14" x1="2371.64" y1="-1873.86" x2="2513.27" y2="-1873.86" xlink:href="#linear-gradient-4"/><linearGradient id="linear-gradient-15" x1="2381.65" y1="291.68" x2="2396.95" y2="291.68" gradientUnits="userSpaceOnUse"><stop offset="0" stop-color="#375c90"/><stop offset="1" stop-color="#092947"/></linearGradient><linearGradient id="linear-gradient-16" x1="2481.11" y1="1399.97" x2="2457.32" y2="1441.17" gradientTransform="matrix(1, 0, 0, -1, -79.6, 1692.54)" gradientUnits="userSpaceOnUse"><stop offset="0" stop-color="#9fc4e6"/><stop offset="1" stop-color="#69a1d6"/></linearGradient><linearGradient id="linear-gradient-17" x1="1081.57" y1="0" x2="1081.57" y2="384.78" xlink:href="#linear-gradient-2"/><linearGradient id="linear-gradient-18" x1="1065.73" y1="0" x2="1065.73" y2="384.78" xlink:href="#linear-gradient-3"/><linearGradient id="linear-gradient-19" x1="1065.73" y1="22.7" x2="1065.73" y2="362.08" gradientUnits="userSpaceOnUse"><stop offset="0" stop-color="#d7edfa"/><stop offset="0.58" stop-color="#b9daf2"/><stop offset="1" stop-color="#a7cfee"/></linearGradient><linearGradient id="linear-gradient-20" x1="971.34" y1="443.18" x2="1342.51" y2="443.18" gradientTransform="matrix(1, 0, 0, 1, 0, 0)" xlink:href="#linear-gradient-16"/><linearGradient id="linear-gradient-21" x1="924.59" y1="355.53" x2="1329.83" y2="355.53" xlink:href="#linear-gradient-2"/><linearGradient id="linear-gradient-22" x1="-2321.54" y1="653.77" x2="-2450.89" y2="567.47" gradientTransform="matrix(1, -0.06, 0.08, 1.3, 3545.89, -535.27)" xlink:href="#linear-gradient-2"/><linearGradient id="linear-gradient-23" x1="1267.4" y1="461.47" x2="1653.05" y2="461.47" gradientTransform="translate(-288.12)" xlink:href="#linear-gradient-16"/><linearGradient id="linear-gradient-24" x1="1219.95" y1="455.25" x2="1658.22" y2="455.25" gradientTransform="translate(-288.12)" gradientUnits="userSpaceOnUse"><stop offset="0" stop-color="#d7edf9"/><stop offset="1" stop-color="#a8ceec"/></linearGradient><linearGradient id="linear-gradient-25" x1="1388.92" y1="480.39" x2="1774.56" y2="480.39" gradientTransform="matrix(-1, 0, 0, 1, 2715.89, 0)" xlink:href="#linear-gradient-16"/><linearGradient id="linear-gradient-26" x1="1341.46" y1="474.22" x2="1779.73" y2="474.22" gradientTransform="matrix(-1, 0, 0, 1, 2715.89, 0)" xlink:href="#linear-gradient-24"/><linearGradient id="linear-gradient-27" x1="274.97" y1="268.6" x2="466.41" y2="268.6" xlink:href="#linear-gradient-2"/><linearGradient id="linear-gradient-28" x1="3161.04" y1="1480.12" x2="3345.76" y2="1530.43" gradientTransform="translate(-236.4 3803.06) rotate(-105.24)" gradientUnits="userSpaceOnUse"><stop offset="0" stop-color="#e2f1fb"/><stop offset="1" stop-color="#b8d5f0"/></linearGradient><linearGradient id="linear-gradient-29" x1="3173.85" y1="1505.27" x2="3332.94" y2="1505.27" gradientTransform="translate(-236.4 3803.06) rotate(-105.24)" gradientUnits="userSpaceOnUse"><stop offset="0" stop-color="#75acdd"/><stop offset="1" stop-color="#406ead"/></linearGradient><linearGradient id="linear-gradient-30" x1="3243" y1="1505.27" x2="3263.79" y2="1505.27" xlink:href="#linear-gradient-29"/><linearGradient id="linear-gradient-31" x1="3151.22" y1="1595.24" x2="3182.07" y2="1595.24" gradientTransform="matrix(-1, 0, 0, 1, 4952.62, -139)" xlink:href="#linear-gradient-2"/><linearGradient id="linear-gradient-32" x1="3151.22" y1="1296.88" x2="3182.07" y2="1296.88" gradientTransform="matrix(-1, 0, 0, 1, 5032.22, 0)" gradientUnits="userSpaceOnUse"><stop offset="0" stop-color="#69a8db"/><stop offset="1" stop-color="#3e72ae"/></linearGradient><linearGradient id="linear-gradient-33" x1="3135.8" y1="1432.44" x2="3197.5" y2="1432.44" gradientTransform="matrix(-1, 0, 0, 1, 5032.22, 0)" xlink:href="#linear-gradient-2"/><linearGradient id="linear-gradient-34" x1="3105.15" y1="1524.16" x2="3228.16" y2="1524.16" gradientTransform="matrix(-1, 0, 0, 1, 5032.22, 0)" xlink:href="#linear-gradient-2"/><linearGradient id="linear-gradient-35" x1="2935.94" y1="1543.62" x2="3123.92" y2="1543.62" xlink:href="#linear-gradient-32"/><linearGradient id="linear-gradient-36" x1="2919" y1="1604.12" x2="2963.35" y2="1604.12" gradientTransform="matrix(-1, 0, 0, 1, 5032.22, 0)" xlink:href="#linear-gradient-2"/><linearGradient id="linear-gradient-37" x1="2911.79" y1="1577.6" x2="2970.57" y2="1577.6" gradientTransform="matrix(-1, 0, 0, 1, 5032.22, 0)" xlink:href="#linear-gradient-2"/><linearGradient id="linear-gradient-38" x1="2938.38" y1="1581.54" x2="2943.97" y2="1581.54" gradientTransform="matrix(-1, 0, 0, 1, 4952.62, -139)" xlink:href="#linear-gradient-2"/><linearGradient id="linear-gradient-39" x1="3209.39" y1="1543.62" x2="3397.37" y2="1543.62" xlink:href="#linear-gradient-32"/><linearGradient id="linear-gradient-40" x1="3369.94" y1="1604.12" x2="3414.3" y2="1604.12" gradientTransform="matrix(-1, 0, 0, 1, 5032.22, 0)" xlink:href="#linear-gradient-2"/><linearGradient id="linear-gradient-41" x1="3362.74" y1="1577.6" x2="3421.53" y2="1577.6" gradientTransform="matrix(-1, 0, 0, 1, 5032.22, 0)" xlink:href="#linear-gradient-2"/><linearGradient id="linear-gradient-42" x1="3389.33" y1="1581.54" x2="3394.93" y2="1581.54" gradientTransform="matrix(-1, 0, 0, 1, 4952.62, -139)" xlink:href="#linear-gradient-2"/><linearGradient id="linear-gradient-43" x1="3144.18" y1="1537.01" x2="3189.13" y2="1537.01" xlink:href="#linear-gradient-32"/><linearGradient id="linear-gradient-44" x1="3137.25" y1="1569.63" x2="3196.05" y2="1569.63" gradientTransform="matrix(-1, 0, 0, 1, 5032.22, 0)" xlink:href="#linear-gradient-2"/><linearGradient id="linear-gradient-45" x1="2866.27" y1="1011.58" x2="3324.6" y2="1011.58" xlink:href="#linear-gradient-32"/><linearGradient id="linear-gradient-46" x1="2847.89" y1="1016.19" x2="3485.91" y2="1016.19" gradientTransform="matrix(-1, 0, 0, 1, 5032.22, 0)" xlink:href="#linear-gradient-2"/><linearGradient id="linear-gradient-47" x1="3189.57" y1="833.14" x2="2940.38" y2="833.14" xlink:href="#linear-gradient-32"/><linearGradient id="linear-gradient-48" x1="3193.17" y1="870.38" x2="2943.98" y2="870.38" xlink:href="#linear-gradient-32"/><linearGradient id="linear-gradient-49" x1="3196.76" y1="907.61" x2="2947.57" y2="907.61" xlink:href="#linear-gradient-32"/><linearGradient id="linear-gradient-50" x1="3200.35" y1="944.85" x2="2951.16" y2="944.85" xlink:href="#linear-gradient-32"/><linearGradient id="linear-gradient-51" x1="3203.95" y1="982.08" x2="2954.76" y2="982.08" xlink:href="#linear-gradient-32"/><linearGradient id="linear-gradient-52" x1="3207.54" y1="1019.32" x2="2958.35" y2="1019.32" xlink:href="#linear-gradient-32"/><linearGradient id="linear-gradient-53" x1="3211.14" y1="1056.55" x2="2961.94" y2="1056.55" xlink:href="#linear-gradient-32"/><linearGradient id="linear-gradient-54" x1="3214.73" y1="1093.78" x2="2965.54" y2="1093.78" xlink:href="#linear-gradient-32"/><linearGradient id="linear-gradient-55" x1="3457.11" y1="1242.83" x2="3192.1" y2="1242.83" gradientTransform="matrix(-1, 0, 0, 1, 5032.22, 0)" xlink:href="#linear-gradient-2"/><linearGradient id="linear-gradient-56" x1="1693.27" y1="798.01" x2="1916.07" y2="798.01" gradientUnits="userSpaceOnUse"><stop offset="0" stop-color="#d7edfa"/><stop offset="1" stop-color="#a7cfee"/></linearGradient><linearGradient id="linear-gradient-57" x1="-273.06" y1="1961.57" x2="-101.4" y2="1961.57" gradientTransform="matrix(-0.94, 0.34, 0.34, 0.94, 635.9, -257.59)" gradientUnits="userSpaceOnUse"><stop offset="0" stop-color="#fbd4da"/><stop offset="1" stop-color="#edb0ba"/></linearGradient><linearGradient id="linear-gradient-58" x1="-430.96" y1="2018.03" x2="-259.3" y2="2018.03" xlink:href="#linear-gradient-57"/><linearGradient id="linear-gradient-59" x1="1432.36" y1="1696.28" x2="1553.79" y2="1696.28" gradientTransform="translate(-331.69 -279.43) rotate(-13.88)" xlink:href="#linear-gradient-57"/><linearGradient id="linear-gradient-60" x1="1763.48" y1="586.97" x2="1893.98" y2="586.97" gradientTransform="matrix(1.02, -0.11, 0.09, 1, -22.69, 179.23)" gradientUnits="userSpaceOnUse"><stop offset="0" stop-color="#ddbcc2"/><stop offset="1" stop-color="#d9a2ab"/></linearGradient><linearGradient id="linear-gradient-61" x1="1568.86" y1="402.68" x2="1692.49" y2="402.68" gradientTransform="matrix(-0.98, -0.18, -0.18, 0.98, 3584.99, 347.53)" xlink:href="#linear-gradient-57"/><linearGradient id="linear-gradient-62" x1="1585.36" y1="380.01" x2="1562.26" y2="380.01" gradientTransform="matrix(-0.98, -0.18, -0.18, 0.98, 3584.99, 347.53)" xlink:href="#linear-gradient-57"/><linearGradient id="linear-gradient-63" x1="1477.44" y1="1315.29" x2="1854.85" y2="1315.29" xlink:href="#linear-gradient-2"/><linearGradient id="linear-gradient-64" x1="1632.52" y1="1305.16" x2="2033.95" y2="1305.16" xlink:href="#linear-gradient-2"/><linearGradient id="linear-gradient-65" x1="1923.51" y1="592.84" x2="1923.51" y2="825.11" xlink:href="#linear-gradient-56"/><linearGradient id="linear-gradient-66" x1="1554.5" y1="826.27" x2="1751.88" y2="826.27" xlink:href="#linear-gradient-2"/><linearGradient id="linear-gradient-67" x1="1855.84" y1="1022.35" x2="1855.84" y2="618.25" xlink:href="#linear-gradient-2"/><linearGradient id="linear-gradient-68" x1="1712.93" y1="859.29" x2="2108.72" y2="859.29" xlink:href="#linear-gradient-2"/><linearGradient id="linear-gradient-69" x1="1915.87" y1="652.44" x2="1915.87" y2="589.51" xlink:href="#linear-gradient-56"/><linearGradient id="linear-gradient-70" x1="1771.41" y1="702.54" x2="1850.34" y2="702.54" xlink:href="#linear-gradient-2"/><linearGradient id="linear-gradient-71" x1="1846.64" y1="704.03" x2="2044.41" y2="704.03" xlink:href="#linear-gradient-2"/><linearGradient id="linear-gradient-72" x1="1770.95" y1="1606.27" x2="1892.37" y2="1606.27" gradientTransform="matrix(0.98, -0.21, 0.21, 0.98, -284.24, -176.89)" xlink:href="#linear-gradient-57"/><linearGradient id="linear-gradient-73" x1="1883.09" y1="833.97" x2="2137.73" y2="833.97" xlink:href="#linear-gradient-2"/><linearGradient id="linear-gradient-74" x1="1155.81" y1="1840.2" x2="1070.22" y2="1266.29" gradientTransform="translate(125.32 -503.27) rotate(8.48)" xlink:href="#linear-gradient-57"/><linearGradient id="linear-gradient-75" x1="3932.72" y1="841.71" x2="4018.31" y2="1415.62" gradientTransform="matrix(-0.99, 0.15, 0.15, 0.99, 4944.95, -503.27)" xlink:href="#linear-gradient-57"/><linearGradient id="linear-gradient-76" x1="2247.68" y1="1092.99" x2="2333.27" y2="1666.91" gradientTransform="translate(125.32 -503.27) rotate(8.48)" xlink:href="#linear-gradient-57"/><linearGradient id="linear-gradient-77" x1="2840.85" y1="1588.92" x2="2755.26" y2="1015" gradientTransform="matrix(-0.99, 0.15, 0.15, 0.99, 4944.95, -503.27)" xlink:href="#linear-gradient-57"/><linearGradient id="linear-gradient-78" x1="1683.27" y1="872.86" x2="1683.27" y2="921.88" gradientTransform="matrix(1, 0, 0, 1, 0, 0)" xlink:href="#linear-gradient-57"/><linearGradient id="linear-gradient-79" x1="1683.27" y1="927.97" x2="1683.27" y2="920.38" gradientTransform="matrix(1, 0, 0, 1, 0, 0)" xlink:href="#linear-gradient-60"/><linearGradient id="linear-gradient-80" x1="1037.35" y1="784.97" x2="1196.66" y2="784.97" xlink:href="#linear-gradient-2"/><linearGradient id="linear-gradient-81" x1="1027.68" y1="784.97" x2="1187" y2="784.97" xlink:href="#linear-gradient-3"/><linearGradient id="linear-gradient-82" x1="1045.87" y1="816.6" x2="1106.6" y2="816.6" xlink:href="#linear-gradient-2"/><linearGradient id="linear-gradient-83" x1="1081.78" y1="760.34" x2="1081.78" y2="872.86" gradientUnits="userSpaceOnUse"><stop offset="0" stop-color="#a0c4e8"/><stop offset="1" stop-color="#67a3d8"/></linearGradient><linearGradient id="linear-gradient-84" x1="2134.74" y1="633.32" x2="2255.35" y2="633.32" xlink:href="#linear-gradient-2"/><linearGradient id="linear-gradient-85" x1="4491.89" y1="866.94" x2="4553.85" y2="866.94" gradientTransform="matrix(-1, 0, 0, 1, 6796.89, -139)" xlink:href="#linear-gradient-2"/><linearGradient id="linear-gradient-86" x1="4507.95" y1="866.94" x2="4569.91" y2="866.94" gradientTransform="matrix(-1, 0, 0, 1, 6796.89, -139)" xlink:href="#linear-gradient-2"/><linearGradient id="linear-gradient-87" x1="4506.74" y1="655.14" x2="4641.74" y2="655.14" gradientTransform="matrix(0.72, 0.69, 0.69, -0.72, -1446.11, -2047.2)" xlink:href="#linear-gradient-2"/><linearGradient id="linear-gradient-88" x1="4516.73" y1="667.49" x2="4651.73" y2="667.49" gradientTransform="matrix(0.72, 0.69, 0.69, -0.72, -1471.89, -2032.86)" xlink:href="#linear-gradient-2"/><linearGradient id="linear-gradient-89" x1="2269.54" y1="592.39" x2="2313.23" y2="592.39" xlink:href="#linear-gradient-2"/><linearGradient id="linear-gradient-90" x1="4556.47" y1="994.52" x2="4556.47" y2="1011.87" gradientTransform="matrix(-1, 0, 0, 1, 6876.49, 0)" xlink:href="#linear-gradient-2"/><linearGradient id="linear-gradient-91" x1="4560.7" y1="994.52" x2="4560.7" y2="1011.87" gradientTransform="matrix(-1, 0, 0, 1, 6876.49, 0)" xlink:href="#linear-gradient-3"/><linearGradient id="linear-gradient-92" x1="4485.91" y1="731.4" x2="4529.61" y2="731.4" gradientTransform="matrix(-0.99, -0.16, -0.16, 0.99, 6935.44, 726.5)" xlink:href="#linear-gradient-3"/><linearGradient id="linear-gradient-93" x1="4708.66" y1="669.98" x2="4708.66" y2="643.64" gradientTransform="matrix(-0.61, -0.79, -0.79, 0.61, 5581.3, 3966.06)" xlink:href="#linear-gradient-2"/><linearGradient id="linear-gradient-94" x1="4624.19" y1="595.39" x2="4675.23" y2="595.39" gradientTransform="matrix(0.72, -0.69, -0.69, -0.72, -715.58, 4244.61)" xlink:href="#linear-gradient-3"/><linearGradient id="linear-gradient-95" x1="4646.2" y1="642.4" x2="4744.77" y2="642.4" gradientTransform="matrix(-1, 0, 0, 1, 6876.49, 0)" xlink:href="#linear-gradient-3"/><linearGradient id="linear-gradient-96" x1="335.94" y1="970.88" x2="450.71" y2="970.88" gradientTransform="matrix(-0.98, 0.21, 0.21, 0.98, 2625.81, -220.37)" xlink:href="#linear-gradient-2"/><linearGradient id="linear-gradient-97" x1="4765.58" y1="208.61" x2="4640.53" y2="425.21" gradientTransform="translate(-2004.55 -625.25) rotate(13.95)" xlink:href="#linear-gradient-83"/><linearGradient id="linear-gradient-98" x1="48.46" y1="682.31" x2="132.82" y2="682.31" gradientTransform="translate(2203.09 184.52) rotate(-7.57)" gradientUnits="userSpaceOnUse"><stop offset="0" stop-color="#e0f0fb"/><stop offset="1" stop-color="#b7d4f0"/></linearGradient><linearGradient id="linear-gradient-99" x1="346.5" y1="908.07" x2="327.7" y2="1014.7" gradientTransform="matrix(-1, 0, 0, 1, 2773.32, 0)" xlink:href="#linear-gradient-3"/><linearGradient id="linear-gradient-100" x1="291.92" y1="919.95" x2="393.77" y2="919.95" gradientTransform="matrix(-1, 0, 0, 1, 2773.32, 0)" xlink:href="#linear-gradient-56"/><linearGradient id="linear-gradient-101" x1="285.02" y1="910.21" x2="401.19" y2="910.21" gradientTransform="matrix(-1, 0, 0, 1, 2773.32, 0)" xlink:href="#linear-gradient-2"/><linearGradient id="linear-gradient-102" x1="1849.6" y1="874.55" x2="1842.42" y2="862.11" gradientTransform="matrix(1, 0, 0, 1, 0, 0)" xlink:href="#linear-gradient-28"/><linearGradient id="linear-gradient-103" x1="1691.6" y1="860.68" x2="1691.6" y2="872.79" gradientTransform="matrix(1, 0, 0, 1, 0, 0)" xlink:href="#linear-gradient-28"/><linearGradient id="linear-gradient-104" x1="1515.5" y1="788.09" x2="1515.5" y2="517.92" xlink:href="#linear-gradient-2"/><linearGradient id="linear-gradient-105" x1="1498.02" y1="517.92" x2="1498.02" y2="788.09" gradientTransform="matrix(1, 0, 0, 1, 0, 0)" xlink:href="#linear-gradient-32"/><linearGradient id="linear-gradient-106" x1="1635.59" y1="916.98" x2="1576.92" y2="916.98" gradientTransform="matrix(1, 0, 0, 1, 0, 0)" xlink:href="#linear-gradient-32"/><linearGradient id="linear-gradient-107" x1="1602.25" y1="914.87" x2="1491.92" y2="914.87" xlink:href="#linear-gradient-3"/><linearGradient id="linear-gradient-108" x1="1515.62" y1="916.98" x2="1633.59" y2="916.98" xlink:href="#linear-gradient-83"/><linearGradient id="linear-gradient-109" x1="1505.64" y1="581.56" x2="1505.64" y2="715.73" gradientTransform="matrix(1, 0, 0, 1, 0, 0)" xlink:href="#linear-gradient-28"/><linearGradient id="linear-gradient-110" x1="1594.21" y1="1002.43" x2="1594.21" y2="1011.87" xlink:href="#linear-gradient-2"/><linearGradient id="linear-gradient-111" x1="1578.51" y1="1002.43" x2="1578.51" y2="1011.87" gradientTransform="matrix(1, 0, 0, 1, 0, 0)" xlink:href="#linear-gradient-32"/><linearGradient id="linear-gradient-112" x1="-18.97" y1="2132.06" x2="96.82" y2="2603.2" gradientTransform="translate(1155.12 -928.34) rotate(23.17)" gradientUnits="userSpaceOnUse"><stop offset="0" stop-color="#366293"/><stop offset="1" stop-color="#082946"/></linearGradient><linearGradient id="linear-gradient-113" x1="5223.15" y1="-110.98" x2="5338.94" y2="360.16" gradientTransform="matrix(-0.92, 0.39, 0.39, 0.92, 5350.29, -928.34)" xlink:href="#linear-gradient-112"/><linearGradient id="linear-gradient-114" x1="71.97" y1="2128.32" x2="187.77" y2="2599.46" xlink:href="#linear-gradient-112"/><linearGradient id="linear-gradient-115" x1="5157.64" y1="-47.77" x2="5273.44" y2="423.36" gradientTransform="matrix(-0.92, 0.39, 0.39, 0.92, 5350.29, -928.34)" xlink:href="#linear-gradient-112"/><linearGradient id="linear-gradient-116" x1="-3603.13" y1="1290.08" x2="-3636.72" y2="1892.42" gradientTransform="translate(4260.13 -199.04) rotate(2.81)" gradientUnits="userSpaceOnUse"><stop offset="0" stop-color="#75acdd"/><stop offset="0.41" stop-color="#598cc4"/><stop offset="0.77" stop-color="#4776b3"/><stop offset="1" stop-color="#406ead"/></linearGradient><linearGradient id="linear-gradient-117" x1="-3820.89" y1="1202.6" x2="-3513.62" y2="1867.32" gradientTransform="translate(4260.13 -199.04) rotate(2.81)" xlink:href="#linear-gradient-29"/><linearGradient id="linear-gradient-118" x1="825.95" y1="59.08" x2="511.44" y2="1371.81" gradientTransform="matrix(1, 0, 0, 1, 0, 0)" xlink:href="#linear-gradient-57"/><linearGradient id="linear-gradient-119" x1="-867.47" y1="644.97" x2="-722.34" y2="644.97" gradientTransform="translate(1270.26 58.25) rotate(-1.2)" xlink:href="#linear-gradient-60"/><linearGradient id="linear-gradient-120" x1="-470.79" y1="-319.98" x2="-606.8" y2="-334.94" gradientTransform="translate(1133.81 696.76) rotate(-22.18)" xlink:href="#linear-gradient-57"/><linearGradient id="linear-gradient-121" x1="481.75" y1="3307.73" x2="605.49" y2="3307.73" gradientTransform="matrix(0.68, 0.74, -0.74, 0.68, 2808.22, -975.63)" xlink:href="#linear-gradient-57"/><linearGradient id="linear-gradient-122" x1="1053.54" y1="1728.26" x2="992.2" y2="1220.76" gradientTransform="matrix(0.99, 0.12, -0.12, 0.99, -158.87, -216.62)" xlink:href="#linear-gradient-56"/><linearGradient id="linear-gradient-123" x1="932.19" y1="3362.29" x2="1055.94" y2="3362.29" gradientTransform="translate(3143.52 -704.45) rotate(63.93)" xlink:href="#linear-gradient-57"/><linearGradient id="linear-gradient-124" x1="1575.14" y1="1648.1" x2="1174.87" y2="1879.19" gradientTransform="translate(83.01 -813.98) rotate(23.29)" xlink:href="#linear-gradient-56"/><linearGradient id="linear-gradient-125" x1="743.64" y1="1087.79" x2="1027.79" y2="1087.79" gradientTransform="matrix(0.99, 0.13, -0.13, 0.94, -231.41, -162.66)" xlink:href="#linear-gradient-2"/><linearGradient id="linear-gradient-126" x1="-98.99" y1="603.78" x2="-158.42" y2="851.83" gradientTransform="matrix(1.01, -0.26, 0.26, 0.99, 542.22, 200.35)" xlink:href="#linear-gradient-57"/><linearGradient id="linear-gradient-127" x1="2194.16" y1="1365.23" x2="2009.56" y2="1549.83" gradientTransform="translate(297.99 103.94) rotate(-0.47)" xlink:href="#linear-gradient-2"/><linearGradient id="linear-gradient-128" x1="1981.33" y1="1401.57" x2="2222.39" y2="1419" gradientTransform="translate(297.99 103.94) rotate(-0.47)" xlink:href="#linear-gradient-2"/><linearGradient id="linear-gradient-129" x1="2076.62" y1="1314.52" x2="2099.31" y2="1380.95" gradientTransform="translate(297.99 103.94) rotate(-0.47)" xlink:href="#linear-gradient-2"/><linearGradient id="linear-gradient-130" x1="2183.35" y1="1365.14" x2="1998.75" y2="1549.74" gradientTransform="translate(297.99 103.94) rotate(-0.47)" xlink:href="#linear-gradient-3"/><linearGradient id="linear-gradient-131" x1="1970.52" y1="1401.49" x2="2211.58" y2="1418.91" gradientTransform="translate(297.99 103.94) rotate(-0.47)" xlink:href="#linear-gradient-3"/><linearGradient id="linear-gradient-132" x1="2102" y1="1455.93" x2="2080.1" y2="1477.83" gradientTransform="translate(297.99 103.94) rotate(-0.47)" xlink:href="#linear-gradient-2"/></defs><path class="cls-1" d="M1873.71,1818.54c169.12-13,484.5-106.76,655.16-133,132.91-20.45,206.42-50.82,213.63-78.51,3.57-13.72-12.21-27.79-68.26-36.21-83.38-12.52-225.22-8.91-333.23-15.62-124.28-7.72-194-28.88-214.07-51.37s1.86-46.56,19.58-70.22c8.07-10.79,15.23-21.79,2.09-31.82s-50-19.12-108.84-21.89c-87.24-4.11-192.21,6.59-261.83,19.53q-18.32,3.4-34.74,7c-62.12,13.8-172.28,18.21-243.73,9.83-42.41-5-92.78-8.31-146.75-9.56-148.46-3.44-315.52,7.23-447.59,24.69s-232.2,41.08-307.94,65.62c-41,13.28-75.7,28.53-129.47,39.32C241.49,1581.78,30,1464.59,89.89,1645.26,155.63,1843.57,1359.47,1858.24,1873.71,1818.54Z" transform="translate(-79.6 -139)"/><rect class="cls-2" x="2263.47" y="32.87" width="211.28" height="313.38" rx="4.42"/><rect class="cls-3" x="2257.22" y="32.87" width="211.28" height="313.38" rx="4.42"/><rect class="cls-4" x="2267.52" y="45.3" width="190.68" height="288.53"/><rect class="cls-5" x="2292.05" y="287.31" width="41.42" height="6.58"/><rect class="cls-6" x="2342.15" y="70.67" width="41.42" height="6.58"/><rect class="cls-7" x="2292.05" y="151.33" width="141.62" height="6.13"/><rect class="cls-8" x="2292.05" y="229.78" width="141.62" height="6.13"/><rect class="cls-9" x="2292.05" y="139.2" width="67.46" height="6.13"/><rect class="cls-10" x="2366.2" y="139.2" width="67.47" height="6.13"/><rect class="cls-11" x="2292.05" y="127.07" width="141.62" height="6.13"/><rect class="cls-12" x="2292.05" y="114.95" width="141.62" height="6.13"/><rect class="cls-13" x="2292.05" y="102.82" width="141.62" height="6.13"/><rect class="cls-14" x="2292.05" y="90.69" width="141.62" height="6.13"/><rect class="cls-15" x="2292.05" y="174.16" width="141.62" height="38.54"/><polygon class="cls-16" points="2396.95 304.88 2389.3 296.56 2381.65 304.88 2381.65 278.48 2396.95 278.48 2396.95 304.88"/><polygon class="cls-17" points="2389.3 284.56 2403.06 291.68 2400.43 276.61 2411.57 265.93 2396.18 263.73 2389.3 250.02 2382.42 263.73 2367.03 265.93 2378.16 276.61 2375.54 291.68 2389.3 284.56"/><rect class="cls-18" x="889.18" width="384.78" height="384.78"/><rect class="cls-19" x="873.34" width="384.78" height="384.78"/><rect class="cls-20" x="896.04" y="22.7" width="339.38" height="339.38"/><path class="cls-21" d="M1287.24,435.38c-7.88-.3-85.7-6.89-91.34,5.21a4.76,4.76,0,0,0-3.19,1.6c-2.26-7.33-3.16-12.8-7.75-16.64-5.88-4.93-10-.82-12.56,2.74-3.74-10.8-7.51-13.19-15.26-13.19-6.91,0-10.9,5.59-14.81,14.47-1-.43-6.28.05-7.34.3-3,.73-7,3.08-10.83,6.43a31.58,31.58,0,0,0-10.16-4.89c-1.29-.29-7.69-.81-8.91-.33-4.74-9.81-9.59-16-18-16-9.41,0-14,2.63-18.54,14.56-3.08-3.93-8.1-8.46-15.24-3-3.46,2.63-5.19,6-6.67,10-3.08-6.82-6.42-11-11.8-11-4.85,0-7.9,1.15-10.45,5.56-2.17-.14-4.92.09-5.72,1-1.76-4.11-41.66,2.74-43.06,7.81v12.24l20.08,19h301.89l17.41-6.78v-21C1309.23,439.27,1300.88,435.89,1287.24,435.38Z" transform="translate(-79.6 -139)"/><path class="cls-22" d="M1277.59,225.51a26.43,26.43,0,0,0-3.08-.06,8.37,8.37,0,0,0-6.2-2.4c-3.25,0-4.83.39-6.4,2.19a6.22,6.22,0,0,0-5.27-.45c-1.92.63-2.3,1.55-3.25,2.76-.63-.39-3.53-.35-4.37-.17-11.42,2.42-.67,6,2,5.8a5.35,5.35,0,0,0,2.37-.64c.95,1.22,5,1.64,7.29,1.66a19.51,19.51,0,0,0,7.78-1.29c1.57,1.79,7.08,1.54,8.72.06a14.81,14.81,0,0,0,5.26,0C1293.61,230.47,1282.44,226,1277.59,225.51Z" transform="translate(-79.6 -139)"/><path class="cls-23" d="M1277,229.81c-.41,0-2.47,0-2.87,0a15.84,15.84,0,0,0-5.78-.88c-3,0-4.5.15-6,.81a13.82,13.82,0,0,0-4.91-.17,6.74,6.74,0,0,0-3,1c-.59-.15-3.29,0-4.08-.07-9.61-.17-1.59,2.3.9,2.22a14.16,14.16,0,0,0,2.68-.73,25.51,25.51,0,0,0,7.16,1.54,32.89,32.89,0,0,0,7.38-1c1.46.66,6.25,1.85,8.13,0a25.77,25.77,0,0,0,4.9,0C1288.13,231.7,1281.49,230,1277,229.81Z" transform="translate(-79.6 -139)"/><path class="cls-22" d="M1055.31,233c-1.27-.18-5.66-.22-6.61.17-1.44-1.22-2-2.13-4.91-2.77a13.66,13.66,0,0,0-8,.46c-2.37-1.8-4.75-2.2-9.66-2.2a16.61,16.61,0,0,0-9.38,2.41c-.64-.07-4,0-4.65.05-7.32.47-24.2,5-7.32,7.48a33.69,33.69,0,0,0,7.95,0c2.47,1.48,10.8,1.73,13.17-.07,1.61.6,6.44,1.34,11.75,1.3,3.5,0,9.57-.44,11-1.66a11.43,11.43,0,0,0,3.59.63C1056.33,239,1072.57,235.38,1055.31,233Z" transform="translate(-79.6 -139)"/><path class="cls-23" d="M1053.31,236.08c-1.19,0-5.27-.08-6.16.07a13.81,13.81,0,0,0-4.58-1,32,32,0,0,0-7.41.16c-2.21-.66-4.44-.8-9-.8a35.31,35.31,0,0,0-8.74.88c-.6,0-3.71,0-4.34,0-6.82.17-16.86,1.88-6.82,2.75a58.87,58.87,0,0,0,7.41,0c2.83,1.82,10.06.63,12.27,0a73.94,73.94,0,0,0,11.15,1,55.5,55.5,0,0,0,10.82-1.54,30.34,30.34,0,0,0,4,.73C1055.72,238.38,1067.83,235.91,1053.31,236.08Z" transform="translate(-79.6 -139)"/><path class="cls-22" d="M1165.18,190.73a12.35,12.35,0,0,0-2.19,0,5.18,5.18,0,0,0-4.4-2.41c-2.31,0-3.43.39-4.54,2.19a3.33,3.33,0,0,0-3.74-.45c-1.36.64-1.63,1.55-2.31,2.77-.45-.4-2.51-.36-3.1-.18-8.11,2.42-.48,6,1.42,5.8a3.07,3.07,0,0,0,1.68-.63c.68,1.22,3.53,1.63,5.18,1.65a10.4,10.4,0,0,0,5.52-1.29c1.11,1.79,5,1.54,6.18.06a7.57,7.57,0,0,0,3.74,0C1176.55,195.69,1168.62,191.19,1165.18,190.73Z" transform="translate(-79.6 -139)"/><path class="cls-23" d="M1164.74,195c-.29,0-1.75,0-2,0a8.3,8.3,0,0,0-4.11-.89c-2.15,0-3.2.15-4.23.81a7.06,7.06,0,0,0-3.49-.17,4,4,0,0,0-2.15,1,20.89,20.89,0,0,0-2.89-.07c-6.83-.17-1.14,2.3.63,2.22a7.92,7.92,0,0,0,1.91-.73,13.69,13.69,0,0,0,5.08,1.54,17.17,17.17,0,0,0,5.24-1c1,.66,4.43,1.85,5.77,0a12.59,12.59,0,0,0,3.48,0C1172.67,196.92,1168,195.21,1164.74,195Z" transform="translate(-79.6 -139)"/><polygon class="cls-24" points="1081.49 154.48 1078.77 141.49 1074.36 150.95 1076.19 138.24 1067.86 129.66 1066.03 119.17 1062.83 110.56 1050.41 119.58 1044.1 121.02 1039.49 115.34 1033.18 126.77 1025.58 149.84 1023.23 160.81 1009.78 160.07 997.43 188.96 998.43 189.56 1001.51 188.18 1007.92 175.48 1011.39 170.19 1016.46 172.08 1019.4 164.54 1027.14 164.54 1031.68 159.95 1033.81 139.95 1036.69 138.82 1039.07 135.16 1043.63 130.18 1050.96 134.62 1051.56 127.03 1055.92 122.84 1061.28 125.98 1062.07 130.7 1064.64 132.8 1068.46 133.17 1070.59 137.78 1075.35 140.92 1072.07 158.29 1077.14 147.73 1078.72 152.45 1079.71 157.95 1080.7 161.35 1083.48 161.35 1088.04 168.43 1096.46 172.08 1095.98 171.03 1081.49 154.48"/><polygon class="cls-24" points="1081.49 154.48 1078.77 141.49 1074.36 150.95 1076.19 138.24 1067.86 129.66 1066.03 119.17 1062.83 110.56 1050.41 119.58 1044.1 121.02 1039.49 115.34 1033.18 126.77 1025.58 149.84 1023.23 160.81 1009.78 160.07 997.43 188.96 998.43 189.56 1001.51 188.18 1007.92 175.48 1011.39 170.19 1016.46 172.08 1019.4 164.54 1027.14 164.54 1031.68 159.95 1033.81 139.95 1036.69 138.82 1039.07 135.16 1043.63 130.18 1050.96 134.62 1051.56 127.03 1055.92 122.84 1061.28 125.98 1062.07 130.7 1064.64 132.8 1068.46 133.17 1070.59 137.78 1075.35 140.92 1072.07 158.29 1077.14 147.73 1078.72 152.45 1079.71 157.95 1080.7 161.35 1083.48 161.35 1088.04 168.43 1096.46 172.08 1095.98 171.03 1081.49 154.48"/><polygon class="cls-24" points="1081.49 154.48 1078.77 141.49 1074.36 150.95 1076.19 138.24 1067.86 129.66 1066.03 119.17 1062.83 110.56 1050.41 119.58 1044.1 121.02 1039.49 115.34 1033.18 126.77 1025.58 149.84 1023.23 160.81 1009.78 160.07 997.43 188.96 998.43 189.56 1001.51 188.18 1007.92 175.48 1011.39 170.19 1016.46 172.08 1019.4 164.54 1027.14 164.54 1031.68 159.95 1033.81 139.95 1036.69 138.82 1039.07 135.16 1043.63 130.18 1050.96 134.62 1051.56 127.03 1055.92 122.84 1061.28 125.98 1062.07 130.7 1064.64 132.8 1068.46 133.17 1070.59 137.78 1075.35 140.92 1072.07 158.29 1077.14 147.73 1078.72 152.45 1079.71 157.95 1080.7 161.35 1083.48 161.35 1088.04 168.43 1096.46 172.08 1095.98 171.03 1081.49 154.48"/><polygon class="cls-24" points="1081.49 154.48 1078.77 141.49 1074.36 150.95 1076.19 138.24 1067.86 129.66 1066.03 119.17 1062.83 110.56 1050.41 119.58 1044.1 121.02 1039.49 115.34 1033.18 126.77 1025.58 149.84 1023.23 160.81 1009.78 160.07 997.43 188.96 998.43 189.56 1001.51 188.18 1007.92 175.48 1011.39 170.19 1016.46 172.08 1019.4 164.54 1027.14 164.54 1031.68 159.95 1033.81 139.95 1036.69 138.82 1039.07 135.16 1043.63 130.18 1050.96 134.62 1051.56 127.03 1055.92 122.84 1061.28 125.98 1062.07 130.7 1064.64 132.8 1068.46 133.17 1070.59 137.78 1075.35 140.92 1072.07 158.29 1077.14 147.73 1078.72 152.45 1079.71 157.95 1080.7 161.35 1083.48 161.35 1088.04 168.43 1096.46 172.08 1095.98 171.03 1081.49 154.48"/><polygon class="cls-24" points="1081.49 154.48 1078.77 141.49 1074.36 150.95 1076.19 138.24 1067.86 129.66 1066.03 119.17 1062.83 110.56 1050.41 119.58 1044.1 121.02 1039.49 115.34 1033.18 126.77 1025.58 149.84 1023.23 160.81 1009.78 160.07 997.43 188.96 998.43 189.56 1001.51 188.18 1007.92 175.48 1011.39 170.19 1016.46 172.08 1019.4 164.54 1027.14 164.54 1031.68 159.95 1033.81 139.95 1036.69 138.82 1039.07 135.16 1043.63 130.18 1050.96 134.62 1051.56 127.03 1055.92 122.84 1061.28 125.98 1062.07 130.7 1064.64 132.8 1068.46 133.17 1070.59 137.78 1075.35 140.92 1072.07 158.29 1077.14 147.73 1078.72 152.45 1079.71 157.95 1080.7 161.35 1083.48 161.35 1088.04 168.43 1096.46 172.08 1095.98 171.03 1081.49 154.48"/><polygon class="cls-25" points="1108.91 223.53 1101.25 189.56 1096.46 172.08 1088.04 168.43 1083.48 161.35 1080.7 161.35 1079.71 157.95 1078.72 152.45 1077.14 147.73 1072.36 157.31 1075.35 140.92 1070.59 137.78 1068.55 132.83 1064.64 132.8 1062.07 130.7 1061.28 125.98 1059.32 118.4 1049.71 124.94 1050.21 133.31 1043.63 130.18 1039.59 125.46 1034.87 135.74 1033.81 139.95 1031.68 159.95 1027.14 164.54 1019.4 164.54 1016.46 172.08 1011.39 170.19 1007.92 175.48 1001.51 188.18 998.43 189.56 997.43 186.29 989.79 179.29 986.45 182.08 981.38 182.95 981.77 190.22 982.27 204 976.6 214.6 958.39 222.17 948.6 225.8 937.93 306 980.05 306 1163.11 302.18 1120.78 255.16 1108.91 223.53"/><path class="cls-24" d="M1209.56,259.17l-4.51-6.28L1198.84,263l-12.18-5.49h-26.87l-9.69,9.84-8.13,40-12.92,2.2-18.65,18.23-4.74,9.88,13-12.51,7.26-9.46h11.62l5.8-4.06,7.27-14.87,4.84-16.22,8.23-3.38,12.1-11.11,6.78,5,6.77-2s28.56,18.93,30,18.93c.54,0,2.31,2,2.78,2.54V278.15l-3.44-19.65Z" transform="translate(-79.6 -139)"/><path class="cls-26" d="M1265.3,416.22c-3.85-10.4-5.52-15.43-10.34-28.11-.94-2.46-21-30.38-22.1-30.86-1.29-.56-13.48-69.27-13.53-69.27-1.46,0-30-18.93-30-18.93l-6.77,2-6.78-5-12.1,11.11-8.23,3.38-4.84,16.22-7.27,14.87-5.8,4.06H1125.9l-7.26,9.46-13,12.51-8.05,26.69L1026.48,386l-31.77,47.72L979.82,445H1265.3Z" transform="translate(-79.6 -139)"/><path class="cls-24" d="M1221.48,307.78l-11.86-9.93-3.57-.45-2.58,2.68-4.06,5.94-4.05,6.1-1.67,14.25-9.47,9.21-7.59,8-1.55,6.58,6.14-7,3.37-5.18,5.8-.52,2.79-2.35,3.22-7.94,2-8.53,4-2.11,5.74-6.24,3.52,2.27,3.33-1.35s14.78,8.41,15.51,8.34a9.26,9.26,0,0,0,1.91-.52l4,7.29,6.39,1.26,2.2-.2-15.61-19Z" transform="translate(-79.6 -139)"/><path class="cls-27" d="M1137.73,406.64l13.45-22.85,20.61-19.59,3.29-14,6.14-7,3.37-5.18,5.8-.52,2.79-2.35,3.22-7.94,2-8.53,3-6.73,6.23-6.74,4,7.39,3.33-1.35s14.78,8.41,15.51,8.34a9.26,9.26,0,0,0,1.91-.52l4,7.29,6.39,1.26,2.2-.2,3.75,10.25,4.57-2.06,2.7,24.19,14.26,6.2,8,15.23,6.75,24.52,7.21,39.29H1120.21Z" transform="translate(-79.6 -139)"/><path class="cls-24" d="M1290.43,432.74a10.13,10.13,0,0,0-9.78-1c-3.57,1.38-4.27,3.34-6,6-.8-.57-3.55-.72-5.72-.63-2.55-2.82-5.6-3.55-10.45-3.55-5.38,0-8.72,2.67-11.8,7a14.31,14.31,0,0,0-6.67-6.42c-7.14-3.48-12.16-.58-15.24,1.93-4.55-7.62-9.12-9.31-18.53-9.31-8.38,0-13.23,4-18,10.22-1.23-.31-7.63,0-8.92.21a41.52,41.52,0,0,0-10.16,3.13,35.27,35.27,0,0,0-10.83-4.11A40.15,40.15,0,0,0,1151,436c-3.91-5.68-7.9-9.26-14.8-9.26-7.76,0-11.52,1.53-15.27,8.43-2.54-2.27-6.68-4.9-12.56-1.75-4.58,2.46-5.49,6-7.75,10.64a6,6,0,0,0-3.19-1c-5.64-7.74-18.55-14.32-26.21-15.51-1.34-.21-8-.59-9.24-.24-4.92-7.16-10-11.66-18.64-11.66-9.77,0-14.51,1.93-19.22,10.62-3.21-2.86-8.41-6.17-15.82-2.2-5.77,3.09-6.91,7.49-9.76,13.4-10.07.37-17.45,1.86-22.89,3.86v18.19l20.08,3.16h301.89l17.41-1.22V446.59C1305.41,438.58,1291.68,431.08,1290.43,432.74Z" transform="translate(-79.6 -139)"/><path class="cls-28" d="M1303.52,453.21c-4.9-10.32-9.82-12.6-20-12.6-9,0-14.25,5.34-19.36,13.82-1.32-.41-8.21.05-9.6.29-7.95,1.42-21.36,9.22-27.21,18.4a5.7,5.7,0,0,0-3.31,1.21c-2.35-5.56-3.29-9.7-8-12.62-6.11-3.73-10.4-.62-13,2.08-3.89-8.19-7.8-10-15.85-10-7.16,0-11.31,4.24-15.36,11-1-.32-6.52,0-7.63.23a33.93,33.93,0,0,0-11.24,4.88,39,39,0,0,0-10.55-3.71c-1.34-.22-8-.62-9.26-.26-4.92-7.43-9.95-12.11-18.65-12.11-9.77,0-14.52,2-19.24,11-3.21-3-8.42-6.42-15.83-2.29a16,16,0,0,0-6.92,7.62c-3.2-5.18-6.67-8.35-12.25-8.35-5,0-8.21.88-10.85,4.22-2.26-.11-5.11.06-5.94.74-1.83-3.12-2.56-5.45-6.27-7.08a9.46,9.46,0,0,0-10.15,1.16c-1.33,9.23-6.52,16.22-13,21.48h301V448.61C1309.89,447.66,1306.08,450.59,1303.52,453.21Z" transform="translate(-79.6 -139)"/><path class="cls-29" d="M1315,454a12.62,12.62,0,0,0-1.8.8c-4.24,2.29-5.07,5.54-7.17,9.9-.94-.95-4.21-1.19-6.78-1-3-4.67-6.65-5.9-12.4-5.9-6.38,0-10.35,4.44-14,11.67-1.75-4.33-3.8-7.86-7.91-10.65-8.47-5.76-14.43-1-18.09,3.2-5.4-12.63-10.82-15.42-22-15.42-9.95,0-15.7,6.53-21.33,16.92-1.46-.5-9,.06-10.58.36A39.39,39.39,0,0,0,1180.9,469c-4.54-3.55-9.29-6-12.84-6.81-1.27-.27-7.52-.78-8.72-.32-4.63-9.41-9.38-15.33-17.57-15.33-9.2,0-13.67,2.53-18.11,14-3-3.77-7.93-8.12-14.91-2.9-5.44,4.07-6.51,9.86-9.19,17.63-.64-.88-2.09-1.42-3.79-1.7-6.69-12.82-22-23.72-31.1-25.69-1.59-.35-9.47-1-11-.41-5.83-11.85-11.8-19.31-22.12-19.31-11.58,0-17.21,3.19-22.81,17.6-3.8-4.75-10-10.22-18.76-3.65-6.85,5.12-8.2,12.42-11.58,22.19-.09-.13-1.11.45-2.78,1.53v16.5H1315Z" transform="translate(-79.6 -139)"/><path class="cls-24" d="M1274.91,453.54a32.88,32.88,0,0,0-30.68,21,16.06,16.06,0,0,0-23.75,3.46c-2.47-5.7-15-24.83-73.13-20.79-23,1.61-36.17,18.69-40.92,25.08h204a22.88,22.88,0,0,0-3.24-2.26A32.85,32.85,0,0,0,1274.91,453.54Z" transform="translate(-79.6 -139)"/><path class="cls-24" d="M1073,452.06a32.59,32.59,0,0,0-32.52,30.27h65A32.59,32.59,0,0,0,1073,452.06Z" transform="translate(-79.6 -139)"/><path class="cls-24" d="M1015.09,466.7a33.54,33.54,0,0,0-28.37,15.63h56.75A33.57,33.57,0,0,0,1015.09,466.7Z" transform="translate(-79.6 -139)"/><path class="cls-30" d="M986.32,469.6c7.69-4.66,13.09-.77,16.42,2.6,4.89-10.23,9.82-12.5,20-12.5,9,0,14.25,5.3,19.36,13.71,1.32-.41,8.2,0,9.6.29,7.95,1.4,21.35,9.14,27.2,18.25a5.67,5.67,0,0,1,3.32,1.2c2.35-5.51,3.28-9.63,8-12.52,6.1-3.7,10.39-.61,13,2.06,3.89-8.12,7.8-9.92,15.85-9.92,7.17,0,11.32,4.21,15.37,10.89,1-.33,6.52,0,7.63.23a33.77,33.77,0,0,1,11.24,4.83,39.56,39.56,0,0,1,10.54-3.68c1.35-.21,8-.61,9.26-.25,4.92-7.38,10-12,18.66-12,9.77,0,14.52,2,19.24,11,3.21-3,8.42-6.36,15.83-2.27a15.92,15.92,0,0,1,6.92,7.56c3.2-5.13,6.67-8.28,12.25-8.28,5,0,8.21.87,10.85,4.18,2.25-.1,5.11.07,5.94.74,1.83-3.09,2.56-5.4,6.27-7a9.5,9.5,0,0,1,10.15,1.15c1.33,9.15,6.52,16.09,13,21.31H975.64V485.38l.55,0C979.15,478.42,980.33,473.24,986.32,469.6Z" transform="translate(-79.6 -139)"/><path class="cls-31" d="M1297.49,464.81c-5.59-14.29-11.22-17.46-22.81-17.46-10.31,0-16.28,7.4-22.12,19.16-1.51-.57-9.38.06-11,.4-9.09,2-24.41,12.77-31.1,25.49-1.71.27-3.15.8-3.79,1.68-2.68-7.7-3.75-13.45-9.2-17.49-7-5.17-11.88-.86-14.9,2.88-4.44-11.35-8.91-13.86-18.11-13.86-8.2,0-12.94,5.87-17.57,15.21-1.2-.45-7.45.05-8.72.32-3.55.76-8.3,3.23-12.85,6.75a39.87,39.87,0,0,0-12-5.14c-1.54-.3-9.13-.85-10.58-.35-5.63-10.31-11.39-16.79-21.33-16.79-11.17,0-16.6,2.77-22,15.3-3.67-4.13-9.62-8.89-18.09-3.17-4.11,2.76-6.16,6.26-7.91,10.55-3.66-7.17-7.63-11.56-14-11.56-5.76,0-9.38,1.21-12.4,5.84-2.57-.14-5.84.09-6.79,1-2.09-4.33-2.92-7.56-7.16-9.82-5.44-2.91-9.26-.49-11.61,1.61-.5-.93-2.67,1-5.79,4.74v20.95H1315V460.34C1306.89,455.18,1301.11,460.32,1297.49,464.81Z" transform="translate(-79.6 -139)"/><rect class="cls-24" x="916.26" y="362.08" width="203.97"/><path class="cls-24" d="M1158.91,476.21c-58.11-4-70.67,15-73.13,20.62A16.15,16.15,0,0,0,1062,493.4a32.95,32.95,0,0,0-62.93,5.45,20.66,20.66,0,0,0-3.23,2.24h204C1195.08,494.75,1181.92,477.8,1158.91,476.21Z" transform="translate(-79.6 -139)"/><rect class="cls-24" x="1121.11" y="362.08" width="65.04"/><path class="cls-24" d="M1233.22,471.06a32.47,32.47,0,0,0-32.51,30h65A32.49,32.49,0,0,0,1233.22,471.06Z" transform="translate(-79.6 -139)"/><path class="cls-24" d="M1262.79,501.09H1315v-5.63a33.72,33.72,0,0,0-52.23,5.63Z" transform="translate(-79.6 -139)"/><path class="cls-32" d="M463,243.45a95.69,95.69,0,1,0-67.18,117.48A95.69,95.69,0,0,0,463,243.45Z" transform="translate(-79.6 -139)"/><path class="cls-33" d="M335.75,176.27a95.69,95.69,0,1,1-67.18,117.48A95.69,95.69,0,0,1,335.75,176.27Z" transform="translate(-79.6 -139)"/><path class="cls-34" d="M437.64,247.69A79.54,79.54,0,1,1,340,191.85,79.62,79.62,0,0,1,437.64,247.69ZM285,289.26a78.64,78.64,0,1,0,55.21-96.53A78.73,78.73,0,0,0,285,289.26Z" transform="translate(-79.6 -139)"/><path class="cls-35" d="M410.62,266.62h0c0,1.22-1.2,2.32-2.85,2.43l-47.11,3.41c-1.65.12-3.26-1.88-3.33-4.46h0c-.06-2.58,1.44-4.67,3.09-4.63l47.23,1C409.3,264.37,410.59,265.4,410.62,266.62Z" transform="translate(-79.6 -139)"/><path class="cls-35" d="M339.05,201.33h0c1.05-.35,2.52,1,3.32,3.22L365.22,267a4.36,4.36,0,0,1-2.48,5.59h0a4.35,4.35,0,0,1-5.33-3q-9.56-31.84-19.09-63.69C337.65,203.66,338,201.68,339.05,201.33Z" transform="translate(-79.6 -139)"/><path class="cls-36" d="M358.17,258.57a10.39,10.39,0,1,1-7.3,12.76A10.38,10.38,0,0,1,358.17,258.57Z" transform="translate(-79.6 -139)"/><polygon class="cls-37" points="1783.18 1443.17 1783.18 1425.26 1788.77 1425.26 1788.77 1443.17 1801.4 1443.17 1801.4 1487.22 1788.77 1487.22 1788.77 1470.81 1783.18 1470.81 1783.18 1487.22 1770.56 1487.22 1770.56 1443.17 1783.18 1443.17"/><path class="cls-38" d="M1850.16,1358.37c0,4.48,5.86,8.11,13.1,8.11h4.62c7.24,0,13.12-3.63,13.12-8.11v-123c0-4.48-5.88-8.09-13.12-8.09h-4.62c-7.24,0-13.1,3.61-13.1,8.09Z" transform="translate(-79.6 -139)"/><path class="cls-39" d="M1834.73,1502c0,5.15,4.5,9.32,10.09,9.32h41.51c5.57,0,10.1-4.17,10.1-9.32V1362.9c0-5.15-4.53-9.32-10.1-9.32h-41.51c-5.59,0-10.09,4.17-10.09,9.32Z" transform="translate(-79.6 -139)"/><path class="cls-40" d="M1811.32,1500.1c-4,0-7.26,3.52-7.26,7.87v32.38c0,4.34,3.26,7.86,7.26,7.86h108.49c4,0,7.26-3.52,7.26-7.86V1508c0-4.35-3.24-7.87-7.26-7.87Z" transform="translate(-79.6 -139)"/><path class="cls-41" d="M1908.3,1507.51c104.68,1.66,188,29.16,188,62.88a22,22,0,0,1-2.16,9.35c-13.72-23.54-91-41.76-185.82-43Z" transform="translate(-79.6 -139)"/><path class="cls-42" d="M2068.87,1604.12a22.18,22.18,0,1,0,22.17-22.18A22.17,22.17,0,0,0,2068.87,1604.12Z" transform="translate(-79.6 -139)"/><path class="cls-43" d="M2061.65,1594.3v-12.21c0-11.71,7.19-21.2,16.06-21.2h26.66c8.87,0,16.07,9.49,16.07,21.2v12.21c-7.72-9.43-18-15.21-29.4-15.21S2069.36,1584.87,2061.65,1594.3Z" transform="translate(-79.6 -139)"/><rect class="cls-44" x="2008.66" y="1433.22" width="5.58" height="18.62"/><path class="cls-45" d="M1822.83,1507.51c-104.67,1.66-188,29.16-188,62.88a21.89,21.89,0,0,0,2.17,9.35c13.71-23.54,91-41.76,185.81-43Z" transform="translate(-79.6 -139)"/><path class="cls-46" d="M1662.28,1604.12a22.18,22.18,0,1,1-22.18-22.18A22.18,22.18,0,0,1,1662.28,1604.12Z" transform="translate(-79.6 -139)"/><path class="cls-47" d="M1669.49,1594.3v-12.21c0-11.71-7.18-21.2-16.07-21.2h-26.65c-8.87,0-16.07,9.49-16.07,21.2v12.21c7.71-9.43,18-15.21,29.4-15.21S1661.77,1584.87,1669.49,1594.3Z" transform="translate(-79.6 -139)"/><rect class="cls-48" x="1557.69" y="1433.22" width="5.6" height="18.62"/><path class="cls-49" d="M1850.79,1563c.3,1.91,2.61,3.48,5.19,3.48h19.2c2.57,0,4.88-1.57,5.17-3.48l7.68-52c.29-1.92-2.84-3.48-7-3.48h-30.91c-4.16,0-7.3,1.56-7,3.48Z" transform="translate(-79.6 -139)"/><path class="cls-50" d="M1836.18,1586.33v-12.2c0-11.71,7.19-21.2,16.07-21.2h26.66c8.86,0,16.06,9.49,16.06,21.2v12.2c-7.72-9.43-18-15.2-29.41-15.2S1843.9,1576.9,1836.18,1586.33Z" transform="translate(-79.6 -139)"/><path class="cls-51" d="M1715.3,1215.89c40.88,0,64.06-41,68.76-80.66L1809,816.74s1-10.93,1.36-17.41c1.27-20.25,16.44-36.73,36.72-36.73l310.82,0c4.48.35,8.09,16.42,8.09,36.7a36.74,36.74,0,0,1-29.13,35.93l-16.7,378.84-322.73,16.45c-23,14-51.86,21.27-83.05,21.27l-6.73,8.75v-44.68Z" transform="translate(-79.6 -139)"/><path class="cls-52" d="M1609.63,1215.89H2036a80.05,80.05,0,0,0,80-80l11.24-304.45,1.46-39.43.35-2.49a27.68,27.68,0,1,1,55.3,2.38v.11h0l-14.5,343.88c0,73.8-60.05,133.84-133.85,133.84H1609.63Z" transform="translate(-79.6 -139)"/><path class="cls-53" d="M1842.65,833.15a2.93,2.93,0,0,0,2.94,2.93h243.32a2.93,2.93,0,0,0,2.93-2.93h0a2.94,2.94,0,0,0-2.93-2.94H1845.59a2.94,2.94,0,0,0-2.94,2.94Z" transform="translate(-79.6 -139)"/><path class="cls-54" d="M1839.06,870.38a2.94,2.94,0,0,0,2.93,2.94h243.32a2.94,2.94,0,0,0,2.94-2.94h0a2.94,2.94,0,0,0-2.94-2.93H1842a2.93,2.93,0,0,0-2.93,2.93Z" transform="translate(-79.6 -139)"/><path class="cls-55" d="M1835.46,907.61a2.94,2.94,0,0,0,2.94,2.94h243.32a2.93,2.93,0,0,0,2.93-2.94h0a2.93,2.93,0,0,0-2.93-2.93H1838.4a2.94,2.94,0,0,0-2.94,2.93Z" transform="translate(-79.6 -139)"/><path class="cls-56" d="M1831.87,944.85a2.93,2.93,0,0,0,2.94,2.93h243.31a2.94,2.94,0,0,0,2.94-2.93h0a2.94,2.94,0,0,0-2.94-2.94H1834.81a2.94,2.94,0,0,0-2.94,2.94Z" transform="translate(-79.6 -139)"/><path class="cls-57" d="M1828.27,982.08a2.94,2.94,0,0,0,2.94,2.94h243.32a2.94,2.94,0,0,0,2.94-2.94h0a2.94,2.94,0,0,0-2.94-2.93H1831.21a2.94,2.94,0,0,0-2.94,2.93Z" transform="translate(-79.6 -139)"/><path class="cls-58" d="M1824.68,1019.32a2.93,2.93,0,0,0,2.94,2.93h243.32a2.93,2.93,0,0,0,2.93-2.93h0a2.94,2.94,0,0,0-2.93-2.94H1827.62a2.94,2.94,0,0,0-2.94,2.94Z" transform="translate(-79.6 -139)"/><path class="cls-59" d="M1821.09,1056.55a2.93,2.93,0,0,0,2.93,2.93h243.32a2.93,2.93,0,0,0,2.94-2.93h0a2.93,2.93,0,0,0-2.94-2.93H1824a2.93,2.93,0,0,0-2.93,2.93Z" transform="translate(-79.6 -139)"/><path class="cls-60" d="M1817.49,1093.79a2.94,2.94,0,0,0,2.94,2.93h243.33a2.93,2.93,0,0,0,2.92-2.93h0a2.93,2.93,0,0,0-2.92-2.94H1820.43a2.94,2.94,0,0,0-2.94,2.94Z" transform="translate(-79.6 -139)"/><path class="cls-61" d="M1575.11,1242.84a26.94,26.94,0,0,0,26.94,26.93h212.6c14.87,0,25.48-12.06,25.48-26.93h0c0-14.88-14-26.95-28.85-26.95H1602.05a27,27,0,0,0-26.94,26.95Z" transform="translate(-79.6 -139)"/><rect class="cls-62" x="1693.27" y="621.17" width="222.81" height="353.68"/><path class="cls-63" d="M1546,1444.66l-3.53,129.27s18.65,22.25-8.82,41.54-92,5.94-105.1,0c-27.23-12.46,70.69-44.32,70.69-44.32l-8.62-165.74Z" transform="translate(-79.6 -139)"/><path class="cls-25" d="M1496.53,1569.4s-88.33,13.51-95,33.11c-10.56,31.32,126.07,29.77,144.1,13.52,18.27-16.47-.39-42.34-.39-42.34S1522.22,1591.29,1496.53,1569.4Z" transform="translate(-79.6 -139)"/><path class="cls-64" d="M1493.37,1572.86s8.73,8,11.27,17.28C1504.43,1596.21,1480.85,1569.31,1493.37,1572.86Z" transform="translate(-79.6 -139)"/><path class="cls-64" d="M1474.2,1577.61s8.63,8,11.11,17.23C1485.07,1600.91,1461.78,1574.12,1474.2,1577.61Z" transform="translate(-79.6 -139)"/><path class="cls-64" d="M1456.28,1581s7.35,7,9.35,15.16C1465.33,1601.5,1445.57,1578,1456.28,1581Z" transform="translate(-79.6 -139)"/><path class="cls-65" d="M1713.67,1443.72,1710.14,1573s18.65,22.25-8.82,41.54-92,5.94-105.1,0c-27.23-12.46,70.69-44.32,70.69-44.32l-8.62-165.74Z" transform="translate(-79.6 -139)"/><path class="cls-25" d="M1664.23,1568.46s-88.33,13.51-95,33.11c-10.56,31.32,126.07,29.77,144.1,13.52,18.27-16.47-.39-42.34-.39-42.34S1689.92,1590.35,1664.23,1568.46Z" transform="translate(-79.6 -139)"/><path class="cls-64" d="M1661.07,1571.92s8.73,8,11.28,17.28C1672.13,1595.27,1648.55,1568.37,1661.07,1571.92Z" transform="translate(-79.6 -139)"/><path class="cls-64" d="M1641.9,1576.67s8.63,8,11.11,17.23C1652.77,1600,1629.48,1573.18,1641.9,1576.67Z" transform="translate(-79.6 -139)"/><path class="cls-64" d="M1624,1580s7.35,7,9.35,15.16C1633,1600.56,1613.27,1577.1,1624,1580Z" transform="translate(-79.6 -139)"/><path class="cls-66" d="M1576.38,990.7c6.08,6.85,6.63,13.65,11.61,21.38-6.3,6.79-23.56,6.92-25,8.55-7.84,8.65-10.63,6.79-24,9.49s-14.3-8.86-37.42-2c-16,4.72-28.79,2.23-35.45-4.46-3.66-3.68,11.78-15.38,30.91-31.53,7.49-6.32,34.48-7,43.83-7.4C1543,984.61,1566.63,1001.31,1576.38,990.7Z" transform="translate(-79.6 -139)"/><path class="cls-67" d="M1880.24,469.38l-38.07,217.43s80.13-24.19,106.82-24c31,.17,11.17-164.52,11.17-164.52L1884.61,467A3.2,3.2,0,0,0,1880.24,469.38Z" transform="translate(-79.6 -139)"/><path class="cls-68" d="M1919.32,368.87c5.08,3.22,75.18,39.95,40.26,127.86-10.91,43.27-77.93,57.85-102.26-3.41S1862.92,333,1919.32,368.87Z" transform="translate(-79.6 -139)"/><path class="cls-25" d="M1957.65,390.2s-26-83.39-123.75-56.1a20.28,20.28,0,0,0-10.68,6.7c-9.59,12.36,8.59,24.27,24,25.6-22.43-.87-41.74,19.22-7.77,29.14-9.75,5.45-6,26.22,11.81,29.75-.48-1.55,4-27.05,23.68-33,11.78-3.59,44.8-10.28,57.21-1,26.68,19.87,37.37,56.72,37.37,56.72S1970.38,412.22,1957.65,390.2Z" transform="translate(-79.6 -139)"/><path class="cls-69" d="M1958.46,427.54s22.6-19.41,22.11,5.57c-.39,19.81-20.69,19.73-20.69,19.73Z" transform="translate(-79.6 -139)"/><path class="cls-25" d="M1883.13,482.9a9.74,9.74,0,0,1,6.53-3.26c1.79-.14,3.73-.34,4.91-.53a9.75,9.75,0,0,1,8,2.29c14,12.17,37.65,24.42,53.57-12.31,7.34-18.73,13-17.76,13-17.76S2002.9,551.67,1925,587.12c-47.81,21.76-115.56-32.29-71.84-108.95C1862.2,498.36,1874.67,492.53,1883.13,482.9Z" transform="translate(-79.6 -139)"/><path class="cls-70" d="M1850.72,1097.4a78.07,78.07,0,0,1,.6-13.63c-34.51,1.89-352.94,21-371,81-8.62,61.15,4.8,356,5,367,14.78,27.51,84.18,10.6,80.25,2.68,11-20,14.55-302.88,14.55-302.88s133.15-7.32,190.45-26.4,82.32-82.85,82.32-82.85l2-.49A101.46,101.46,0,0,1,1850.72,1097.4Z" transform="translate(-79.6 -139)"/><path class="cls-71" d="M2033,1114.45s12.11,102.64-47.83,110-248.59,8.46-248.59,8.46-2.85,280.38-8.45,298.74c2.28,8.54-75.07,23.79-83,2.51,2-10.75-25.37-295.85-4.86-354.1,31.23-58.43,250.87-84.81,250.87-84.81l130.37-30Z" transform="translate(-79.6 -139)"/><path class="cls-72" d="M1991.33,607.84s-87.76,44.72-135.42-15c-24.06.82-30.24,8.48-30.24,8.48s-27.68,172.48,35.64,222c29.93,23.4,171.28-188.81,165.91-200.17S1991.33,607.84,1991.33,607.84Z" transform="translate(-79.6 -139)"/><path class="cls-73" d="M1751.87,623.22s-8.73-2.81-16.36,17.73c-7.07,19-41,171.61-62.44,227-14.41,37.28-64.23,88.26-112.52,102.66-15.32,4.4,1.2,52.65,19,58.58,10.54,4.14,104.53-41.77,147.74-90.07,15.21-17,24.59-141,24.59-141Z" transform="translate(-79.6 -139)"/><path class="cls-74" d="M1921.54,636.7s-20.71-18.08-27.2-18.45-26.68,12.26-28.69,14c-1.64,1.42,7.71,18.15,11.07,24l-70.23,234.54-16.35,100.5,20,31,48.59-42.8s35-263.39,38.78-319.24C1902.28,657.72,1921.54,636.7,1921.54,636.7Z" transform="translate(-79.6 -139)"/><path class="cls-75" d="M2032.29,966.86c3-29.86,82.56-317.7,76.06-328.12-10.73-17.15-104.48-31.67-104.48-31.67s-80,141-154.69,201.51a3.06,3.06,0,0,0-.8,1,10.22,10.22,0,0,1,.77-3c-65.48-131.21-15.43-210-15.43-210-80.31,21.84-86.53,27.09-87.28,31.6s-9.29,315.85-9.37,332-29.72,115.74-23.21,126.7c28.79,41.75,85.14,28.55,96.1,25.34,8.73-4.15,15.19-23.22,20-50,2.32,22.42,6.49,40.69,13.18,51.46,2.89,5.81,148.71,18.26,195.49-6.2C2043.81,1101,2029.71,992.42,2032.29,966.86Z" transform="translate(-79.6 -139)"/><path class="cls-25" d="M2089.12,627.28s-14.23,43.06-18.55,68.76c-4.14,24.6-56.54,262.65-56,270.92.56,9,8.78,146.89,8.78,146.89l13.14-4.56c2.19-.73,4.48-3.21,4.41-5.18-.73-19.89-6.43-123.87-6.6-135.15,2.3-20.41,41.21-172.5,41.21-172.5s23.14-150.08,33.31-157.37C2107,637.87,2105,633.05,2089.12,627.28Z" transform="translate(-79.6 -139)"/><path class="cls-76" d="M1995.67,604.12s-29.56,33.24-57.62,48.32l-43.51-34-40.49,19.89s-21.63-12.21-17.45-41.74c-.82-2.23,21.48-7.06,21.48-7.06s11.81,26.59,52.27,26.21c28.67.11,54-20.14,57.22-21.63C1973.53,591.39,1995.67,604.12,1995.67,604.12Z" transform="translate(-79.6 -139)"/><path class="cls-77" d="M1847.26,810.48c2.39-.85,2.13-.88,3.08-2.77-9.84-37.42-36.31-132.71-13.6-213.12,0,0-33.91,3.32-41.62,13.37-3.5,2-21.51,57.93-23.71,73.19,1.31.33,36-5.58,36-5.58l-33.11,17.18S1795.71,750.56,1847.26,810.48Z" transform="translate(-79.6 -139)"/><path class="cls-78" d="M1990.87,597.8s32.86,3.22,49.59,15.19c3.87,3,5.7,67.17,1.73,83.5-1.94,0-38.83-13.54-38.83-13.54l31.48,24.71s-86.9,61-188.17,102.49C1844.71,813.59,1927.19,738.6,1990.87,597.8Z" transform="translate(-79.6 -139)"/><path class="cls-79" d="M1900.66,983.62c5.89,7,6.26,13.82,11,21.68-6.49,6.63-23.74,6.29-25.26,7.89-8.07,8.44-10.82,6.5-24.28,8.84s-14.06-9.24-37.36-3c-16.06,4.3-28.84,1.46-35.31-5.4-3.56-3.78,12.18-15.06,31.74-30.7,7.66-6.12,34.65-6,44-6.23C1867.46,976.65,1890.63,994,1900.66,983.62Z" transform="translate(-79.6 -139)"/><path class="cls-80" d="M2107.22,638.47s13.36,2,17.54,54.68c2.64,33.2,30.33,202-4.31,264.63-22.3,40.33-216.16,71.68-216.16,71.68S1868,1002.85,1890.38,967c25.91.33,119.07-32.9,158-53.23,22-11.46,4.12-70.13,14.4-115.24C2093.33,664.6,2107.22,638.47,2107.22,638.47Z" transform="translate(-79.6 -139)"/><polygon class="cls-81" points="1017.36 909.34 931.16 1487.36 947.73 1487.36 1063.04 909.34 1017.36 909.34"/><polygon class="cls-82" points="1158.98 909.34 1245.18 1487.36 1228.62 1487.36 1113.3 909.34 1158.98 909.34"/><polygon class="cls-83" points="2207.55 909.34 2121.35 1487.36 2137.92 1487.36 2253.23 909.34 2207.55 909.34"/><polygon class="cls-84" points="2349.17 909.34 2435.38 1487.36 2418.81 1487.36 2303.49 909.34 2349.17 909.34"/><rect class="cls-85" x="944.99" y="872.86" width="1476.56" height="49.01"/><rect class="cls-86" x="944.99" y="920.38" width="1476.56" height="7.59"/><polygon class="cls-87" points="1196.66 872.86 1064.34 872.86 1037.35 697.08 1168.13 697.08 1196.66 872.86"/><polygon class="cls-88" points="1187 872.86 1058.18 872.86 1027.68 697.08 1158.46 697.08 1187 872.86"/><polygon class="cls-89" points="1106.6 872.86 1045.87 872.86 1097.84 760.34 1106.6 872.86"/><polygon class="cls-90" points="1112.15 872.86 1051.41 872.86 1097.84 760.34 1112.15 872.86"/><path class="cls-91" d="M2254.53,588.72l-16.32-15.67a2.67,2.67,0,0,0-3.77.07l-23.73,24.73c-20.78-6.6-51.44,4.64-76,29.51l69.77,67c23.84-25.54,33.81-56.63,26.37-77.13l23.73-24.72A2.66,2.66,0,0,0,2254.53,588.72Z" transform="translate(-79.6 -139)"/><polygon class="cls-92" points="2243.05 867.08 2298.07 588.79 2305.01 590.16 2250.25 867.08 2243.05 867.08"/><polygon class="cls-93" points="2226.98 867.08 2282.01 588.79 2288.94 590.16 2234.19 867.08 2226.98 867.08"/><rect class="cls-94" x="2298.72" y="561.53" width="7.07" height="187.22" transform="translate(4335.03 -609.66) rotate(136.06)"/><rect class="cls-95" x="2288.73" y="573.87" width="7.07" height="187.22" transform="translate(4326.43 -581.48) rotate(136.06)"/><circle class="cls-96" cx="2291.39" cy="592.39" r="21.85"/><path class="cls-97" d="M2276.89,1011.87v-2.41a15,15,0,0,1,14.94-14.94h56.38a15,15,0,0,1,14.94,14.94v2.41Z" transform="translate(-79.6 -139)"/><path class="cls-98" d="M2272.66,1011.87v-2.41a15,15,0,0,1,14.94-14.94H2344a15,15,0,0,1,14.94,14.94v2.41Z" transform="translate(-79.6 -139)"/><circle class="cls-99" cx="2368.73" cy="731.4" r="21.85" transform="translate(-165.79 247.18) rotate(-9.15)"/><circle class="cls-4" cx="2368.73" cy="731.4" r="12.47" transform="translate(700.89 2495.9) rotate(-67.32)"/><circle class="cls-100" cx="2167.83" cy="656.81" r="13.17" transform="translate(237.21 1823.42) rotate(-52.05)"/><rect class="cls-101" x="2212.81" y="571.46" width="27.95" height="47.87" rx="2.75" transform="translate(3341.47 2427.87) rotate(-136.18)"/><path class="cls-102" d="M2131.73,624.61c30.07-30.5,69.37-40.51,88.38-22.27s10.62,57.92-18.62,89.23Z" transform="translate(-79.6 -139)"/><path class="cls-103" d="M2393.75,792.78a54.28,54.28,0,0,0,3,13.1c1,2.68,1.94,5.35,2.93,8l1.65,4.45a29.53,29.53,0,0,1,3.38,11.07c.33,2.48.5,5,.67,7.5.09,1.42.19,2.83.31,4.25a38.39,38.39,0,0,1-1.44,9.15,53,53,0,0,0-3.13,8.26,44.54,44.54,0,0,0-1.64,8.76,34.36,34.36,0,0,0,.39,8.93,22.25,22.25,0,0,0,3.32,8.32,20.77,20.77,0,0,0,6.37,6.16,26.67,26.67,0,0,0,8.1,3.35,36.76,36.76,0,0,0,6.67.9c.52,0,1.06,0,1.6,0,0,1.15,0,2.25,0,3.23l.11,7c0,2.72.08,5.2.13,7.46l-.25,12.3,2.31-.35-.2-12c0-2.26,0-4.73,0-7.45v-7c0-1,0-2.1,0-3.22a66.73,66.73,0,0,0,6.87-.62,63,63,0,0,0,16.82-4.26,41.68,41.68,0,0,0,7.74-4.27,33.78,33.78,0,0,0,6.54-6.15,31.73,31.73,0,0,0,4.46-8c.18-.5.33-1,.48-1.49l.61-2.11c.07-.26.12-.52.17-.78a22.67,22.67,0,0,0,.47-4.58,25.54,25.54,0,0,0-1.65-9,47.18,47.18,0,0,0-3.89-8,1.77,1.77,0,0,0-.16-.22L2465,844l-1.43-1.63a32.08,32.08,0,0,1-2.45-3.5,24.18,24.18,0,0,1-1.85-3.86,19.25,19.25,0,0,1-1.06-4.12,20.32,20.32,0,0,1-.21-4.29,25.9,25.9,0,0,1,.65-4.27,29.5,29.5,0,0,1,1.36-4.12,34.83,34.83,0,0,1,1.9-4,67.76,67.76,0,0,1,10.78-14l3.17-3.18a17,17,0,0,0,4.45-8.46,18.73,18.73,0,0,0,.29-2.44,17.9,17.9,0,0,0-.07-2.18l0-.2h0v0a.09.09,0,0,0,0-.05l-.28-2.47-.63-2.55-.88-2.44-1.07-2.33-1.19-2.23-1.26-2.17-3.78-6.36-1.12-2.14-1-2.21-.76-2.26-.48-2.32c0-.22,0-.52-.05-.82,0-.49-.09-1-.09-1.5,0-.24,0-.54.06-.84,0-.5.07-1,.14-1.49l.54-2.23c1.45-2.88,3.2-5.68,4.89-8.4.6-1,1.19-1.93,1.79-2.9a55.79,55.79,0,0,0,5.94-12.17,26.93,26.93,0,0,0,1.21-6.84v-1.69l-.22-1.79a9.92,9.92,0,0,0-.57-2.42l-.3-1a17,17,0,0,0-9.83-9.24,28.4,28.4,0,0,0-6.43-1.73c-1.29-.14-2.32-.23-3.27-.27a25.39,25.39,0,0,0-3.41,0,33.66,33.66,0,0,0-6.58,1.06,35.79,35.79,0,0,0-6.23,2.49,43.71,43.71,0,0,0-10.89,7.78,50,50,0,0,0-8.25,10.65,55.1,55.1,0,0,0-3,6.06,48.65,48.65,0,0,0-2.1,6.47c-.33,1.28-.59,2.58-.85,3.85-.19.9-.37,1.8-.58,2.7a51.15,51.15,0,0,1-2,6.26,65.92,65.92,0,0,1-6,11.73,128.87,128.87,0,0,1-7.71,10.75l-4.15,5.19c-.47.57-.94,1.18-1.4,1.79l-.64.85c-.18.29-.34.54-.51.78a20.28,20.28,0,0,0-1.26,2.18A24.41,24.41,0,0,0,2393.75,792.78Zm45.78-72.6.45,1.89c.4,1.44.8,2.66,1.23,3.77a36.07,36.07,0,0,0,1.54,3.6c.56,1.16,1.17,2.33,1.84,3.45s1.22,2,1.85,2.93l-1.52,4.58-.48,1.48c-.32.92-.63,1.85-.9,2.81l-1.23,4.46c-.27,1-.55,2-.84,3-.56,2.05-1.14,4.14-1.67,6.28l-3.3,14.7-.12,0a1.51,1.51,0,0,1-.31-.12l-.21-.1a6.35,6.35,0,0,1-1.1-.81,16.57,16.57,0,0,1-2-2.31,46.36,46.36,0,0,1-3.34-5.32c-.93-1.61-1.74-3.21-2.52-4.77l-.26-.52c-.78-1.56-1.54-3.2-2.26-4.86l-.3-.68c-.54-1.26-1.05-2.44-1.47-3.51-.49-1.26-.89-2.37-1.21-3.29a20.93,20.93,0,0,1-.82-2.88.45.45,0,0,0-.09-.2c.34-1.06.66-2.2,1-3.4.22-.93.42-1.86.61-2.77.26-1.25.53-2.52.85-3.76a47.23,47.23,0,0,1,2.06-6.22,53.76,53.76,0,0,1,3-5.85,48.23,48.23,0,0,1,8-10.26,42.38,42.38,0,0,1,3.3-2.85,14.38,14.38,0,0,0-.24,1.56c0,.27,0,.47-.07.67a9.16,9.16,0,0,0-.11,1.41l0,2c0,.5.05,1,.1,1.49l0,.51a17.51,17.51,0,0,0,.26,2c0,.22.08.45.11.68C2439.36,719.33,2439.43,719.75,2439.53,720.18Zm24.3-19.35-1,1.26c-.34.45-.7.95-1.1,1.52l-.75,1c-.47.67-.94,1.42-1.43,2.23-.27.44-.55.9-.86,1.38-.62.94-1.18,2-1.77,3.14l-.8,1.49-1.79,3.48-1,2.12c-1.62,3.3-3.11,7.14-4.69,11.2l-1,2.59-.32,1c-.83-1.42-1.66-3-2.5-4.84-.21-.44-.4-.87-.58-1.31l-.17-.41c-.25-.57-.49-1.14-.71-1.72l-.15-.4c-.17-.44-.35-.89-.49-1.35l-.6-1.81-.51-1.8c-.11-.38-.19-.77-.26-1.15s-.1-.45-.16-.67a16,16,0,0,1-.31-1.81c0-.27-.07-.53-.11-.78a8,8,0,0,1-.15-1.08l-.13-1.9a8.08,8.08,0,0,1,0-1.1,6.77,6.77,0,0,0,0-.78,13,13,0,0,1,.1-1.82l.12-1a40.39,40.39,0,0,1,5.7-3.45,33.89,33.89,0,0,1,5.94-2.36,32.82,32.82,0,0,1,6.22-1A27.34,27.34,0,0,1,2463.83,700.83ZM2478.49,726c-2,1-4.18,1.92-6.64,2.92-1.31.53-2.63,1-4,1.5s-2.53.89-4,1.36c-.49.16-1,.3-1.45.44l-.93.26c-.54.16-1.09.32-1.65.45l-2,.51-2.05.41a13.32,13.32,0,0,1-1.36.23l-.69.09a16.5,16.5,0,0,1-2,.24l-.75.06a11.14,11.14,0,0,1-1.29.06h-.92l.54-1.64,1-2.58c1.53-4,3-7.83,4.54-11.09l1.32-3,1.36-2.6.79-1.52c.57-1.1,1.1-2.14,1.68-3l.87-1.42c.46-.79.9-1.52,1.34-2.15l.74-1c.38-.56.73-1,1.05-1.48l1.64-1.94a23.86,23.86,0,0,1,5.34,1.51,15.29,15.29,0,0,1,8.8,8.21c.07.27.18.61.28.94a7.41,7.41,0,0,1,.47,2l.21,1.62V717a24.92,24.92,0,0,1-1.15,6.28C2479.21,724.17,2478.87,725.08,2478.49,726Zm-11.61,20.47a.75.75,0,0,0-.06.13l-.62,2.57c-.09.62-.13,1.2-.18,1.78l-.06.87c0,.64.05,1.22.09,1.8,0,.28,0,.56.06.85.15.81.31,1.57.47,2.32l.05.26.13.36c-1.33,1-4.28,3.19-8.28,5.84-1.61,1-3.1,2-4.53,2.85-1.86,1.13-3.56,2.08-5.18,2.94l-2.81,1.4c-.33.13-.67.29-1,.45-.61.26-1.24.55-1.88.77a24.52,24.52,0,0,1-4.38,1.28l3-14c.49-2,1-3.92,1.53-5.85.3-1.14.61-2.28.91-3.4l1.18-4.46c.25-.92.55-1.83.84-2.73.17-.51.33-1,.48-1.51l1.41-4.34,1.61,0a11.62,11.62,0,0,0,1.43-.11l.73-.07c.76-.06,1.49-.18,2.17-.3l.68-.12c.49-.08,1-.16,1.45-.28l2.08-.47,2.08-.57c.57-.14,1.12-.32,1.69-.5l.93-.3c.5-.15,1-.31,1.49-.5,2.33-.78,4.79-1.76,8-3.14,2-.87,3.72-1.7,5.37-2.53a71.64,71.64,0,0,1-4,7.25c-.59,1-1.19,1.92-1.79,2.88C2470.2,740.59,2468.4,743.46,2466.88,746.47Zm10.84,43.44c-3.09,2-6.46,4.06-10.33,6.27-1.89,1.1-3.79,2.14-5.9,3.28-1.9,1-3.93,2.06-6,3.07-1,.51-2,1-3,1.45l-1.09.5c-.65.31-1.3.62-2,.9l-3.09,1.31c-.66.28-1.34.53-2,.79l-1.12.42c-1,.39-2,.72-3.14,1.09l-.84.28c-.75.25-1.54.51-2.32.69l-1.17.3c-.68.18-1.36.37-2.05.51l-.74.13,1.39-10.91c.15-1,.28-2.11.41-3.17.3-2.47.62-5,1.09-7.47l1.79-10.49c.11-.6.21-1.21.32-1.83s.23-1.32.35-2a25.2,25.2,0,0,0,5.42-1.6c.67-.26,1.34-.57,2-.87l1-.49,2.85-1.49c1.9-1.06,3.65-2.11,5.21-3.11s2.92-1.93,4.51-3c3.68-2.6,6.45-4.77,7.87-5.91l.33,1,.36.82c.21.52.44,1,.66,1.53l1.17,2.24,1.24,2.18,3.77,6.38,1.13,2.16,1,2.19.8,2.25.56,2.3.3,2.85a12.57,12.57,0,0,1,0,1.63,14.44,14.44,0,0,1-.26,2.07A17.31,17.31,0,0,1,2477.72,789.91Zm-19.79,27.41a31.77,31.77,0,0,0-1.46,4.45,27.39,27.39,0,0,0-.72,4.71,22,22,0,0,0,.23,4.76,19.66,19.66,0,0,0,.4,2.06c-1.91,1.45-4,3-6.37,4.6-2.54,1.75-4.91,3.28-7.28,4.69-.93.57-1.87,1.1-2.82,1.63l-.92.53-1.9,1c-.41.23-.83.43-1.24.62l-.68.32c-.75.37-1.36.64-1.93.87l-.71.29a11.82,11.82,0,0,1-1.24.49l-.75.25-.72.24.63-11.19,2.14-24.17,0-.43,1.39-.28c.74-.15,1.45-.35,2.17-.56l1.14-.32c.82-.21,1.63-.49,2.42-.76l.84-.29c1.15-.38,2.19-.74,3.21-1.17l1.11-.44c.68-.27,1.37-.54,2-.83l3.1-1.38c.68-.3,1.35-.61,2-.94.36-.17.71-.35,1.07-.51,1-.5,2-1,3.05-1.53,2-1,4-2.14,6-3.21,2.2-1.25,4-2.29,5.88-3.42,3.25-1.95,6.17-3.78,8.85-5.55,0,.07-.07.16-.11.23a14.72,14.72,0,0,1-2.46,3.4l-3.18,3.16a87.93,87.93,0,0,0-6,6.83c-1,1.22-1.88,2.46-2.72,3.7-1,1.55-1.79,2.76-2.43,4A37.53,37.53,0,0,0,2457.93,817.32Zm-29.53,65.85h1.16a12.85,12.85,0,0,0,2-.12l1-.1,1.55-.14c.36-.05.7-.11,1-.18l.53-.09,1.06-.2c.67-.12,1.34-.24,2-.41l3-.8c.66-.18,1.3-.4,1.94-.62l1-.35,1.47-.49,1.45-.59,1-.4c.63-.25,1.26-.5,1.88-.79l2.81-1.28,2.78-1.4c.65-.32,1.3-.68,1.93-1l.81-.45c.91-.5,1.81-1,2.7-1.55,1.72-1,3.49-2.13,5.26-3.31,1-.65,1.87-1.26,2.72-1.87,0,.18-.07.37-.11.56l-.08.35-.3,1c-.09.28-.18.56-.26.84s-.25.84-.39,1.24a29.77,29.77,0,0,1-4,7.32,31.84,31.84,0,0,1-6.05,5.79,40.49,40.49,0,0,1-7.31,4.13,56.1,56.1,0,0,1-8,2.7,75.84,75.84,0,0,1-8.31,1.59,65.4,65.4,0,0,1-6.62.67c0-.9,0-1.82.08-2.75Zm.61-19.92.7-12.38.06,0c.47-.15.92-.31,1.36-.48l.74-.26c.46-.16.9-.36,1.34-.56l.69-.31a21.5,21.5,0,0,0,2-1l.66-.33c.44-.21.87-.43,1.3-.68l2.59-1.45c1-.6,2.06-1.22,3.06-1.88,2.36-1.49,4.72-3.1,7.23-4.92,2.21-1.61,4.17-3.1,6-4.54.14.44.28.89.45,1.34a24.36,24.36,0,0,0,2,4.23,33.36,33.36,0,0,0,2.65,3.79l1.51,1.73,1.49,1.52a44.61,44.61,0,0,1,3.64,7.5,23.31,23.31,0,0,1,1.51,8.16,21.79,21.79,0,0,1-.2,2.66c-1.12.77-2.32,1.56-3.64,2.39-1.77,1.13-3.55,2.19-5.28,3.14-.89.51-1.78,1-2.69,1.46l-.84.44c-.62.33-1.24.66-1.88.94l-2.79,1.33-2.79,1.21c-.61.27-1.21.49-1.81.72l-1,.39-1.43.54-1.43.46-1,.33c-.61.2-1.22.4-1.85.55l-2.95.73c-.62.14-1.25.25-1.88.35-.36.05-.72.11-1.07.19l-.52.07-.94.15-1.5.11c-.33,0-.68,0-1,.08a11,11,0,0,1-1.89,0l-1,0Zm-2.68-55.71c-1.65-1.5-3.12-2.93-4.51-4.38l-.52-.54c-.55-.57-1.09-1.14-1.6-1.75l-.84-1c-.42-.46-.84-.93-1.23-1.42l-2-2.46-1.85-2.54c-.4-.53-.77-1.1-1.12-1.65-.21-.32-.41-.65-.63-1l-.85-1.33-.75-1.36c-.16-.32-.36-.65-.54-1a14.74,14.74,0,0,1-.91-1.76l-1.33-2.92c-.23-.6-.45-1.25-.67-1.88l-.38-1.09a14.08,14.08,0,0,1-.66-2.29l-.17-.74c-.06-.27-.13-.53-.2-.8a13.39,13.39,0,0,1-.43-2.26l-.38-3.21.56-.69a131.9,131.9,0,0,0,7.86-10.81,67,67,0,0,0,6.18-12c.12-.3.23-.6.34-.91.08.4.17.86.3,1.38.24,1,.57,2.2,1,3.46s.9,2.78,1.53,4.39,1.39,3.42,2.12,5.07,1.59,3.36,2.75,5.47a45,45,0,0,0,3.64,5.53,18.52,18.52,0,0,0,2.39,2.55,8.25,8.25,0,0,0,1.57,1.06,4.16,4.16,0,0,0,1.16.39c-.09.5-.19,1-.28,1.5s-.21,1.2-.32,1.8L2433.67,789c-.49,2.5-.83,5.09-1.16,7.59-.13,1-.27,2.09-.42,3.13l-1.55,11.38C2429,809.88,2427.48,808.57,2426.33,807.54ZM2403.22,856a13,13,0,0,0,.87,4.06,25,25,0,0,0,2.14,4.16,48.48,48.48,0,0,0,5.66,7.22,74.34,74.34,0,0,0,6.55,6.3c1.23,1,2.39,2,3.55,2.84.61.46,1.22.9,1.86,1.33q.48.33,1,.63c.18.1.35.21.55.31s.24.12.35.16l.24.07.09,0-.12,7.27c0,1,0,1.92,0,2.84-.64,0-1.28,0-1.91,0h0a33.91,33.91,0,0,1-6-.77,25.31,25.31,0,0,1-7.66-3.07,19.36,19.36,0,0,1-6-5.66,21.15,21.15,0,0,1-3.17-7.73,33.06,33.06,0,0,1-.43-8.55,42.7,42.7,0,0,1,1.51-8.52C2402.6,857.93,2402.9,857,2403.22,856Zm1.71-31.57c.43.76.86,1.49,1.27,2.19,1.68,2.75,3.69,6,5.86,9.12s4.31,6,6.57,8.63a54.62,54.62,0,0,0,3.71,4,22.59,22.59,0,0,0,2.14,1.83l.17.12a5.44,5.44,0,0,0,2.46,1.06l-.66,11.75c-.12,2.87-.16,5.68-.21,8.4l-.14,9.15-.14-.08c-.29-.18-.58-.37-.87-.59-.59-.41-1.17-.86-1.75-1.31-1.07-.83-2.19-1.74-3.41-2.8-2.13-1.81-4.32-3.83-6.5-6a57,57,0,0,1-5.74-6.71,26.53,26.53,0,0,1-2.24-3.75,10.53,10.53,0,0,1-1.14-4.1.62.62,0,0,0-.52-.54.47.47,0,0,0-.16,0c.51-1.4,1.07-2.76,1.69-4.07a39.31,39.31,0,0,0,1.46-9.68c-.13-1.45-.22-2.86-.32-4.29-.15-2.48-.32-5-.65-7.57A40.11,40.11,0,0,0,2404.93,824.45Zm-7.49-44.35a19.37,19.37,0,0,1,1.2-2.06c.17-.25.33-.5.49-.75l.63-.81c.45-.58.9-1.17,1.37-1.74l2.59-3.2.11,2.05a14.37,14.37,0,0,0,.29,2.47c.05.27.1.54.14.81l.09.48a18,18,0,0,0,.64,2.78l.31,1.07c.21.69.41,1.37.64,2l1.24,3.06a16.27,16.27,0,0,0,.92,1.93c.18.33.36.67.52,1l.75,1.45.86,1.41c.2.32.4.64.59,1,.36.59.73,1.22,1.15,1.8l1.87,2.62,2,2.55c.45.59,1,1.15,1.46,1.69l.67.74c.54.62,1.12,1.21,1.7,1.81l.52.53c1.31,1.35,2.8,2.74,4.7,4.41,1.53,1.31,3.2,2.71,5,4a1,1,0,0,0,.28.14l-2.34,24.08-.69,12a4.74,4.74,0,0,1-1.59-.87,21.57,21.57,0,0,1-1.89-1.69c-1.33-1.36-2.55-2.82-3.46-3.95-2.15-2.69-4.21-5.56-6.21-8.33l-.16-.24c-1.8-2.54-4-5.71-6.08-8.82s-4-6-5.85-9a.41.41,0,0,0-.15-.14l-1.07-2.91c-1-2.66-2-5.32-2.91-8a53,53,0,0,1-2.89-12.78A23,23,0,0,1,2397.44,780.1Z" transform="translate(-79.6 -139)"/><path class="cls-104" d="M2551.57,765.3a65.24,65.24,0,0,0-36.53-4.48c3.67-5,7.2-9.53,10.47-13.61,16.73,2.86,28.42-2.28,35.45-2.23a65.75,65.75,0,0,0-32.35-1.59c3.33-4,6.31-7.53,8.84-10.41,13-5,16-15.9,20.26-19.29-17.39,4.18-22.32,18.14-22.9,20q-4.44,4.68-8.6,9.31a56.44,56.44,0,0,0-12.62-26.59c2.44,5.64,2.25,16.87,10.22,29.29q-5.89,6.71-11.17,13.29c-2.08-7.42-5.92-19.53-18.64-30.32,3.84,6.16,5.46,19.51,16.9,32.51q-6.24,7.9-11.66,15.65c-2.71-9.06-7.68-23.86-23.43-37.29,4.85,7.6,7.13,23.94,21.52,40.06q-6.23,9.09-11.4,17.89c-3.23-10.51-9.17-27.38-27.23-42.8,5.66,8.81,8.42,27.67,25.15,46.37-3.93,6.9-7.39,13.63-10.45,20.2a1.77,1.77,0,0,1,.55-1.55c-5.08-10.26-14-27.51-36.29-40.56,7.48,8.19,13.66,27.72,34.82,44.11a249.47,249.47,0,0,0-9.55,24.12c-6.38-10.63-17.48-28-41.63-42.91,8.61,8.77,16.87,28.28,40.43,46.59a219.82,219.82,0,0,0-6.76,27,117,117,0,0,0-40.51-34.89c8.4,7.18,17.55,23.35,39.93,38.24a189.94,189.94,0,0,0-2.48,24.27,120.62,120.62,0,0,0-35.12-25.49c7.33,5.33,16.16,16.84,35,28.13a1.91,1.91,0,0,0-.11.52h.18a144.4,144.4,0,0,0,1.07,21.16l.6-.09a182.73,182.73,0,0,1,.23-21.08c16.42-.22,27.64-9.95,34.6-11.45-15.54-3.27-27.15,3.09-34.28,7.49a204,204,0,0,1,3.36-22.73c24.48,1.16,40.5-8.09,50.7-9.17-23.26-4.29-40,1.62-49.94,5.55a240.3,240.3,0,0,1,7.27-25.77c24.33,3,41.1-4.86,51.39-5.09-22.55-6.11-39.59-1.88-50,1.23,2.84-7.92,6-15.62,9.43-23.05,24.21,5.63,41.85-.7,52.2.07-22.3-8.45-40-5.6-50.59-3.5,3.19-6.73,6.55-13.22,10-19.43,22.38,5.83,39.12.66,48.83,1.8-19.91-8.51-36.23-7.16-46.67-5.64,3.54-6.17,7.15-12.06,10.76-17.63,19.57,5.35,34.21.81,42.65,1.79-17.59-7.5-31.89-6-40.76-4.69,3.45-5.22,6.88-10.15,10.2-14.74C2530.6,768.49,2543.88,764.4,2551.57,765.3Z" transform="translate(-79.6 -139)"/><path class="cls-105" d="M2369.52,888.26a45.94,45.94,0,0,0,19,9,29.1,29.1,0,0,0,9.41.32l1.18-.17a25.35,25.35,0,0,0,9.68-3.94c.35,1.67.69,3.34,1,5,.48,2.11.78,4.26,1.06,6.34.14,1,.28,2,.43,3,.39,2.35.61,4.69.83,7l.64,6.36c.08.9.11,1.81.16,2.7,0,.51,0,1,.07,1.49,0,.83.07,1.65.12,2.47.91.1,1.83.2,2.74.32,0-1-.07-1.93-.1-2.92,0-.49,0-1-.05-1.47,0-.93,0-1.87-.12-2.82l-.42-5c-.24-2.76-.47-5.62-.95-8.5-.16-1-.3-2-.43-3-.3-2.13-.6-4.33-1.08-6.49s-.86-4.33-1.31-6.42a33.47,33.47,0,0,0,5.56-6,44.73,44.73,0,0,0,5.31-9.94,56.48,56.48,0,0,0,2.81-10.89,63.89,63.89,0,0,0,.62-11.25,68.75,68.75,0,0,0-1.37-11.16c-.32-1.61-.75-3.2-1.17-4.73l-.2-.75c-.19-.55-.36-1.11-.54-1.66a35.45,35.45,0,0,0-1.3-3.66l-1-2.64-1.2-2.52a39,39,0,0,0-1.9-3.7l-.71-1.3c-.59-1.07-1.26-2.11-1.91-3.12-.36-.54-.72-1.1-1.08-1.69l-.87-1.2c-.79-1.1-1.61-2.23-2.48-3.32a87.55,87.55,0,0,0-7.59-8.32,91,91,0,0,0-8.6-7.27,102.7,102.7,0,0,0-9.37-6.25l-1.72-1c-1.05-.6-2.11-1.2-3.19-1.78l-5.05-2.49-.78-.35c-3.11-1.36-6.34-2.78-9.59-4s-6.88-2.36-10.71-3.44a183.49,183.49,0,0,0-21.56-4.66l-.11-.13-.06.11-.22,0a1,1,0,0,0-.74.19.94.94,0,0,0-.37.65,1,1,0,0,0,.2.74l.15.18-.06.1.14,0a65.74,65.74,0,0,1,5.64,8.16,39.7,39.7,0,0,1,4,9.37,47.71,47.71,0,0,1,1.5,10.11c.18,3,.13,6.06.08,9l-.29,11.8c-.07,3.43-.15,7,0,10.52a75.2,75.2,0,0,0,1.22,10.55,76.42,76.42,0,0,0,2.65,10.28C2350.25,867.9,2358.79,880.05,2369.52,888.26Zm-6.59-8.26a66.3,66.3,0,0,1-6.33-8.15,72.31,72.31,0,0,1-5.16-8.94c-.43-.84-.82-1.71-1.21-2.59a43.46,43.46,0,0,1,4-2.75c.57-.37,1.17-.7,1.76-1,.34-.18.68-.38,1-.56.6-.32,1.21-.61,1.83-.91l1-.5,2.95-1.22c.65-.25,1.3-.46,2-.67l1.09-.37a18.13,18.13,0,0,1,1.92-.52l1.15-.28a24,24,0,0,1,3.08-.6l.74-.11a17.44,17.44,0,0,1,2.4-.27l3.14-.18,3.21.15a15.28,15.28,0,0,1,2.39.25l.69.12c.38.07.76.12,1.14.17a13.87,13.87,0,0,1,2,.39l3.08.86a14.23,14.23,0,0,1,2.27.79l.66.28,2.73,1.11c.81,1.85,1.57,3.63,2.27,5.39l1.9,4.75,1.7,4.84c.19.58.4,1.16.6,1.73,0,.07.05.15.08.21l-.81-.23-.93-.22c-.58-.14-1.16-.28-1.75-.4-.33,0-.65-.12-1-.18-.56-.11-1.14-.22-1.72-.28l-.31,0c-.8-.11-1.61-.21-2.43-.26a32.33,32.33,0,0,0-11,1c-.8.23-1.63.5-2.64.88-.7.28-1.61.67-2.51,1.14a28.72,28.72,0,0,0-4.63,3,30.77,30.77,0,0,0-4,3.78c-.57.65-1.14,1.33-1.73,2.1-.2.25-.4.52-.59.8a11.26,11.26,0,0,1-.74.91C2365,882.27,2364,881.15,2362.93,880Zm45.52,12.62a24.51,24.51,0,0,1-9.47,3.75,27.74,27.74,0,0,1-10.21-.24,39,39,0,0,1-9.68-3.45,48.71,48.71,0,0,1-8.65-5.59c-1.25-1-2.45-2-3.6-3.11a10.2,10.2,0,0,0,.82-1c.2-.25.38-.5.61-.75.6-.74,1.17-1.39,1.75-2a30.11,30.11,0,0,1,3.94-3.52,28.09,28.09,0,0,1,4.51-2.71c.79-.38,1.63-.71,2.42-1a25.42,25.42,0,0,1,2.5-.76,30.09,30.09,0,0,1,10.43-.7c.76.06,1.53.18,2.29.3l.32,0c.56.07,1.14.2,1.69.32l.88.18c.55.13,1.09.28,1.63.43l.91.24,2.14.69c.06.17.11.33.16.49l1.44,4.88c1.26,4.37,2.37,8.84,3.35,13.32Zm16.2-39.23a63.24,63.24,0,0,1-.56,11.05,56.1,56.1,0,0,1-2.71,10.71,38.64,38.64,0,0,1-10.2,15.3c-.95-4.24-2-8.26-3.15-12.1l-1.5-4.89c0-.11-.07-.21-.1-.32.65-.33,1.3-.68,2-1.1a38,38,0,0,0,3.36-2.23c1.14-.88,2.14-1.73,3.07-2.58.37-.32.71-.67,1-1l.4-.41c.47-.47.9-1,1.34-1.48.69-.76,1.31-1.59,1.9-2.38l.6-.81.39-.59a26.54,26.54,0,0,0,1.68-2.82,31.38,31.38,0,0,0,1.71-3.61c.25-.6.46-1.21.66-1.82C2424.6,852.67,2424.63,853,2424.65,853.39Zm-8.32-24.52.15-.68a14.72,14.72,0,0,0,.38-2.36l.06-.6c.27.52.54,1,.78,1.57l1.19,2.48,1.06,2.59c.51,1.15.91,2.37,1.3,3.54.17.56.36,1.12.55,1.66l.2.71c.43,1.52.87,3.09,1.2,4.65a63.56,63.56,0,0,1,1.18,7.58v0c-.24.48-.46,1-.66,1.45-.33.72-.62,1.4-1,2.07l-.92,1.71c-.2.36-.42.7-.64,1l-.37.59-.09.16a15.45,15.45,0,0,1-1,1.42L2418.6,860l-.61.75c-.6.72-1.21,1.48-1.94,2.2-.4.43-.83.9-1.28,1.3l-.6.57c-.26.26-.52.5-.8.75-.91.81-1.87,1.6-2.94,2.42-.92.67-2,1.47-3.14,2.16-.54.33-1.06.64-1.56.92-.09-.27-.19-.54-.29-.81l-.63-1.73-1.76-4.89-2-4.8c-.68-1.67-1.43-3.39-2.23-5.17l.15-.1.29-.22.7-.52c.49-.37,1-.75,1.43-1.14,1.19-1,2.37-2.07,3.5-3.2.91-.93,2.09-2.17,3.17-3.51l.09-.12a22.34,22.34,0,0,0,1.38-1.76l.47-.67c.31-.41.61-.83.89-1.27l1.25-2c.27-.44.52-.9.76-1.35l.37-.72a15.39,15.39,0,0,0,1-2.18c.1-.25.21-.5.32-.75.2-.47.41-.95.57-1.45l.72-2.23A12,12,0,0,0,2416.33,828.87ZM2399,803.69a9.11,9.11,0,0,0-.14-1.17c.83.73,1.67,1.44,2.46,2.19a85.12,85.12,0,0,1,7.51,8.12c.77,1,1.53,2,2.26,3,.35.49.7,1,1.05,1.42s.71,1.12,1.08,1.67c.64,1,1.31,2,1.89,3l.73,1.31c.11.17.21.36.31.55l-.38,1.9a13.51,13.51,0,0,1-.55,2.17l-.27.89c-.13.45-.25.87-.41,1.28l-.84,2.13a12.52,12.52,0,0,1-.61,1.29l-.37.74a21.34,21.34,0,0,1-1.06,2l-.41.7c-.24.42-.48.85-.75,1.25l-1.28,1.89c-.28.39-.57.78-.87,1.15l-.51.66c-.32.43-.66.84-1,1.23l-.44.53c-1,1.27-2.19,2.45-3.07,3.33-1.23,1.24-2.28,2.23-3.32,3.11-.44.39-.89.76-1.34,1.12l-.72.55c-1.65-3.51-3.54-7.28-5.8-11.51-1.35-2.39-2.83-5-4.4-7.57l.91-1.1c.46-.54.92-1.11,1.36-1.68.91-1.16,1.76-2.35,2.54-3.52a42.48,42.48,0,0,0,4-7.71,34,34,0,0,0,2.25-8.41,27.81,27.81,0,0,0,.29-4.34C2399.08,805.13,2399,804.4,2399,803.69Zm-28.72-11.89c0-.36,0-.71-.06-1.06,0-.19,0-.37,0-.54a11.32,11.32,0,0,0-.21-1.64c0-.17-.06-.33-.08-.5a8.56,8.56,0,0,0-.22-1.1c0-.17-.1-.35-.14-.52-.08-.35-.17-.7-.29-1.06l-.47-1.12c1.41.58,2.8,1.18,4.17,1.77l5.79,2.78c1.05.56,2.08,1.14,3.11,1.72l1.74,1a105.87,105.87,0,0,1,9.26,6.09c1.72,1.28,3.39,2.63,5,4h0a34.48,34.48,0,0,1-.65,8.3,40.34,40.34,0,0,1-1.07,4,35.05,35.05,0,0,1-1.48,3.86,51.2,51.2,0,0,1-4,7.28c-.72,1.12-1.52,2.27-2.37,3.42l-1.71,2.19c-1.57-2.54-3.21-5.09-4.93-7.53-1.22-1.86-2.55-3.64-3.82-5.36-.59-.81-1.19-1.6-1.78-2.43l-1.51-1.92c-1.43-1.83-2.78-3.57-4.2-5.23-.56-.68-1.13-1.34-1.7-2a58.13,58.13,0,0,0,1.66-11.22C2370.3,793.83,2370.27,792.67,2370.25,791.8Zm-17.39-13c3.78,1,7.25,2.15,10.59,3.36,1.27.45,2.54.94,3.81,1.46l.24.63.36,1.48c.06.32.11.63.15.94s0,.38.08.57a6.17,6.17,0,0,1,.08,1c0,.18,0,.35,0,.51a41.88,41.88,0,0,1-.13,6.1c-.06.89-.15,1.86-.29,3.06l-.11,1c-.08.71-.16,1.41-.26,2.1-.15,1.2-.32,2.25-.49,3.28-2.68-3-5.34-5.87-7.89-8.5-4.18-4.17-7.46-7.26-10.3-9.73-3-2.62-5.84-5-8.44-7s-4.46-3.32-5.8-4.24A179.19,179.19,0,0,1,2352.86,778.83Zm-10.5,12.38a41.11,41.11,0,0,0-4.24-9.81c-.69-1.22-1.44-2.39-2.22-3.52,1,.73,2.08,1.58,3.33,2.56,2.56,2,5.34,4.34,8.28,7,2.81,2.48,6,5.59,10.09,9.73,2.25,2.38,4.59,4.91,6.94,7.6l-1.15-.52c-.32-.16-.67-.29-1-.43a4.6,4.6,0,0,1-.54-.21l-.53-.19a9.81,9.81,0,0,0-1-.38l-1.56-.51c-.34-.12-.69-.2-1-.3l-.62-.16c-.51-.14-1-.29-1.54-.38a41.66,41.66,0,0,0-6.54-.94,38.76,38.76,0,0,0-5,0A48.59,48.59,0,0,0,2342.36,791.21Zm1.47,31.65.27-10.56c.08-3.7.1-7.22-.1-10.64a36.55,36.55,0,0,1,4.86.25,44.12,44.12,0,0,1,6.31,1.2c.49.12,1,.27,1.52.43.19.07.37.11.55.17.33.09.65.2,1,.32l1.52.55c.31.11.62.24.92.38s.36.16.53.22.35.16.53.22.62.26.92.43l1.44.72c.63.32,1.26.68,1.86,1l.93.55a1.84,1.84,0,0,0,.25.09,1.08,1.08,0,0,0,.36,0h0c.38.46.76.89,1.13,1.36,1.36,1.62,2.65,3.31,4,5.09l1.55,2,1.76,2.43c1.24,1.71,2.53,3.47,3.72,5.32,1.16,1.68,2.29,3.43,3.39,5.18a8.88,8.88,0,0,0-1.34-.58l-2.7-1a17.88,17.88,0,0,0-2.29-.73l-.54-.14-1-.27a18,18,0,0,0-1.86-.46l-2.85-.48a12.91,12.91,0,0,0-2-.24l-.9-.07-.45,0a18.58,18.58,0,0,0-2.48-.08l-1,0c-.63,0-1.27,0-1.92.05l-2.89.31c-.62.08-1.24.21-1.86.32l-1,.18c-.63.12-1.25.28-1.84.44-.33.08-.66.18-1,.25-.61.16-1.22.36-1.81.55-.32.12-.63.22-1,.33-1,.35-1.9.73-2.71,1.06a36.09,36.09,0,0,0-3.84,1.92C2343.75,828.28,2343.78,825.63,2343.83,822.86Zm.59,16.88c-.06-.49-.13-1-.2-1.45-.19-1.84-.33-3.52-.41-5.12V832a35,35,0,0,1,4.22-2c.79-.3,1.73-.65,2.67-1l1-.29c.57-.17,1.16-.35,1.74-.48l1-.22c.57-.14,1.17-.28,1.76-.37l1-.16,1.47-.22,3.14-.24c.59,0,1.2,0,1.8,0,.34,0,.69,0,1,0a18.37,18.37,0,0,1,2.34.14l.43,0c.31,0,.6.07.91.09a13.42,13.42,0,0,1,1.89.26l2.78.53c.58.13,1.16.3,1.72.48l1,.28.54.16a13.5,13.5,0,0,1,2.11.74l2.65,1.07a9.51,9.51,0,0,1,1.61.78c.29.16.58.33.87.46l1.6.85c1.75,2.91,3.37,5.79,4.84,8.45,2,3.83,3.7,7.22,5.17,10.4l-.76-.3-.68-.26a16.84,16.84,0,0,0-2.46-.8l-3.15-.81a13.44,13.44,0,0,0-2.14-.35l-1.14-.17-.7-.09a15.89,15.89,0,0,0-2.59-.23l-3.29-.09-3.24.25a18.06,18.06,0,0,0-2.53.33l-.75.14a24.53,24.53,0,0,0-3.21.69c-.36.11-.72.2-1.07.29a21.39,21.39,0,0,0-2.07.62l-1.08.4c-.66.23-1.32.47-2,.74l-3,1.33-1,.54c-.62.31-1.25.64-1.86,1-.33.2-.65.4-1,.59-.59.35-1.21.71-1.78,1.11a42.14,42.14,0,0,0-3.76,2.74c-.86-2-1.62-4.08-2.31-6.06a82.4,82.4,0,0,1-2.55-10C2344.74,842.17,2344.58,840.94,2344.42,839.74Z" transform="translate(-79.6 -139)"/><path class="cls-106" d="M2478.92,924.09l-11.11,82.38a6.64,6.64,0,0,1-6.8,5.4h-59.57a6.65,6.65,0,0,1-6.78-5.3l-12.95-84.65c-.57-3.77,2.77-7.08,7-7l83.62,2.28C2476.35,917.34,2479.4,920.52,2478.92,924.09Z" transform="translate(-79.6 -139)"/><path class="cls-107" d="M2478.1,913.29h-95.23a3.36,3.36,0,0,0-3.31,3.38v6.56a3.36,3.36,0,0,0,3.3,3.38h95.24a3.36,3.36,0,0,0,3.31-3.38v-6.56A3.36,3.36,0,0,0,2478.1,913.29Z" transform="translate(-79.6 -139)"/><path class="cls-108" d="M2375.16,914.38h110.11a3.08,3.08,0,0,0,3-3.11v-2.13a3.07,3.07,0,0,0-3-3.1H2375.16a3.07,3.07,0,0,0-3,3.09v2.14A3.08,3.08,0,0,0,2375.16,914.38Z" transform="translate(-79.6 -139)"/><rect class="cls-109" x="1838.31" y="863.87" width="15.41" height="8.92" rx="1.45"/><polygon class="cls-110" points="1837.03 863.87 1835.62 860.68 1827.9 860.68 1826.54 863.87 1821.45 863.87 1820.04 860.68 1812.33 860.68 1810.97 863.87 1805.88 863.87 1804.46 860.68 1796.75 860.68 1795.39 863.87 1790.3 863.87 1788.89 860.68 1781.18 860.68 1779.82 863.87 1774.72 863.87 1773.31 860.68 1765.6 860.68 1764.24 863.87 1759.15 863.87 1757.74 860.68 1750.03 860.68 1748.66 863.87 1743.57 863.87 1742.16 860.68 1734.45 860.68 1733.09 863.87 1728 863.87 1726.59 860.68 1718.88 860.68 1717.51 863.87 1712.42 863.87 1711.01 860.68 1703.3 860.68 1701.94 863.87 1696.85 863.87 1695.44 860.68 1687.72 860.68 1686.36 863.87 1681.27 863.87 1679.86 860.68 1672.15 860.68 1670.79 863.87 1665.7 863.87 1664.28 860.68 1656.57 860.68 1655.21 863.87 1650.12 863.87 1648.71 860.68 1641 860.68 1639.64 863.87 1634.54 863.87 1633.13 860.68 1625.42 860.68 1624.06 863.87 1618.97 863.87 1617.56 860.68 1609.85 860.68 1608.48 863.87 1603.39 863.87 1601.98 860.68 1594.27 860.68 1592.91 863.87 1587.82 863.87 1586.41 860.68 1578.69 860.68 1577.33 863.87 1572.24 863.87 1570.83 860.68 1563.12 860.68 1561.76 863.87 1556.67 863.87 1555.26 860.68 1547.54 860.68 1546.18 863.87 1542.21 863.87 1542.21 872.79 1841 872.79 1841 863.87 1837.03 863.87"/><rect class="cls-111" x="1275.34" y="517.92" width="480.31" height="270.17" rx="12"/><rect class="cls-112" x="1257.87" y="517.92" width="480.31" height="270.17" rx="12"/><path class="cls-113" d="M1632.76,831.52h-39v170.91h41.84C1590.86,993.08,1623.34,879.61,1632.76,831.52Z" transform="translate(-79.6 -139)"/><path class="cls-114" d="M1570,884.82h-24.19v60.1h30.27C1554.24,935.84,1546.53,904.13,1570,884.82Z" transform="translate(-79.6 -139)"/><path class="cls-115" d="M1632.76,831.52H1547c-18.79,58.33-45.87,142.62-22.07,170.91h96.29C1577.14,985.63,1611.85,886.68,1632.76,831.52Zm-47.49,88.78c-2.31,12.82-12.44,21.72-22.62,19.89s-16.56-13.71-14.25-26.54,12.43-21.72,22.61-19.89S1587.58,907.47,1585.27,920.3Z" transform="translate(-79.6 -139)"/><circle class="cls-116" cx="1505.64" cy="631.73" r="18.4"/><path class="cls-117" d="M1710,1011.87v-6.27a3.18,3.18,0,0,0-3.17-3.17H1481.58a3.18,3.18,0,0,0-3.17,3.17v6.27Z" transform="translate(-79.6 -139)"/><path class="cls-118" d="M1694.31,1011.87v-6.27a3.18,3.18,0,0,0-3.17-3.17H1465.88a3.18,3.18,0,0,0-3.16,3.17v6.27Z" transform="translate(-79.6 -139)"/><polygon class="cls-119" points="158.99 1473.92 347.9 1032.48 362.43 1038.7 176.19 1473.92 158.99 1473.92"/><polygon class="cls-120" points="627.22 1473.92 440.96 1038.7 455.5 1032.48 644.41 1473.92 627.22 1473.92"/><polygon class="cls-121" points="244.08 1506.26 432.99 1064.82 447.52 1071.04 261.27 1506.26 244.08 1506.26"/><polygon class="cls-122" points="712.3 1506.26 526.05 1071.04 540.59 1064.82 729.5 1506.26 712.3 1506.26"/><path class="cls-123" d="M448.82,907.54s-207.93-90.69-210.21,127.4c-2.31,220,123.46,466.27,353,483.78s346.61-20.35,283.09-160.5S692.36,900.82,448.82,907.54Z" transform="translate(-79.6 -139)"/><path class="cls-124" d="M462,805.83S264.37,789.9,240.91,1006.74,373.67,1420.11,604.78,1417c230.19-3.09,315.1,40.08,251.59-100.07S705.52,799.1,462,805.83Z" transform="translate(-79.6 -139)"/><path class="cls-125" d="M748.15,1162.14c-2.86-45.07-48-49.32-48-49.32s-35.83-19-49.12-29.62c-88.38-66.91-91.28-259.73-101.87-301.27-4-15.8-20.73-28.33-36.35-28.58-32.56-.5-75.24,55.95-56.19,151.48,5,25.08,49.54,183.18,182.79,221.93,1.38.4,21.34,7.5,33.8,12l.22-.36c3.38,1.35,6.77,2.71,10.24,4.18C686.86,1143.88,750.37,1197.16,748.15,1162.14Z" transform="translate(-79.6 -139)"/><path class="cls-126" d="M530.48,632.63s-13,55.32-9.29,82.25c3.49,25,21.12,48.17,36.25,74.79,29.46,51.85-56.43,34.43-92,20.57C399.05,784.35,421.64,790,421.64,790s34.48-71.43,44.24-88c9-15.31,28.15-51.75,30.92-69.12C503.71,589.63,530.48,632.63,530.48,632.63Z" transform="translate(-79.6 -139)"/><path class="cls-127" d="M496.82,510.6c-3.59,3-42.54,27.69-42,80.26-.73-.36-1.37,1.74-2.3,1.73-20.35-.25-4.25,28.27-1.76,32.07s8.32,9.87,11.38,8a168.27,168.27,0,0,0,7.73,18.8c20.51,45.85,79.7,56,101.56-13.45C592.52,570.93,549.33,466.79,496.82,510.6Z" transform="translate(-79.6 -139)"/><path class="cls-128" d="M720.47,1588.35l-40.82,83.8s-19.34,8-8.21,29.49,56.85,34.47,67.19,35c21.55,1.11-30.42-51.88-30.42-51.88L769,1581.7Z" transform="translate(-79.6 -139)"/><path class="cls-25" d="M710.5,1684.55s52,38.07,49.66,52.8c-3.69,23.55-90.5-23-96.61-39.37-6.2-16.62,14.35-26.94,14.35-26.94S686.78,1690,710.5,1684.55Z" transform="translate(-79.6 -139)"/><path class="cls-64" d="M711.37,1687.82s-8.27,2.23-13,7.29C696.52,1699.06,720.55,1689.72,711.37,1687.82Z" transform="translate(-79.6 -139)"/><path class="cls-64" d="M722,1697.24s-8.19,2.24-12.85,7.31C707.32,1708.51,731.14,1699.15,722,1697.24Z" transform="translate(-79.6 -139)"/><path class="cls-64" d="M732.38,1705.35s-7,2-11,6.57C719.75,1715.46,740.19,1707.06,732.38,1705.35Z" transform="translate(-79.6 -139)"/><path class="cls-129" d="M405.36,1175.41s-67.77,186.92,387.5,150.31c7.8,3.34-48.07,29-90.53,276.48,17.78,16.66,31.75,22.57,49.78,23.42,0,0,166.27-207.58,203.33-317.57,9.67-28.68-15.87-80.22-23.71-89.1C893.8,1176,547.87,1112,528.41,1114.48S405.36,1175.41,405.36,1175.41Z" transform="translate(-79.6 -139)"/><path class="cls-130" d="M565.62,1594.26l-62.82,68.87s-21.1.94-16.5,24.69,45.11,50.4,54.88,53.83c20.36,7.15-14.53-58.36-14.53-58.36L614,1601.57Z" transform="translate(-79.6 -139)"/><path class="cls-25" d="M528.9,1683.74s39.09,51.19,32.72,64.66c-10.18,21.56-80.32-47.58-81.56-65-1.24-17.68,21.38-21.78,21.38-21.78S504.62,1682.25,528.9,1683.74Z" transform="translate(-79.6 -139)"/><path class="cls-64" d="M528.8,1687.12s-8.55-.2-14.48,3.33C511.39,1693.7,537.08,1691.53,528.8,1687.12Z" transform="translate(-79.6 -139)"/><path class="cls-64" d="M536.38,1699.17s-8.48-.16-14.38,3.39C519.09,1705.82,544.57,1703.57,536.38,1699.17Z" transform="translate(-79.6 -139)"/><path class="cls-64" d="M544,1709.86s-7.3,0-12.43,3.19C529,1716,551,1713.71,544,1709.86Z" transform="translate(-79.6 -139)"/><path class="cls-131" d="M424,1097.81s-161.83,171.52,285.26,265c6.53,5.41-54.31,14.28-164.91,239.67,12.35,21,24.07,30.62,41.14,36.52,0,0,218.11-152.19,284.71-247.24,17.38-24.78,7.44-81.44,2.41-92.16-24.26-51.88-338.05-211-357.4-214.1S424,1097.81,424,1097.81Z" transform="translate(-79.6 -139)"/><path class="cls-132" d="M457.51,712.43s-68.81,50-85.65,210.35c1.44,172.79-28.56,247.92,32.94,291.11,19.51,15.71,143,18.12,184.48-52.7,12.44-21.23,43.33-31.77,41-33-15-7.57-47.91-58.79-38.81-211.31,3-50.46-22.82-127.11-62.4-178.33C523.51,744.52,496.8,746.11,457.51,712.43Z" transform="translate(-79.6 -139)"/><path class="cls-25" d="M581.73,548.51s6.38,69.1-65.94,56.19c-10.49-1.88-19.9-6.21-25.59,32s-23,63.51-73.55,80.57c-37.42,12.63-2.55,132.36-131.92,102C159.81,789.85,67.42,618.91,306,620c32.45.14,63.28-15.25,81.88-41.84,18.69-26.75,35.1-59.1,71.44-77.92C475,492.06,570.87,471.58,581.73,548.51Z" transform="translate(-79.6 -139)"/><path class="cls-133" d="M441.57,777.08c-16.71,27.24-36.13,312.87,39.13,310.63,148.89-4.44,238-67.31,238-67.31s49.42-3.7,52.55-42.87c2.43-30.43-67.14,15.88-70.6,17.05-103.64,34.9-175.54,32-176,8.13-1.19-64.57,22.57-180.13,7.54-217C518.18,751.23,467.4,735,441.57,777.08Z" transform="translate(-79.6 -139)"/><path class="cls-134" d="M2505.78,1460.75,2316,1462.3a17.26,17.26,0,0,0-17.11,17.4l1.07,130.61a17.24,17.24,0,0,0,17.39,17.1l189.76-1.55a17.25,17.25,0,0,0,17.11-17.39l-1.07-130.61A17.25,17.25,0,0,0,2505.78,1460.75Z" transform="translate(-79.6 -139)"/><path class="cls-135" d="M2514.26,1442.19l-207,1.7a14.79,14.79,0,0,0-14.66,14.91l.64,78a14.79,14.79,0,0,0,14.91,14.66l207-1.69a14.8,14.8,0,0,0,14.67-14.91l-.64-78A14.79,14.79,0,0,0,2514.26,1442.19Z" transform="translate(-79.6 -139)"/><path class="cls-136" d="M2362.66,1452.92l-.1-12.28a22,22,0,0,1,21.75-22.11l30.88-.26A22,22,0,0,1,2437.3,1440l.11,12.28,14.78-.13-.1-12.27a36.76,36.76,0,0,0-37-36.42l-30.88.25a36.75,36.75,0,0,0-36.42,37l.1,12.28Z" transform="translate(-79.6 -139)"/><path class="cls-137" d="M2495,1460.75l-189.76,1.55a17.25,17.25,0,0,0-17.1,17.4l1.07,130.61a17.24,17.24,0,0,0,17.39,17.1l189.76-1.55a17.24,17.24,0,0,0,17.1-17.39l-1.07-130.61A17.25,17.25,0,0,0,2495,1460.75Z" transform="translate(-79.6 -139)"/><path class="cls-138" d="M2503.45,1442.19l-207,1.7a14.79,14.79,0,0,0-14.67,14.91l.64,78a14.79,14.79,0,0,0,14.91,14.66l207-1.69A14.79,14.79,0,0,0,2519,1534.9l-.64-78A14.79,14.79,0,0,0,2503.45,1442.19Z" transform="translate(-79.6 -139)"/><path class="cls-139" d="M2400.72,1535.86a10.3,10.3,0,0,0-10.19,10.36l.12,14.79a10.27,10.27,0,1,0,20.53-.18l-.12-14.78A10.3,10.3,0,0,0,2400.72,1535.86Z" transform="translate(-79.6 -139)"/></svg>