<?xml version="1.0" encoding="utf-8"?>
<!-- Generator: Adobe Illustrator 24.3.0, SVG Export Plug-In . SVG Version: 6.00 Build 0)  -->
<svg version="1.1" id="Layer_1" xmlns="http://www.w3.org/2000/svg" xmlns:xlink="http://www.w3.org/1999/xlink" x="0px" y="0px"
	 viewBox="0 0 540 540" style="enable-background:new 0 0 540 540;" xml:space="preserve">
<style type="text/css">
	.st0{fill:#3691ED;}
	.st1{fill:none;}
</style>
<g>
	<g>
		<path id="svg_2" class="st0" d="M246.3,64.9c-23,2.5-51.3,11.2-72.6,22.5C117.6,117,79.6,168.6,66.9,232.3
			c-2.7,13.6-3.7,47.5-2,62.4c11.5,93.9,84.5,167.9,177.8,180.1c13.3,1.7,38.7,2,50.9,0.5c23.9-3,45.6-9.3,66.7-19.6
			c12.8-6.4,31.8-17.9,31.8-19.5c0-0.4-4.8-5.6-10.8-11.6c-7.1-7.3-10.8-11.7-10.8-13.2c0-1.2,1.9-4.1,4.1-6.6l4.1-4.4L368,389.5
			l-10.6-10.7l-5,3.7c-43,31-97.8,35.8-144.5,12.4c-18.7-9.4-39.2-26.8-51.3-43.6c-11.6-16.5-20.8-37.9-24.2-57.5
			c-2.3-12.3-2.3-34.8-0.1-47c10.5-58.6,55.8-103.8,114.3-114.3c12.2-2.2,34.7-2.2,47,0.1c19.5,3.5,41,12.6,57.5,24.3
			c16.8,12,34.2,32.5,43.6,51.3c23.4,46.7,18.6,101.5-12.4,144.5l-3.6,5l10.6,10.6L400,379l4.4-4.1c2.5-2.3,5.4-4.1,6.6-4.1
			c1.5,0,5.9,3.8,13.2,10.8c6,5.9,11.2,10.8,11.6,10.8c1.6,0,13.1-19,19.5-31.8c14.2-29,20.6-57.2,20.6-90.6s-7.2-64.2-21.6-92.8
			c-30.8-60.8-88.2-101.9-156-111.6C289,64.4,256,63.8,246.3,64.9L246.3,64.9z"/>
		<path class="st0" d="M312.2,180.1c-5.1-2.4-13-5.3-17.5-6.4c-11.1-2.8-31.9-3.5-42.7-1.5c-35.9,6.8-64.9,31.9-76.5,66.2
			c-5.6,16.6-6.4,39.2-2.1,56.5c2.7,10.5,11.2,28.3,17.4,36l4.7,5.9l0.5-12.8c0.6-14.4,1.7-17.3,8-21.8c9.5-6.5,21.7-2.9,26.6,8
			c1.6,3.5,1.9,6.9,1.9,28.3v24.3l5.2,1.8c2.8,0.9,5.6,1.9,6.3,2.1c0.9,0.4,1.3-8,1.5-34.4v-28.5c0-14.4,11.6-26,26-26
			c12.4,0,22.8,8.7,25.4,20.3c0.1,0.3,0.1,0.6,0.2,0.9c0.3,1.5,0.5,3.1,0.5,4.8v41.8c0.2,15.3,0.6,20.4,1.3,20.1
			c0.7-0.2,3.5-1.2,6.4-2.2l5.1-1.9v-23.7c0-26.7,0.5-28.9,7.2-34.8c8-7,19.9-5,26.4,4.4c2.1,3.1,2.5,4.9,2.9,14.4l0.5,10.9l3.7-4.9
			c5.7-7.6,12.3-21.8,15.1-32.6C378.1,248.2,355.9,200.8,312.2,180.1z M215,290.6c-9.5,0-17.3-7.5-17.3-16.6
			c0-9.2,7.8-16.6,17.3-16.6s17.3,7.5,17.3,16.6C232.3,283.1,224.6,290.6,215,290.6z M271.7,265.6c-13,0-23.5-10.2-23.5-22.7
			s10.5-22.7,23.5-22.7s23.5,10.1,23.5,22.7C295.2,255.5,284.7,265.6,271.7,265.6z M328.6,288.8c-9.4,0-17-7-17-15.7
			s7.6-15.7,17-15.7s17,7,17,15.7S338,288.8,328.6,288.8z"/>
		<ellipse class="st1" cx="215" cy="274" rx="17.3" ry="16.6"/>
		<ellipse class="st1" cx="271.7" cy="242.9" rx="23.5" ry="22.7"/>
		<ellipse class="st1" cx="328.6" cy="273.1" rx="17" ry="15.7"/>
	</g>
	<path id="svg_12" marker-end="" marker-start="" marker-mid="" class="st0" d="M247.6,65.8c0-1.1,10.9-2,24.3-2s24.3,0.9,24.3,2
		s-10.9,2-24.3,2C258.4,67.8,247.6,66.9,247.6,65.8z"/>
</g>
</svg>
