<svg xmlns="http://www.w3.org/2000/svg" xmlns:xlink="http://www.w3.org/1999/xlink" viewBox="0 0 1128.53 1294"><defs><style>.cls-1{fill:#fff;}.cls-2{fill:#82cc1f;}.cls-3{fill:#8ed62d;}.cls-4{fill:url(#Áåçûìÿííûé_ãðàäèåíò_29);}</style><linearGradient id="Áåçûìÿííûé_ãðàäèåíò_29" x1="527.62" y1="1294" x2="527.62" y2="1014.94" gradientUnits="userSpaceOnUse"><stop offset="0" stop-color="#91551d"/><stop offset="1" stop-color="#543819"/></linearGradient></defs><g id="Layer_2" data-name="Layer 2"><g id="Ñëîé_1" data-name="Ñëîé 1"><path class="cls-1" d="M417.43,818c-52.21,10.21-128.59,7.16-196-65.34-25-26.92-43.28-52.52-59.39-75.11-35.23-49.42-56.5-79.25-114.14-80.92L0,595.24l38.26-28.88c1.36-1,4.38-3.86,7.57-6.86C67,539.6,116.56,493,198.34,477c52-10.16,108.46-6.24,167.85,11.66C460.21,517,503.85,569.2,523.89,608c22.47,43.47,26.86,93.72,12,137.87l-8.48,25.26L508.28,752.6c-10.44-10.07-31.07-26.75-53.57-43.69q2.25,4.55,4.47,9.28c13.87,29.64,22.64,56.92,24.1,63l3.48,14.41-13.86,5.27-3.44,1.34A285.36,285.36,0,0,1,417.43,818Z"/><path class="cls-2" d="M466.91,785.12c-22.1,8.41-136.15,60.41-233.13-43.92-79-85-90.07-158.64-185.37-161.4,19.32-14.59,115.4-134.55,312.92-75C506.33,548.51,547,659.89,520,740.49c-25.36-24.48-102.49-81.79-134.84-99C434.8,681.54,465,777.15,466.91,785.12Z"/><path class="cls-1" d="M813.44,716.79c-62.13,12.15-124.61-.19-175.93-34.76l-14.41-9.7,10.15-14.1c15.12-21,53.07-72.12,95.8-117.66-33.4,20-73,49.14-125.14,93.38l-24.62,20.89-3-32.14c-.11-1.18-.26-2.6-.43-4.25-2.37-23.24-9.6-94,7.17-170.33,9.6-43.71,25.58-82.68,47.49-115.83,26.82-40.58,62.74-72.78,106.79-95.71,47.71-24.84,91.1-40.7,129.38-54.7,83.62-30.56,138.85-50.76,165-136L1045.75,0l17.68,44.56c1.08,2.74,3.9,8.09,7.17,14.27,31,58.8,125.49,237.75-24.56,476.2-32.88,52.24-70.39,94.51-111.5,125.63C896.2,689.68,855.45,708.57,813.44,716.79Z"/><path class="cls-3" d="M593,621.11c-3.3-34.79-34.69-272.38,152-369.59,152-79.16,261.38-66,302.73-200.75C1061,84,1194.17,268,1031.79,526.06c-119.21,189.42-280.66,212.2-384.87,142,41-57,117.26-151.78,173.76-184.12C756.7,500,698.94,531.18,593,621.11Z"/><path class="cls-3" d="M807.9,494C633.19,619.52,520.4,818.74,506.17,1037.2L558,1027.06C555.42,817.53,650.65,622.07,807.9,494Z"/><path class="cls-3" d="M377.27,635.8c105.37,68.63,175,175.33,186.32,290.88l-30.91-6C531.43,810,472.31,705.55,377.27,635.8Z"/><path class="cls-4" d="M991,1212.93a16.29,16.29,0,0,0,.69-8.6c0-.23,0-.46,0-.7,0-53.11-67.84-96.17-151.52-96.17-7.56,0-15,.39-22.24,1.07a154.9,154.9,0,0,0-10.2-13.3c-36.34-42-97.6-69.51-167.06-69.51a252.16,252.16,0,0,0-63.14,8c-24.21-18.29-164.76-38.8-214.24,21.42a175.68,175.68,0,0,0-57.18,7.5c-29.13,8.69-53.65,23.56-70.53,41a48.09,48.09,0,0,0-70,33A64.67,64.67,0,0,0,125.34,1156c-36.4,9.13-65.78,29.53-61.68,52.45,4,22.36,29.61,23.81,67.41,24.77,19.25,30.67,71.33,52.66,132.6,52.66a246.42,246.42,0,0,0,34.24-2.37c5.68,5.79,13.48,13.59,51.47,9.23,33.87-3.89,61.72-9.21,61.72-20.57a7.18,7.18,0,0,0-.28-2c43.16,9.9,94.67,15.66,150,15.66,82.42,0,156.36-12.77,206.84-33,9.27,13.49,36.08,19.2,65.25,12.75,18.47-4.08,34-12.18,43.66-21.67,9.9,10.36,35.89,12.63,63.73,4.53,26-7.57,45.8-21.91,50.57-35.23h.07C991,1213.14,991,1213,991,1212.93Zm-106.83.33h0Z"/></g></g></svg>