<svg id="Layer_1" data-name="Layer 1" xmlns="http://www.w3.org/2000/svg" viewBox="0 0 1140.01 1030.31"><defs><style>.cls-1{fill:#f5f5f5;}.cls-2{fill:#d5eaf5;}.cls-3{fill:#fff;}.cls-4{fill:#9ec4d7;}.cls-5{fill:#25344b;}.cls-6{fill:#fc611f;}.cls-7{fill:#dd4926;}.cls-8{fill:#efc5a2;}.cls-9{fill:#b2422b;}.cls-10{fill:#728292;}.cls-11{fill:#b0c9cf;}.cls-12{fill:#4f2727;}.cls-13{fill:#374a63;}.cls-14{fill:#eea196;}.cls-15{fill:#313a40;}.cls-16{fill:#a12531;}.cls-17{fill:#ef3133;}</style></defs><path class="cls-1" d="M196.38,197.83h413s-28.52-26.7-49.65-18.21c-12.67-15.77-40.14-23.05-48.59-14.56-5.39-16.37-34.19-17.55-40.13-8.49.59-18.73-18.8-30.45-28.53-27.92-3.36-23.34-65.48-40-81.33,2.43-11.62-6.06-22.18,4.85-25.35,12.14-13.73-3.64-42.25,13.35-30.63,34-10.56-4.85-22.18-14.57-30.63-3.64C258.7,172.35,228.07,195.4,196.38,197.83Z" transform="translate(-42.65 -104.9)"/><path class="cls-2" d="M738.72,251.08H1096s-24.67-23.61-42.94-16.1c-11-13.95-34.73-20.39-42-12.88-9.14-11.8-32.34-1.91-34.73-7.51-3.65-17.17-11.88-23.62-24.67-24.69-11.88-15-56.66-35.41-70.37,2.15-10-5.37-19.19,4.29-21.94,10.73-11.87-3.22-36.55,11.81-26.49,30.06-9.14-4.3-19.2-12.88-26.51-3.22C792.64,228.54,766.13,248.94,738.72,251.08Z" transform="translate(-42.65 -104.9)"/><path class="cls-2" d="M915.7,852.71h267s-18.43-19.38-32.09-13.21c-8.19-11.45-25.94-16.73-31.4-10.57-6.83-9.68-24.16-1.57-26-6.16-2.73-14.09-8.87-19.38-18.43-20.26-8.88-12.33-42.34-29.06-52.58,1.77-7.5-4.41-14.33,3.52-16.39,8.8-8.86-2.64-27.3,9.69-19.79,24.66-6.83-3.52-14.34-10.57-19.8-2.64C956,834.22,936.18,851,915.7,852.71Z" transform="translate(-42.65 -104.9)"/><path class="cls-2" d="M42.65,368.76H317.34s-19-19.94-33-13.59C275.89,343.38,257.63,338,252,344.29c-7-10-24.87-1.61-26.7-6.34-2.81-14.5-9.13-19.94-19-20.85-9.13-12.68-43.56-29.89-54.1,1.82-7.72-4.53-14.75,3.62-16.86,9.06-9.13-2.72-28.1,10-20.37,25.37-7-3.62-14.76-10.87-20.37-2.71C84.1,349.73,63.72,367,42.65,368.76Z" transform="translate(-42.65 -104.9)"/><path class="cls-1" d="M139.47,1135.21h584.2s-40.34-38.61-70.23-26.32c-17.93-22.82-56.77-33.35-68.72-21.06-14.94-19.3-52.88-3.13-56.78-12.29-6-28.07-19.42-38.6-40.34-40.36-19.43-24.56-92.64-57.9-115,3.52-16.43-8.78-31.37,7-35.86,17.55-19.41-5.27-59.76,19.29-43.32,49.13-14.95-7-31.39-21.05-43.35-5.26C227.63,1098.36,184.28,1131.7,139.47,1135.21Z" transform="translate(-42.65 -104.9)"/><path class="cls-1" d="M703.15,1045H1131.6s-29.58-28.32-51.5-19.31c-13.15-16.73-41.63-24.46-50.4-15.44-11-14.16-38.78-2.3-41.64-9-4.39-20.58-14.25-28.31-29.59-29.6-14.24-18-67.94-42.46-84.38,2.58-12-6.43-23,5.15-26.3,12.87-14.23-3.86-43.82,14.15-31.77,36-11-5.15-23-15.44-31.79-3.86C767.81,1018,736,1042.44,703.15,1045Z" transform="translate(-42.65 -104.9)"/><path class="cls-3" d="M303,634,165.64,613.2l138,15.84a2.5,2.5,0,0,1-.57,5Z" transform="translate(-42.65 -104.9)"/><path class="cls-3" d="M233,680.13l-171.48-20,172,15a2.5,2.5,0,0,1-.43,5Z" transform="translate(-42.65 -104.9)"/><path class="cls-3" d="M266.12,739.71,124.63,726.23l141.88,8.5a2.5,2.5,0,0,1-.3,5Z" transform="translate(-42.65 -104.9)"/><polygon class="cls-4" points="331.72 815.22 313.29 570.47 949.24 601.19 331.72 815.22"/><polygon class="cls-3" points="949.24 601.19 416.77 471.82 313.29 570.47 949.24 601.19"/><path class="cls-3" d="M180.39,860.4c5,8.83,811.5-154.3,811.5-154.3L326.24,722.48S171.17,844,180.39,860.4Z" transform="translate(-42.65 -104.9)"/><path class="cls-5" d="M862.67,407.07a95.84,95.84,0,0,1-9.65,6.24c-11.58,6.23-42.36,19.42-49,20.87-1,4.13,4.64,25.23,5.58,26.86,13.41-2.62,54.48-27.87,72.21-40.23C876.83,415.17,866.74,413.27,862.67,407.07Z" transform="translate(-42.65 -104.9)"/><path class="cls-5" d="M824.73,368.19c2.9,10.21,25.53,41.37,37.46,63.56a160.35,160.35,0,0,0,19.59-10.94c-2-3.94-4-7.63-5.88-10.9C862.64,386.53,844.69,357,844.69,357,843.6,359.74,833.81,366.34,824.73,368.19Z" transform="translate(-42.65 -104.9)"/><path class="cls-5" d="M843,619.3c-3.74-13.87-30.34-68.23-36.44-69.39-5.81-1.11-12.51,3.92-12.66,11.4-.08,4.44,23.66,52.62,27.08,66.25C826.24,624.65,841.58,619.79,843,619.3Z" transform="translate(-42.65 -104.9)"/><path class="cls-5" d="M842.83,618.26c-1.75-1.6-17,1.57-22.7,4.21,0,.25,6.66,76.87,6.26,77.82a9.76,9.76,0,0,0-.38,8c1.43,3.14,4.29,4.39,7.41,5.33,6.61,2,14.12,2.11,20.94,1.63,5.39-.38,21.89-2,22.28-9,.21-3.73-24.74-11-25-11.07C851.65,694.57,847.76,622.77,842.83,618.26Z" transform="translate(-42.65 -104.9)"/><path class="cls-5" d="M784.48,625.59c-1.48-14.29-19.05-72.19-24.9-74.31-5.55-2-13,1.87-14.31,9.23-.79,4.36,15,55.71,16.16,69.72C767.13,628.2,783.06,625.86,784.48,625.59Z" transform="translate(-42.65 -104.9)"/><path class="cls-5" d="M784.53,624.54c-1.47-1.85-17-1.16-23.08.54,0,.25-5.7,76.95-6.24,77.81-1.48,2.33-2.39,5.05-1.64,7.8.9,3.33,3.52,5,6.46,6.44,6.21,3,13.6,4.34,20.41,5,5.38.49,21.93,1.55,23.43-5.3.8-3.65-22.67-14.83-22.93-14.93C781.06,701.28,788.68,629.79,784.53,624.54Z" transform="translate(-42.65 -104.9)"/><path class="cls-5" d="M777,455.2a67.79,67.79,0,0,0-5.51-10.72,4,4,0,0,1-.51-1.12c-1.36-1.34-4.49-9.86-6.12-10.57C754,444.59,739.86,477,734,497.35c-7.05,24.38-12.51,58.5-12.51,58.5,2.55-1.05,14.18-1.44,21.41,3.48-.06-7.33,11.57-62.71,19.38-79.23C767.57,468.87,772.71,460,777,455.2Z" transform="translate(-42.65 -104.9)"/><path class="cls-6" d="M747.46,596.64l.2,0a2.62,2.62,0,0,0,2.79-2.43c.56-8.51-3.85-18.81-17.93-22.21s-24.27,6.34-27.74,12a2.61,2.61,0,0,0,4.44,2.75c.34-.54,8.3-12.94,22.08-9.62,13.37,3.23,14.19,12.81,13.93,16.78A2.62,2.62,0,0,0,747.46,596.64Z" transform="translate(-42.65 -104.9)"/><polygon class="cls-7" points="642.82 475.54 725.61 492.27 718.11 553.81 703.66 554.89 624.73 532.13 642.82 475.54"/><path class="cls-8" d="M749.27,573.17c-2.11-3.91-4.75-7.47-7.23-11.16-.23-.33-1-2.76-1.47-3.37-3.18-4.43-16.54-7.23-18.26-1.06-1,3.63-3.12,12.75-3.19,13.26-.44,3.67-.79,11.17,2.91,13.75,1.88,1.32,4.3,1.8,6.53,2.29a20.52,20.52,0,0,0,5,.6c.61.82,1.72,2.2,3.09,2.14,3.48-.16,3.51-3.31,3.41-5.32a80.78,80.78,0,0,1,.91-10.87c.52.82,1,1.66,1.49,2.52a3.76,3.76,0,0,0,4.8,2C749,577.28,750.23,574.94,749.27,573.17Z" transform="translate(-42.65 -104.9)"/><polygon class="cls-9" points="725.61 492.27 718.11 553.81 703.66 554.89 719.04 490.98 725.61 492.27"/><polygon class="cls-9" points="642.82 475.54 719.04 490.98 685.73 517.27 658.32 510.41 642.82 475.54"/><polygon class="cls-10" points="668.24 507.18 664.38 519.37 675.46 522.4 678.48 509.64 668.24 507.18"/><polygon class="cls-11" points="668.03 507.14 664.56 518.11 674.52 520.83 677.24 509.36 668.03 507.14"/><path class="cls-5" d="M762.29,435.09l50.19,6.53s9.75,90.6,7,127.32c-8.23-1.07-61.36-.4-77.56-7.69C746.09,544.25,763.43,441.62,762.29,435.09Z" transform="translate(-42.65 -104.9)"/><path class="cls-3" d="M770.81,430.88s14.42,7.73,36.93,4.28c-.19,5.55-15.32,62.57-15.32,62.57Z" transform="translate(-42.65 -104.9)"/><polygon class="cls-12" points="774.11 237.98 771.05 270.31 764.69 241.8 774.11 237.98"/><path class="cls-6" d="M793.18,452.77c-5.13,0-9.71,27-9.71,27l9.18,18.34,8-16.24S799.27,452.76,793.18,452.77Z" transform="translate(-42.65 -104.9)"/><polygon class="cls-13" points="765.09 330.25 749.64 393.81 767.06 368.26 764.24 357.26 772.95 353.61 767.82 327.68 765.09 330.25"/><path class="cls-8" d="M820.27,378.87c5.19,4.47,6,12.07,1.72,17a11.45,11.45,0,0,1-9.92,3.84s-2.25-18.94-1.09-23.9A12.66,12.66,0,0,1,820.27,378.87Z" transform="translate(-42.65 -104.9)"/><path class="cls-14" d="M818.63,382.31a7.83,7.83,0,0,1,1.12,11,7.45,7.45,0,0,1-6.44,2.49s-1.46-12.29-.71-15.51A8.19,8.19,0,0,1,818.63,382.31Z" transform="translate(-42.65 -104.9)"/><path class="cls-8" d="M813.37,345.09l-67.92.91,25.42,90s19.85,3.93,29.73,1.56c8.09-1.94,21.11-13.24,18.8-44.59C818,374.62,813.37,345.09,813.37,345.09Z" transform="translate(-42.65 -104.9)"/><path class="cls-15" d="M794.17,370.22a2.63,2.63,0,0,1-.75,3.66,2.68,2.68,0,0,1-3.67-.79,2.6,2.6,0,0,1,.73-3.65A2.68,2.68,0,0,1,794.17,370.22Z" transform="translate(-42.65 -104.9)"/><path class="cls-15" d="M812.53,369.4a2.62,2.62,0,0,1-.74,3.66,2.7,2.7,0,0,1-3.68-.79,2.62,2.62,0,0,1,.74-3.65A2.67,2.67,0,0,1,812.53,369.4Z" transform="translate(-42.65 -104.9)"/><path class="cls-14" d="M780.92,387.12c-.17,2.56,2.48,4.82,5.93,5.06s6.39-1.65,6.56-4.21-2.48-4.83-5.93-5.06S781.1,384.55,780.92,387.12Z" transform="translate(-42.65 -104.9)"/><path class="cls-16" d="M803.42,418.25a8.72,8.72,0,0,0,9-8.46h-17.9A8.72,8.72,0,0,0,803.42,418.25Z" transform="translate(-42.65 -104.9)"/><path class="cls-17" d="M795.05,412.75a7.48,7.48,0,0,1,6-2.08c3.89.29,6.9,3.11,6.7,6.29l0,.24a9.24,9.24,0,0,1-4.3,1.05A8.93,8.93,0,0,1,795.05,412.75Z" transform="translate(-42.65 -104.9)"/><path class="cls-6" d="M788,441.33c1.89-.75,11.48-.1,12.61,2.64s-1.66,8.49-7.36,8.08S783.37,443.16,788,441.33Z" transform="translate(-42.65 -104.9)"/><path class="cls-13" d="M794.38,522.56a3.31,3.31,0,1,1-2.86-3.71A3.31,3.31,0,0,1,794.38,522.56Z" transform="translate(-42.65 -104.9)"/><path class="cls-13" d="M791.56,544.93a3.31,3.31,0,1,1-2.85-3.71A3.31,3.31,0,0,1,791.56,544.93Z" transform="translate(-42.65 -104.9)"/><path class="cls-7" d="M798,377.46s-1.73,18.11.55,23.73c.62,1.54,6.84,1.15,6.84,1.15l-4.8-25.14Z" transform="translate(-42.65 -104.9)"/><path class="cls-6" d="M812,401.23c-.32.62-7.84,2-9.55.44-3.27-3.06-1.86-24.56-1.86-24.56l6.45.22S814,397.49,812,401.23Z" transform="translate(-42.65 -104.9)"/><path class="cls-15" d="M816.42,313.36c-6,2.56-31,13.11-47.33,14.91-2.06-2.38-17.39-.73-18.92,3.61-8.42,5.65-12.73,19.89-9.78,32.71,3.7,16,24.7,58.18,24.7,58.18l2.67-1-3.94-14.9-.5-52.07s13-2.79,22.26-3.81c0,0-5.72,1.53-4.71,4.84s18.59,3.82,33.23-4.84S825.42,318.61,816.42,313.36Z" transform="translate(-42.65 -104.9)"/><path class="cls-8" d="M759.66,378.4c-6.22,0-11.26,5.66-11.26,12.65s5,12.66,11.26,12.66h5l3.95-25.3Z" transform="translate(-42.65 -104.9)"/><path class="cls-14" d="M763.3,384.72a6.26,6.26,0,0,0-9.64,3.4c-1.16,4.1,1.85,9.79,8.21,9.95C763.12,398.11,764.69,385.68,763.3,384.72Z" transform="translate(-42.65 -104.9)"/><path class="cls-13" d="M793.76,509.9s-2.72-50.6-23.39-81.73a31,31,0,0,0-8.08,6.92l4.45,29.41,13.35-.77L774.23,472Z" transform="translate(-42.65 -104.9)"/><path class="cls-8" d="M835.64,348.68c2.75,3.52,8.43,8.12,7.5,10.38-1.48,3.62-7.58,4.49-10.11,5.77-.73.37-23-8.3-23-8.3s.37-12,7.67-15.45C818.14,340.86,828.07,339,835.64,348.68Z" transform="translate(-42.65 -104.9)"/><path class="cls-8" d="M816.81,348.45a2.67,2.67,0,0,1-.07.47,3,3,0,0,1-3.63,2.31l-16.57-3.66a3,3,0,1,1,1.31-5.95l16.57,3.66A3.06,3.06,0,0,1,816.81,348.45Z" transform="translate(-42.65 -104.9)"/><path class="cls-8" d="M821.62,345.4a2.36,2.36,0,0,1-.08.45,3,3,0,0,1-3.6,2.15l-16-4a3,3,0,0,1,1.45-5.76l16,4A3,3,0,0,1,821.62,345.4Z" transform="translate(-42.65 -104.9)"/><path class="cls-8" d="M816.66,351.74a3.46,3.46,0,0,1,0,.46,3,3,0,0,1-3.28,2.62L796.93,353a3,3,0,0,1,.68-5.9L814,348.92A3,3,0,0,1,816.66,351.74Z" transform="translate(-42.65 -104.9)"/><path class="cls-8" d="M825.57,343.49a2.62,2.62,0,0,1-.15,1.1,2.67,2.67,0,0,1-3.41,1.63l-12.18-4.31a2.67,2.67,0,0,1,1.79-5l12.18,4.31A2.67,2.67,0,0,1,825.57,343.49Z" transform="translate(-42.65 -104.9)"/><path class="cls-14" d="M817.53,361.27s-9.19-2.59-11.47-4.76c-3.22-3.07,1.4-5.33,2.83-5.48,3.31-.33,11.17,3.54,11.17,3.54s6.4-4.49,11.35.27c5.9,5.67-.11,9.47-.11,9.47Z" transform="translate(-42.65 -104.9)"/></svg>