<svg xmlns="http://www.w3.org/2000/svg" viewBox="0 0 1104 627.08"><defs><style>.cls-1{fill:#ab6624;}.cls-2{fill:#383530;}.cls-3{fill:#423f3a;}.cls-4{fill:#f79673;}.cls-5{fill:#877b74;}.cls-6{fill:#a09d9d;}.cls-7{fill:#545049;}.cls-8{fill:#edb843;}.cls-9{fill:#ffce54;}.cls-10{fill:#ccc9c4;}.cls-11{fill:#744628;}.cls-12{fill:#e2e2e2;}.cls-13{fill:#e03427;}.cls-14{fill:#f2f2f2;}.cls-15{fill:#e58d6e;}.cls-16{fill:#ebeced;}.cls-17{fill:#c6c5c4;}.cls-18{fill:#935124;}.cls-19{fill:#af602b;}.cls-20{fill:#c17134;}.cls-21,.cls-25{fill:#93aecc;}.cls-22{fill:#fff;}.cls-23{fill:#dedfe2;}.cls-24{fill:#9b5526;}.cls-25{opacity:0.72;}.cls-26{fill:#ffa786;}.cls-27{fill:#ffaa82;}.cls-28{fill:#47291f;}.cls-29{fill:#774236;}.cls-30{fill:#a4434c;}.cls-31{fill:#d38462;}</style></defs><g id="Layer_2" data-name="Layer 2"><g id="image"><path class="cls-1" d="M213.37,9.72s74.76-9.48,38.21,60c0,0,12.07,55.39-1.25,72.7s-61.91,34.85-61.91,34.85Z"/><polygon class="cls-2" points="250.07 180.25 273.86 283.73 259.29 287 235 191.67 250.07 180.25"/><path class="cls-3" d="M148.61,158.17s29.7-22.33,78.54,3.79Z"/><path class="cls-3" d="M340.37,614.13h6.23l2.78-26.38,11.47,26.38h50.69c3.58-6.89-14.53-12.48-31-20.24l-21.38-20.2L352.18,560l-7.38.63c-5.42,3.41-7.1,12.09-7.37,17.27Z"/><path class="cls-4" d="M344.8,560.67s12.7,42.05,35.7,33.22l-18-26-8.19-21.14Z"/><path class="cls-4" d="M246.42,366.38s109.71-6.05,112.75,56.73c3.21,66,9.34,156.28,9.34,156.28L349,560.62s-22.1-128.27-25.48-137.55c-6.28-17.26-55-18.19-96.33-41.21S246.42,366.38,246.42,366.38Z"/><circle class="cls-5" cx="107.07" cy="603.24" r="10.17"/><circle class="cls-5" cx="287.11" cy="603.24" r="10.17"/><circle class="cls-5" cx="164.36" cy="603.44" r="10.17" transform="translate(-388.43 310.91) rotate(-46.88)"/><rect class="cls-5" x="151.81" y="581.89" width="25.1" height="19.62" transform="translate(328.71 1183.4) rotate(180)"/><circle class="cls-5" cx="234.18" cy="603.44" r="10.17" transform="translate(-358.1 342.33) rotate(-45)"/><rect class="cls-5" x="221.63" y="581.89" width="25.1" height="19.62" transform="translate(468.36 1183.4) rotate(180)"/><circle class="cls-5" cx="898.33" cy="603.24" r="10.17"/><circle class="cls-5" cx="841.04" cy="603.44" r="10.17" transform="translate(110.3 1336.58) rotate(-80.75)"/><rect class="cls-5" x="828.49" y="581.89" width="25.1" height="19.62"/><circle class="cls-5" cx="771.22" cy="603.44" r="10.17" transform="translate(51.7 1267.67) rotate(-80.75)"/><rect class="cls-5" x="758.67" y="581.89" width="25.1" height="19.62"/><rect class="cls-3" x="544.43" y="312.27" width="27.5" height="12.09" rx="6.05"/><path class="cls-6" d="M853.59,492.09h0a8.78,8.78,0,0,1-8.75-8.75V438.59a8.77,8.77,0,0,1,8.75-8.75h0a8.77,8.77,0,0,1,8.75,8.75v44.75A8.77,8.77,0,0,1,853.59,492.09Z"/><path class="cls-7" d="M674,313.43s69.62.53,93.07-68.43c7-20.65-4.11-62.66,10.08-81.13,0,0,28.68,8.85,26.89,55.72C802.76,254.32,796.6,345,673.9,340.82Z"/><path class="cls-5" d="M870.61,438.39a47.37,47.37,0,0,0,43.91-15.26c11.45-12.64,15.76-28.73,18-45.24,4.33-32.65,6.84-66.29,6.32-99.23a326.77,326.77,0,0,0-6-58.37c-1.57-7.95-11-12.51-18.45-10.48-8.29,2.28-12.05,10.48-10.47,18.45,7.14,36.05,5.41,74.17,2.33,111.13-1.44,17.26-1.68,34-6.25,49.4-2.08,7-4.82,11.65-9.9,16.36q-2.06,1.74-.56.48c-.62.44-1.26.85-1.91,1.23s-4.79,2.28-2.46,1.42c-.63.23-6.06,1.39-3.16,1.07-.74.08-6-.36-3.37.12-7.69-1.38-16.53,2.07-18.45,10.47-1.66,7.32,2.22,17,10.48,18.45Z"/><rect class="cls-8" x="796.52" y="158.89" width="159.28" height="201.44" rx="30.84"/><path class="cls-9" d="M925,360.33V158.89a30.93,30.93,0,0,1,30.84,30.84V329.48A30.94,30.94,0,0,1,925,360.33Z"/><polygon class="cls-10" points="652.36 587.77 684.85 587.77 685.31 563.79 652.81 563.79 652.36 587.77"/><path class="cls-3" d="M812.79,361.84c-134.12-12.36-169.44,8.85-167.43,113.83l3.14,98.41h41.83s-12-164.08,23.73-164.91c78-1.82,113.27,4.74,113.27,4.74Z"/><polygon class="cls-10" points="814.76 167.65 867.67 166.45 868.25 139.83 815.4 138.67 814.76 167.65"/><path class="cls-4" d="M859.42,153.25c-.33,25.21-36.38,27.93-36.06,2.71l.59-51.37,35.66-4.91Z"/><path class="cls-11" d="M786.38,90.57s.91,2.74,2.86-8.94C791.85,66,793,30.28,800,28.44c2-.51,15.6-4.06,8.34-7.38-12.11-5.55-25.26,11.64-25.49,16.3C781.19,53.65,782.69,73.24,786.38,90.57Z"/><path class="cls-4" d="M822.2,135.39l4.18-4.4c-37.82,5.29-32.93-10.87-31.79-32.74l-4.13-63.77c1.15-21.87,16.31-25.59,37.31-25.38h4.54c21,.21,46.42,18.21,46.52,31.66l-7.5,41.73C862.91,120.8,850.31,134.58,822.2,135.39Z"/><polygon class="cls-12" points="875.13 158.89 871.8 366.67 794.94 367.08 805.02 152.26 828.92 167.96 851.05 169.17 875.13 158.89"/><polygon class="cls-13" points="845.89 182 838.75 192.44 826.52 192.18 821.58 177.85 833.56 168.06 845.89 182"/><path class="cls-3" d="M868.67,144.25s20.27,12.14,29.17,15.13l9.41,59.93-2.11,155.87s-22,38.49-42.8-1.34c-22.89-43.91-16.45-142-16.45-142Z"/><path class="cls-3" d="M810.67,148.3s-29.37,11.87-33.48,15.57l-2.37,65.58.71,19.9L765.11,376.61s19.61,34.12,32.92-11c16.91-57.28,11.7-108.73,11.7-108.73Z"/><path class="cls-7" d="M878.65,148.08l12.92,6.62-10.4,28.92-16.26,3.95L875,196.85l-29.7,84.41.55-49.39C855.27,195.77,855.65,173.32,878.65,148.08Z"/><path class="cls-7" d="M805.17,145.52l-13.68,8.36L788.92,177l15.1,4.91-12.57,9.37,18.92,92.45.91-45.16C810.7,190.71,817.69,174,805.17,145.52Z"/><polygon class="cls-14" points="834.08 168.16 868.35 139.83 881.01 148.3 856.8 193.5 834.08 168.16"/><path class="cls-14" d="M815.59,138.67l-13.22,8.56L810.72,187l23.37-19.08A69.07,69.07,0,0,1,815.59,138.67Z"/><polygon class="cls-15" points="785.27 314.44 758.32 299.84 727.18 321.54 781.29 321.54 784.98 321.73 785.27 314.44"/><polygon class="cls-15" points="703.1 313.38 681.34 305.79 650.21 327.49 704.32 327.49 708.01 327.68 703.1 313.38"/><rect class="cls-16" x="673.64" y="320.59" width="110.81" height="7.56"/><rect class="cls-17" x="1013.08" y="335.21" width="22.52" height="286.13"/><path class="cls-6" d="M708,602.05v-13.7q105.39-28.54,204.56,0v13.7C846.31,587.51,778.17,587.1,708,602.05Z"/><rect class="cls-5" x="714.03" y="445.5" width="181.06" height="13.47"/><rect class="cls-6" x="795.4" y="458.96" width="20.06" height="118.15"/><rect class="cls-5" x="788.88" y="458.96" width="33.09" height="44.37"/><rect class="cls-8" x="784.61" y="399" width="127.98" height="51.37" rx="22.41"/><rect class="cls-9" x="698.76" y="399" width="120.45" height="51.37" rx="22.81"/><path class="cls-6" d="M151.81,492.09h0a8.78,8.78,0,0,0,8.75-8.75V438.59a8.77,8.77,0,0,0-8.75-8.75h0a8.77,8.77,0,0,0-8.75,8.75v44.75A8.77,8.77,0,0,0,151.81,492.09Z"/><path class="cls-6" d="M297.37,602.05v-13.7q-105.37-28.54-204.56,0v13.7C159.1,587.51,227.23,587.1,297.37,602.05Z"/><rect class="cls-5" x="110.32" y="445.5" width="181.06" height="13.47" transform="translate(401.69 904.46) rotate(180)"/><rect class="cls-6" x="189.94" y="416.79" width="20.06" height="160.32" transform="translate(399.94 993.9) rotate(180)"/><rect class="cls-5" x="183.42" y="427.56" width="33.09" height="75.78" transform="translate(399.94 930.9) rotate(180)"/><rect class="cls-8" x="92.81" y="399" width="127.98" height="51.37" rx="22.41" transform="translate(313.6 849.37) rotate(180)"/><rect class="cls-9" x="186.19" y="399" width="120.45" height="51.37" rx="22.81" transform="translate(492.84 849.37) rotate(180)"/><path class="cls-3" d="M870.12,416.79l-103-1.21L778,356.38l121.77,1.5C899.76,414.5,893.07,416.79,870.12,416.79Z"/><rect class="cls-6" x="557.92" y="344.71" width="24.6" height="276.62"/><rect class="cls-17" x="474.28" y="339.17" width="24.6" height="284.27"/><rect class="cls-17" x="950.31" y="339.17" width="22.52" height="287.91"/><path class="cls-18" d="M686.56,610.35h-88c-1.17-11.89,8.15-21.54,20.82-21.54h67.58Z"/><polygon class="cls-2" points="598.15 614.16 686.26 614.16 686.53 607.53 598.41 607.53 598.15 614.16"/><path class="cls-18" d="M641,588.81l10.7-10h15c4.85,8.19,13.62,7.17,18.54,0h1.22l.61,10Z"/><polygon class="cls-10" points="739.02 588.38 771.52 588.38 771.97 563.75 739.48 563.75 739.02 588.38"/><path class="cls-3" d="M899.22,361.84c-134.13-12.36-169.44,8.85-167.44,113.83l3.14,98.41h41.84s-12-164.08,23.72-164.91c78-1.82,91.09,2.11,91.09,2.11Z"/><path class="cls-13" d="M826.52,192.18l-13,89.08,2,20.63c8.93,13.42,15.79,5.31,22.11-8.41L841,281.26l-2.25-88.82Z"/><polygon class="cls-12" points="781.61 306.58 783 327.68 791 327.68 791 306.58 781.61 306.58"/><path class="cls-7" d="M788.92,305.7s118.49,2.67,106.28-147.33c0,0,34.32,14,28.4,59.64-4.39,33.83-12.35,122.3-134.68,118.24Z"/><rect class="cls-19" x="473.57" y="328.23" width="471.46" height="31.81"/><rect class="cls-17" x="473.57" y="354.72" width="563.85" height="10.6"/><rect class="cls-20" x="945.03" y="328.03" width="92.39" height="26.69"/><path class="cls-3" d="M526.44,614.16V328.89a10,10,0,0,1,10-10h106a9.84,9.84,0,0,1,5.92,2,10,10,0,0,0-7.67-3.61h-106a10,10,0,0,0-10,10V614.16Z"/><path class="cls-21" d="M701.54,328.36H566.73l-10.21-.13L531,233.92c-1.43-5.33,2-9.65,7.64-9.65H677.21s-3.61,4.32-2.17,9.65l22.87,84.79C699.35,324,707.2,328.36,701.54,328.36Z"/><path class="cls-16" d="M677.21,224.27h0c-7.59,0-8.87,4.4-7.26,10.35l27.92,93.55h6.52l-.69-12.73"/><ellipse class="cls-22" cx="610" cy="283.73" rx="11.87" ry="13.2" transform="translate(36.45 635.36) rotate(-56.46)"/><rect class="cls-23" y="614.16" width="1104" height="12.92"/><path class="cls-24" d="M772.44,610.37H696c-1-12.17,7.07-22,18.07-22h58.68Z"/><path class="cls-24" d="M726.32,588.33l10.82-10.22h15.12c4.91,8.38,13.78,7.33,18.75,0h1.23l.62,10.22Z"/><path class="cls-19" d="M695.46,610.6h44.22l.28-7.75c.28-8-4.49-14.52-10.66-14.52H707.43c-6.18,0-11.41,6.5-11.7,14.52Z"/><polygon class="cls-2" points="695.9 614.16 772.13 614.16 772.35 607.15 696.13 607.16 695.9 614.16"/><path class="cls-25" d="M753.06,113.79,724.86,107H584.13c-6.73,0-12.2-4.63-12.2-10.35v-47c0-4.73,4.52-8.56,10.09-8.56H714.67c7,0,12.63,4.8,12.63,10.71V81.57Z"/><path class="cls-22" d="M619.18,57.8H583.76a4.26,4.26,0,0,1-4.25-4.25h0a4.25,4.25,0,0,1,4.25-4.25h35.42a4.25,4.25,0,0,1,4.25,4.25h0A4.25,4.25,0,0,1,619.18,57.8Z"/><path class="cls-9" d="M619.18,94.59H583.76a4.25,4.25,0,0,1-4.25-4.25h0a4.25,4.25,0,0,1,4.25-4.25h35.42a4.25,4.25,0,0,1,4.25,4.25h0A4.25,4.25,0,0,1,619.18,94.59Z"/><path class="cls-22" d="M676.07,76.08H583.76a4.25,4.25,0,0,1-4.25-4.25h0a4.25,4.25,0,0,1,4.25-4.25h92.31a4.25,4.25,0,0,1,4.25,4.25h0A4.25,4.25,0,0,1,676.07,76.08Z"/><path class="cls-22" d="M676.07,57.8H640.65a4.25,4.25,0,0,1-4.25-4.25h0a4.25,4.25,0,0,1,4.25-4.25h35.42a4.25,4.25,0,0,1,4.25,4.25h0A4.25,4.25,0,0,1,676.07,57.8Z"/><path class="cls-22" d="M709.24,57.8h-9.19a4.26,4.26,0,0,1-4.25-4.25h0a4.25,4.25,0,0,1,4.25-4.25h9.19a4.25,4.25,0,0,1,4.25,4.25h0A4.25,4.25,0,0,1,709.24,57.8Z"/><circle class="cls-2" cx="225.94" cy="186.99" r="25.05" transform="translate(-37.73 58.58) rotate(-13.64)"/><circle class="cls-3" cx="147.4" cy="183.19" r="25.05" transform="matrix(0.02, -1, 1, 0.02, -38.76, 326.83)"/><path class="cls-3" d="M238.16,191.15s33.2,29.67,14.6,57.59c-18.48,27.74-14.3,45.58-14.3,45.58l1.32,15.47-63.71-5.08-49-107,25.39-39.4L227.15,162Z"/><path class="cls-2" d="M157.94,241.5c3,2.6,5.69,5.61,9.11,7.67a17.73,17.73,0,0,0,9.5,2.32,72.23,72.23,0,0,0,19.78-3.23,32.47,32.47,0,0,0,7.81-3.07c2.4-1.48.2-5.27-2.21-3.79a22.66,22.66,0,0,1-5.65,2.29,83.34,83.34,0,0,1-8.81,2.19,62.58,62.58,0,0,1-9.15,1.18c-2.78.13-5.3.2-7.77-1-3.71-1.77-6.46-5-9.51-7.69-2.12-1.85-5.23,1.24-3.1,3.1Z"/><path class="cls-4" d="M222.86,171.22c4.56,15.15,11.13,45.54.87,71.83,0,0-30.47-69-64.57-84.36,12.3-7.81,30.06-6.62,51-.24A19.17,19.17,0,0,1,222.86,171.22Z"/><path class="cls-14" d="M223.73,243.05s9.5-20,3.31-54.36l-34.38.82S213.57,218.55,223.73,243.05Z"/><polygon class="cls-4" points="200.38 165.86 199.29 125.06 165.33 106.96 164.38 160.02 200.38 165.86"/><path class="cls-3" d="M260.27,615h6.31l2.81-26.71L281,615h51.32c3.63-7-14.71-12.64-31.43-20.49L279.26,574l-7-13.82-7.47.63c-5.49,3.46-7.2,12.24-7.47,17.49Z"/><path class="cls-26" d="M264.76,560.84s12.85,42.58,36.14,33.65l-18.18-26.36-8.3-21.41Z"/><path class="cls-26" d="M200.85,358.69s132.37,11.61,130,71.15-50.95,145-50.95,145l-12.08-16.44S288,446,287.36,437.33c-1.13-16.11-51.64-9.77-93-9.77C157.84,427.56,200.85,358.69,200.85,358.69Z"/><path class="cls-2" d="M178.74,434.66,288.3,437c.32-19.1,4.16-32.27,40.21-58.6l-80.28-39.24L237.56,337l-6.66-24.51-93,46.6C127,419,147.4,434.67,178.74,434.66Z"/><path class="cls-3" d="M230.21,278.16s13-.17,29.08,65.74h0c-11.59,2.54-16.6,6-22.52-2.24l-7.19-10.32-11.13,19.53a28.74,28.74,0,0,1-31.83,18l-48.74-9.81s8.27-29.8,30.85-86.56Z"/><polygon class="cls-6" points="291.04 337.46 220.67 350.69 247.96 240.09 318.33 226.86 291.04 337.46"/><path class="cls-26" d="M217.53,305.17l13.3-19a3.84,3.84,0,0,1,5-1.89h0a3.77,3.77,0,0,1,2,5l-3.4,7.61A41.47,41.47,0,0,1,246,294.09h0a3.78,3.78,0,0,1,1-.21l22.66-1.2a3.8,3.8,0,0,1,4,3.49,3.69,3.69,0,0,1-3.51,3.88l-19.11,1c0,.08.07.16.11.25a4,4,0,0,1,.77-.13l22.66-1.2a3.8,3.8,0,0,1,4,3.49,3.69,3.69,0,0,1-3.51,3.88l-22.66,1.2h-.07c0,.2,0,.39,0,.58l16.86-.85a3.8,3.8,0,0,1,4,3.49,3.69,3.69,0,0,1-3.52,3.88l-2.75.13a3.63,3.63,0,0,1-2.46,6.2l-17.09.87h0l-21.22,2.33C218.81,325.33,213.86,310.12,217.53,305.17Z"/><path class="cls-7" d="M120.5,178.09s-26.36,67.43-16.82,98.28,117,48.65,117,48.65V300.33s-88.38-12.07-87.42-39.54A150.11,150.11,0,0,1,145,208.13a100.32,100.32,0,0,0,7.81-44.31l-.41-7.84C138.29,154.15,125.22,164.5,120.5,178.09Z"/><rect class="cls-26" x="297.71" y="275.92" width="15.87" height="6.76" rx="3.17" transform="translate(-41.63 53.84) rotate(-9.43)"/><rect class="cls-26" x="296.27" y="282.51" width="15.87" height="6.76" rx="3.17" transform="translate(-42.72 53.69) rotate(-9.43)"/><rect class="cls-26" x="294.52" y="288.88" width="15.87" height="6.76" rx="3.17" transform="translate(-43.79 53.49) rotate(-9.43)"/><rect class="cls-26" x="293.15" y="294.59" width="15.87" height="6.76" rx="3.17" transform="translate(-44.75 53.35) rotate(-9.43)"/><path class="cls-27" d="M237.18,34.23C231.85,30.38,203.05,6,182.91,11.71c-20.53,4-35.62,27.84-38.74,33.71s4.7,38,22.39,74.2c0,0,33.18,23.34,51.72,19.28,3.82-.84,18-22.54,22.41-38.69a18.94,18.94,0,0,0-.43-11l-1.19-8.41s2.26-15.17,2.22-17.54C241,45.45,240.51,36.64,237.18,34.23Z"/><path class="cls-28" d="M200.6,84.13c-.06,4-2.14,7.29-4.65,7.3s-4.49-3.23-4.43-7.26,2.14-7.29,4.65-7.3S200.66,80.1,200.6,84.13Z"/><path class="cls-28" d="M233.33,84.13c-.06,4-2.05,7.29-4.46,7.3s-4.3-3.23-4.24-7.26,2.05-7.29,4.45-7.3S233.38,80.11,233.33,84.13Z"/><path class="cls-29" d="M203.67,70.59s-8.45-3.68-25.1,3.58c0,0,8.81-15,24.87-8.75Z"/><path class="cls-29" d="M222.54,70.12s8.71-2.48,15.9,1.19c1.23.64.94-1.38.94-1.38s-3.81-8.27-16.66-5Z"/><path class="cls-30" d="M214.93,110.39l-12.67,2.69,1.56,4s10.69,7.71,10.56,7.49,7.35-3.22,7.35-3.22,4.75-7.63,4.82-8-.14-2.68-.14-2.68Z"/><path class="cls-22" d="M213.94,112.1l-11.36.43-.19,1.35s1.43,1.31,8.92,2.41c9.81,1.43,15-1.76,15.41-4.88,0,0-6.75-.87-6.93-.86S213.94,112.1,213.94,112.1Z"/><path class="cls-13" d="M203,112.58s4-4.49,14-3c0,0,2.26-2.67,9.76,1.81,0,0-6.51,1.2-9,1.47C213.26,113.35,203,112.58,203,112.58Z"/><path class="cls-13" d="M202.28,113.54s3.86,14.46,14.25,12.92c8.21-1.22,10.14-13.26,10.14-13.26C218.46,131.63,203,116.12,202.28,113.54Z"/><path class="cls-13" d="M226.35,113.89a7.1,7.1,0,0,0,1.94-2.38,1.44,1.44,0,0,0-.83-1.89,1.63,1.63,0,0,0-2,.82l-.21.53c-.12.32,0-.13-.12.19l-.09.12c.16-.16.21-.2.13-.13a.7.7,0,0,1-.16.14c-.63.54,1.28,2.79,1.91,2.26Z"/><path class="cls-13" d="M202.77,112.1c-.11,0-.62-.28-.79-.38a5.55,5.55,0,0,1-1-.89,1.67,1.67,0,0,0-2.21.07,1.39,1.39,0,0,0,0,2,7.07,7.07,0,0,0,3.2,2,1.61,1.61,0,0,0,1.89-1.09,1.45,1.45,0,0,0-1.15-1.72Z"/><path class="cls-1" d="M213.37,9.72s12.77,31.64-24.27,54.83c-33.76,21.14-23.81,35-17.36,47.23s16.68,27.12,16.68,27.12-43.13-18.66-46.14-37.75S167.34,8.61,213.37,9.72Z"/><path class="cls-1" d="M212,18.79l33.06,40.7-7.8-43.84S212.56,6.07,208.13,11,212,18.79,212,18.79Z"/><path class="cls-1" d="M213.37,9.72S183.62-10.92,158,9.5c0,0-24.49,17.88-26.84,48-3.46,44.36-1.52,20.08-1.52,20.08s-9.61,77.6,40.72,93.07c0,0,28,9.43,4.78-35.66-6.85-13.34-23.71-40.15-15.89-55C181.18,38.34,213.37,9.72,213.37,9.72Z"/><path class="cls-31" d="M217.56,104.34c5.15-2.57,7.83-4.73,8-6.41s-2.11-4.27-6.73-7.64c-1.93-1.41-3.76-.05-1.84,1.36a35,35,0,0,1,6.3,5.86c-1.64,2.38-4.67,3.54-7.36,4.89C212.76,104,214.41,105.92,217.56,104.34Z"/><path class="cls-26" d="M786.6,34.25s-1.24,29.43,0,33.83c1.48,5.2-.4,7.72-.4,7.72s-2.34,6.56-.58,16.76c1.18,6.86,5.89,25.35,5.89,25.35,3.69,15.68,24.22,25.9,47.83,10,27.16-18.29,18.52-93,18.52-93S812.2,13.54,786.6,34.25Z"/><path class="cls-11" d="M777.47,33.61c.35,3.08,4.54,12,7.5,11.11h0c32.68-9.92,59.76-9.87,70.51-.78,1.09.93,3.11,2.86,3.15,4.29.61,24.27-4.07,42.87,6.58,56.39h0c7.45-2.72,15.64-10.13,18-17.71,6.74-21.79,11.29-64.17-14.24-66.26-.57,0,0,0,0-.63C868,6.11,858.57,1.34,838,.26,780-2.79,776.16,22,777.47,33.61Z"/><ellipse class="cls-26" cx="864.68" cy="84.71" rx="13.51" ry="8.6" transform="translate(442.62 844.13) rotate(-66.53)"/><path class="cls-27" d="M156.51,98.05c3,6.84,9,10.82,13.31,8.91s5.44-9,2.44-15.84-9-10.82-13.31-8.9S153.51,91.22,156.51,98.05Z"/><path class="cls-22" d="M828.53,104.45l-26,.58a1.39,1.39,0,0,0-1.19,1.79c1.2,4.15,5.12,14.2,15.08,14,8.55-.19,12.15-10.54,13.25-14.69A1.26,1.26,0,0,0,828.53,104.45Z"/><path class="cls-28" d="M803.79,76.87c-.06,4.15-2.06,7.53-4.47,7.54s-4.31-3.34-4.25-7.49,2-7.53,4.46-7.55S803.84,72.72,803.79,76.87Z"/><path class="cls-28" d="M838,76.87c-.06,4.15-2.23,7.53-4.85,7.54s-4.68-3.34-4.61-7.49,2.23-7.53,4.84-7.55S838,72.71,838,76.87Z"/><path class="cls-11" d="M791.47,63.52a54.22,54.22,0,0,1,14.07-.68l-.15-5.46s-11.07-2.6-13.92.71Z"/><path class="cls-11" d="M845.92,63.52a116.2,116.2,0,0,0-22.22-.85L823.38,56s20.62-.59,23.12,4.83Z"/><path class="cls-31" d="M806.81,99.83c-5.31-2.66-8.09-4.89-8.24-6.63s2.17-4.4,6.95-7.88c2-1.45,3.88,0,1.89,1.4a36.19,36.19,0,0,0-6.5,6c1.7,2.47,4.82,3.66,7.6,5.06C811.76,99.46,810.07,101.46,806.81,99.83Z"/></g></g></svg>