<svg xmlns="http://www.w3.org/2000/svg" xmlns:xlink="http://www.w3.org/1999/xlink" viewBox="0 0 243.75 255.14"><defs><style>.cls-1{fill:#adebf6;}.cls-2{clip-path:url(#clip-path);}.cls-12,.cls-13,.cls-3{fill:#fff;}.cls-11,.cls-4,.cls-9{fill:#101111;}.cls-4{opacity:0.15;}.cls-5{fill:#333;}.cls-6{fill:#e7edf2;}.cls-7{fill:#3691ed;}.cls-8{fill:#ff6d3b;}.cls-12,.cls-9{opacity:0.2;}.cls-10{opacity:0.1;}.cls-13{opacity:0.4;}</style><clipPath id="clip-path"><circle class="cls-1" cx="121.88" cy="121.87" r="121.88" transform="translate(-0.24 0.24) rotate(-0.11)"/></clipPath></defs><g id="Layer_2" data-name="Layer 2"><g id="Layer_294" data-name="Layer 294"><circle class="cls-1" cx="121.88" cy="121.87" r="121.88" transform="translate(-0.24 0.24) rotate(-0.11)"/><g class="cls-2"><path class="cls-3" d="M201.16,230.63a10.7,10.7,0,0,0-6.8,2.42,21.72,21.72,0,0,0-28.27-9.15,35.24,35.24,0,0,0-27-25.63,8.18,8.18,0,0,0,.33-2.29,8.26,8.26,0,0,0-8.26-8.26,9.3,9.3,0,0,0-1.07.07v-4.66a5.61,5.61,0,0,0,0-11.22V150.26l-8.2-4.36v0l0,0,0,0v0l-8.2,4.36v6.88a5.61,5.61,0,0,0,0,11.22v19.43a9.28,9.28,0,0,0-1.06-.07,8.26,8.26,0,0,0-8.26,8.26,7.83,7.83,0,0,0,.33,2.29,35.24,35.24,0,0,0-27,25.63,21.72,21.72,0,0,0-28.27,9.15,10.7,10.7,0,0,0-15.78,2.5l88.27,19.59,88.28-19.59A10.7,10.7,0,0,0,201.16,230.63Z"/><path class="cls-3" d="M105.81,71.18A10.89,10.89,0,1,1,116.7,60.29,10.9,10.9,0,0,1,105.81,71.18Z"/><path class="cls-4" d="M105.81,67.14A13.34,13.34,0,0,1,95,61.58a10.89,10.89,0,0,0,21.62,0A13.29,13.29,0,0,1,105.81,67.14Z"/><path class="cls-3" d="M137.5,71.18a10.89,10.89,0,1,1,10.9-10.89A10.9,10.9,0,0,1,137.5,71.18Z"/><path class="cls-4" d="M137.5,67.14a13.32,13.32,0,0,1-10.81-5.56,10.89,10.89,0,0,0,21.62,0A13.31,13.31,0,0,1,137.5,67.14Z"/><path class="cls-5" d="M133.94,127.89h-23.8c0,.24,0,.47,0,.72,0,8.46,1.34,16.11,3.51,21.65h16.8c2.17-5.54,3.51-13.19,3.51-21.65C134,128.36,133.94,128.13,133.94,127.89Z"/><path class="cls-5" d="M143.15,134.28c-4.91,0-9.42-6.39-13.53-6.39.69-5.75,1.12-5.76,2.7-11.13a42.29,42.29,0,0,1,13-19.81,42.37,42.37,0,0,1,12.95,19.81c3.71,12.62,4.47,30.89,4.66,33h-4S153.89,134.28,143.15,134.28Z"/><path class="cls-5" d="M101,134.28c4.91,0,9.41-6.39,13.53-6.39-.7-5.75-1.12-5.76-2.7-11.13A42.37,42.37,0,0,0,98.88,97a42.29,42.29,0,0,0-12.95,19.81c-3.71,12.62-4.47,30.89-4.67,33h4S90.25,134.28,101,134.28Z"/><path class="cls-6" d="M140.12,46c-5.17-27.91-18-43.79-18-43.79h0s-12.86,15.88-18,43.79-6.24,68.31-6.5,73h49.07C146.36,114.29,145.29,73.88,140.12,46Z"/><path class="cls-7" d="M122.08,2.19h0s-6.94,8.57-12.67,24.18h25.35C129,10.76,122.08,2.19,122.08,2.19Z"/><path class="cls-7" d="M146.62,119c-.12-2.11-.39-11-1.08-22.58H98.63c-.7,11.68-1,20.56-1.08,22.62v30.85h5.22v-.06h.44s5.77-18,18.28-18h1.19c12.51,0,18.28,18,18.28,18h.47v.06h5.22V119Z"/><path class="cls-7" d="M135.58,28.68h-27c-.32.94-.65,1.9-1,2.89h28.91C136.23,30.58,135.9,29.62,135.58,28.68Z"/><path class="cls-7" d="M145.17,90.54H99c-.07,1-.13,1.95-.19,2.89h46.55C145.3,92.49,145.24,91.52,145.17,90.54Z"/><path class="cls-8" d="M122.16,50.19a10.1,10.1,0,1,1-10.1,10.1,10.1,10.1,0,0,1,10.1-10.1Zm0-1.59a11.69,11.69,0,1,0,11.68,11.69A11.7,11.7,0,0,0,122.16,48.6Z"/><path class="cls-7" d="M122.16,73A12.74,12.74,0,1,1,134.9,60.29,12.75,12.75,0,0,1,122.16,73Zm0-21.79a9.05,9.05,0,1,0,9.05,9A9.06,9.06,0,0,0,122.16,51.24Z"/><path class="cls-9" d="M133.05,60.35a10.89,10.89,0,0,0-21.78,0v3.88a10.89,10.89,0,0,0,21.78,0Z"/><path class="cls-3" d="M122.16,71.18a10.89,10.89,0,1,1,10.89-10.89A10.9,10.9,0,0,1,122.16,71.18Z"/><path class="cls-4" d="M122.16,67.14a13.31,13.31,0,0,1-10.81-5.56,10.89,10.89,0,0,0,21.62,0A13.31,13.31,0,0,1,122.16,67.14Z"/><g class="cls-10"><path class="cls-11" d="M121.23,131.72c-19.42-.27-22.26-30.1-22.61-35.26-.69,11.63-1,20.48-1.07,22.53v30.85h5.22v-.06h.44s5.62-17.54,17.79-18Z"/><path class="cls-11" d="M146.62,119c-.12-2.1-.39-10.9-1.07-22.46-.36,5.27-3.23,35-22.6,35.23l.23,0c12.16.48,17.78,18,17.78,18h.47v.06h5.22V119Z"/></g><path class="cls-12" d="M128.24,14.91c1.54,3.3,2.07,6.31,1.19,6.71s-2.84-1.93-4.38-5.23-2.07-6.31-1.18-6.72S126.71,11.6,128.24,14.91Z"/><path class="cls-13" d="M139.84,58.53c.86,7.86.77,14.32-.19,14.44s-2.44-6.17-3.3-14-.77-14.33.19-14.44S139,50.67,139.84,58.53Z"/></g></g></g></svg>