<svg xmlns="http://www.w3.org/2000/svg" xmlns:xlink="http://www.w3.org/1999/xlink" viewBox="0 0 1769.23 1372.2"><defs><style>.cls-1,.cls-5{fill:none;}.cls-2{fill:#ccdff2;}.cls-3{clip-path:url(#clip-path);}.cls-4{fill:#a8c0df;}.cls-5{stroke:#a8c0df;stroke-miterlimit:10;stroke-width:13px;}.cls-6{fill:#fff;}.cls-7{fill:#edb28a;}.cls-8{fill:#235c9b;}.cls-9{fill:#6595d2;}.cls-10{fill:#d87b67;}.cls-11{fill:#b62652;}.cls-12{fill:#252542;}.cls-13{fill:#273958;}.cls-14{fill:#9d9d9d;}.cls-15{fill:#e33a67;}.cls-16{fill:#2e6cbc;}.cls-17{fill:#e18f67;}.cls-18{fill:#efb788;}.cls-19{fill:#efd3b9;}.cls-20{fill:#38527e;}</style><clipPath id="clip-path"><path class="cls-1" d="M1133.67,911.76v81.81H938v81.82H742.28v81.81H546.58V1239H350.88v81.81C-7,1320.82-62.8,616.07,473.53,595.61c329-12.56,175.91-310.85,372.79-472.6C1021-20.46,1367.15,26.08,1406.87,262.36c42,249.63,212,163.16,297.42,251.66,65,67.32,104.64,397.74-160.23,397.74Z"/></clipPath></defs><g id="Layer_2" data-name="Layer 2"><g id="Layer_1-2" data-name="Layer 1"><path class="cls-2" d="M1544.06,911.76c264.87,0,225.21-330.42,160.23-397.74-85.44-88.5-255.45-2-297.42-251.66C1367.15,26.08,1021-20.46,846.32,123c-196.88,161.75-43.75,460-372.79,472.6C-62.8,616.07-7,1320.82,350.88,1320.82V1239h195.7V1157.2h195.7v-81.81H938V993.57h195.7V911.76Z"/><path class="cls-2" d="M423.53,156.81c131.28-42.88,119.81-186,261.54-151.5C868.9,50.06,650.27,288.8,566.46,342.8,406.54,445.83,212.27,225.8,423.53,156.81Z"/><g class="cls-3"><path class="cls-4" d="M255.64,1029.1c-15.5,15.51-24.34,33.73-24.61,48,14.22-.28,32.44-9.11,47.94-24.61s24.34-33.73,24.61-48C289.37,1004.77,271.14,1013.6,255.64,1029.1Z"/><path class="cls-4" d="M254.11,1100.4c-21.93,0-41.06,6.64-51.3,16.5,10.24,9.86,29.37,16.5,51.3,16.5s41.05-6.64,51.3-16.5C295.16,1107,276,1100.4,254.11,1100.4Z"/><path class="cls-4" d="M203.1,1159.19c-21.93,0-41.06,6.64-51.3,16.5,10.24,9.86,29.37,16.5,51.3,16.5s41.06-6.64,51.3-16.5C244.16,1165.83,225,1159.19,203.1,1159.19Z"/><path class="cls-4" d="M207.67,1054c0,21.92-6.63,41-16.5,51.3-9.86-10.25-16.49-29.38-16.49-51.3s6.63-41.06,16.49-51.3C201,1012.91,207.67,1032,207.67,1054Z"/><path class="cls-4" d="M148.89,1105c0,21.92-6.64,41-16.5,51.3-9.86-10.25-16.5-29.38-16.5-51.3s6.64-41.06,16.5-51.31C142.25,1063.92,148.89,1083.05,148.89,1105Z"/><polygon class="cls-4" points="231.03 1077.05 76.41 1225.06 83.01 1231.67 231.03 1077.05"/><path class="cls-4" d="M1633.89,629.87c10.35,10.36,22.53,16.26,32,16.44-.18-9.5-6.08-21.67-16.44-32s-22.54-16.26-32-16.44C1617.63,607.33,1623.53,619.51,1633.89,629.87Z"/><path class="cls-4" d="M1681.52,630.89c0,14.65,4.44,27.43,11,34.28,6.59-6.85,11-19.63,11-34.28s-4.43-27.43-11-34.27C1686,603.46,1681.52,616.24,1681.52,630.89Z"/><path class="cls-4" d="M1720.8,665c0,14.65,4.44,27.43,11,34.28,6.58-6.85,11-19.63,11-34.28s-4.44-27.43-11-34.27C1725.24,637.54,1720.8,650.32,1720.8,665Z"/><path class="cls-4" d="M1650.5,661.92c14.65,0,27.43,4.43,34.28,11-6.85,6.59-19.63,11-34.28,11s-27.43-4.44-34.28-11C1623.07,666.35,1635.85,661.92,1650.5,661.92Z"/><path class="cls-4" d="M1684.58,701.19c14.65,0,27.43,4.44,34.28,11-6.85,6.59-19.63,11-34.28,11s-27.43-4.43-34.28-11C1657.15,705.63,1669.93,701.19,1684.58,701.19Z"/><polygon class="cls-4" points="1665.92 646.31 1764.82 749.62 1769.23 745.21 1665.92 646.31"/><path class="cls-4" d="M1161,1102.32c0,121.89-98.81,220.71-220.71,220.71s-220.71-98.82-220.71-220.71,98.82-220.71,220.71-220.71S1161,980.42,1161,1102.32Zm-33,0c0-103.51-84.21-187.71-187.71-187.71s-187.71,84.2-187.71,187.71S836.78,1290,940.28,1290,1128,1205.82,1128,1102.32Z"/><circle class="cls-5" cx="940.28" cy="1102.32" r="263.39"/></g><path class="cls-6" d="M606.3,547.12A149.57,149.57,0,1,1,456.74,397.56,149.56,149.56,0,0,1,606.3,547.12Zm-21,0A128.71,128.71,0,0,0,456.74,418.56c-70.89,0-128.57,57.67-128.57,128.56s57.68,128.56,128.57,128.56A128.71,128.71,0,0,0,585.3,547.12Z"/><path class="cls-6" d="M1261.61,613.22a102,102,0,0,0-182.73-89.06,85.46,85.46,0,0,0-122,77.26,86.6,86.6,0,0,0,.83,11.8Z"/><path class="cls-6" d="M902.69,214.18h-53a71.33,71.33,0,0,0-85.94-58.25,113.51,113.51,0,0,0-217.51,58.25H486a29.3,29.3,0,0,0-29.23,29.2h0A29.3,29.3,0,0,0,486,272.58H902.69a29.3,29.3,0,0,0,29.23-29.2h0A29.3,29.3,0,0,0,902.69,214.18Z"/><path d="M142.7,981.82a2.32,2.32,0,0,1-.89-4.46l66.35-27.74a2.32,2.32,0,0,1,1.8,4.28L143.6,981.64A2.19,2.19,0,0,1,142.7,981.82Z"/><path d="M250.35,936.82a2.32,2.32,0,0,1-.89-4.47l74.33-31.07a2.32,2.32,0,0,1,1.79,4.29l-74.33,31.07A2.37,2.37,0,0,1,250.35,936.82Z"/><path d="M95.83,1063.08a2.32,2.32,0,0,1-.89-4.47l160.44-67.07a2.33,2.33,0,0,1,1.8,4.29L96.73,1062.9A2.37,2.37,0,0,1,95.83,1063.08Z"/><path d="M256.28,1159.65a2.33,2.33,0,0,1-.9-4.47l101.79-42.56a2.33,2.33,0,0,1,1.8,4.29l-101.79,42.56A2.41,2.41,0,0,1,256.28,1159.65Z"/><path d="M2.33,1040.51a2.32,2.32,0,0,1-.9-4.47l125-52.27a2.33,2.33,0,0,1,1.8,4.29l-125,52.27A2.36,2.36,0,0,1,2.33,1040.51Z"/><path d="M115.18,1251.39a2.32,2.32,0,0,1-.9-4.47l269-112.47a2.32,2.32,0,1,1,1.8,4.28L116.07,1251.21A2.36,2.36,0,0,1,115.18,1251.39Z"/><path class="cls-7" d="M759.19,737.26l7.77-8s.24-6.06,1.13-7.81C770,717.8,775.93,709,780,709.93c1.92.45,3.35,7.11,3.35,7.11s10-10.4,14.2-9.71c5.58.92,17.64,16.79,15.44,23.46-1.77,5.37-39.67,22.45-39.67,22.45Z"/><path class="cls-8" d="M598.1,732.14c23.68-23.09,86.82,40.65,86.82,40.65s47.54-13.46,72.35-37.26l20.79,18.77s-66.79,51.07-92.56,51C664.51,805.25,567.14,762.33,598.1,732.14Z"/><polygon class="cls-9" points="758.75 730.4 781.42 755.37 769.54 768.41 745.12 739.69 758.75 730.4"/><rect class="cls-7" x="583.56" y="685.23" width="63.57" height="36.9" transform="translate(-216.41 1130.3) rotate(-75.99)"/><path class="cls-10" d="M640.94,677.3,632.78,710c-23.18-11.2-19.48-38.85-19.38-39.54Z"/><path class="cls-7" d="M643.52,692.49h0a32.54,32.54,0,0,1-39.31-23.61l-3.79-15.19A32.52,32.52,0,0,1,624,614.37h0A32.54,32.54,0,0,1,663.36,638l3.79,15.18A32.53,32.53,0,0,1,643.52,692.49Z"/><path class="cls-11" d="M658.86,671.58s-3.29.12-12.16,0c-6.64-.09,1,9,6.83,7.5S658.86,671.58,658.86,671.58Z"/><path class="cls-12" d="M612.94,651.1,596,610c-19.36,18.45-11.68,49.5-49,61.57S481.9,697,512.33,730.4c31,34.05,53-14.39,79.75-26.72S612.94,651.1,612.94,651.1Z"/><path class="cls-7" d="M617.66,673h0a10.85,10.85,0,0,1-13.1-7.87l-.19-.76a10.85,10.85,0,0,1,7.88-13.11h0a7.65,7.65,0,0,1,9.25,5.55l1.73,6.94A7.66,7.66,0,0,1,617.66,673Z"/><path class="cls-12" d="M596,610l16.94,41.09s6.26-1.17,8.55,5.69c3.21,9.69-6.15,25.39-6.15,25.39l2.82-.9s19.5-34.1,13.85-46.53l5.4,3.43,5.5.25-2-13.5,7.47,11.25a24.59,24.59,0,0,0,16.75-6.5C662.66,595.68,615.36,591.56,596,610Z"/><path class="cls-12" d="M519.16,673.58a2,2,0,0,1-.44-4l2.85-.64c17.54-3.91,31.4-7,43.46-18.51,4.74-4.53,7.3-8.79,10.26-13.74,4.85-8.09,10.35-17.26,26.92-30.8a2,2,0,0,1,2.53,3.1c-16,13.1-21.33,22-26,29.76-3,5-5.8,9.67-10.93,14.57-12.86,12.29-27.2,15.48-45.35,19.53l-2.84.63A2.28,2.28,0,0,1,519.16,673.58Z"/><path class="cls-13" d="M369,940.28,320.63,892a29.76,29.76,0,0,1,0-42.1l29.42-29.39a15.79,15.79,0,0,1,22.32,0l68.09,68a15.77,15.77,0,0,1,0,22.32L411,940.28A29.76,29.76,0,0,1,369,940.28Z"/><path class="cls-12" d="M421.29,931.53,329.35,839.7l26.18-26.15a7,7,0,0,1,9.86,0l82.06,82a7,7,0,0,1,0,9.86Z"/><path d="M435.19,858.65,422.86,871,390,838.12l12.33-12.32a5.83,5.83,0,0,1,8.22,0l24.66,24.64A5.8,5.8,0,0,1,435.19,858.65Zm-16.44,8.21,12.33-12.31-24.66-24.64-12.33,12.32Z"/><path class="cls-14" d="M366.42,904.36l-9.87-9.85a4.65,4.65,0,0,1,0-6.57l15.62-15.6a4.64,4.64,0,0,1,6.57,0l9.87,9.85a4.64,4.64,0,0,1,0,6.57L373,904.36A4.64,4.64,0,0,1,366.42,904.36Zm3.28-8.21,10.69-10.67-4.93-4.93-10.69,10.67Z"/><path class="cls-7" d="M440.8,1081.05l-12.43-19.15s-25.88,21.46-38.2,24.66-5,17.33,1.87,26c6.41,8.16,25.82,44.79,30,46.86s14.15-2,7.77-16.45c-4.24-9.58-10.14-23.36-6.33-37C425.44,1099.07,430.06,1086.84,440.8,1081.05Z"/><path class="cls-15" d="M427.5,1137.58c-8.34,10.56-29.55-41.26-28.68-55.09,0,0-3.2-4.47-14.38,4.79s-.27,21.51,5.77,30.73c2.51,3.82,22.74,38.51,28.16,40.75C432.28,1165,436.89,1152.19,427.5,1137.58Z"/><path class="cls-12" d="M515.25,877.1c-24.09,42.59-18.59,126.2-18.59,126.2l-72.16,60,12.48,22,100.88-60,45.92-125Z"/><path class="cls-7" d="M636.5,1092.18H613.66s3.9,33.39-.13,45.46,11.83,13.61,22.87,12.61c10.33-.92,51.62,2.75,55.64.35s6-13-9.56-15.47c-10.35-1.67-25.12-4.22-34.48-14.85C643.24,1114.88,635.5,1104.34,636.5,1092.18Z"/><path class="cls-15" d="M676.65,1134.12c4.32,12.75-50.69,2.32-61.82-5.95,0,0-5.49.25-3.81,14.67s17.89,11.94,28.91,11.89c4.58,0,44.69,1.91,49.51-1.41C702.29,1145.07,694,1134.2,676.65,1134.12Z"/><path class="cls-13" d="M638.26,955.34c-7.1-12.55-57.36-47.18-57.36-47.18l10-26.48-65.25-25.25s-17.95,12.48-20.36,17.75c-31.15,68.16,25,84.41,90.67,111.74l16.29,108.82h25S641.75,961.51,638.26,955.34Z"/><path class="cls-16" d="M594.62,710.5s20.78,3.74,35.89,14.77S606.3,894.88,606.3,894.88s-90.72-9.08-114-40.43C543.34,799.68,584.26,719,594.62,710.5Z"/><path class="cls-8" d="M606.3,753.08c-10.29,19.5-63.85,36.84-63.85,36.84l34.74-54.31Z"/><path class="cls-9" d="M622.09,822.09l-1.58-68.85L627,741.58l-8.83,2.5-30-25.73a50.25,50.25,0,0,1,6.43-7.85s20.78,3.74,35.89,14.77C637.94,730.7,631,776.7,622.09,822.09Z"/><polygon class="cls-7" points="439.2 802.21 457.84 822.48 436.91 844.47 415.84 825.04 439.2 802.21"/><path class="cls-16" d="M610.89,735.32c-12.13-27.74-102.09,4.37-102.09,4.37l-76.61,61.76,25.45,27.08,65.11-60.12S626,769.87,610.89,735.32Z"/><path class="cls-7" d="M418.8,820.47l22.72,21.2s-11.2,14.53-15.27,12.6-24.53-15.8-20.07-21S418.8,820.47,418.8,820.47Z"/><polygon class="cls-9" points="429.97 802.52 455 829.93 469.56 821.95 437.26 790.33 429.97 802.52"/><path class="cls-9" d="M565.16,864.17c24-2.06,40.5-19.44,40.5-19.44Z"/><path class="cls-12" d="M1727.48,821.23c18,20.76,29.47,48.49,31.84,81-47.08-68.81-156.55-73.94-156.55-73.94C1690.15,800.66,1727.48,821.23,1727.48,821.23Z"/><path class="cls-9" d="M1727.48,821.23c-26.93-19.93-121.59,89-211.13,81-18.73-1.67-30.51-12.4-48-25.46C1573.17,765.17,1674.72,760.5,1727.48,821.23Z"/><path class="cls-4" d="M1497,905.69a3,3,0,0,1-2.46-4.72c.79-1.13,19.69-27.93,54.62-53.07,32.31-23.24,84.85-49.11,151.68-40.35a3,3,0,1,1-.78,6c-64.81-8.5-115.83,16.6-147.22,39.15-34.17,24.54-53.19,51.48-53.38,51.75A3,3,0,0,1,1497,905.69Z"/><path class="cls-4" d="M1630.08,816.75a3,3,0,0,1-2.35-4.86c.59-.75,14.75-18.56,32.87-20.37a3,3,0,1,1,.59,6c-15.6,1.56-28.61,17.94-28.74,18.11A3,3,0,0,1,1630.08,816.75Z"/><path class="cls-4" d="M1642.12,836.17c-14.18,0-33.66-2.69-43.29-11.06a3,3,0,0,1,3.94-4.53c10.35,9,37.12,10.65,49.2,9a3,3,0,0,1,.8,6A83.68,83.68,0,0,1,1642.12,836.17Z"/><path class="cls-4" d="M1566.91,842.73h-.31a3,3,0,0,1-2.68-3.29,49.93,49.93,0,0,1,24.14-37.95,3,3,0,0,1,2.81,5.3,43.84,43.84,0,0,0-21,33.26A3,3,0,0,1,1566.91,842.73Z"/><path class="cls-4" d="M1565.84,869.76c-11.79,0-24.59-1.47-30.26-7.14a3,3,0,1,1,4.23-4.24c7.69,7.67,38.15,5.31,49.24,3.76a3,3,0,1,1,.83,5.94A188.24,188.24,0,0,1,1565.84,869.76Z"/><path class="cls-16" d="M1401,853.33c21.92-113.64,129.85-126.42,223.44-168,0,0,7.17,146-139.72,216.92Z"/><path class="cls-9" d="M1558.52,761.7a2.85,2.85,0,0,1-.64-.07,3,3,0,0,1-2.3-3.56l8.16-38a3,3,0,0,1,5.87,1.26l-8.16,38A3,3,0,0,1,1558.52,761.7Z"/><path class="cls-9" d="M1516.57,796.81a3,3,0,0,1-.62-5.94l70.69-15a3,3,0,1,1,1.25,5.87l-70.69,15A2.7,2.7,0,0,1,1516.57,796.81Z"/><path class="cls-9" d="M1479.87,831.64a3,3,0,0,1-3-3V767.17a3,3,0,0,1,6,0v61.47A3,3,0,0,1,1479.87,831.64Z"/><path class="cls-9" d="M1624.5,690.89c-24.16,37.38-56,63.73-86.88,89.24-31.48,26-61.21,50.62-80.87,85a3,3,0,0,1-4.09,1.12,3,3,0,0,1-1.12-4.1c20.2-35.3,50.35-60.23,82.26-86.61,30.53-25.25,62.07-51.33,85.75-88l4.91-2.15S1624.56,687.31,1624.5,690.89Z"/><path class="cls-12" d="M1036.27,821.23c-18,20.76-29.47,48.49-31.84,81,47.09-68.81,156.56-73.94,156.56-73.94C1073.61,800.66,1036.27,821.23,1036.27,821.23Z"/><path class="cls-9" d="M1036.27,821.23c26.94-19.93,121.6,89,211.14,81,18.73-1.67,30.51-12.4,48-25.46C1190.59,765.17,1089,760.5,1036.27,821.23Z"/><path class="cls-4" d="M1266.79,905.69a3,3,0,0,0,2.46-4.72c-.79-1.13-19.69-27.93-54.63-53.07-32.3-23.24-84.85-49.11-151.67-40.35a3,3,0,1,0,.78,6c64.8-8.5,115.83,16.6,147.22,39.15,34.17,24.54,53.19,51.48,53.37,51.75A3,3,0,0,0,1266.79,905.69Z"/><path class="cls-4" d="M1133.67,816.75a3,3,0,0,0,2.36-4.86c-.59-.75-14.75-18.56-32.87-20.37a3,3,0,1,0-.59,6c15.59,1.56,28.61,17.94,28.74,18.11A3,3,0,0,0,1133.67,816.75Z"/><path class="cls-4" d="M1121.63,836.17c14.18,0,33.66-2.69,43.3-11.06a3,3,0,0,0-3.94-4.53c-10.35,9-37.12,10.65-49.21,9a3,3,0,1,0-.79,6A83.63,83.63,0,0,0,1121.63,836.17Z"/><path class="cls-4" d="M1196.85,842.73h.31a3,3,0,0,0,2.68-3.29,49.93,49.93,0,0,0-24.14-37.95,3,3,0,0,0-2.82,5.3,43.84,43.84,0,0,1,21,33.26A3,3,0,0,0,1196.85,842.73Z"/><path class="cls-4" d="M1197.92,869.76c11.79,0,24.59-1.47,30.26-7.14a3,3,0,1,0-4.24-4.24c-7.68,7.67-38.14,5.31-49.23,3.76a3,3,0,1,0-.83,5.94A188.06,188.06,0,0,0,1197.92,869.76Z"/><path class="cls-16" d="M1362.73,853.33c-21.93-113.64-129.85-126.42-223.44-168,0,0-7.17,146,139.72,216.92Z"/><path class="cls-9" d="M1205.24,761.7a2.7,2.7,0,0,0,.63-.07,3,3,0,0,0,2.31-3.56l-8.17-38a3,3,0,0,0-5.86,1.26l8.16,38A3,3,0,0,0,1205.24,761.7Z"/><path class="cls-9" d="M1247.19,796.81a3,3,0,0,0,.62-5.94l-70.69-15a3,3,0,1,0-1.25,5.87l70.69,15A2.7,2.7,0,0,0,1247.19,796.81Z"/><path class="cls-9" d="M1283.89,831.64a3,3,0,0,0,3-3V767.17a3,3,0,1,0-6,0v61.47A3,3,0,0,0,1283.89,831.64Z"/><path class="cls-9" d="M1139.26,690.89c24.16,37.38,56,63.73,86.88,89.24,31.48,26,61.21,50.62,80.87,85a3,3,0,0,0,4.09,1.12,3,3,0,0,0,1.12-4.1c-20.2-35.3-50.35-60.23-82.26-86.61-30.53-25.25-62.07-51.33-85.75-88l-4.91-2.15S1139.2,687.31,1139.26,690.89Z"/><path class="cls-17" d="M1460.35,412.2h73.53a61.53,61.53,0,0,0,60.17-48.53h94.16v50.86c0,130.84-106.18,236.9-237.16,236.9h0ZM1485,616.1c96.73-16.2,170.66-100.42,170.66-201.57V396.19h-39.48a94.71,94.71,0,0,1-82.3,48.53h-42.22Z"/><path class="cls-18" d="M1236,363.67h291.8a0,0,0,0,1,0,0V539.53A145.82,145.82,0,0,1,1382,685.35h-.16A145.82,145.82,0,0,1,1236,539.53V363.67A0,0,0,0,1,1236,363.67Z"/><rect class="cls-17" x="1356.88" y="671.9" width="49.99" height="122.61"/><path class="cls-18" d="M1312.71,651.43h0c-131,0-237.17-106.06-237.17-236.9V363.67h94.17a61.53,61.53,0,0,0,60.16,48.53h73.54Zm-40.62-206.71h-42.22a94.7,94.7,0,0,1-82.29-48.53H1108.1v18.34c0,101.15,73.93,185.37,170.66,201.57Z"/><rect class="cls-18" x="1219.7" y="851.41" width="324.35" height="60.39"/><path class="cls-17" d="M1299.3,818.9h165.15A32.52,32.52,0,0,1,1497,851.41v0a0,0,0,0,1,0,0H1266.79a0,0,0,0,1,0,0v0a32.52,32.52,0,0,1,32.52-32.52Z"/><rect class="cls-18" x="1318.52" y="794.51" width="126.72" height="24.39"/><ellipse class="cls-19" cx="1381.88" cy="514.06" rx="94.89" ry="94.79"/><path class="cls-17" d="M1415.56,576.42H1348.2V563.73h25.91V480.41H1348.2V469.06a77.68,77.68,0,0,0,11.28-.88,28.19,28.19,0,0,0,9.11-2.55,15.3,15.3,0,0,0,8.61-13.94h13v112h25.41Z"/><path class="cls-17" d="M1527.78,363.67V539.53A145.83,145.83,0,0,1,1382,685.35h-.16a145.5,145.5,0,0,1-113.41-54.16C1349,672.08,1490,654.08,1490,529.08V363.67Z"/><path class="cls-4" d="M140.38,793.51a37.36,37.36,0,1,1,37.36-37.36A37.4,37.4,0,0,1,140.38,793.51Zm0-65A27.64,27.64,0,1,0,168,756.15,27.67,27.67,0,0,0,140.38,728.51Z"/><path class="cls-4" d="M140.38,774.52a18.37,18.37,0,1,1,18.37-18.37A18.39,18.39,0,0,1,140.38,774.52Z"/><path class="cls-6" d="M771.79,564.87a37.36,37.36,0,1,1,37.36-37.36A37.4,37.4,0,0,1,771.79,564.87Zm0-65a27.64,27.64,0,1,0,27.63,27.64A27.67,27.67,0,0,0,771.79,499.87Z"/><path class="cls-6" d="M771.79,545.88a18.37,18.37,0,1,1,18.37-18.37A18.4,18.4,0,0,1,771.79,545.88Z"/><path class="cls-4" d="M220.69,595.64a18.38,18.38,0,1,1,18.37-18.37A18.39,18.39,0,0,1,220.69,595.64Z"/><path class="cls-6" d="M807.55,374.55a15.9,15.9,0,1,1,15.9-15.9A15.93,15.93,0,0,1,807.55,374.55Z"/><path class="cls-4" d="M1416.46,337.83a18.38,18.38,0,1,1,18.37-18.37A18.39,18.39,0,0,1,1416.46,337.83Z"/><path class="cls-18" d="M1312.71,290.58a18.37,18.37,0,1,1,18.37-18.37A18.39,18.39,0,0,1,1312.71,290.58Z"/><path class="cls-4" d="M1349.72,203.08a12,12,0,1,1,12-12A12,12,0,0,1,1349.72,203.08Z"/><path class="cls-18" d="M1476.88,277.84a12,12,0,1,1,12-12A12,12,0,0,1,1476.88,277.84Z"/><polygon class="cls-18" points="1427.86 72.36 1433.88 90.87 1453.34 90.87 1437.59 102.31 1443.61 120.81 1427.86 109.37 1412.12 120.81 1418.13 102.31 1402.39 90.87 1421.85 90.87 1427.86 72.36"/><polygon class="cls-15" points="866.35 321.62 886.69 347.17 1023.94 347.17 866.35 321.62"/><polygon class="cls-12" points="876.81 399.43 1023.94 347.17 886.69 347.17 876.81 399.43"/><polygon class="cls-11" points="876.81 399.43 893.67 369.47 1023.94 347.17 876.81 399.43"/><polygon class="cls-15" points="1023.94 347.17 893.67 369.47 916.05 401.99 1023.94 347.17"/><path class="cls-20" d="M376.86,713a3.5,3.5,0,0,1-2.18-6.23c2.32-1.86,4.66-3.75,6.94-5.64a3.5,3.5,0,1,1,4.46,5.4c-2.31,1.91-4.68,3.83-7,5.71A3.53,3.53,0,0,1,376.86,713Z"/><path class="cls-20" d="M397.36,695.78a3.5,3.5,0,0,1-2.32-6.12c4.43-3.92,8.81-7.92,13-11.9a3.49,3.49,0,1,1,4.81,5.07c-4.26,4-8.69,8.11-13.18,12.07A3.51,3.51,0,0,1,397.36,695.78Zm25.74-24.44a3.49,3.49,0,0,1-2.5-5.94c4.12-4.22,8.18-8.53,12.07-12.83a3.5,3.5,0,1,1,5.19,4.69c-3.95,4.37-8.07,8.75-12.25,13A3.51,3.51,0,0,1,423.1,671.34ZM446.89,645a3.51,3.51,0,0,1-2.7-5.74c3.77-4.52,7.45-9.16,10.95-13.77a3.5,3.5,0,0,1,5.58,4.23c-3.57,4.7-7.32,9.41-11.14,14A3.5,3.5,0,0,1,446.89,645Zm21.45-28.27a3.5,3.5,0,0,1-2.87-5.49c3.34-4.84,6.58-9.78,9.64-14.7a3.5,3.5,0,0,1,5.95,3.7c-3.12,5-6.43,10-9.83,15A3.52,3.52,0,0,1,468.34,616.73ZM487.1,586.6a3.5,3.5,0,0,1-3.06-5.2c2.85-5.12,5.6-10.35,8.17-15.57a3.5,3.5,0,1,1,6.28,3.1c-2.62,5.32-5.43,10.66-8.33,15.87A3.51,3.51,0,0,1,487.1,586.6Zm15.7-31.83a3.39,3.39,0,0,1-1.38-.29,3.49,3.49,0,0,1-1.83-4.6c2.32-5.35,4.52-10.84,6.56-16.3a3.5,3.5,0,1,1,6.56,2.45c-2.08,5.57-4.33,11.16-6.69,16.63A3.5,3.5,0,0,1,502.8,554.77Zm12.41-33.25a3.52,3.52,0,0,1-3.33-4.56c1.75-5.56,3.39-11.24,4.88-16.89a3.5,3.5,0,1,1,6.77,1.78c-1.51,5.76-3.19,11.55-5,17.22A3.51,3.51,0,0,1,515.21,521.52Zm-14.67-31.8q-3,0-6-.05a3.5,3.5,0,0,1,.07-7h.07c1.93,0,3.87.05,5.83.05h.08c3.79,0,7.71-.07,11.66-.2a3.5,3.5,0,1,1,.24,7c-4,.14-8,.21-11.9.21Zm-23.64-1h-.3c-6.19-.53-12.21-1.29-17.9-2.25a3.5,3.5,0,1,1,1.17-6.9c5.5.93,11.33,1.66,17.33,2.18a3.5,3.5,0,0,1-.3,7Zm53.24-.28a3.49,3.49,0,0,1-3.33-2.43,3.5,3.5,0,0,1-6-3.09c1.2-5.67,2.28-11.49,3.22-17.29a3.5,3.5,0,1,1,6.91,1.12c-.83,5.14-1.78,10.28-2.81,15.33a3.48,3.48,0,0,1,1.74-.62c5.7-.47,11.6-1.06,17.54-1.78a3.5,3.5,0,1,1,.84,7c-6,.73-12,1.33-17.82,1.8Zm35.28-4.23a3.5,3.5,0,0,1-.53-7c5.68-.88,11.53-1.89,17.41-3a3.5,3.5,0,1,1,1.28,6.88c-5.94,1.12-11.87,2.13-17.62,3A3.27,3.27,0,0,1,565.42,484.24ZM442,482.71a3.43,3.43,0,0,1-.94-.13,138.05,138.05,0,0,1-17.19-6,3.5,3.5,0,0,1,2.76-6.44,130,130,0,0,0,16.31,5.69,3.5,3.5,0,0,1-.94,6.87Zm158.4-5a3.5,3.5,0,0,1-.74-6.92c5.67-1.23,11.47-2.56,17.24-4a3.5,3.5,0,1,1,1.65,6.8c-5.83,1.42-11.69,2.76-17.41,4A3.81,3.81,0,0,1,600.35,477.72Zm34.56-8.39a3.5,3.5,0,0,1-.91-6.88c5.63-1.51,11.36-3.12,17-4.78a3.5,3.5,0,0,1,2,6.72c-5.73,1.68-11.52,3.3-17.19,4.82A3.61,3.61,0,0,1,634.91,469.33Zm-225.38-.76a3.45,3.45,0,0,1-1.9-.56,89.11,89.11,0,0,1-14.38-11.54,3.5,3.5,0,1,1,4.93-5,83.51,83.51,0,0,0,13.25,10.63,3.49,3.49,0,0,1-1.9,6.43ZM669,459.35a3.5,3.5,0,0,1-1-6.84c5.6-1.77,11.26-3.63,16.81-5.52a3.5,3.5,0,1,1,2.26,6.62c-5.6,1.91-11.31,3.79-17,5.58A3.54,3.54,0,0,1,669,459.35Zm-139.08-7.22-.42,0a3.49,3.49,0,0,1-3.06-3.88c.67-5.72,1.24-11.62,1.69-17.54a3.5,3.5,0,1,1,7,.54c-.46,6-1,12-1.72,17.82A3.5,3.5,0,0,1,529.94,452.13Zm172.73-4.25a3.5,3.5,0,0,1-1.2-6.79c5.58-2,11.14-4.14,16.55-6.26a3.5,3.5,0,1,1,2.55,6.52c-5.45,2.13-11.07,4.26-16.7,6.32A3.57,3.57,0,0,1,702.67,447.88Zm-318-4.2a3.48,3.48,0,0,1-3-1.64,85.26,85.26,0,0,1-8.05-16.6,3.5,3.5,0,1,1,6.58-2.37,78.73,78.73,0,0,0,7.39,15.24,3.51,3.51,0,0,1-1.09,4.83A3.46,3.46,0,0,1,384.65,443.68Zm351.12-8.79a3.5,3.5,0,0,1-1.37-6.72c5.58-2.36,11-4.74,16.19-7.1a3.5,3.5,0,1,1,2.91,6.36c-5.23,2.39-10.73,4.81-16.38,7.19A3.57,3.57,0,0,1,735.77,434.89Zm32.31-14.81a3.5,3.5,0,0,1-1.58-6.63c5.65-2.84,10.86-5.63,15.5-8.3a3.5,3.5,0,0,1,3.49,6.07c-4.75,2.73-10.08,5.59-15.84,8.48A3.4,3.4,0,0,1,768.08,420.08Zm-235.4-3.36h-.15a3.5,3.5,0,0,1-3.35-3.64c.23-5.66.37-11.44.44-17.65a3.51,3.51,0,0,1,3.5-3.46h0a3.48,3.48,0,0,1,3.46,3.54c-.07,6.28-.21,12.12-.45,17.86A3.49,3.49,0,0,1,532.68,416.72ZM372.52,410.6a3.51,3.51,0,0,1-3.45-2.93,129.5,129.5,0,0,1-1.61-18.16,3.51,3.51,0,0,1,3.44-3.57H371a3.49,3.49,0,0,1,3.5,3.43A121.14,121.14,0,0,0,376,406.53a3.5,3.5,0,0,1-2.88,4A3.9,3.9,0,0,1,372.52,410.6Zm160.16-29.38a3.5,3.5,0,0,1-3.47-3.12,77.13,77.13,0,0,0-3.69-16.55,3.5,3.5,0,1,1,6.62-2.27,83.6,83.6,0,0,1,4,18.05,3.48,3.48,0,0,1-3.09,3.86Zm-160.38-6a3.55,3.55,0,0,1-.64-.06,3.5,3.5,0,0,1-2.8-4.08,84.25,84.25,0,0,1,5.36-17.7,3.5,3.5,0,1,1,6.43,2.76,77.23,77.23,0,0,0-4.91,16.22A3.5,3.5,0,0,1,372.3,375.27Zm149-27.39a3.49,3.49,0,0,1-3-1.67A77.85,77.85,0,0,0,507.9,332.8a3.5,3.5,0,0,1,5-4.86,85.1,85.1,0,0,1,11.32,14.61,3.5,3.5,0,0,1-3,5.33Zm-135.13-5a3.51,3.51,0,0,1-2.84-5.55,84.83,84.83,0,0,1,12.37-13.73,3.5,3.5,0,0,1,4.66,5.22A78.49,78.49,0,0,0,389,341.43,3.49,3.49,0,0,1,386.15,342.89Zm110.64-20.35a3.46,3.46,0,0,1-1.93-.58,77.78,77.78,0,0,0-15.07-7.75,3.5,3.5,0,0,1,2.5-6.54,84.92,84.92,0,0,1,16.44,8.46,3.5,3.5,0,0,1-1.94,6.41Zm-84.35-3.12a3.5,3.5,0,0,1-1.72-6.55,84.5,84.5,0,0,1,17-7.22,3.5,3.5,0,1,1,2,6.71A78.16,78.16,0,0,0,414.14,319,3.41,3.41,0,0,1,412.44,319.42ZM463.89,310a3.08,3.08,0,0,1-.51,0,79.39,79.39,0,0,0-16.95-.62,3.5,3.5,0,0,1-.5-7,86.43,86.43,0,0,1,18.47.68,3.5,3.5,0,0,1-.51,7Z"/><path class="cls-20" d="M798.8,402a3.5,3.5,0,0,1-2.08-6.31,53.38,53.38,0,0,0,6.42-5.45,3.5,3.5,0,1,1,5,4.87,59.24,59.24,0,0,1-7.28,6.2A3.42,3.42,0,0,1,798.8,402Z"/><path class="cls-13" d="M546.58,1241.54a2.5,2.5,0,0,1-2.5-2.5v-81.81a2.5,2.5,0,0,1,2.5-2.5h245.3a2.5,2.5,0,1,1,0,5H549.08V1239A2.5,2.5,0,0,1,546.58,1241.54Z"/><path class="cls-13" d="M742.28,1159.73a2.5,2.5,0,0,1-2.5-2.5v-81.81a2.5,2.5,0,0,1,2.5-2.5h245.3a2.5,2.5,0,0,1,0,5H744.78v79.31A2.5,2.5,0,0,1,742.28,1159.73Z"/><path class="cls-13" d="M938,1077.92a2.5,2.5,0,0,1-2.5-2.5V993.61a2.5,2.5,0,0,1,2.5-2.5h245.3a2.5,2.5,0,0,1,0,5H940.47v79.31A2.49,2.49,0,0,1,938,1077.92Z"/><path class="cls-13" d="M1133.67,996.11a2.5,2.5,0,0,1-2.5-2.5V911.8a2.5,2.5,0,0,1,2.5-2.5h410.39a2.5,2.5,0,0,1,0,5H1136.17v79.31A2.5,2.5,0,0,1,1133.67,996.11Z"/><path class="cls-13" d="M350.88,1323.35a2.49,2.49,0,0,1-2.5-2.5V1239a2.5,2.5,0,0,1,2.5-2.5h245.3a2.5,2.5,0,0,1,0,5H353.38v79.31A2.49,2.49,0,0,1,350.88,1323.35Z"/></g></g></svg>