<svg xmlns="http://www.w3.org/2000/svg" xmlns:xlink="http://www.w3.org/1999/xlink" viewBox="0 0 590.57 451.88"><defs><style>.cls-1{fill:none;}.cls-2{isolation:isolate;}.cls-3{fill:#e0fcf7;}.cls-16,.cls-4{fill:#ffaa21;}.cls-35,.cls-5{fill:#fff;}.cls-6{fill:#87d4ff;}.cls-7{fill:#225d6b;}.cls-12,.cls-16,.cls-18,.cls-21,.cls-22,.cls-23,.cls-25,.cls-29,.cls-32,.cls-38,.cls-39,.cls-40,.cls-42,.cls-43,.cls-44,.cls-8{mix-blend-mode:multiply;}.cls-8{fill:url(#linear-gradient);}.cls-12,.cls-9{fill:#fdc8a8;}.cls-10{fill:url(#linear-gradient-2);}.cls-11{fill:#0f3871;}.cls-13{fill:#fbda70;}.cls-14{fill:#d33c59;}.cls-15{fill:#ffd685;}.cls-17{fill:#f9dcc3;}.cls-18{fill:#ddc6ac;}.cls-19{fill:#3d5b69;}.cls-20,.cls-23{fill:#7189ad;}.cls-21{fill:url(#linear-gradient-3);}.cls-24{fill:#bcbcbc;}.cls-25{fill:#ccd9f2;}.cls-26{fill:#358dff;}.cls-27{clip-path:url(#clip-path);}.cls-28{fill:#f2ebdd;}.cls-29{fill:#f48baa;}.cls-30{fill:#d3c6ae;}.cls-31{fill:#83a1b7;}.cls-32,.cls-33{fill:#22a2ff;}.cls-34{fill:#a9e1ea;opacity:0.55;}.cls-35{opacity:0.77;}.cls-36{fill:#b5cee5;}.cls-37{fill:#e5a67c;}.cls-38{fill:#aacaf9;}.cls-39{fill:url(#linear-gradient-4);}.cls-40{fill:url(#linear-gradient-5);}.cls-41{fill:#fdc9a3;}.cls-42{fill:url(#linear-gradient-6);}.cls-43{fill:#c591a5;}.cls-44{fill:#db967f;}.cls-45{fill:#bac8e2;}</style><linearGradient id="linear-gradient" x1="16.09" y1="403.31" x2="130.78" y2="403.31" gradientUnits="userSpaceOnUse"><stop offset="0" stop-color="#fff"/><stop offset="0.35" stop-color="#e9f5ff"/><stop offset="0.7" stop-color="#dbefff"/><stop offset="1" stop-color="#d6edff"/></linearGradient><linearGradient id="linear-gradient-2" x1="274.93" y1="298.57" x2="277.52" y2="312.34" gradientTransform="translate(-231.53)" gradientUnits="userSpaceOnUse"><stop offset="0" stop-color="#e83f3e"/><stop offset="0.05" stop-color="#e94645"/><stop offset="0.7" stop-color="#f99e95"/><stop offset="1" stop-color="#ffc1b5"/></linearGradient><linearGradient id="linear-gradient-3" x1="114.35" y1="399.51" x2="490.87" y2="399.51" xlink:href="#linear-gradient"/><clipPath id="clip-path"><circle class="cls-1" cx="265.88" cy="186.5" r="36.73" transform="translate(-26.71 45.55) rotate(-9.32)"/></clipPath><linearGradient id="linear-gradient-4" x1="490.15" y1="408.14" x2="572.3" y2="408.14" xlink:href="#linear-gradient"/><linearGradient id="linear-gradient-5" x1="142.45" y1="448.13" x2="264.92" y2="448.13" xlink:href="#linear-gradient"/><linearGradient id="linear-gradient-6" x1="242.32" y1="448.38" x2="400.58" y2="448.38" xlink:href="#linear-gradient"/></defs><g class="cls-2"><g id="Layer_2" data-name="Layer 2"><g id="Layer_2-2" data-name="Layer 2"><path class="cls-3" d="M7.08,370.29H590.57c-21.67-39.8-88.49-87.72-87.5-154,1.25-83,59.62-120.33,52.65-152.84C528.79-62.17,396,100.71,236.87,35c-235.36-97.19-155,145.63-208,200.21C-24.95,290.57,14.41,291.46,7.08,370.29Z"/><path class="cls-4" d="M409.75,71l-.53-16.27a1.51,1.51,0,0,0,.18.09c1.91,1.06,3.68,2.28,5.47,3.41a.5.5,0,0,0,.21.25,9.58,9.58,0,0,1,3.59,3.67c.55,1.16.85,2.4,1.43,3.55,1.74,3.47,4.81,6.08,8.8,6.19a.59.59,0,0,0,0-1.18c-4.32-.11-7.2-3.52-8.57-7.35A12.1,12.1,0,0,0,419,60.5a17.48,17.48,0,0,0,5.62,1.66c.75.08.79-1.09,0-1.18-6-.66-10.31-4.92-15.44-7.66v0a12.26,12.26,0,0,0,3.26-.94c2.6-1.16,5.28-3.94,8.32-2.48.67.32,1.31-.66.63-1-2.52-1.2-4.76-.27-7,1.06a16.14,16.14,0,0,1-5.23,2.1l-.45-14c3.91.41,7.34-3.21,16.59,4.51,4.15,3.47,13.43,11.86,16.84,12.74,3.28.63,10.33,2.93,10.38,6.58.08,6.05-8.51,5.14-11.22,7.91-9.86,10.06-23,5.55-27.69,2.9A21.22,21.22,0,0,0,409.75,71Z"/><path class="cls-5" d="M409.18,53.29l0-1.25a16.14,16.14,0,0,0,5.23-2.1c2.26-1.33,4.5-2.26,7-1.06.68.33,0,1.31-.63,1-3-1.46-5.72,1.32-8.32,2.48A12.26,12.26,0,0,1,409.18,53.29Z"/><path class="cls-5" d="M420.1,65.65c-.58-1.15-.88-2.39-1.43-3.55a9.58,9.58,0,0,0-3.59-3.67.5.5,0,0,1-.21-.25c-1.79-1.13-3.56-2.35-5.47-3.41a1.51,1.51,0,0,1-.18-.09l0-1.36c5.13,2.74,9.42,7,15.44,7.66.75.09.71,1.26,0,1.18A17.48,17.48,0,0,1,419,60.5a12.1,12.1,0,0,1,1.41,2.81c1.37,3.83,4.25,7.24,8.57,7.35a.59.59,0,0,1,0,1.18C424.91,71.73,421.84,69.12,420.1,65.65Z"/><path class="cls-6" d="M452.16,15.68c-3.33,13.68-17,16.54-22.32,16.63-12.3.2-14.26,9.15-14.67,12.84a14.52,14.52,0,0,1-3.38,6.77L384.2,42c.95-.54,1.89-1.08,2.81-1.64A32.07,32.07,0,0,0,393.54,35c.45-.47.88-1,1.29-1.48a.64.64,0,0,0,.23-.21c.12-.2.25-.39.38-.57s.15-.18.22-.28c4.56-5.9,12.85-3.41,16.79,2.26.43.62,1.46.06,1-.56A14.33,14.33,0,0,0,404,27.88a9.77,9.77,0,0,0-5.74.88c.32-.46.66-.92,1-1.38,1.87-2.48,5.18-4,7.88-5.46a26.12,26.12,0,0,1,4.06-1.77h.06a10.47,10.47,0,0,0,2-.59,18.58,18.58,0,0,1,3.8-.5c2.18-.07,4.33.07,6.45.14a.5.5,0,0,0,.31.1,9.65,9.65,0,0,1,5,1.32c1.06.71,2,1.63,3,2.32,3.27,2.09,7.24,2.78,10.72.83a.59.59,0,0,0-.56-1c-3.77,2.11-8,.64-11.12-1.94a11.93,11.93,0,0,0-2.65-1.7,17.32,17.32,0,0,0,5.67-1.45c.69-.31.13-1.34-.56-1-5.51,2.51-11.38,1-17.19,1.3,0,0,0,0,0,0a11.91,11.91,0,0,0,2.35-2.5c1.65-2.32,2.53-6.08,5.88-6.38.74-.06.8-1.24.05-1.17-2.78.25-4.24,2.2-5.5,4.49-1.46,2.63-3.2,4.87-5.84,6A29.53,29.53,0,0,0,408,20.2a38.63,38.63,0,0,0-7.5,4.34c-2.32,1.79-3.88,4.46-5.52,6.86a13.41,13.41,0,0,0-.86,1.19,30.06,30.06,0,0,1-6,5.63,38.93,38.93,0,0,1-4.19,2.54,13.06,13.06,0,0,0,1.74-9,12.06,12.06,0,0,0-1.15-3.51c-.79-1.63-2.1-2.95-2.66-4.7-1.25-3.85,2.79-6,5.19-8,.58-.49-.23-1.34-.81-.85-2,1.73-4.5,3.07-5.44,5.73-1.16,3.32,1.26,5.73,2.69,8.43A11.22,11.22,0,0,1,382,41.2l-9.24-3.33c-1.61-6.3-1.36-12.85,1.15-18.3C383.28-.66,397.5,6.26,406,5.54c5.42-.46,4.72-7.32,18.49-5.1,5.34.86,17.6,3.33,21,2.35,3.15-1.14,10.37-2.76,12.28.35C460.93,8.3,453.08,11.9,452.16,15.68Z"/><path class="cls-7" d="M405.8,22.63c-2.39,1.25-4.95,2.67-6.52,4.75-.33.46-.67.92-1,1.38a9.77,9.77,0,0,1,5.74-.88,11.18,11.18,0,0,1,2.05.51c0-.29,0-.58,0-.93A25.48,25.48,0,0,0,405.8,22.63Z"/><path class="cls-7" d="M401.33,40.14a38.54,38.54,0,0,0-2.82,7L384.2,42c.95-.54,1.89-1.08,2.81-1.64A32.07,32.07,0,0,0,393.54,35c.45-.47.88-1,1.29-1.48a.64.64,0,0,0,.23-.21c.12-.2.25-.39.38-.57s.15-.18.22-.28c2.7-3.49,6.7-4,10.34-2.72a9.52,9.52,0,0,1-.89,3.25C404.09,35.45,402.58,37.77,401.33,40.14Z"/><path class="cls-7" d="M395,31.4a13.41,13.41,0,0,0-.86,1.19,30.06,30.06,0,0,1-6,5.63,38.93,38.93,0,0,1-4.19,2.54,13.06,13.06,0,0,0,1.74-9,12.06,12.06,0,0,0-1.15-3.51c-.79-1.63-2.1-2.95-2.66-4.7-1.25-3.85,2.79-6,5.19-8,.58-.49-.23-1.34-.81-.85-2,1.73-4.5,3.07-5.44,5.73-1.16,3.32,1.26,5.73,2.69,8.43A11.22,11.22,0,0,1,382,41.2l-9.24-3.33c-1.61-6.3-1.36-12.85,1.15-18.3,7-15.08,16.63-15.08,24.63-14.39,2.1,4.28,4.25,8.55,6,13a22.47,22.47,0,0,1,1,3.21,34.3,34.3,0,0,0-5.05,3.14C398.18,26.33,396.62,29,395,31.4Z"/><path class="cls-5" d="M431.84,22.93c-1.08-.69-2-1.61-3-2.32a9.65,9.65,0,0,0-5-1.32.5.5,0,0,1-.31-.1c-2.12-.07-4.27-.21-6.45-.14a18.58,18.58,0,0,0-3.8.5,10.47,10.47,0,0,1-2,.59h-.06a26.12,26.12,0,0,0-4.06,1.77c-2.7,1.42-6,3-7.88,5.46-.33.46-.67.92-1,1.38a9.77,9.77,0,0,1,5.74-.88,14.33,14.33,0,0,1,9.45,6.26c.43.62-.6,1.18-1,.56-3.94-5.67-12.23-8.16-16.79-2.26-.07.1-.15.19-.22.28s-.26.37-.38.57a.64.64,0,0,1-.23.21c-.41.51-.84,1-1.29,1.48A32.07,32.07,0,0,1,387,40.34c-.92.56-1.86,1.1-2.81,1.64L382,41.2a11.22,11.22,0,0,0,1.42-12.35c-1.43-2.7-3.85-5.11-2.69-8.43.94-2.66,3.39-4,5.44-5.73.58-.49,1.39.36.81.85-2.4,2-6.44,4.2-5.19,8.05.56,1.75,1.87,3.07,2.66,4.7a12.06,12.06,0,0,1,1.15,3.51,13.06,13.06,0,0,1-1.74,9,38.93,38.93,0,0,0,4.19-2.54,30.06,30.06,0,0,0,6-5.63A13.41,13.41,0,0,1,395,31.4c1.64-2.4,3.2-5.07,5.52-6.86A38.63,38.63,0,0,1,408,20.2a29.53,29.53,0,0,1,5.05-1.83c2.64-1.15,4.38-3.39,5.84-6,1.26-2.29,2.72-4.24,5.5-4.49.75-.07.69,1.11-.05,1.17-3.35.3-4.23,4.06-5.88,6.38a11.91,11.91,0,0,1-2.35,2.5s0,0,0,0c5.81-.26,11.68,1.21,17.19-1.3.69-.31,1.25.72.56,1a17.32,17.32,0,0,1-5.67,1.45,11.93,11.93,0,0,1,2.65,1.7c3.13,2.58,7.35,4.05,11.12,1.94a.59.59,0,0,1,.56,1C439.08,25.71,435.11,25,431.84,22.93Z"/><path class="cls-4" d="M389.71,44l-13.88-5c.73-.74,1.46-1.47,2.18-2.21a.54.54,0,0,0,.28-.16,9.59,9.59,0,0,1,4.32-2.77c1.24-.3,2.53-.35,3.77-.68,3.75-1,6.93-3.48,7.84-7.36a.59.59,0,0,0-1.14-.28c-1,4.2-4.91,6.33-8.94,6.9a12,12,0,0,0-3,.81,17.48,17.48,0,0,0,2.76-5.16c.23-.72-.91-1-1.14-.28-1.47,4.5-4.87,7.53-8.07,10.77l-3-1.07c-.72-2.67-2.55-5.65-.62-8.17.45-.6-.38-1.43-.84-.83-1.69,2.22-1.23,4.61-.39,7.09.15.47.29.93.42,1.39l-12.42-4.48c.62-2.43,2.26-5.33,7-9.09,4.24-3.36,14.33-10.74,15.89-13.9,1.28-3.09,5-9.52,8.54-8.83,5.94,1.14,3.31,9.37,5.48,12.59,7.85,11.69.76,23.7-2.78,27.7A21.5,21.5,0,0,0,389.71,44Z"/><path class="cls-5" d="M371.68,37.47,370.25,37c-.13-.46-.27-.92-.42-1.39-.84-2.48-1.3-4.87.39-7.09.46-.6,1.29.23.84.83C369.13,31.82,371,34.8,371.68,37.47Z"/><path class="cls-5" d="M386.38,33.14c-1.24.33-2.53.38-3.77.68a9.59,9.59,0,0,0-4.32,2.77.54.54,0,0,1-.28.16c-.72.74-1.45,1.47-2.18,2.21l-1.17-.42c3.2-3.24,6.6-6.27,8.07-10.77.23-.72,1.37-.44,1.14.28a17.48,17.48,0,0,1-2.76,5.16,12,12,0,0,1,3-.81c4-.57,8-2.7,8.94-6.9a.59.59,0,0,1,1.14.28C393.31,29.66,390.13,32.14,386.38,33.14Z"/><path class="cls-8" d="M17,405.48c3.65,3.48,16.8,3.63,30.81,3.35,14.94-.3,88.53-1.24,82.69-3.35-6.95-2.52-33.53-7.79-56.93-7.79S9.7,398.56,17,405.48Z"/><path class="cls-9" d="M33.29,396.57s-3.13,2.49-3.12,1c.1-13.67.73-31.06.5-40.71-.06-2.6-.73-42.29,7.59-43.35,7.59-1,4.51-.06,6.63,4.5,1.77,3.82-4.21,36.6-5.59,39.78-.46,1.06-1.39,6.52-1.62,7.65C34.53,381.5,33.29,396.57,33.29,396.57Z"/><path class="cls-10" d="M32.3,293.83l2.23,12.9C36,310,36,311.41,34.41,314c-.92,1.47,19.26,1.26,18.53-.26-1.68-3.47,1.25-6.71,1.25-8.15l.26-11.74Z"/><path class="cls-9" d="M86.92,294.92c.66.18,5.22.42,5.22.42.15-2.27-.69-2.44-.69-2.44L72,286.33c-3-.75-5.64.48-5.79,2.75h0C66,291.35,68.94,292.25,72,293Z"/><path class="cls-11" d="M64.37,288.83c.48.46,3.1,4,5.52,1.91l-.31.17a5.63,5.63,0,0,0,2.1-4.67L56.61,272a6.6,6.6,0,0,0-8.5,0h0c-2.42,2.05-.4,4.22,1.87,6.29Z"/><path class="cls-9" d="M49.59,396.05s-2.91,2.75-3,1.26c-1.1-13.62-.43-31-1.51-40.6-.29-2.58-9.89-41.72-1.7-43.5,7.47-1.63,8.37-.8,10.88,3.56,2.1,3.64.58,36.68-.51,40-.37,1.1-.82,6.62-.94,7.77C51.05,380.79,49.59,396.05,49.59,396.05Z"/><path class="cls-12" d="M30.47,379.1c.5-.49,1-1,1.5-1.47,1.34-1.27,2.75-2.49,4.19-3.67.45-2.76,1-5.63,1.52-8.53.23-1.13,1.16-6.59,1.62-7.65,1.38-3.18,7.36-36,5.59-39.78-2.12-4.56,1-5.46-6.63-4.5-8.32,1.06-7.65,40.75-7.59,43.35C30.8,362.42,30.65,370.57,30.47,379.1Z"/><path class="cls-12" d="M45.63,366.87l.64-.45c2.26-1.58,4.54-3.14,6.78-4.75a39.1,39.1,0,0,1,.67-4.93c1.09-3.29,2.61-36.33.51-40-2.51-4.36-3.41-5.19-10.88-3.56-8.19,1.78,1.41,40.92,1.7,43.5C45.36,359.53,45.53,363,45.63,366.87Z"/><path class="cls-11" d="M45.85,398c.11,1.24-3.4,5.74-.13,5.45,8.08-.71,8.62-.82,8.1-1.91-1.2-2.56-2.56-1.32-3.26-5.23C50.15,394,45.74,396.78,45.85,398Z"/><path class="cls-11" d="M54.72,311.81c-1.4-5.92-.16-11.72.84-16.44,1.36-6.43,2.15-10.86,2.15-10.86,0-7.69-1.51-14.11-12.54-14.11s-16.39,6.28-16.39,14c0,0,5.55,20.42,5.52,23.82-.07,9.74-7,21.73-5.27,48.67.29,4.38,19.56-.78,25.8-1.05C55.42,355.79,58.19,326.53,54.72,311.81Z"/><path class="cls-11" d="M36.5,273.58a6,6,0,0,0-7.61,3.79l-5.36,23.55a15.41,15.41,0,0,1,6.67,1.86,26.13,26.13,0,0,1,2-4.52l5.57-17.34C38.87,277.77,39.65,274.64,36.5,273.58Z"/><path class="cls-9" d="M12.89,324.41A4.38,4.38,0,0,1,7.56,324c-.68-.88,4.18-2.44,6-3.83s3.12-.69,3.8.18S15.86,322.51,12.89,324.41Z"/><path class="cls-9" d="M19,319.12a37.86,37.86,0,0,1-2.83,3.19c-1.89-1.77-1.91-2.11-1.91-2.11l9.15-19.63c1.57-2.77,4.37-3.59,6.26-1.82h0c1.88,1.77.51,4.59-1.06,7.36Z"/><path class="cls-11" d="M29.39,398.2c0,1.24-3.89,5.42-.6,5.42,8.11,0,8.65-.07,8.24-1.19-1-2.66-2.45-1.54-2.79-5.5C34,394.57,29.39,397,29.39,398.2Z"/><path class="cls-9" d="M37.49,271.89c-4.37,1.55,2.68,2.1,5.7,2.06s11-1.35,7.06-3.28c-6.61-3.23-.09-11.44-6.63-11.35C37.85,259.39,44.74,269.31,37.49,271.89Z"/><path class="cls-12" d="M37.76,273.55l.23-.23c2.36-2.15,4.92-4.08,7.46-6A11,11,0,0,1,47,266.05c-.42-3.32.86-6.79-3.4-6.73-5.77.07,1.12,10-6.13,12.57C35.22,272.7,36,273.23,37.76,273.55Z"/><path class="cls-13" d="M51,248.69a3.08,3.08,0,1,1-3.12-3A3.05,3.05,0,0,1,51,248.69Z"/><path class="cls-9" d="M35.38,256.44c0,3.29,7.14,8.33,8.73,8.31a6.94,6.94,0,0,0,6.47-7.88c-.6-5.81-.89-12.58-5.34-12.53S35.3,250.26,35.38,256.44Z"/><path class="cls-13" d="M45.71,247.17c-6.88.09-6.41,12.2-12,12.27s-2.21-14.92,6.5-16.64C45.7,241.73,45.71,247.17,45.71,247.17Z"/><path class="cls-13" d="M49.38,245.67c0,1.65-2,3-4.51,3s-4.56-1.28-4.58-2.92,2-3,4.51-3S49.36,244,49.38,245.67Z"/><path class="cls-14" d="M51.7,396.91c-.42,2.87,1,5.44,3.2,5.77l19,2.77c2.2.3,4.31-1.75,4.72-4.63l2.82-19.3c.42-2.87-1-5.45-3.23-5.76L59.24,373c-2.19-.34-4.3,1.75-4.72,4.61Z"/><polygon class="cls-4" points="96.55 282.6 84.13 367.89 55.94 363.81 68.36 278.49 96.55 282.6"/><polygon class="cls-15" points="96.55 282.6 84.13 367.89 75.83 366.7 88.26 281.39 96.55 282.6"/><path class="cls-16" d="M95.13,292.31c-.14-.18.44-.69.23-.69-1,0-.57,1.81-2.84,1.6-.93-.09-1.07.54-.9,1.62.06.41.24,1.14,2.6.64a1,1,0,0,0,.47-.15Z"/><path class="cls-9" d="M94.22,294.62c2.48-.52,2.33-3.86,1.14-3.86-1,0-.57,1.81-2.84,1.6-.93-.09-1.07.54-.9,1.62C91.68,294.39,91.86,295.12,94.22,294.62Z"/><path class="cls-12" d="M95.53,290.79c0,.12,0,.23.07.35a2.82,2.82,0,0,1-3.6,3.05,1.63,1.63,0,0,1-.38-.17c.07.41.31,1.08,2.6.6S96.55,291.1,95.53,290.79Z"/><polygon class="cls-16" points="76.99 279.75 64.56 365.07 55.94 363.81 68.36 278.49 76.99 279.75"/><polygon class="cls-17" points="86.65 251.75 96.54 282.6 68.35 278.49 86.65 251.75"/><polygon class="cls-18" points="86.65 251.75 96.54 282.6 68.35 278.49 86.65 251.75"/><polygon class="cls-5" points="86.65 251.75 96.54 282.6 88.25 281.39 86.65 251.75"/><polyline class="cls-17" points="76.99 279.75 86.65 251.75 88.25 281.39"/><path class="cls-17" d="M52.28,367.62a4.17,4.17,0,0,0,3.35,4.84l26.2,3.82a4.14,4.14,0,0,0,4.58-3.67h0a4.14,4.14,0,0,0-3.34-4.84l-26.2-3.83a4.17,4.17,0,0,0-4.59,3.68Z"/><path class="cls-17" d="M51,376.14A4.18,4.18,0,0,0,54.39,381l26.18,3.82a4.16,4.16,0,0,0,4.6-3.68h0a4.17,4.17,0,0,0-3.34-4.84l-26.2-3.82a4.18,4.18,0,0,0-4.6,3.68Z"/><path class="cls-19" d="M86.11,239a10.88,10.88,0,0,1,2.51-.68h0c.35,0,2.23.67,2.19,1.53L89.25,259A3.63,3.63,0,0,1,85.14,262h0a3.61,3.61,0,0,1-3-4.09Z"/><polygon class="cls-20" points="276.45 201.66 156.12 201.66 179.42 118.28 276.45 118.28 276.45 201.66"/><path class="cls-21" d="M128.2,405.76c8.45.78-10.38-.39,150.91-1.29,11.07-.06,150.21.9,162.7.68,86-1.45,36.17-12.31,19.76-11.3-6.84.43-271.72-2.61-334.14.76C102.07,396,119.93,405,128.2,405.76Z"/><rect class="cls-5" x="208.1" y="148.57" width="254.65" height="196.8"/><path class="cls-20" d="M265.26,43.5H112.86s-.1-11.75,13.07-11.75H265.26Z"/><path class="cls-4" d="M151.58,75.06l-12,17c0-.08-.08-.15-.11-.22-1.12-2.55-2-5.15-2.93-7.68a.76.76,0,0,0,0-.42,12.18,12.18,0,0,1-.84-6.49c.34-1.6,1-3.1,1.29-4.72.9-4.86-.21-9.88-4.18-13.06-.75-.6-1.7.56-.95,1.16,4.31,3.44,4.6,9.13,3,14.07a15.53,15.53,0,0,0-.72,3.95,22.27,22.27,0,0,0-4.44-6c-.7-.66-1.65.5-.95,1.16,5.61,5.31,6.69,12.94,9.79,19.68l0,0a15.59,15.59,0,0,0-4-1.55c-3.54-.83-8.4-.06-10.37-3.89-.44-.84-1.85-.34-1.41.51,1.63,3.17,4.64,4,8,4.35a20.46,20.46,0,0,1,6.94,1.89l-10.31,14.57c-3.67-3.43-9.94-2.39-13.4-17.37-1.55-6.73-4.52-22.4-7.31-25.92-2.86-3.17-8.25-10.93-5.49-14.68,4.58-6.22,12.61,1.32,17.51.59,17.76-2.64,27.71,12.11,30.38,18.38A26.65,26.65,0,0,0,151.58,75.06Z"/><path class="cls-5" d="M138.55,93.46l-.92,1.31a20.46,20.46,0,0,0-6.94-1.89c-3.31-.4-6.32-1.18-8-4.35-.44-.85,1-1.35,1.41-.51,2,3.83,6.83,3.06,10.37,3.89A15.59,15.59,0,0,1,138.55,93.46Z"/><path class="cls-5" d="M137,72.48c-.3,1.62-.95,3.12-1.29,4.72a12.18,12.18,0,0,0,.84,6.49.76.76,0,0,1,0,.42c.94,2.53,1.81,5.13,2.93,7.68,0,.07.08.14.11.22l-1,1.42c-3.1-6.74-4.18-14.37-9.79-19.68-.7-.66.25-1.82.95-1.16a22.27,22.27,0,0,1,4.44,6,15.53,15.53,0,0,1,.72-3.95c1.55-4.94,1.26-10.63-3-14.07-.75-.6.2-1.76.95-1.16C136.76,62.6,137.87,67.62,137,72.48Z"/><path class="cls-6" d="M80.34,63.61C98.2,61.7,107.54,76.83,110,83.2c5.56,14.68,17.15,13.16,21.76,12,2.31-.56,5.82-.17,9.59,1.13v37.4c-1.05-.9-2.12-1.8-3.19-2.66a41,41,0,0,0-9.25-5.52c-.76-.33-1.54-.62-2.33-.9a.73.73,0,0,0-.35-.18c-.29-.06-.58-.14-.86-.22l-.42-.13c-9.06-2.93-9.66-14-4.55-21.13.55-.78-.56-1.78-1.12-1-2.85,4-4.46,9.15-3.43,14a12.37,12.37,0,0,0,3.54,6.51c-.7-.19-1.39-.39-2.08-.6-3.79-1.16-7.08-4.46-10-7.08a36.77,36.77,0,0,1-3.88-4.11l0-.07a13.55,13.55,0,0,0-1.57-2.14,24.92,24.92,0,0,1-2.26-4.35c-1-2.59-1.77-5.22-2.61-7.79a.75.75,0,0,0,0-.42,12.21,12.21,0,0,1-.57-6.52c.4-1.58,1.11-3.06,1.48-4.66C98.93,80,98,75,94.19,71.64c-.73-.63-1.73.49-1,1.12,4.16,3.61,4.22,9.3,2.48,14.18a15,15,0,0,0-.89,3.92,22.27,22.27,0,0,0-4.19-6.19c-.68-.69-1.67.43-1,1.12,5.4,5.54,6.17,13.21,9,20.07a.08.08,0,0,0,0,0,15.34,15.34,0,0,0-4-1.74c-3.5-1-8.39-.4-10.2-4.3-.4-.86-1.83-.42-1.43.46,1.51,3.23,4.47,4.12,7.77,4.65,3.79.61,7.23,1.73,9.75,4.4a37.67,37.67,0,0,0,4.38,5.28,49.53,49.53,0,0,0,8.45,7.11c3.15,2,7,2.72,10.62,3.65a15,15,0,0,0,1.8.53,38.24,38.24,0,0,1,9.37,4.8,49.39,49.39,0,0,1,4.86,3.93,16.63,16.63,0,0,0-11.51,1.78,15.6,15.6,0,0,0-3.72,2.9c-1.61,1.66-2.63,3.8-4.48,5.23-4.08,3.16-8.44-.75-11.9-2.75-.84-.48-1.51.86-.68,1.34,3,1.71,5.64,4.07,9.24,4,4.48,0,6.32-4,8.94-6.87a14.3,14.3,0,0,1,15.44-3.64v12.52c-6.86,4.67-14.84,7.2-22.46,6.54-28.31-2.44-26.16-22.5-30.7-32.4-2.89-6.3-10.82-2.5-14.12-20-1.28-6.78-3.61-22.56-6.26-26.19C65,73.92,60,66,62.87,62.32,67.69,56.29,75.41,64.15,80.34,63.61Z"/><path class="cls-5" d="M97.84,84.86c-.37,1.6-1.08,3.08-1.48,4.66A12.21,12.21,0,0,0,96.93,96a.75.75,0,0,1,0,.42c.84,2.57,1.6,5.2,2.61,7.79a24.92,24.92,0,0,0,2.26,4.35,13.55,13.55,0,0,1,1.57,2.14l0,.07a36.77,36.77,0,0,0,3.88,4.11c2.89,2.62,6.18,5.92,10,7.08.69.21,1.38.41,2.08.6a12.37,12.37,0,0,1-3.54-6.51c-1-4.9.58-10,3.43-14,.56-.78,1.67.22,1.12,1-5.11,7.18-4.51,18.2,4.55,21.13l.42.13c.28.08.57.16.86.22a.73.73,0,0,1,.35.18c.79.28,1.57.57,2.33.9a41,41,0,0,1,9.25,5.52c1.07.86,2.14,1.76,3.19,2.66v2.94a14.3,14.3,0,0,0-15.44,3.64c-2.62,2.88-4.46,6.83-8.94,6.87-3.6,0-6.27-2.34-9.24-4-.83-.48-.16-1.82.68-1.34,3.46,2,7.82,5.91,11.9,2.75,1.85-1.43,2.87-3.57,4.48-5.23a15.6,15.6,0,0,1,3.72-2.9A16.63,16.63,0,0,1,140,134.68a49.39,49.39,0,0,0-4.86-3.93,38.24,38.24,0,0,0-9.37-4.8,15,15,0,0,1-1.8-.53c-3.58-.93-7.47-1.64-10.62-3.65a49.53,49.53,0,0,1-8.45-7.11,37.67,37.67,0,0,1-4.38-5.28c-2.52-2.67-6-3.79-9.75-4.4-3.3-.53-6.26-1.42-7.77-4.65-.4-.88,1-1.32,1.43-.46,1.81,3.9,6.7,3.33,10.2,4.3a15.34,15.34,0,0,1,4,1.74.08.08,0,0,1,0,0C95.77,99,95,91.33,89.6,85.79c-.67-.69.32-1.81,1-1.12a22.27,22.27,0,0,1,4.19,6.19,15,15,0,0,1,.89-3.92c1.74-4.88,1.68-10.57-2.48-14.18-.74-.63.26-1.75,1-1.12C98,75,98.93,80,97.84,84.86Z"/><path class="cls-1" d="M148.59,128.28a6.2,6.2,0,1,0-6.19-6.2A6.21,6.21,0,0,0,148.59,128.28Z"/><g class="cls-22"><path class="cls-1" d="M147.27,123.48a4.4,4.4,0,0,1-4.67.12,6.17,6.17,0,0,0,8.8,4,14.84,14.84,0,0,0-1.43-2.32,7.88,7.88,0,0,0-1.65-1.89c-.29-.19-.27-.37-.22-.46A6.39,6.39,0,0,1,147.27,123.48Z"/></g><path class="cls-23" d="M134.62,54.41v98.23a19.16,19.16,0,0,1,5.94-1.16V56.2A19.34,19.34,0,0,1,134.62,54.41Z"/><path class="cls-5" d="M415.06,44.37a12.84,12.84,0,0,0-12.84-12.84,13.36,13.36,0,0,0-2.29.22h-274a12.83,12.83,0,0,1,10.54,12.62h0v65.2h.07v59.55c-.05.66-.08,1.33-.08,2s0,1.33.08,2v.08h0c0,20,5.84,28.47,19.57,28.47,13.34,0,19.62-8.48,19.62-28.55h0V148.57L415,145.94l.11-36.37h0Z"/><path class="cls-24" d="M260.22,140.08a2.71,2.71,0,0,1-2.8,2.61H161.34a2.72,2.72,0,0,1-2.8-2.61h0a2.72,2.72,0,0,1,2.8-2.61h96.08a2.71,2.71,0,0,1,2.8,2.61Z"/><path class="cls-24" d="M260.22,149.25a2.71,2.71,0,0,1-2.8,2.61H161.34a2.72,2.72,0,0,1-2.8-2.61h0a2.72,2.72,0,0,1,2.8-2.62h96.08a2.71,2.71,0,0,1,2.8,2.62Z"/><path class="cls-24" d="M175.65,155.72H161.34a2.62,2.62,0,1,0,0,5.23h14.31Z"/><path class="cls-14" d="M221.26,129a4,4,0,0,1-4.18,3.89H162.49a4,4,0,0,1-4.18-3.89h0a4,4,0,0,1,4.18-3.9h54.59a4,4,0,0,1,4.18,3.9Z"/><path class="cls-25" d="M204.4,116.15c-17,0-23.67.29-28.22,18.25L214,138.59V149l201.58-2.06V105.7s-.94,10.45-28.18,10.45Z"/><path class="cls-26" d="M259.32,158.88V123.05h35.84v35.83Zm30.81-5V128.08H264.35v25.77Z"/><path class="cls-26" d="M293.76,157.48h-33v-33h33ZM263,155.25h28.58V126.68H263Z"/><path class="cls-5" d="M360.11,148.57c0,16.87,55.23,30.55,72.1,30.55a30.55,30.55,0,0,0,0-61.09C415.34,118,360.11,131.7,360.11,148.57Z"/><path class="cls-5" d="M208.1,166H390.66l41.55-48H190.82l7.89,8.51c9.45,8.83,9.39,22,9.39,22Z"/><path class="cls-20" d="M175.75,140c0,11.58,0,16.15,0,16.15,7.82,0,28.81,5.67,32.41-.67,0,0,0-11.71,0-15.48,0-11.59-4.16-21-15.75-21S175.75,128.39,175.75,140Z"/><path class="cls-14" d="M400.33,270.7V239.9h30.8v30.8Zm26.48-4.32V244.23H404.65v22.15Z"/><path class="cls-14" d="M429.93,269.5h-28.4V241.11h28.4Zm-26.48-1.92H428V243H403.45Z"/><polygon class="cls-14" points="404.73 254.6 407.78 251.54 414.04 257.8 423.38 245.72 426.8 248.37 414.46 264.33 404.73 254.6"/><polygon class="cls-14" points="414.34 262.51 406.43 254.6 407.78 253.25 414.16 259.62 423.6 247.41 425.11 248.58 414.34 262.51"/><path class="cls-14" d="M293.29,247.22a3.14,3.14,0,0,1-3.25,3H232.22a3.14,3.14,0,0,1-3.25-3h0a3.15,3.15,0,0,1,3.25-3H290a3.14,3.14,0,0,1,3.25,3Z"/><path class="cls-24" d="M340.75,255.86a2.11,2.11,0,0,1-2.18,2H231.33a2.11,2.11,0,0,1-2.18-2h0a2.11,2.11,0,0,1,2.18-2H338.57a2.11,2.11,0,0,1,2.18,2Z"/><path class="cls-24" d="M340.75,263a2.11,2.11,0,0,1-2.18,2H231.33a2.11,2.11,0,0,1-2.18-2h0a2.11,2.11,0,0,1,2.18-2H338.57a2.11,2.11,0,0,1,2.18,2Z"/><path class="cls-24" d="M267.06,270.06a2.11,2.11,0,0,1-2.18,2H231.33a2.11,2.11,0,0,1-2.18-2h0a2.11,2.11,0,0,1,2.18-2h33.55a2.11,2.11,0,0,1,2.18,2Z"/><path class="cls-14" d="M383.67,168.55a3.14,3.14,0,0,1-3.25,3H322.6a3.14,3.14,0,0,1-3.25-3h0a3.15,3.15,0,0,1,3.25-3h57.82a3.14,3.14,0,0,1,3.25,3Z"/><path class="cls-24" d="M431.13,177.19a2.11,2.11,0,0,1-2.18,2H321.71a2.11,2.11,0,0,1-2.18-2h0a2.11,2.11,0,0,1,2.18-2H429a2.11,2.11,0,0,1,2.18,2Z"/><path class="cls-24" d="M431.13,184.32a2.11,2.11,0,0,1-2.18,2H321.71a2.11,2.11,0,0,1-2.18-2h0a2.11,2.11,0,0,1,2.18-2H429a2.11,2.11,0,0,1,2.18,2Z"/><path class="cls-24" d="M431.13,192.69a2.11,2.11,0,0,1-2.18,2H321.71a2.11,2.11,0,0,1-2.18-2h0a2.11,2.11,0,0,1,2.18-2H429a2.11,2.11,0,0,1,2.18,2Z"/><path class="cls-24" d="M357.44,202.8a2.11,2.11,0,0,1-2.18,2H321.71a2.11,2.11,0,0,1-2.18-2h0a2.11,2.11,0,0,1,2.18-2h33.55a2.11,2.11,0,0,1,2.18,2Z"/><path class="cls-14" d="M400.33,317.22V286.41h30.8v30.81Zm26.48-4.33V290.74H404.65v22.15Z"/><path class="cls-14" d="M429.93,316h-28.4V287.62h28.4Zm-26.48-1.91H428V289.53H403.45Z"/><polygon class="cls-14" points="404.73 301.12 407.78 298.06 414.04 304.31 423.38 292.24 426.8 294.88 414.46 310.84 404.73 301.12"/><polygon class="cls-14" points="414.34 309.03 406.43 301.12 407.78 299.76 414.16 306.13 423.6 293.92 425.11 295.1 414.34 309.03"/><path class="cls-14" d="M293.29,293.74a3.14,3.14,0,0,1-3.25,3H232.22a3.15,3.15,0,0,1-3.25-3h0a3.14,3.14,0,0,1,3.25-3H290a3.14,3.14,0,0,1,3.25,3Z"/><path class="cls-24" d="M340.75,302.37a2.11,2.11,0,0,1-2.18,2H231.33a2.11,2.11,0,0,1-2.18-2h0a2.11,2.11,0,0,1,2.18-2H338.57a2.11,2.11,0,0,1,2.18,2Z"/><path class="cls-24" d="M340.75,309.5a2.11,2.11,0,0,1-2.18,2H231.33a2.11,2.11,0,0,1-2.18-2h0a2.11,2.11,0,0,1,2.18-2H338.57a2.11,2.11,0,0,1,2.18,2Z"/><path class="cls-24" d="M267.06,316.57a2.12,2.12,0,0,1-2.18,2H231.33a2.12,2.12,0,0,1-2.18-2h0a2.11,2.11,0,0,1,2.18-2h33.55a2.11,2.11,0,0,1,2.18,2Z"/><path class="cls-14" d="M344.45,98V62.15h35.83V98Zm30.8-5V67.18H349.48V93Z"/><path class="cls-14" d="M378.88,96.59h-33v-33h33Zm-30.8-2.23h28.57V65.78H348.08Z"/><polygon class="cls-14" points="349.56 79.26 353.12 75.7 360.4 82.98 371.26 68.93 375.24 72 360.88 90.57 349.56 79.26"/><polygon class="cls-14" points="360.75 88.46 351.55 79.26 353.12 77.68 360.54 85.09 371.52 70.89 373.28 72.25 360.75 88.46"/><path class="cls-14" d="M244.35,67.41a4,4,0,0,1-4.18,3.89H165.85a4,4,0,0,1-4.18-3.89h0a4,4,0,0,1,4.18-3.9h74.32a4,4,0,0,1,4.18,3.9Z"/><path class="cls-24" d="M305.37,78.51a2.72,2.72,0,0,1-2.81,2.61H164.7a2.71,2.71,0,0,1-2.8-2.61h0a2.71,2.71,0,0,1,2.8-2.61H302.56a2.72,2.72,0,0,1,2.81,2.61Z"/><path class="cls-24" d="M305.37,87.67a2.72,2.72,0,0,1-2.81,2.62H164.7a2.71,2.71,0,0,1-2.8-2.62h0a2.71,2.71,0,0,1,2.8-2.61H302.56a2.72,2.72,0,0,1,2.81,2.61Z"/><path class="cls-24" d="M210.63,96.76a2.71,2.71,0,0,1-2.8,2.62H164.7a2.71,2.71,0,0,1-2.8-2.62h0a2.71,2.71,0,0,1,2.8-2.61h43.13a2.71,2.71,0,0,1,2.8,2.61Z"/><path class="cls-5" d="M240.4,344.52h0a16.2,16.2,0,1,0-16.2,16.2A16.19,16.19,0,0,0,240.4,344.52Z"/><path class="cls-25" d="M462.75,354.93V332.78s-.94,10.46-28.17,10.46l-199.82,5.23s1.54,10.37-10.56,12.25Z"/><path class="cls-20" d="M437.38,344.34H405c0,.06,0,.12,0,.18H240.4a16.21,16.21,0,0,1-16.2,16.2H462.75a16.21,16.21,0,0,0,16.2-16.2C479,344.46,437.39,344.4,437.38,344.34Z"/><circle class="cls-14" cx="265.88" cy="186.5" r="36.73" transform="translate(-9.8 358.17) rotate(-66.96)"/><g class="cls-27"><polygon class="cls-28" points="269.33 254.61 289.02 254.61 280.83 233.14 278.59 205.56 253.75 207.08 254.93 234.27 269.33 254.61"/><path class="cls-9" d="M253.6,207.59c.27,3.23,4.36,4.57,9.68,4.08l.45.88c5.32-.47,9.41-3.47,9.14-6.7L270,181.53c-.27-3.22-3.93-5.51-9.26-5h0c-5.32.48-7.68,3.34-7.41,6.57Z"/><path class="cls-12" d="M271.55,198.24l-18.12-2.31.1,4.87c4.24,3,10.61,6.3,12.66,6.52,1.89.2,6.25-2.52,6.22-3.59Z"/><path class="cls-9" d="M274.6,177.2l2-1c1.69-.84,3.12.07,3.4,2,.48,3.35-2.3,3.71-2.08,6.35l-4.33-.37Z"/><path class="cls-9" d="M250.78,184l-2.24-.41c-1.85-.33-3,.95-2.68,2.91.49,3.35,3.12,2.79,4,5.68l3.87-1.77Z"/><path class="cls-9" d="M277.66,192.92c-1.27,4.72-4.87,11.5-8.08,12.36-3.6.95-14.78-3.8-16.62-6.88-5.06-8.51-9.27-31.93,8.07-33.55,4.62-.42,12.39-3.47,15.33,4.91C278.23,175.09,279.09,187.6,277.66,192.92Z"/><path class="cls-12" d="M277.66,192.92c1.43-5.32.57-17.83-1.3-23.16-2.94-8.38-10.71-5.33-15.33-4.91a15.26,15.26,0,0,0-7.65,2.64,4.82,4.82,0,0,1,.5.27,33,33,0,0,1,7.92,7.31c.17.23.77-.71.86-.49a18.83,18.83,0,0,0,5.28,2c1.62.14,7.65-2,8.45.62a27.22,27.22,0,0,1,.9,14.3c-2.53,10.53-7.71,13.76-7.71,13.76C272.79,204.42,276.39,197.64,277.66,192.92Z"/><path class="cls-11" d="M263.27,159.58c1.19-1.55-.4,6.66,3.06,4,1.56-1.19,5.46-.32,7.69,3.31l-15.94,4.94c-1,.06-2,.12-3,.21a5.29,5.29,0,0,0-4.53,5c-1.38-.65-2.77-1.28-4.13-2C246.3,160.62,259.21,164.93,263.27,159.58Z"/><path class="cls-11" d="M272.93,159.53c.65,1.78-.8,4.28-3.24,5.6s-6.86-.82-7.52-2.59,2.28-.37,4.67-2.9C268.8,157.55,272.27,157.76,272.93,159.53Z"/><path class="cls-11" d="M273.18,174.43c3.92-.46,4.93,7.48,4.93,7.48,1.09-.21,1-6.13-.51-10.75C276.63,168.26,270.35,174.76,273.18,174.43Z"/><path class="cls-29" d="M273.18,174.43c3.92-.46,4.93,7.48,4.93,7.48,1.09-.21,1-6.13-.51-10.75C276.63,168.26,270.35,174.76,273.18,174.43Z"/><path class="cls-11" d="M277.31,167.64c.59,2.63,0,5.62-4.15,7.51-7.43,3.41-9.49-1.6-19.89,1.56-.89.27.83,2.4-1.92,5s-1.65,7.66-1.65,7.66c-1.53.09-2.7-11.15-3-12.31-1.25-5.63,4.58-12.31,13-14.92S276.06,162,277.31,167.64Z"/><path class="cls-29" d="M249.51,186.16s-1.52-8.92-1.46-11.5c.08-3.64.18-6.17,3.45-8.29,1.58-1,6.41-1.8,8.22-2.15,2.28-.45,3.56-1.66,5.14-3.25a7.1,7.1,0,0,1-1,.29c-.1-1.26-.11-2.33-.61-1.68-4.06,5.35-17,1-16.89,15.46l.21.12a7.49,7.49,0,0,0,.15,2c.26,1.16,1.43,12.4,3,12.31A27.05,27.05,0,0,1,249.51,186.16Z"/><path class="cls-28" d="M271.49,254.61l-18.87-34.77c-.11-4.43.56-6.66,2.2-10.9-16.91,4.58-13.25,9.55-15.36,17.27l6.22,28.4Z"/><path class="cls-30" d="M253.94,211.32a21.19,21.19,0,0,0-1.32,8.52l1.83,3.38Z"/><path class="cls-30" d="M282.87,208.53l8.23,5.56A19.7,19.7,0,0,0,282.87,208.53Z"/><path class="cls-30" d="M282.87,208.53c-2.53-1.72-4.35-3-4.28-3h-.22v0l-8.08.5,1.35,1.07A22.48,22.48,0,0,1,282.87,208.53Z"/><path class="cls-30" d="M270.77,241.91a1.07,1.07,0,0,0,1.15,1,1,1,0,1,0-1.15-1Z"/><path class="cls-30" d="M267.29,226a1.11,1.11,0,1,0,1.06-1.07A1.07,1.07,0,0,0,267.29,226Z"/><polygon class="cls-30" points="289.6 235.72 285.09 241.8 278.77 237.63 277.09 228.12 287.92 226.21 289.6 235.72"/><polygon class="cls-28" points="289.02 235.59 284.96 241.07 279.27 237.32 277.76 228.75 287.51 227.03 289.02 235.59"/><path class="cls-11" d="M296.91,219.33l-.47-2.25a11.12,11.12,0,0,0-3.37-5.3c-3.72-3.32-8.23-5.1-14.7-6.23-4.77.31-6.64.1-6.48,2.77l.17,3.45c4.32,10.3,7.24,26.87,9.17,42.84h15.65c-.33-8.28-.64-14.16-.64-14.16C296.06,231.7,297.65,224.77,296.91,219.33Z"/><path class="cls-29" d="M272.06,211.77c4.32,10.3,7.24,26.87,9.17,42.84h4.92c.2-3.09.31-6.7.21-11.73-.23-11.56-2.35-11.79-7.39-21.45-1.84-3.54,3.64-8.88-.26-15.81l-.34-.07c-4.77.31-6.64.1-6.48,2.77Z"/><polygon class="cls-30" points="275.6 206.33 268.5 217.83 265.96 211.24 275.18 202.04 275.6 206.33"/><polygon class="cls-28" points="275.6 206.33 268.3 215.93 265.94 210.9 275.07 201.03 275.6 206.33"/><path class="cls-11" d="M268.8,254.61a142.28,142.28,0,0,0-1.51-18.13c-3.38-19.84-5.61-23.84-13.09-28,1.91-.25-9.73-1.48-21.2,9.44-.49,8.8,5.29,26.73,8.79,36.68Z"/><path class="cls-11" d="M250.59,208.74c-6.3-2.88-22.7,12-22.7,12v18c4.59,8.32,8.75-1.27,10.18,4.62,3.8,1.33-2.32-20.26,1-18.11,6.94,4.44,3.36-3.06,9,3C247.67,223.59,253.55,212.8,250.59,208.74Z"/><path class="cls-29" d="M261.1,223.8c2.24,3.23-1.57,7.88.24,17.91.4,2.2,1.69,6.44,3.09,12.9h4.37a142.28,142.28,0,0,0-1.51-18.13c-3.38-19.84-5.61-23.84-13.09-28,1.14-.15-2.49-.64-8,1.25C247.31,215.3,258,219.35,261.1,223.8Z"/><polygon class="cls-30" points="252.81 209.74 264.2 218.56 265.88 211.62 251.72 204.99 252.81 209.74"/><polygon class="cls-28" points="252.81 209.74 263.95 217.45 266 211.27 251.48 203.88 252.81 209.74"/></g><path class="cls-26" d="M512,406.49c0,2.48-3.36,3.47-6,3.38s-8.83.54-8.82-1.36c0-2.47,3.44-2.18,6.94-6.36,1.19-1.43,4.53-3.9,6.33-2.31C511.41,400.7,512,405.63,512,406.49Z"/><path class="cls-5" d="M500.61,409l1.55-.07a12,12,0,0,0,2.68-.14c1.23-.23,3-.31,4.18-.56s2-1.22,3-2.17c0,.18,0,.33,0,.42,0,2.48-3.36,3.47-6,3.38s-8.83.54-8.82-1.36a.22.22,0,0,0,0-.08A7.34,7.34,0,0,0,500.61,409Z"/><g class="cls-22"><path class="cls-31" d="M491.25,311.41l-30.92-52.57a2.2,2.2,0,0,0,.2-.23,20,20,0,0,0,4.82-13.35,52.71,52.71,0,1,0-37.12,15.05c1.11,0,2.21,0,3.31-.09.21.2.42.4.65.6a20,20,0,0,0,13.69,4.82l31.67,53.83a3.47,3.47,0,0,0,4.73,1.23l7.75-4.56A3.46,3.46,0,0,0,491.25,311.41Zm-108.71-104a45.94,45.94,0,1,1,45.72,46.16A45.93,45.93,0,0,1,382.54,207.38Z"/></g><path class="cls-9" d="M492,294.09s16.61,4.56,22.39,4.43c3.8-.09,5-2.44,5.26-4.61s-1.5-2.74-4.22-3.22l-18.84-1c-.62-.11-1.19-.24-1.71-.34a15.75,15.75,0,0,1-2-1.2L480.09,276.4c-1.77-2.18-6.2-5.22-6.3-4.65a34.46,34.46,0,0,0,3.51,5.5L488.8,292A7.85,7.85,0,0,0,492,294.09Z"/><path class="cls-11" d="M493,300.25,456.6,238.32c-.18.27-.37.54-.57.8a12.75,12.75,0,0,1-8.37,4.66,13.29,13.29,0,0,1-5.07,2.08l36.74,62.45a3.45,3.45,0,0,0,4.73,1.22L491.8,305A3.47,3.47,0,0,0,493,300.25Z"/><path class="cls-32" d="M477.81,297.22c-5.29-7.46-17.17-27.27-18.93-33.23-1.83-6.18,2-7.5,6.29-11.1l-8.57-14.57c-.18.27-.37.54-.57.8a12.75,12.75,0,0,1-8.37,4.66,13.29,13.29,0,0,1-5.07,2.08l36.74,62.45a3.45,3.45,0,0,0,4.73,1.22L491.8,305a3.43,3.43,0,0,0,1.57-2.06C482.84,305.67,483.6,305.4,477.81,297.22Z"/><path class="cls-33" d="M466,227.77a14.7,14.7,0,0,1-5.54,7.86c-9.17,6.4-19.42,11.18-30.65,9.09a19.86,19.86,0,0,0,4.08,4.79A20.1,20.1,0,0,0,466,227.77Z"/><path class="cls-11" d="M466.07,227.92a14.67,14.67,0,0,1-5.54,7.85c-9.17,6.4-19.42,11.18-30.65,9.1a20.1,20.1,0,0,0,32.43,2.58A20.08,20.08,0,0,0,466.07,227.92Z"/><path class="cls-11" d="M483,196.68a52.72,52.72,0,1,0-53,52.47A52.72,52.72,0,0,0,483,196.68ZM430,242.37a45.94,45.94,0,1,1,46.16-45.72A45.93,45.93,0,0,1,430,242.37Z"/><circle class="cls-34" cx="430.25" cy="196.43" r="45.94" transform="translate(-33.9 105.53) rotate(-13.46)"/><path class="cls-35" d="M470.42,218.16a46,46,0,0,0-.39-44.57Q470.26,195.88,470.42,218.16Z"/><path class="cls-35" d="M449.13,154.44a46.09,46.09,0,0,0-28.74-3.13q.51,45,.75,90a46.1,46.1,0,0,0,28.62-3.58C449.7,210,449.36,182.2,449.13,154.44Z"/><path class="cls-35" d="M400.44,162.28c-.82.72-1.62,1.47-2.4,2.26a45.93,45.93,0,0,0,.43,65c.82.81,1.68,1.58,2.55,2.32Q400.78,197,400.44,162.28Z"/><path class="cls-26" d="M513.41,306.6l6-8.15c1.73-2.38,3.77-6,5.94-4.49s4.09,6.73,2.47,10.5a25.76,25.76,0,0,1-2.75,5.7C521.45,309.6,516.9,307.67,513.41,306.6Z"/><g class="cls-22"><path class="cls-36" d="M513.41,306.6l6-8.15c1.73-2.38,3.77-6,5.94-4.49s4.09,6.73,2.47,10.5a25.76,25.76,0,0,1-2.75,5.7C521.45,309.6,516.9,307.67,513.41,306.6Z"/></g><path class="cls-9" d="M477.12,299.12c-2.49,0-4.71.82-4.31,2.52l-.59-.11c.39,1.7,2.82,2.65,5.31,2.65l19.24,0c2.5,0,4.19-1.38,3.8-3.08h0c-.4-1.69-2.74-3.07-5.24-3.07Z"/><path class="cls-26" d="M503.47,297.56l2.29,3.85c4.79,2.82.6,4.49.48,4.43-1.93-.95-8.7.33-8.85.46l-3.2-8.14s4.66-1.84,6.28-2.46l3.57-2.1C505.66,293,502.06,295.49,503.47,297.56Z"/><path class="cls-9" d="M474.06,300.64a3.87,3.87,0,0,1,2.71-.63c-.45-.91-1.27-1.53-1.63-2.18L465,283.07a54.67,54.67,0,0,1-4.43-7.07s-2.61,2.11-1.45,4.39l11.63,19.25a26.45,26.45,0,0,0,1.83,2.72A4.67,4.67,0,0,1,474.06,300.64Z"/><path class="cls-9" d="M510.58,371.71c.07,2.81-.81,5-2.81,5l.45-.14c-2,0-3.68-2.34-3.75-5.14,0,0-1-10.45-.17-39.17l14.19.38c2,0-3.93,7.52-3.85,10.33Z"/><path class="cls-26" d="M556.15,392.06c1.57,1.92-.37,4.81-2.48,6.45s-6.44,6.07-7.65,4.6c-1.57-1.91,1.25-3.88,1.26-9.33,0-1.85,1-5.89,3.39-5.82C552,388,555.6,391.4,556.15,392.06Z"/><path class="cls-5" d="M549,401.3c.17-.17,1.12-1,1.14-1a12.16,12.16,0,0,0,2-1.82c.8-1,2.07-2.13,2.86-3.11s.78-2.23.91-3.58l.29.31c1.57,1.92-.37,4.81-2.48,6.45s-6.44,6.07-7.65,4.6c0,0,0-.05,0-.06A7.41,7.41,0,0,0,549,401.3Z"/><path class="cls-9" d="M506.45,402.27a4.41,4.41,0,0,0,1.23.25,2.69,2.69,0,0,0,2.12-.69l1.67-21.49-1.08-7.91c.14-2.79.67-5.49-1.33-5.82l-.9-.14c-2-.32-3.73,1.68-3.87,4.47l2.09,28.87A8.54,8.54,0,0,0,506.45,402.27Z"/><path class="cls-9" d="M521.3,370.41c.22,2.81.65,5.09,2.64,5l.91-.06c2-.14,3.6-2.36,3.38-5.16l-1.48-28.88c-.22-2.81-.29-11.52-2.28-11.39l-7.22,2.88c-2,.14-8.48,10.5-1,10.67Z"/><path class="cls-9" d="M548.64,392.07a7.61,7.61,0,0,0,2.19-.28c.64-.22,1.7-.81,1.35-1.67a10.56,10.56,0,0,0-.48-.95L534.9,375.1s-11.41-4.84-12.22-4.55l-.61.68c-1.36,1.47.16,3.9,2.34,5.67L548.54,392A.94.94,0,0,1,548.64,392.07Z"/><path class="cls-12" d="M551.84,389.43c-2.26,5.16-27.54-14.62-27.91-16.21-1.66-7-2.87-11.33,3.87-11.44l-1-20.51c-.22-2.81-.29-11.52-2.28-11.39l-7.22,2.88c-2,.14-8.48,10.5-1,10.67l5.07,27a21.68,21.68,0,0,0,.26,2.16c0,1.37,1.24,3,2.85,4.33L548.54,392a.94.94,0,0,1,.1.1,7.61,7.61,0,0,0,2.19-.28c.64-.22,1.7-.81,1.35-1.67C552.08,389.88,552,389.66,551.84,389.43Z"/><g class="cls-22"><path class="cls-9" d="M505.81,402a4.6,4.6,0,0,0,1.87.52H508a2.41,2.41,0,0,0-.12-1.4c-1.15-2.94-1.61-15.07-1.71-32.09,0-4.45.88-6.63,4.9-6.82,5.9-.29,13.42-25.92,15.3-27-.26-3-.72-5.4-1.89-5.32l-6.77,2.7-13.4-.36c-.7,23.2-.16,34.47.08,37.95,0,.25-.07.51-.09.77l1.31,28.94A5.42,5.42,0,0,0,505.81,402Z"/></g><path class="cls-26" d="M500.23,359.55c-.86,4,32.08,2,31-1.89-4.88-16.94-5.1-52.88-7.8-64.05-.51-2.09-3.62-2.61-7.11-4.21-2-.93-5.62-.48-7.88.28-4.56,1.52-7.39,1.32-7.8,5.4C498.58,315.93,505.51,335.12,500.23,359.55Z"/><g class="cls-22"><path class="cls-36" d="M531.2,357.66c-4.88-16.94-5.1-52.88-7.8-64.05-.51-2.09-3.62-2.61-7.11-4.21a10.6,10.6,0,0,0-5.66-.27,8,8,0,0,1,0,.85c2.55.25,3.27,3.18,6.5,3.5.95.09,5.22,1.1,6.06,3.06,1.06,2.48.82,6.79,1.1,11.28,1.15,18.12,3.35,45,2,47.24-4.18,7-17.1,3.79-24.81,5.75C507.31,363,532.17,361,531.2,357.66Z"/></g><path class="cls-9" d="M516.36,292c.11,1.31-1.44,2.5-3.47,2.66h0c-2,.17-3.77-.76-3.87-2.07l-.84-9.85c-.11-1.3,1.44-2.5,3.47-2.66h0c2-.16,3.76.76,3.88,2.07Z"/><path class="cls-37" d="M516.15,289.8l-.62-7.61c-.12-1.31-1.85-2.23-3.88-2.07s-3.58,1.36-3.47,2.66l.87,10.26A7.1,7.1,0,0,0,516.15,289.8Z"/><path class="cls-11" d="M508.27,304.13c-14.39-3.22-5.74-37.79-2.62-39.14,1.56-1.78,7.5-7.14,15-.31,3.61,3.3,8.68,27-1.18,29C510.23,295.45,513.34,305.26,508.27,304.13Z"/><g class="cls-22"><path class="cls-33" d="M520.63,264.68c-3.64-3.33-6.92-3.76-9.5-3.12,8.14.36,12.32,9.63,11.32,18.68a16.55,16.55,0,0,1-6.74,11.81,18.57,18.57,0,0,0-3.83,3.26c.29-.05-.95,3.57-1.2,4.32a6.94,6.94,0,0,1-3.3,4.23c.29.09.58.2.89.27,5.07,1.13,2-8.68,11.18-10.49C529.31,291.7,524.24,268,520.63,264.68Z"/></g><path class="cls-38" d="M111.54,43a15.2,15.2,0,0,0-2-.13C107.22,42.91,108.16,43,111.54,43Z"/><path class="cls-39" d="M491.88,409.36c6.68.79,19.67,1.25,36.24,1.07,17.67-.18,50.13-.72,43.23-2.06-8.22-1.59-20.73-2.55-48.41-2.55S485.89,408.66,491.88,409.36Z"/><path class="cls-40" d="M145,449.55c10,.92,29.33,1.45,54,1.25,26.34-.22,74.74-.85,64.46-2.4-12.26-1.85-30.92-3-72.17-3S136.09,448.73,145,449.55Z"/><path class="cls-9" d="M158.81,444s-3.7,2.93-3.69,1.16c.12-16.14.86-39.93.59-51.33-.07-3.08-.86-50,9-51.22,9-1.14,5.32-.08,7.82,5.32,2.09,4.51-5,43.24-6.6,47-.55,1.25-1.65,7.71-1.91,9.05A376.31,376.31,0,0,0,158.81,444Z"/><path class="cls-9" d="M172.13,444s-3.43,1.09-3.57-.67c-1.3-16.09-.52-38.25-1.79-49.58-.34-3.06-11.69-49.3-2-51.4,8.83-1.93,9.89-1,12.85,4.2,2.48,4.31.69,43.34-.6,47.23-.44,1.29-1,7.82-1.11,9.17C173.86,422.14,172.13,444,172.13,444Z"/><path class="cls-12" d="M155.48,420.15c.59-.58,1.17-1.17,1.76-1.73,1.6-1.51,3.26-2.95,5-4.35.53-3.25,1.12-6.64,1.8-10.07.26-1.34,1.36-7.8,1.91-9.05,1.63-3.75,8.69-42.48,6.6-47-2.5-5.4,1.14-6.46-7.82-5.32-9.84,1.25-9.05,48.14-9,51.22C155.87,400.44,155.69,410.07,155.48,420.15Z"/><path class="cls-12" d="M167.46,405.7l.76-.53c2.67-1.87,5.36-3.71,8-5.62a43.41,43.41,0,0,1,.79-5.82c1.29-3.89,3.08-42.92.6-47.23-3-5.16-4-6.13-12.85-4.2-9.69,2.1,1.66,48.34,2,51.4C167.14,397,167.34,401.14,167.46,405.7Z"/><path class="cls-9" d="M180.48,352.24c.18.73.23,5.75.23,5.75-2.83.15-3-.78-3-.78l-7.07-21.48c-.76-3.36.91-6.2,3.73-6.35h0c2.82-.15,3.77,3.08,4.54,6.43Z"/><path class="cls-9" d="M183.42,359c5.11,4.58-2.61,8.29-5.4,4.93-1-1.24-2.26-12.71-2.26-12.71l4.58-.48S181.8,357.58,183.42,359Z"/><path class="cls-14" d="M178.2,340.64c-1.66-7-.19-13.85,1-19.43,1.61-7.6,2.55-12.82,2.55-12.82,0-5.68-1.78-8.62-5.49-11.64-2.22-1.82-4.45-5-9.33-5-13,0-12.36,8.51-12.36,17.59,0,0-.4,21.69-.48,27.08-.17,11.5-4.51,25.67-2.46,57.5.34,5.18,19.33-.92,26.71-1.24C179,392.61,182.3,358,178.2,340.64Z"/><path class="cls-9" d="M209.53,327.42c.77.28-1.58-.83-1.58-.83.26-3,0-3.36,0-3.36l-23.55-10c-3.57-1.21-6.67.29-6.94,3.34h0c-.26,3,3.18,4.43,6.75,5.63Z"/><path class="cls-14" d="M155.56,294.93c-2.48,3.8-1.95,8.89,1.18,11.39l24.42,15.26a24.16,24.16,0,0,1,4.81-8.17,29.39,29.39,0,0,1-4.28-4.27l-17.31-13.39C161.25,293.26,158,291.13,155.56,294.93Z"/><path class="cls-11" d="M154.32,442.71c0,1.47-3.24,5.87,2.69,5.87,14.63,0,13.46.46,12.71-.87-1.76-3.14-9.26-.74-9.89-5.42C159.83,442.29,154.32,441.25,154.32,442.71Z"/><path class="cls-11" d="M166.72,442.71c0,1.47-3.24,5.87,2.69,5.87,14.63,0,13.46.46,12.71-.87-1.76-3.14-8.18-.74-8.81-5.42C173.31,442.29,166.72,441.25,166.72,442.71Z"/><path class="cls-9" d="M161.62,291.86c-.78,2.4-.61,4.09,2.95,4s12.42,1.51,8.35-1.71c-5.85-4.63-.11-15.67-7.84-15.57C158.26,278.7,164.33,283.46,161.62,291.86Z"/><path class="cls-12" d="M163.74,295.91c.09-.09,1.51,0,1.39,0-3.85-1.67-.35-8.8,2.66-11.08.57-.57.66,2.18,1.31,1.74-.5-3.92,1-8-4-7.95-6.82.08-.93,3.85-3.46,13.24C160.71,295.21,161.7,295.53,163.74,295.91Z"/><path class="cls-41" d="M157.55,272.22c-.07,2.95.09,8.11,1.61,12.26,1,2.64,7.6,5.1,7.91,5.08,2.45-.11,8.41-3.84,8.82-5.84a49,49,0,0,0,.92-14c-.59-7.2-5.79-12.42-11.63-11.66S157.75,264.11,157.55,272.22Z"/><g class="cls-22"><path class="cls-9" d="M176.81,269.68c-.59-7.2-5.79-12.42-11.63-11.66a7,7,0,0,0-5,2.84,13.31,13.31,0,0,1,3,.94c2.64,1.2,4.6,3,6.8,4.85a1.63,1.63,0,0,1,.6,1.81c.08.09,1.18,0,1.25.11a20,20,0,0,1,2.27,3.66c1.59,4.22,1.61,9.81.89,11.2a12.54,12.54,0,0,1-3.07,3.86,13.33,13.33,0,0,1-4.81,2.27c2.45-.11,8.41-3.84,8.82-5.84A49,49,0,0,0,176.81,269.68Z"/></g><path class="cls-4" d="M154.83,260.15a5.54,5.54,0,1,0,5.68-5.39A5.54,5.54,0,0,0,154.83,260.15Z"/><path class="cls-4" d="M176.12,277.05c.06.86-.15,5.32-.14,6.21.92-.63,1.22,8.9,2.13,8.24,3.28-18.08-.92-31.35-2.92-31.94-2.05-1.74-9.75-6.88-18.49.88-2.1,1.86-3.21,9-3.65,16.36,1.57,6.51,4,6.82,6.43,7.56-3.51-7,2.62-15,6.51-15.39,1.61-.16,4.56.14,6.37-.61A15.55,15.55,0,0,1,176.12,277.05Z"/><path class="cls-42" d="M243.41,448.65c-3.71.19-1.55,3.42,67.23,2.49,4.72-.07,12.72.93,18,.71,36.68-1.52,71.9.34,71.9-2.69,0-2.66-64.09-6.37-90.7-2.84C299.06,447.75,252.23,448.17,243.41,448.65Z"/><path class="cls-11" d="M263.62,394.16c-.2,3.94,2.38,1.27,5.15,2l1.82,5c2.77.76,4.74-6.33,5.8-9.91l15-36.08c1.06-3.57.31-10.1-2.47-10.87l-5.37,2.32c-2.77-.77-10.5.24-11.56,3.82Z"/><polygon class="cls-9" points="262.79 446.23 266.96 446.79 267.97 440.31 263.8 439.75 262.79 446.23"/><path class="cls-12" d="M268,440.31l-.35,2.26a1.55,1.55,0,0,0-.77-.16c-1.12,0-2.09.07-2.59,1.15a3.58,3.58,0,0,0,.1,2l.18.89-1.75-.24,1-6.48Z"/><path class="cls-11" d="M248.49,448.35c-.05-.07,0-.26,0-.77.06-.73,5.21-1.46,8.39-1.83a6.43,6.43,0,0,0,2.34-.74c.42-.36.16-.34.44-.2.83.42,1.58,0,2.29.09l-.58,5.44c-4.26-.31-10.8-.84-12.18-.95-.86-.07-.82-.42-.79-.85A1.06,1.06,0,0,1,248.49,448.35Z"/><path class="cls-43" d="M248.49,448.35c-.05-.07,0-.26,0-.77.06-.73,5.21-1.46,8.39-1.83a6.43,6.43,0,0,0,2.34-.74c.42-.36.16-.34.44-.2.83.42,1.43,0,2.29.09l-.58,5.44c-4.26-.31-10.8-.84-12.18-.95-.86-.07-.82-.42-.79-.85A1.06,1.06,0,0,1,248.49,448.35Z"/><path class="cls-11" d="M261.51,449.34l-.11,1c-4.26-.31-10.8-.85-12.18-.95-.87-.07-.82-.42-.79-.85a.84.84,0,0,1,0-.17Z"/><path class="cls-44" d="M261.5,449.38l-.1,1c-4.26-.31-10.8-.84-12.18-.95-.86-.07-.82-.42-.79-.85,0-.05,0-.08,0-.12Z"/><path class="cls-11" d="M250.87,448.72c0,.43-.08.78.78.85,2,.16,15.25,1.24,15.92,1.18.36,0,.88-.29.91-.73h0a.81.81,0,0,0-.78-.85L251.78,448a.83.83,0,0,0-.91.73Z"/><path class="cls-11" d="M268.51,449.71c0,.28-5.44-.21-17.4-1.12-.28,0-.23,0-.16-.83s5.22-1.46,8.39-1.83a6.37,6.37,0,0,0,2.34-.74c.43-.36.17-.34.44-.2,5.21,2.62,5.09-.26,5.94.14S268.5,449.22,268.51,449.71Z"/><path class="cls-11" d="M261.11,446.92c0,.06.11.07.2.05h0c.09,0,.14-.1.12-.15l-.53-1.38a.16.16,0,0,0-.2-.05h0c-.09,0-.14.1-.12.16Z"/><path class="cls-11" d="M259.85,446.85s.1.07.19,0h0c.09,0,.15-.08.14-.12l-.3-1.12c0-.05-.09-.07-.18-.05h0c-.09,0-.16.08-.14.12Z"/><path class="cls-11" d="M258.8,446.57s.08,0,.18,0h0c.08,0,.16-.06.15-.08l-.16-.71s-.08,0-.18,0h0c-.08,0-.15.05-.15.08Z"/><path class="cls-11" d="M269.24,389.19l1.32,0c2.91-.08,4.48,1.88,4.26,6l-6.33,43.38-.63,3.62-5.64-.87,1.19-45.61C263.62,391.56,266.33,389.26,269.24,389.19Z"/><path class="cls-11" d="M287.61,397.18c-.16,3.75,2.36.07,5.44.22l1.4.07c3.08.15,5-2.83,5.19-6.58l3.67-38.24c.16-3.75-.05-10.48-3.13-10.64l-4.95,3.45c-3.08-.15-10.82,2.52-11,6.27Z"/><polygon class="cls-9" points="291.54 445.62 295.75 445.87 296.21 439.35 292 439.08 291.54 445.62"/><path class="cls-12" d="M296.21,439.35l-.16,2.26a1.73,1.73,0,0,0-.79-.1c-1.1.12-2.07.22-2.48,1.34a3.47,3.47,0,0,0,.28,2c.08.29.17.58.24.88l-1.76-.11.46-6.53Z"/><path class="cls-11" d="M306,449.12c.06-.07,0-.26.09-.77.05-.73-4.16-1.9-6.77-2.55a4.49,4.49,0,0,1-1.86-.94c-.3-.39-.09-.35-.33-.24-.77.35-1.34-.1-1.94-.11l-.29,5.45c3.61.07,9.17.11,10.35.12.73,0,.74-.33.77-.77A.62.62,0,0,0,306,449.12Z"/><path class="cls-43" d="M306,449.12c.06-.07,0-.26.09-.77.05-.73-4.16-1.9-6.77-2.55a4.49,4.49,0,0,1-1.86-.94c-.3-.39-.09-.35-.33-.24-.77.35-1.21-.1-1.94-.11l-.29,5.45c3.61.07,9.17.11,10.35.12.73,0,.74-.33.77-.77A.62.62,0,0,0,306,449.12Z"/><path class="cls-11" d="M294.93,449l-.05,1c3.62.07,9.17.11,10.35.12.73,0,.74-.33.77-.77a1,1,0,0,0,0-.17Z"/><path class="cls-44" d="M294.93,449l-.05.95c3.61.07,9.17.11,10.35.12.73,0,.74-.33.77-.77a.25.25,0,0,0,0-.12Z"/><path class="cls-11" d="M302.58,449.25c0,.44-.05.79-.67.78-1.48,0-11.05,0-11.52-.15a.78.78,0,0,1-.56-.79h0a.76.76,0,0,1,.67-.78l11.51.15a.67.67,0,0,1,.57.79Z"/><path class="cls-11" d="M289.85,448.77c0,.28,3.91.25,12.57.34.2,0,.16,0,.22-.82s-3.54-1.88-5.75-2.51a3.56,3.56,0,0,1-1.58-.93c-.26-.39-.08-.35-.29-.24-4.06,2.18-3.6-.67-4.26-.35S289.92,448.29,289.85,448.77Z"/><path class="cls-11" d="M295.49,446.62c0,.05-.09.06-.15,0h0a.14.14,0,0,1-.07-.16l.56-1.32a.1.1,0,0,1,.15,0h0a.16.16,0,0,1,.07.17Z"/><path class="cls-11" d="M296.74,446.8c0,.05-.08.06-.14,0h0c-.06,0-.1-.08-.09-.13l.36-1.09s.08-.05.14,0h0a.11.11,0,0,1,.08.13Z"/><path class="cls-11" d="M297.8,446.92s-.07,0-.13,0h0c-.06,0-.11-.07-.1-.09l.2-.69s.07,0,.13,0h0c.07,0,.11.07.1.1Z"/><path class="cls-11" d="M296,445.31a.1.1,0,0,1-.12-.1h0a.17.17,0,0,1,.14-.14l1.72-.22c.07,0,.12,0,.11.1h0a.15.15,0,0,1-.13.13Z"/><path class="cls-11" d="M297,445.79a.09.09,0,0,1-.11-.1h0a.14.14,0,0,1,.11-.13l1.47-.24a.1.1,0,0,1,.11.1h0a.14.14,0,0,1-.11.14Z"/><path class="cls-11" d="M297.88,446.3a.09.09,0,0,1-.12-.08h0a.13.13,0,0,1,.09-.15l1.42-.44a.1.1,0,0,1,.12.09h0a.13.13,0,0,1-.08.14Z"/><path class="cls-11" d="M293.09,388.28l1.4-.12c3.08-.29,4.92,1.55,5.06,5.66l-2.86,43.7-.35,3.66-6.06-.46-2.8-45.55C287.34,391.06,290,388.57,293.09,388.28Z"/><path class="cls-29" d="M284.26,355.91c.3.15,2.11,15.43,2.21,18.18.18,4.5,4.43,59.59,5.33,66.75l-1.52-.12-2.67-43.54a9.44,9.44,0,0,1-.13-2l-2-25.81Z"/><path class="cls-29" d="M284.26,355.91l1.28,13.29-9.15,22.07c-.43,1.45-1,3.49-1.74,5.34,0-1.77,3.45-12.15,7.28-22.17C285.23,365.82,282.8,356.86,284.26,355.91Z"/><path class="cls-29" d="M263.41,395.67a8.87,8.87,0,0,1,.21-1.51h0l8.33-43.7c1.06-3.58,8.79-4.59,11.56-3.82l5.37-2.32a3.57,3.57,0,0,1,2.1,2.35,12.24,12.24,0,0,1,4.23-.84l1.39.06c2.13.09,5.41,4.89,6.66,7.29l-.21,1.2s-10.26.37-16.48-2.63c0,0-.31.9-6.73,2.53-4.35,1.11-11.77,36.11-12.4,39.59-2.38,13.24-2.57,36-2.66,47.61l-2.56-.2Z"/><polygon class="cls-28" points="278.34 286.53 277.23 304.05 286.34 318.87 294.4 304.05 294.4 286.02 278.34 286.53"/><path class="cls-9" d="M305.67,358.32c-5.22,4.62,2.42,8.57,5.29,5.17,1.06-1.26,2.87-11.37,2.87-11.37l-5.22-2S307.32,356.86,305.67,358.32Z"/><path class="cls-9" d="M212.81,323.3c5.95-1.41,7,5.08,2.92,5.5-1.5.15-11.3-2.88-11.3-2.88l-.06-4.14S210.93,323.74,212.81,323.3Z"/><path class="cls-9" d="M217.41,322.26c-6.4-2.74-6.72,5.85-2.42,7,1.59.42,11.5-2.25,11.5-2.25l-.41-5.57S219.43,323.13,217.41,322.26Z"/><path class="cls-11" d="M224.78,321l31.92-5a9.48,9.48,0,0,0,3.17,6.3c.89,5-8.38,5.73-11.56,5.41l-23.6,1.66c-1.22-.13-1.75-4.63-1.22-7.22C223.85,320.44,224.78,321,224.78,321Z"/><path class="cls-11" d="M254.16,311.93l6.8-10.41c1.81-3.26,5.12-13.08,8.77-14.37l11.66,16.58c-5.2-.76-11.57,5.54-13.27,8.59l-7.69,10.61a27.53,27.53,0,0,1-1.7,2.43l-9.83-5.9A87.63,87.63,0,0,0,254.16,311.93Z"/><path class="cls-29" d="M261.86,302.57c-4.15,6.33-8.1,14.13-10.3,15.19-2.36,1.14-12.57,1.06-12.66,1l11.91-1.86L261,301.52c.41-.94,1.9-4.08,2.84-6.15,3.32-7.3,5.58-8,5.58-8C271.69,287.24,263.26,300.45,261.86,302.57Z"/><path class="cls-11" d="M293.68,285.72h0a22.76,22.76,0,0,1,1.84,8.71c0,2-9.18,24.44-9.18,24.44-1.24.23-2.67-10.55-3.6-11.15-1.93-1.24-.75-6.78-2.36-8.39-3.3-3.28-1.37-9.26-2.31-13.61h0c-9,.54-9.42,2-10.51,3.42-1.4,1.86-1.77,2.72-1.77,5.62l3.31,47.95c.21,2.61.54,9.73.54,9.73.48,1,15.35-1.4,18.2-4.11,0,0,1.69,4.11,15.23,5.54,1.74.19.95-9,1.23-10.65L308,294.06C306.36,289,298.7,285.72,293.68,285.72Z"/><path class="cls-29" d="M268.2,288.43c1.17-1.19,1.16-2,9.87-2.71a15.22,15.22,0,0,1,.22,1.55c-.77.55-2.35.08-3.31.21-3.1.39-6.4.09-6.19,3.75.27,5-.1,16.1.38,21,.94,9.64,2.6,29,2.67,31.08.05,1.88.1,4.38,1.71,5.65,2.87,2.27,12.46-.58,13.6-.13-4,2.49-17.06,4.54-17.51,3.6,0,0-.33-7.12-.54-9.73l-3.31-47.95C265.79,291.48,266.56,290.09,268.2,288.43Z"/><path class="cls-11" d="M304.92,289.6a22.73,22.73,0,0,1,9.93,13.59l2.13,12c.83,3.67,1,9,1.51,12.14L309,332.79c1-3.52.17-3.19-.13-4.35l-6-27.05c-.3-1.56-.6-3.13-1-4.76Z"/><path class="cls-11" d="M307.36,353,309,327.15c4.08,1,5.36-5.19,5.36-5.19,5.53.61,4.19,9.42,3.12,12.28l-3.71,21.58c-.42,1.09-2.78-.09-5.42-1.33C306.56,353.66,307.36,353,307.36,353Z"/><path class="cls-29" d="M313.66,303.91c.61,5.32,4.29,22.31,4.47,22.3-.07-2.78-1.15-11-1.15-11l-2.13-12a13.44,13.44,0,0,0-.75-2.27C311.94,300.1,313.37,301.38,313.66,303.91Z"/><path class="cls-9" d="M287.83,348.22a.87.87,0,0,1,0,.11A.63.63,0,0,1,287.83,348.22Z"/><path class="cls-11" d="M274.55,287c1.28-2.18,3.7-2.57,3.74-2.38,1.68,6.94,8.12,33.32,8.38,33.16,0,0,6.27-26.46,7.89-33.16a6.24,6.24,0,0,1,3.19,1.86s2,2.54,1.43,3.36a11,11,0,0,1-2.4,1.24s1.88,2.3,1.65,2.89c-.82,2.08-5.87,9.43-11.21,24.94.14,7.75.52,27.24.61,29.28-.16-2.24-2-28.78-2-29-3.42-13.82-10.44-21.86-11.36-24.22-.23-.59,1.65-2.89,1.65-2.89a11.09,11.09,0,0,1-2.41-1.24C273.12,290.08,274.55,287,274.55,287Z"/><path class="cls-29" d="M274.55,287c1.28-2.18,3.7-2.57,3.74-2.38,1.68,6.94,8.12,33.32,8.38,33.16,0,0,6.27-26.46,7.89-33.16a6.24,6.24,0,0,1,3.19,1.86s2,2.54,1.43,3.36a11,11,0,0,1-2.4,1.24s1.88,2.3,1.65,2.89c-.82,2.08-5.87,9.43-11.21,24.94.14,7.75.52,27.24.61,29.28-.16-2.24-2-28.78-2-29-3.42-13.82-10.44-21.86-11.36-24.22-.23-.59,1.65-2.89,1.65-2.89a11.09,11.09,0,0,1-2.41-1.24C273.12,290.08,274.55,287,274.55,287Z"/><path class="cls-9" d="M293,287.28c-.19,2.24-3,3.17-6.72,2.83l-.31.61c-3.69-.33-6.53-2.41-6.34-4.65l2-16.89c.19-2.23,2.73-3.82,6.42-3.49h0c3.69.33,5.33,2.32,5.15,4.57Z"/><path class="cls-12" d="M280.56,278l12.77-1.34-.05,2.75c-2.94,2.1-7.58,4.73-9,4.89s-4.34-1.75-4.32-2.49Z"/><polygon class="cls-45" points="294.14 286.39 288.03 293.72 285.95 289.47 294.17 283.17 294.14 286.39"/><polygon class="cls-28" points="294.14 286.39 288.03 292.96 285.83 289.26 294.17 282.41 294.14 286.39"/><polygon class="cls-45" points="278.66 286.39 284.77 294.39 286.12 289.28 278.63 283.17 278.66 286.39"/><polygon class="cls-28" points="278.66 286.39 284.77 292.96 286.1 289.03 278.63 282.41 278.66 286.39"/><path class="cls-9" d="M276.8,263.93l-1.45-.63c-1.19-.52-2.15.17-2.27,1.54-.2,2.34,1.74,2.48,1.69,4.32l3-.43Z"/><path class="cls-9" d="M293.57,267.73l1.53-.37c1.28-.3,2.09.54,2,1.91-.21,2.35-2.06,2.06-2.53,4.1l-2.76-1.08Z"/><path class="cls-9" d="M275.28,274.94c1.07,3.22,3.83,7.78,6.08,8.25,2.53.53,10.1-3.2,11.25-5.41,3.18-6.09,5.19-22.49-6.88-22.93-3.23-.12-8.73-1.93-10.44,4C274.2,262.6,274.09,271.31,275.28,274.94Z"/><path class="cls-12" d="M275.28,274.94c-1.19-3.63-1.08-12.34,0-16.1,1.71-5.92,7.21-4.11,10.44-4a10.67,10.67,0,0,1,5.4,1.52l-.34.22a22.9,22.9,0,0,0-5.21,5.37c-.11.16-.56-.47-.61-.31a13.12,13.12,0,0,1-3.58,1.6c-1.12.17-5.38-1.08-5.83.76a18.85,18.85,0,0,0-.07,9.95c2.16,7.2,5.87,9.23,5.87,9.23C279.11,282.72,276.35,278.16,275.28,274.94Z"/><path class="cls-11" d="M284,251.28c-.88-1,.54,4.6-2,2.9-1.12-.76-3.79,0-5.2,2.6l11.24,2.8c.7,0,1.41,0,2.11,0a3.67,3.67,0,0,1,3.34,3.29c.93-.5,1.87-1,2.78-1.56C295.77,251.34,287,254.83,284,251.28Z"/><path class="cls-11" d="M277.27,251.62c-.38,1.26.72,2.93,2.46,3.75s4.73-.83,5.11-2.09-1.59-.16-3.34-1.82C280.05,250.09,277.65,250.36,277.27,251.62Z"/><path class="cls-11" d="M277.67,262c-2.73-.17-3.12,5.38-3.12,5.38-.77-.1-.95-4.21-.06-7.47C275,257.81,279.65,262.07,277.67,262Z"/><path class="cls-29" d="M277.67,262c-2.73-.17-3.12,5.38-3.12,5.38-.77-.1-.95-4.21-.06-7.47C275,257.81,279.65,262.07,277.67,262Z"/><path class="cls-11" d="M274.55,257.41c-.31,1.84.22,3.89,3.16,5,5.29,2.08,6.52-1.47,13.85.31.63.15-.48,1.7,1.53,3.43s1.43,5.24,1.43,5.24c1.07,0,1.45-7.83,1.58-8.64.65-4-3.65-8.36-9.6-9.84S275.2,253.46,274.55,257.41Z"/><path class="cls-29" d="M294.53,269.17a79.16,79.16,0,0,0,.57-8c-.19-2.52-.37-4.27-2.71-5.61-1.14-.65-4.51-1-5.78-1.18a6.47,6.47,0,0,1-3.69-2,4.94,4.94,0,0,0,.69.17c0-.88,0-1.62.35-1.19,3,3.55,11.81.06,12.31,10.06l-.14.09a4.77,4.77,0,0,1,0,1.36c-.13.81-.51,8.65-1.58,8.64A17.35,17.35,0,0,0,294.53,269.17Z"/><path class="cls-29" d="M288.86,332.58a.73.73,0,0,1-1.46,0,.73.73,0,0,1,1.46,0Z"/><path class="cls-29" d="M285,322.71a.74.74,0,1,1-.73-.69A.71.71,0,0,1,285,322.71Z"/><path class="cls-29" d="M286.41,341.33a.73.73,0,1,1-.73-.67A.71.71,0,0,1,286.41,341.33Z"/></g></g></g></svg>