<svg xmlns="http://www.w3.org/2000/svg" xmlns:xlink="http://www.w3.org/1999/xlink" viewBox="0 0 576.71 567.98"><defs><style>.cls-1{fill:#c9ebf9;}.cls-2{fill:#fbddea;}.cls-3{fill:#fac5ca;}.cls-4{fill:#7fc08d;}.cls-5{fill:#a1d5ae;}.cls-6{fill:#99d2a7;}.cls-7{fill:#5191cd;}.cls-8{fill:#2e64b0;}.cls-9{fill:url(#linear-gradient);}.cls-10{fill:#fffaf6;}.cls-11{fill:#387abe;}.cls-12{fill:#fff;}.cls-13{fill:#203b71;}.cls-14{fill:url(#linear-gradient-2);}.cls-15{fill:url(#linear-gradient-3);}.cls-16{fill:url(#linear-gradient-4);}.cls-17{fill:url(#linear-gradient-5);}.cls-18{fill:url(#linear-gradient-6);}.cls-19{fill:url(#linear-gradient-7);}.cls-20{fill:url(#linear-gradient-8);}.cls-21{fill:#203c70;}.cls-22{fill:#1d4798;}.cls-23{fill:#fcbe3c;}.cls-24{fill:#2e65ae;}.cls-25{fill:#fac5c9;}.cls-26{fill:#f27b21;}.cls-27{fill:#024f4b;}.cls-28{fill:#00848a;}.cls-29{fill:#f79a20;}.cls-30{fill:#e5eef9;}.cls-31{isolation:isolate;}.cls-32{fill:#1e3463;}.cls-33{fill:#acacac;}.cls-34{fill:#bdbdbd;}.cls-35{fill:#243e88;}.cls-36{fill:#355baa;}.cls-37{fill:#1858a8;}.cls-38{fill:#266eb7;}.cls-39{fill:#d4cabd;}.cls-40{fill:#c8d4de;}.cls-41{fill:#dfb99c;}.cls-42{fill:url(#linear-gradient-9);}.cls-43{fill:#cececd;}.cls-44{fill:#00a6cf;}.cls-45{fill:#ef4f8d;}.cls-46{fill:#03858a;}.cls-47{fill:#f2759c;}.cls-48{fill:#fac6ca;}.cls-49{fill:#4161ad;}.cls-50{fill:#61a4d9;}.cls-51{fill:#ee2e66;}.cls-52{fill:#2f2f84;}.cls-53{fill:#3d5ba8;}</style><linearGradient id="linear-gradient" x1="423.45" y1="323.81" x2="729.39" y2="323.81" gradientUnits="userSpaceOnUse"><stop offset="0.06" stop-color="#d6ecfa"/><stop offset="0.9" stop-color="#fff"/></linearGradient><linearGradient id="linear-gradient-2" x1="360.69" y1="232.64" x2="460.89" y2="232.64" xlink:href="#linear-gradient"/><linearGradient id="linear-gradient-3" x1="387.89" y1="273.86" x2="553.36" y2="273.86" xlink:href="#linear-gradient"/><linearGradient id="linear-gradient-4" x1="387.89" y1="287.61" x2="553.36" y2="287.61" xlink:href="#linear-gradient"/><linearGradient id="linear-gradient-5" x1="387.89" y1="301.35" x2="553.36" y2="301.35" xlink:href="#linear-gradient"/><linearGradient id="linear-gradient-6" x1="387.89" y1="315.09" x2="553.36" y2="315.09" xlink:href="#linear-gradient"/><linearGradient id="linear-gradient-7" x1="387.89" y1="328.83" x2="553.36" y2="328.83" xlink:href="#linear-gradient"/><linearGradient id="linear-gradient-8" x1="387.89" y1="342.57" x2="553.36" y2="342.57" xlink:href="#linear-gradient"/><linearGradient id="linear-gradient-9" x1="865.22" y1="560.49" x2="870.08" y2="560.49" gradientTransform="matrix(-1, 0, 0, 1, 1148.82, 0)" gradientUnits="userSpaceOnUse"><stop offset="0.15" stop-color="#f6892e"/><stop offset="0.9" stop-color="#f16361"/></linearGradient></defs><g id="Layer_2" data-name="Layer 2"><g id="Layer_1-2" data-name="Layer 1"><path class="cls-1" d="M49.07,239.07c0,18.65-12.78,33.77-22.69,33.77S0,259.83,0,241.18,16.48,205.3,26.38,205.3,49.07,220.42,49.07,239.07Z"/><path class="cls-1" d="M576.71,303.57c0,11.68-8,21.15-14.21,21.15S546,316.57,546,304.89s10.32-22.47,16.53-22.47S576.71,291.89,576.71,303.57Z"/><path class="cls-1" d="M426.71,45.54c6.69,21.37-21.24,25.76-37.26,30.78S355,68.08,348.33,46.72s15.86-23.16,31.89-28.17S420,24.18,426.71,45.54Z"/><path class="cls-1" d="M92.62,510.29c-11.38-5.17-32.07-1-38.27-62.06S6.77,391.35,7.8,354.11s29-70.34,53.79-84.82-54.43-93.1,8.47-129.81S144.26,134.31,180,118s53.3-60.76,117.43-56.63,52.91,65.12,52.91,65.12,32.28-58.24,119.83-11.33c169.55,90.86,40.11,228,40.11,228l-61.84-24.26S551.86,280.67,557,362.38,514.62,502,449.46,505.12,92.62,510.29,92.62,510.29Z"/><ellipse class="cls-2" cx="298.84" cy="514.08" rx="190.6" ry="33.48"/><path class="cls-3" d="M435.33,430.08l5-.43s4.83-37.14,9.8-48.12c0,0,55.12,2.86,66.54-36.11,0,0-41.46-15.85-66.21,30.17,0,0,4.94-35.88,16.8-69.82,0,0,40.92,9.57,49.32-25.34,0,0-24.34-13.11-44.93,7.66,0,0,7.79-27.27,15.47-41,0,0,31,6.63,42.34-23.05,0,0-22.74-4.38-38.32,10.88l13.17-28.56S531.08,188.43,526,158.9c0,0-29.48,10.55-24.93,43.93l-12.95,31.08s-2.59-30.17-24.67-31.65c0,0-3.19,36.57,19.36,43.5,0,0-12.75,28.53-17.27,49.61,0,0,3.85-38.75-28.9-46.49,0,0-11.79,29.72,25.21,52.71A553.82,553.82,0,0,0,446.5,373.4s10.25-38-26.76-61c0,0-23.43,32,23.33,70.18A260.77,260.77,0,0,0,435.33,430.08Z"/><path class="cls-4" d="M214.73,351.49l-4.83-.8s-1.67-37.13-5.58-48.37c0,0-53.48-1.27-61.38-40.7,0,0,41.34-12.61,61.54,34.8,0,0-1.88-35.89-10.6-70.38,0,0-40.3,6.43-45.6-28.76,0,0,24.57-11.16,42.79,10.93,0,0-5.33-27.57-11.64-41.75,0,0-30.45,4.25-39.05-26,0,0,22.33-2.64,36.15,13.63l-10.42-29.26S141.72,105.12,149,76.26c0,0,27.64,12.64,20.54,45.35l10,31.74s4.94-29.68,26.39-29.5c0,0,.13,36.45-22.21,41.63,0,0,10,29.19,12.68,50.39,0,0-.59-38.64,31.67-43.86,0,0,9,30.3-28.61,50.3a559.12,559.12,0,0,1,9,72.24s-6.82-38.41,30.79-58.41c0,0,20,33.41-28.21,67.73A265.05,265.05,0,0,1,214.73,351.49Z"/><path class="cls-5" d="M284.8,290.39l-4.36-2.56S292.53,251.32,292.9,239c0,0-51.24-21-44.31-62,0,0,44.62,3.07,46.64,56.37,0,0,11.44-35.39,15.75-72,0,0-41.34-8.67-33.47-44.65,0,0,27.88-1.71,37.34,26.37,0,0,5-28.62,4.16-44.66,0,0-31-7.14-28.15-39.54,0,0,22.56,5.69,29.9,26.53l.74-32.14S305.21,25.22,322.91,0c0,0,22,22.43,3.11,51.43l-2,34.38S339.7,58.94,360.37,67c0,0-13.33,35.29-36.84,32,0,0-1.11,31.93-6.36,53.41,0,0,13.7-37.58,46.82-30.71,0,0-2.49,32.62-46.24,38.07A579.62,579.62,0,0,1,299.82,233s7.58-39.65,51.34-45.1c0,0,7,39.7-52.29,55.07A273.85,273.85,0,0,1,284.8,290.39Z"/><path class="cls-3" d="M143.58,448.62l3.36-2.6s-13.57-28.45-15.08-38.48c0,0,40.25-23.18,30.51-55.94,0,0-36.55,7.76-33,51.59,0,0-12.92-27.61-20.06-57,0,0,33.29-11.95,23.26-40.46,0,0-23.19,1.87-28.24,26,0,0-7-22.83-7.82-36.05,0,0,24.91-9.48,19.38-35.65,0,0-18.08,7.31-22.1,25.21L90,259s10.7-24.89-6.38-43.44c0,0-16,20.94,2.47,42.44l5.06,27.88s-15.62-20.13-31.9-11.08c0,0,14.47,27.3,33.57,21.89,0,0,4,26,10.48,42.94,0,0-15-29.13-41.68-19.63,0,0,5.26,26.39,41.92,25.72a465.1,465.1,0,0,0,22,57.76s-10.15-31.55-46.81-30.87c0,0-1.93,33.3,48.57,38.91A220.27,220.27,0,0,0,143.58,448.62Z"/><path class="cls-4" d="M120.73,410.45c-3.12-15.32-3.1-78.63,38.17-109.6-1.29-1.12-3.45-1.64-27.62,15.1C104.81,334.27,92,352.28,86.76,379.51s9.76,86.4,9.76,86.4,2.08,15.8,8.55,22.33C110.52,463,123,421.6,120.73,410.45Z"/><path class="cls-5" d="M124.63,481.35c22.32-28.61,11-45,18.42-85.46s-2.64-47.51,5.67-62.29,12.73-30.66,10.54-32.44l-.36-.31c-41.27,31-41.29,94.28-38.17,109.6,2.26,11.15-10.21,52.5-15.66,77.79C109.39,492.61,115.68,492.82,124.63,481.35Z"/><path class="cls-4" d="M495.93,403.54c2.83-30.66-10.25-66.72-4.3-89.18C478,317,472.35,345.3,476.09,358.71c3.83,13.7,17.27,43.74,5.89,69.85s-20.18,57.47,6.95,79.7a14,14,0,0,0,5.27,2.28c2.42-6.7,5.24-16.17,6-25.52C501.63,467.84,492.59,439.83,495.93,403.54Z"/><path class="cls-6" d="M520.38,484.09c5.49-18-4.73-63-8.34-72.23s-4.94-37,.2-59.22-5.44-39.92-19.7-38.44c-.31,0-.61.1-.91.16-5.95,22.46,7.13,58.52,4.3,89.18-3.34,36.29,5.7,64.3,4.28,81.48-.77,9.35-3.59,18.82-6,25.52,0,0,6.78.85,8.9.18C510.67,508.34,514.89,502.12,520.38,484.09Z"/><path class="cls-4" d="M59.05,399.89c-4.1,1.63-6.58,8.48-5.94,17s11.35,15.47,13.32,21.57-3.36,12.71-.9,21.21,10.82,6,15.47,15,0,18.44,3.92,30.66,18.46,17.5,22.85,16.24l.26-.1-9.15-21.67L88.8,478.39s-7.9-25.9-11-34.38c-4.11-11.25-18.22-44.29-18.22-44.29Z"/><path class="cls-4" d="M113.37,516.67a27.74,27.74,0,0,0,5.76-15.78,14.91,14.91,0,0,0-.23-3Z"/><path class="cls-5" d="M102.87,479.28c-5.52-6.59-.51-16.68-1.27-25.16s-19.29-15.76-22.53-20.84,2.46-8-.49-20.48c-2.84-11.93-14.43-14.35-19-13.08,0,0,14,33.79,18.13,45.25,3,8.36,7.74,27.81,11.53,36.64C92.44,489,108,521.51,108,521.51c1.35-.53,6.52-6,8.1-8.9,3.24-5.87,2.77-14.69,2.77-14.69C117.31,489.14,107.87,485.23,102.87,479.28Z"/><path class="cls-7" d="M338.36,484V443.48H259V484A47.88,47.88,0,0,1,233,491.59a3.27,3.27,0,0,0,3.27,3.27H361a3.26,3.26,0,0,0,3.27-3.27A47.87,47.87,0,0,1,338.36,484Z"/><path class="cls-7" d="M469.14,423.45V243.79a19.61,19.61,0,0,0-19.62-19.62H147.79a19.62,19.62,0,0,0-19.62,19.62V423.45Z"/><path class="cls-8" d="M469.14,423.45V426a19.62,19.62,0,0,1-19.62,19.62H147.79A19.63,19.63,0,0,1,128.17,426v-2.5Z"/><rect class="cls-9" x="145.69" y="241.69" width="305.94" height="164.25"/><path class="cls-10" d="M420.16,336.89l.12-.15-.12-.1Z"/><path class="cls-11" d="M387,370.47H197.49a18.29,18.29,0,0,0,18.23,18.24H405.27A18.29,18.29,0,0,1,387,370.47Z"/><path class="cls-12" d="M423.46,220.29a12,12,0,0,1,11.69-12H228.3a12,12,0,0,1,11.69,12v4.4l-14.3.49H216v-4.64l0,0v149.9H387a18.24,18.24,0,1,0,36.47,0V226.06l-.05-.88Zm-3.3,116.6v-.25l.12.1Z"/><path class="cls-13" d="M467.88,350.47l0,0a.21.21,0,0,0,0-.06Z"/><path class="cls-8" d="M435.48,208.27l-.33,0a12,12,0,0,0-11.69,12v4.89h.63s22.76.54,23.41.93v-5.82A12.06,12.06,0,0,0,435.48,208.27Z"/><path class="cls-10" d="M225.69,225.18l14.3-.49v-4.4a12,12,0,0,0-11.69-12l-.33,0-.34,0a12,12,0,0,0-11.68,12v4.89Z"/><path class="cls-14" d="M367.34,235.22h-95a2.59,2.59,0,0,1-2.58-2.58h0a2.59,2.59,0,0,1,2.58-2.58h95a2.59,2.59,0,0,1,2.58,2.58h0A2.59,2.59,0,0,1,367.34,235.22Z"/><path class="cls-15" d="M400.55,276.44H240.24a2.59,2.59,0,0,1-2.58-2.58h0a2.58,2.58,0,0,1,2.58-2.57H400.55a2.58,2.58,0,0,1,2.58,2.57h0A2.59,2.59,0,0,1,400.55,276.44Z"/><path class="cls-16" d="M400.55,290.18H240.24a2.58,2.58,0,0,1-2.58-2.57h0a2.59,2.59,0,0,1,2.58-2.58H400.55a2.59,2.59,0,0,1,2.58,2.58h0A2.58,2.58,0,0,1,400.55,290.18Z"/><path class="cls-17" d="M400.55,303.92H240.24a2.58,2.58,0,0,1-2.58-2.57h0a2.59,2.59,0,0,1,2.58-2.58H400.55a2.59,2.59,0,0,1,2.58,2.58h0A2.58,2.58,0,0,1,400.55,303.92Z"/><path class="cls-18" d="M400.55,317.66H240.24a2.58,2.58,0,0,1-2.58-2.57h0a2.59,2.59,0,0,1,2.58-2.58H400.55a2.59,2.59,0,0,1,2.58,2.58h0A2.58,2.58,0,0,1,400.55,317.66Z"/><path class="cls-19" d="M400.55,331.41H240.24a2.59,2.59,0,0,1-2.58-2.58h0a2.59,2.59,0,0,1,2.58-2.58H400.55a2.59,2.59,0,0,1,2.58,2.58h0A2.59,2.59,0,0,1,400.55,331.41Z"/><path class="cls-20" d="M400.55,345.15H240.24a2.59,2.59,0,0,1-2.58-2.58h0a2.59,2.59,0,0,1,2.58-2.58H400.55a2.59,2.59,0,0,1,2.58,2.58h0A2.59,2.59,0,0,1,400.55,345.15Z"/><path class="cls-21" d="M436.55,199.6a10.88,10.88,0,0,1-1.94-.61l-4.88-2.09c-.16-.06-.32-.14-.47-.21a10.57,10.57,0,0,1-1.32-.76l0,0,0,0-.3.7a4.75,4.75,0,0,0,8.73,3.73l.29-.7Z"/><path class="cls-22" d="M423.46,184.79a10.79,10.79,0,0,0,3.45,10.35,10.55,10.55,0,0,0,1,.75l0,0,0,0a10.57,10.57,0,0,0,1.32.76c.15.07.31.15.47.21l4.88,2.09a10.88,10.88,0,0,0,1.94.61l.06,0h0a10.76,10.76,0,0,0,12.06-6.29l2.3-5.39a31.69,31.69,0,0,1-11.56,1.81C432.53,189.62,426.57,187.63,423.46,184.79Z"/><path class="cls-21" d="M436.55,199.6h0l.06,0h0Z"/><path class="cls-21" d="M427.94,195.93h0l0,0,0,0Z"/><path class="cls-21" d="M429.73,196.9c-.16-.06-.32-.14-.47-.21.15.07.31.15.47.21Z"/><path class="cls-21" d="M436.55,199.6h0a10.88,10.88,0,0,1-1.94-.61h0A10.88,10.88,0,0,0,436.55,199.6Z"/><path class="cls-21" d="M429.26,196.69a10.57,10.57,0,0,1-1.32-.76h0A10.57,10.57,0,0,0,429.26,196.69Z"/><path class="cls-23" d="M458.42,159.59A60.75,60.75,0,0,0,489,129a32.15,32.15,0,1,0-54.78,30.14l-2.5,5.87A61.24,61.24,0,0,0,458.42,159.59Zm-4.89-30.38c-4.71,5.27-10.86,7.46-13.74,4.89s-1.38-8.92,3.33-14.2S454,112.44,456.86,115,458.24,123.94,453.53,129.21Z"/><path class="cls-12" d="M456.86,115c-2.88-2.57-9-.38-13.74,4.89s-6.2,11.63-3.33,14.2,9,.38,13.74-4.89S459.73,117.58,456.86,115Z"/><path class="cls-23" d="M489,129a61.07,61.07,0,0,1-57.28,36l-3.37,7.89-.14.33-.27.65L447,182l5.52,2.36.42-1,2.93-6.87,2.94-6.88A32.17,32.17,0,0,0,489,129Z"/><path class="cls-24" d="M452.5,184.35,447,182h0l-19.07-8.13-3.84,9a10.72,10.72,0,0,0-.61,1.95c3.11,2.84,9.07,4.83,16,5A31.69,31.69,0,0,0,451,187.94l1.53-3.59Z"/><path class="cls-23" d="M484.2,172.24s19.42,10.33,21.42,18.17C505.62,190.41,484.77,187.27,484.2,172.24Z"/><path class="cls-23" d="M502.14,127.3s21.91-10,37.35-3.78C539.49,123.52,525.67,135.7,502.14,127.3Z"/><path class="cls-23" d="M466.7,95.76s5.16-29.43,14.58-33.22C481.28,62.54,483.11,87.15,466.7,95.76Z"/><path class="cls-23" d="M425.64,108.23s-1-16.87-25.55-27.74C400.09,80.49,392.38,98.56,425.64,108.23Z"/><path class="cls-23" d="M416.38,145.36s-30.88-9.47-37.36.91C379,146.27,399.23,155.71,416.38,145.36Z"/><path class="cls-25" d="M166.71,372.59s3.23-5.66,5.66-6.06,7.28-2.64,6.88.39-3.44,1-8.5,6.68C170.48,373.91,166.71,372.59,166.71,372.59Z"/><path class="cls-26" d="M135.46,359.17s8.27,1.26,12.72,11.31,8.91,17,10.89,14.48,7.42-14.17,7.42-14.17l6.26,1.81s-8.57,21.76-15.33,22.42-15.49-19-15.49-19Z"/><path class="cls-25" d="M135.57,336.75s1.57,15.1-1.58,15.89-2.84,1.91-2.84,1.91l.88,7.65s2.91,2.56,2.59,3.5-12.89,1.35-12.89,1.35l1.41-8.28-1.48-6.71-4-4.21s-2.11-2.76-2.11-4.34,2.36-8.65,2.36-8.65l6.77-3,5.82-1.26Z"/><path class="cls-27" d="M131.32,334a9.94,9.94,0,0,1-8.3,2.72s.11,19.49-1.5,24.69l-1.13-12.82-1.58-4.19a2.53,2.53,0,0,0-.08,3.51c.36.43,2.18.66,2.18.66l.75,3.51s-5.45-1.73-6.44-5.32a40.58,40.58,0,0,1-1.24-6.2s-6.42-.18-7.29-4.14c-.71-3.28,2.55-10.77,6.78-9.09a6.68,6.68,0,0,1,2.77,2.4s.67-.59,1.7-1.33c1.69-1.21,4.34-2.81,6.58-2.81,3.59,0,15.14,4.11,11.54,15.63C136.06,341.2,134.16,335,131.32,334Z"/><path class="cls-27" d="M110.62,322c2.89.54,8.08,8.48,8.08,8.48l-4.72,10s-1.14,1.87-2,8.54,5.25,10.5,2.43,15.95-12.12,6.46-9.49,11.31-1,11.1-2.83,11.51-.2-4.45-4.65-4.45-15.14-10.7-8.28-15.54,2.83-12.73,1.42-14.75S80.53,316.36,110.62,322Z"/><path class="cls-25" d="M147,471.06c0,1-.36,17.92-.53,22.7s3.44,22.08,3.44,22.08l-3.79-.66-5.78-44.12Z"/><path class="cls-25" d="M122.48,473.07s-9.84,37-10.54,45.08h3.33L130,472.7Z"/><path class="cls-27" d="M145.87,412.29s7.31,35.39,6.93,46.93-1.41,55-1.41,55l-8.46-2.31s-1.68-30.39-2.83-38.09-5.39-46.93-5.77-48.86,0-13.08,0-13.08Z"/><path class="cls-28" d="M122.4,410l19.24.77s-1.93,18.08-3.08,32.7-17.31,71.82-17.31,71.82l-10.39-.77s8.85-35.66,8.08-46.43c-.54-7.54-1.92-45.4.77-50.78S122.4,410,122.4,410Z"/><path class="cls-29" d="M137.68,360.59c-1.78-2-6.06-1.62-6.06-1.62s1.41,3-3.43,3.63c-.73.1-5.25-2.82-5.25-2.82l-10,5.41s9.56,26,9.23,28.84-3,23.23-3,23.23l13.68,1,5.6.17,8.9-.89s-5.27-18.07-5.27-22.84S146.16,370.28,137.68,360.59Z"/><path class="cls-27" d="M156.66,520a55.4,55.4,0,0,0-6.75-4.12c-.33-.17-3.79-.66-3.79-.66s-1.16,4.94-.33,5.6,11,3.3,11.7,1.81A2.35,2.35,0,0,0,156.66,520Z"/><path class="cls-27" d="M122.4,521.14a60.46,60.46,0,0,0-7.16-4.37c-.35-.17-4-.7-4-.7s-1.22,5.24-.35,5.94,11.7,3.5,12.4,1.92S122.4,521.14,122.4,521.14Z"/><path class="cls-25" d="M134.35,403.28s6.68-1.58,7.29,0a1.07,1.07,0,0,1-1,1.62s6.67,1.82,6.67,2.83-4.65,3-5.86,2.83-7.68-4.05-7.68-4.05Z"/><path class="cls-26" d="M117.49,365.23c-2.8-1.54-4.56,0-4.56,0s-5.27,30-2.47,32.63,24.06,11.37,24.06,11.37l1.65-6.92s-20.6-8.57-20.6-9.4,5.15-17.54,5.15-17.54S123.75,368.66,117.49,365.23Z"/><path class="cls-29" d="M117.49,329.08a5.82,5.82,0,0,0-5,4c-1.62,4,1.54,7.42,1.54,7.42s-.91-3.83-.33-5.8A12.51,12.51,0,0,1,117.49,329.08Z"/><rect class="cls-27" x="172.24" y="359.56" width="6.65" height="11.77" rx="1.73" transform="translate(351.14 730.88) rotate(180)"/><rect class="cls-30" x="173.11" y="360.42" width="4.89" height="8.77" rx="1.28" transform="translate(351.12 729.6) rotate(180)"/><path class="cls-30" d="M175.6,369.68h0a.67.67,0,0,0-.66.66h0a.67.67,0,0,0,.66.67h0a.67.67,0,0,0,.67-.67h0A.67.67,0,0,0,175.6,369.68Z"/><path class="cls-25" d="M179.43,364.48s-.72-.36-1.12-.18-1,2.18-.84,3.16,1.33,2,1.78,1.64S179.82,364.84,179.43,364.48Z"/><g class="cls-31"><path class="cls-32" d="M194.74,554c.27,2.69,5.58,4.56,6.11,4.63l8.27,1.36-3.47-4.85-5.59-.79-4.07-.17Z"/><polygon class="cls-33" points="205.65 555.13 209.12 559.98 215.65 560.89 212.18 556.04 205.65 555.13"/></g><polygon class="cls-34" points="205.63 544.98 205.65 555.13 212.18 556.04 212.16 545.89 205.63 544.98"/><path class="cls-35" d="M195.43,543.84a8.17,8.17,0,0,0-1.23,4.88c0,1.86.4,3.78.54,5.27l1.25.18,4.07.17,5.59.79,0-10.15-6.64-.79-2.31-.17Z"/><path class="cls-36" d="M200.85,540.18c-.53-.08-5.16,1.05-5.42,3.66l1.25.18,2.31.17,6.64.79,5.37-3.55Z"/><path class="cls-37" d="M267.36,563.43l-1,.2L212.18,556l3.47,4.85,49,6.85,1.69.24,1.57-.78a2.67,2.67,0,0,0,.17-.82c0-.06,0-.12,0-.18-.1-.89,1.36-1,.57-1.57A3.72,3.72,0,0,1,267.36,563.43Z"/><g class="cls-31"><path class="cls-38" d="M212.16,545.9l0,10.14,54.08,7.61,1.1-.22a1.19,1.19,0,0,1-.11-.42c0-.72.66-1.19,1.4-1.64a5.73,5.73,0,0,0,2-1.54,1.36,1.36,0,0,0,.18-.63,1.66,1.66,0,0,0-.19-.71,8.3,8.3,0,0,0-2-2c-.67-.57-1.25-1.15-1.25-1.8a1,1,0,0,1,.18-.58l-.77-.36-.56-.27Z"/><path class="cls-39" d="M267.57,554.13a1,1,0,0,0-.18.55c0,.68.58,1.26,1.25,1.83a8.3,8.3,0,0,1,2,2,1.65,1.65,0,0,1,.19.67v0a1.36,1.36,0,0,1-.18.63,5.73,5.73,0,0,1-2,1.54c-.74.45-1.39.92-1.4,1.58V563a1.19,1.19,0,0,0,.11.42l1.3-.26,2-.4,10-2a.47.47,0,0,0,0-.17.62.62,0,0,0,0-.21l-10-4.8-2-1Z"/><path class="cls-40" d="M267.3,550.07a3.32,3.32,0,0,1,.24,1.13s0,.1,0,.15c-.07.89,1.78,1.6,1.11,2a3.29,3.29,0,0,0-1.07.8l1.07.52,2,1,10,4.8c-.27-.76-1.88-1.18-1.89-1.88,0-.31.28-.58.66-.76l-11.32-7.09Z"/></g><path class="cls-41" d="M280.64,560.78l-10,2-2,.4-1.3.26a3.72,3.72,0,0,0,1.3,1.2c.79.54-.67.68-.57,1.57,0,.06,0,.12,0,.18a2.67,2.67,0,0,1-.17.82l.41-.2,10.78-3.78a.9.9,0,0,1-.38-.57C278.74,561.88,280.41,561.54,280.64,560.78Z"/><path class="cls-42" d="M278.74,562.57v.08a.9.9,0,0,0,.38.57L283.6,561l-4.2-3.25c-.38.18-.67.45-.66.76,0,.7,1.62,1.12,1.89,1.88a.57.57,0,0,1,0,.18v.14a.35.35,0,0,1,0,.06v.06h0v0l0,0,0,0,0,0h0l0,0v0h0v0h0v0h0l0,0v0l0,0h0v0h0l0,0h0l0,0h0l0,0h0l0,0h0l0,0h-.06l0,0,0,0,0,0,0,0h0l0,0h-.05l0,0h0l0,0h-.06l-.05,0,0,0h0l0,0,0,0,0,0,0,0h0l0,0,0,0,0,0h-.05l0,0,0,0,0,0h0l0,0h0l0,0h0v0h0l0,0,0,0,0,0h0v0l0,0,0,0,0,0,0,0,0,0v0l0,0v.09S278.74,562.56,278.74,562.57Z"/><polygon class="cls-43" points="211 541.43 205.63 544.98 212.16 545.89 217.53 542.35 211 541.43"/><path class="cls-44" d="M217.53,542.35l-5.37,3.55,54.08,7.6.56.27.77.36a3.29,3.29,0,0,1,1.07-.8c.67-.38-1.18-1.09-1.11-2,0-.05,0-.1,0-.15a3.32,3.32,0,0,0-.24-1.13l-1.21-.94-.66-.1Z"/><path class="cls-45" d="M185.74,154.51c1.66.28,9,2.92,9.7,8.6s2.78,23.56,2.78,23.56l7.34-20.51,5.41-.42s-2.91,23.84-9.57,29.94-9.56-4.3-9.56-4.3l-3.47-11.64Z"/><path class="cls-3" d="M209.86,166.57s0-2.77.83-3.18a27.75,27.75,0,0,0,5-4c.55-.84,2.63-6.38,1.25-6.1s-6,4.57-6,4.57,1-3.05.55-3.6-2.77,3.32-3.05,4-1,8.59-1,8.59Z"/><path class="cls-3" d="M185.56,126.38c.51,1.49,2.15,12.34.93,15s-2.14,5.27-6.71,5.73l5.57,12.68-3.3,12.34-12.48-4.21s-7.83-7-7.33-8.44,8.63-14.6,8.63-14.6l3.69-18.53,9.19-1.93L185.2,126Z"/><path class="cls-46" d="M175.93,131.67s-.93,12.74-3.58,17,.68,12.52-2.7,15c-2.22,1.65-8.52,10.54-10.76,12.17-3.88,2.83-9.06,1.43-13.41-6.7s-7.41-17.64,9.35-30.7c0,0-2.9-9.88,2.47-11.82s6.78-3.06,6.78-3.06,2.34-10,14.7-6.75,9.62,10.26,9.62,10.26,7.09,21.13-6.58,26.19l-2-6.15s6.12-1.53,6.71-5.73-.93-15-.93-15A10.68,10.68,0,0,1,175.93,131.67Z"/><path class="cls-47" d="M180.61,159.23c-2.75,1-6.15-5-9.2-8.79,0,0-9.52,5.29-8.29,4.76,0,0-.52,11.24-.8,23.29-.58,24.17-3.71,24.89-3.71,24.89s12.61,2,12.89,1.62,10.15-.65,10.42-1.76,5.35-18,7-20.59,4-13.86,2.22-17.19-5.41-11-5.41-11l-4.85-3.18S184.08,158,180.61,159.23Z"/><polygon class="cls-48" points="213.88 271.7 214.49 279.82 218.55 279.42 218.95 271.09 213.88 271.7"/><polygon class="cls-48" points="176.23 266.75 173.24 274.33 177.07 275.73 181.06 268.42 176.23 266.75"/><path class="cls-27" d="M212.66,277.59l6.7,1s6.7,4.46,9.34,4.67,5.28,2.64,2.64,3-19.49-.81-19.49-.81Z"/><path class="cls-27" d="M166.62,212.9s35.68,4.67,34.66,14.83,10.57,44.58,10.57,44.58l9.54-.2s-6.73-43.54-6.73-49.64S181.24,203,181.24,203Z"/><path class="cls-27" d="M172.65,273.12l6.91,2.64s.4,4.88,3,5.49,6.71,2.64,6.3,4.26-12.19-.81-12.19-.81L169,278.61Z"/><path class="cls-46" d="M159,203.14s-8.06,10.47.74,16.52c7.43,5.12,30.08,5.83,29.34,7.5-1.63,3.66-16.84,41.7-16.84,41.7l9.14,2.23s22.9-32.92,24.32-43.08-25.08-23.23-25.08-23.23Z"/><path class="cls-49" d="M199.24,196.85h37.53a1.67,1.67,0,0,0,1.66-1.66l3.57-26.7a1.67,1.67,0,0,0-1.67-1.66H202.81a1.67,1.67,0,0,0-1.67,1.66l-3.56,26.7A1.67,1.67,0,0,0,199.24,196.85Z"/><path class="cls-50" d="M201.89,196.85h37.53a1.67,1.67,0,0,0,1.66-1.66l3.57-26.7a1.67,1.67,0,0,0-1.67-1.66H205.46a1.67,1.67,0,0,0-1.67,1.66l-3.56,26.7A1.67,1.67,0,0,0,201.89,196.85Z"/><path class="cls-49" d="M240.49,198.94H173.82a1.3,1.3,0,0,1-1.3-1.3h0a1.3,1.3,0,0,1,1.3-1.3h66.67a1.3,1.3,0,0,1,1.3,1.3h0A1.3,1.3,0,0,1,240.49,198.94Z"/><path class="cls-11" d="M226.1,182.46a2.53,2.53,0,1,1-2.47-3A2.8,2.8,0,0,1,226.1,182.46Z"/><path class="cls-48" d="M185.27,200.07c.13,0,.39.1.61.14s.46.09.7.12a11.2,11.2,0,0,0,1.42.15,14.8,14.8,0,0,0,2.83-.07,10.77,10.77,0,0,0,2.62-.71,7.89,7.89,0,0,0,2.18-1.47l.12-.1a1.53,1.53,0,0,1,2.17.09,1.54,1.54,0,0,1,.07,2,11.11,11.11,0,0,1-2.85,2.58,14.45,14.45,0,0,1-3.46,1.5,18.92,18.92,0,0,1-3.62.62c-.6.05-1.21.07-1.82.06-.3,0-.61,0-.91,0a10,10,0,0,1-1-.09l-.15,0a2.45,2.45,0,0,1,.66-4.86A3.34,3.34,0,0,1,185.27,200.07Z"/><path class="cls-45" d="M167.8,154.1s5.49,2.37,1.23,16.58-9.38,20,.37,23.21,19,6.39,19,6.39l-.63,5s-32-1.89-32.84-12.45,4.49-32.49,5.51-34.72S162.27,154.1,167.8,154.1Z"/><path class="cls-25" d="M431.4,358.5a49.06,49.06,0,0,1,.13-5.85,56.54,56.54,0,0,1,2.48-7.17s-2.09-2.19-3,1.32l-.65,1.61s-5.22-7.32-6-6.88-4.44,3.51-3.14,7.9,7.31,11,7.31,11Z"/><path class="cls-47" d="M430.88,355.28l-4.44,2.78s-.4,47.39,11.35,39.35c.49-.33,14.36-15.71,14.36-15.71L457.83,353s-15.25,16-19.56,24.75C438.27,377.7,432.44,355.28,430.88,355.28Z"/><path class="cls-51" d="M479.09,355.33l7.55,5.12s-1.75,63.27-2.53,63.66-32.72-2.74-32.72-2.74-2.84-25.08.95-41.13,5.31-27.17,5.31-27.17l6.11.9-.67,1.7.8,3.6s3.5.1,4,.88,1.87.55,3,.68S479.09,355.33,479.09,355.33Z"/><path class="cls-47" d="M477.73,354c0,1.1,1.4,3-7.36,6.44,0,0-.26,8.77,3.47,6.26,3.91-2.63,6.82-5.93,6.43-9.22S477.73,354,477.73,354Z"/><path class="cls-47" d="M470,360.75s-7.45,4.32-7.45,1.61c0-1.1.6-7.3.6-7.3Z"/><path class="cls-25" d="M464.44,396.06s-3.91-7.46-4.6-7.13,1.27,4.5,1.27,4.5-8.61-1.1-8.61,1-2.54,5.7,6.17,7,10.17,1,10.17,1l-.09-4.83Z"/><path class="cls-52" d="M485.73,510.73l.28,4.49s3.73,7,3.46,8.37-8.57,1.08-8.57,1.08,1-6.66,2.35-8.68-1.11-6-1.11-6Z"/><path class="cls-52" d="M463.19,508.84l-.13,5.22,2.77,3.11.25,1.83s-18.38,1.7-19.51,1.27.25-2.54.25-2.54l13-3.67-.63-5.65Z"/><path class="cls-25" d="M470.28,360.65h0a6.66,6.66,0,0,0,6.61-5.77l1.57-11.54H462.38l1.26,11.37A6.67,6.67,0,0,0,470.28,360.65Z"/><circle class="cls-25" cx="470.42" cy="333.35" r="10.49" transform="translate(-103.92 383.91) rotate(-40.35)"/><path class="cls-25" d="M459.93,333.64c0,5.8,4.69,20.2,10.49,20.2s10.49-14.4,10.49-20.2-4.69-.79-10.49-.79S459.93,327.85,459.93,333.64Z"/><path class="cls-52" d="M476.88,347.4s-1.42,8.55-6.33,8.49S464,347.4,464,347.4Z"/><path class="cls-25" d="M459.93,333.64c0,5.8,4.69,20.2,10.49,20.2s10.49-14.4,10.49-20.2-4.69-.79-10.49-.79S459.93,327.85,459.93,333.64Z"/><path class="cls-52" d="M459.93,333.45v-.1a10.49,10.49,0,0,1,21,0v.29a20.3,20.3,0,0,1-.35,3.42c-1.53.05-3.27-1.4-4.2-3.6a7.71,7.71,0,0,1-.52-1.9,21.37,21.37,0,0,1-5.92.79,22.33,22.33,0,0,1-5.09-.57,7.72,7.72,0,0,1-.47,1.59c-.9,2.15-2.59,3.58-4.09,3.6a20.27,20.27,0,0,1-.34-3.33Z"/><path class="cls-52" d="M478.09,345.72h0a2.87,2.87,0,0,0,2.68-3.11l.14-9.79-2.82.8Z"/><path class="cls-25" d="M477.33,343.41a1.22,1.22,0,0,0,1.55-1.27c.07-1.64,0-2.69.74-2.42s.48,4.27-1,5.25-1.36-.17-1.58,1.32-.78.21-.78.21l-1-2.43Z"/><path class="cls-52" d="M462.75,345.72h0a2.88,2.88,0,0,1-2.68-3.11l-.14-9.79,2.82.8Z"/><path class="cls-25" d="M463.51,343.41a1.22,1.22,0,0,1-1.55-1.27c-.07-1.64,0-2.69-.73-2.42s-.49,4.27,1,5.25,1.36-.17,1.59,1.32.77.21.77.21l1-2.43Z"/><path class="cls-52" d="M479.5,339.9h-.77v-5.72a6,6,0,0,1-5.23,2.51,7.86,7.86,0,0,1-6.21-2.93c-.91-.84-1.61-2-2.86-2s-1.61,1.12-1.61,2.31v6.21H462s-1.18-7.68-1.11-9.7,1.46-8,7.05-8,5.23,2.72,9.7,3.63S479.5,339.9,479.5,339.9Z"/><path class="cls-52" d="M478.59,343v11s0,5.65-7.46,5.65-8.52-3.84-8.52-5.24V342.9a1.57,1.57,0,0,1,1,1.47c0,1.11.21,2.79,1.25,2.79s.91-3.7,3-3.7h5.58a2.23,2.23,0,0,1,1.53,2.09,1.9,1.9,0,0,0,1.61,1.89s1.19.14,1.19-3.07C477.76,344.37,477.69,343.25,478.59,343Z"/><path class="cls-49" d="M483.89,424l5.31,86.59L479.67,512s-9.52-59.54-10.7-60.56a6.19,6.19,0,0,1-1.36-1.43l-1.17,10.22L465,509.33l-8,.11s-4-33.53-6-44.53c-1.06-5.94-3-35.71.06-43.94C451.48,420.11,483.89,424,483.89,424Z"/><path class="cls-47" d="M486.41,359.51c-2.77-2.1-3.46,23.36-5.1,41.23l-15.6-6.54-2.74,9s20.11,18.39,25.39,10.49S505.78,374.21,486.41,359.51Z"/><polygon class="cls-25" points="294.67 527.64 295.43 535.91 301.01 535.42 299.41 525.31 294.67 527.64"/><path class="cls-13" d="M313.09,424.52s-5.67,9.17-5.66,25.92-2.33,32.24-7.48,46.83c-7.47,21.2-10.09,31.23-8.91,32,1.95,1.21,10.93,0,10.93,0s20.08-38.44,22.17-44.13,9.55-32.56,9.55-32.56l-6.61-23.07Z"/><path class="cls-53" d="M300.2,533.56s11.7-2.47,11.39,5.58l-18.14.17.21-5.08Z"/><polygon class="cls-25" points="345.66 528.73 345.37 538.58 341.5 540.49 341.19 529.05 345.66 528.73"/><path class="cls-49" d="M345.28,426a164.54,164.54,0,0,1,7.88,42.19c1.21,23.52-5.12,63.11-5.12,63.11h-9.52s-1.21-34.28,0-44.13c0,0-10.85-19.9-12.94-27.53S319.22,427,319.22,427Z"/><path class="cls-53" d="M360.48,541.83s.81-8.3-15.55-6.53l-4.91.84v6.58Z"/><path class="cls-25" d="M333.22,353.72s4.9-11.2-6.07-14l-12.46,7.51,1.61,24.83,14.35-6.78.32-8.22Z"/><path class="cls-25" d="M303.43,404.92s-10.07,53-10.91,48.36c-1.4-7.74-3.6,3.38-5.33,3.66s-3.47-6.72-1.16-8.12,6.28-7.46,6.28-7.46Z"/><path class="cls-25" d="M363.8,348.5s8-4.71,8-7.79,2.55-28.71,1.4-29.27.53-6.94-1.78-8.06-5.36-1.9-6.52-5.26-2.59-.28-1.15,3.64-1.43,6.73,3.19,9.24c0,0,8.1,26.6,3.49,31.64Z"/><path class="cls-29" d="M374.2,310.72c-.29-.84-7.12,2.31-7.12,2.31s0,20.83-3.38,27C361,344.89,343,357.17,334,361.76c0,0-10.17-.21-18.81,4-.71.35-.63,3.87-1.33,4.24-5.54,2.9-10.39,6.28-11.7,9.66-3.45,9-11.92,63.78-11.92,63.78l7.74,4L310.51,392s.15,34.42-.71,36.38,32.21,7.54,40,4.17c0,0-2.2-41.58-2.5-53.06,0,0,26-25.13,28.55-37.36C377.59,333.82,374.2,310.72,374.2,310.72Z"/><path class="cls-13" d="M326.62,360.13c-1.42,1.11-8.54,2.75-10.48.49s-7.9-8.55-7.58-10.16.65-11.77,5.49-14.35a30,30,0,0,1,5.31-2.32c.25-.08,2.25-.76,2.53-.84,4-1.1,7.85-1.21,8.6,1.71,1.29,5,2.74,6.13.16,6.77s-3.22,1.94-2.25,4,.64,2.74.64,2.74-1.93-3.06-2.9-.48.64,6.13,2.74,4.35C328.88,352.07,328.07,359,326.62,360.13Z"/></g></g></svg>